<svg width="20" height="20" viewBox="0 0 20 20" fill="none" xmlns="http://www.w3.org/2000/svg">
<path d="M11.8077 9.89945L9.13224 8.3694C9.0164 8.30382 8.91366 8.38688 8.91366 8.52022V11.506C8.91366 11.6372 9.01858 11.7246 9.13224 11.659L11.788 10.2011C11.8159 10.188 11.8398 10.1676 11.8572 10.1421C11.8746 10.1166 11.8848 10.0869 11.8868 10.0561C11.8888 10.0253 11.8825 9.9945 11.8686 9.96696C11.8547 9.93941 11.8336 9.9161 11.8077 9.89945ZM11.8077 9.89945L9.13224 8.3694C9.0164 8.30382 8.91366 8.38688 8.91366 8.52022V11.506C8.91366 11.6372 9.01858 11.7246 9.13224 11.659L11.788 10.2011C11.8159 10.188 11.8398 10.1676 11.8572 10.1421C11.8746 10.1166 11.8848 10.0869 11.8868 10.0561C11.8888 10.0253 11.8825 9.9945 11.8686 9.96696C11.8547 9.93941 11.8336 9.9161 11.8077 9.89945ZM11.8077 9.89945L9.13224 8.3694C9.0164 8.30382 8.91366 8.38688 8.91366 8.52022V11.506C8.91366 11.6372 9.01858 11.7246 9.13224 11.659L11.788 10.2011C11.8159 10.188 11.8398 10.1676 11.8572 10.1421C11.8746 10.1166 11.8848 10.0869 11.8868 10.0561C11.8888 10.0253 11.8825 9.9945 11.8686 9.96696C11.8547 9.93941 11.8336 9.9161 11.8077 9.89945ZM11.8077 9.89945L9.13224 8.3694C9.0164 8.30382 8.91366 8.38688 8.91366 8.52022V11.506C8.91366 11.6372 9.01858 11.7246 9.13224 11.659L11.788 10.2011C11.8159 10.188 11.8398 10.1676 11.8572 10.1421C11.8746 10.1166 11.8848 10.0869 11.8868 10.0561C11.8888 10.0253 11.8825 9.9945 11.8686 9.96696C11.8547 9.93941 11.8336 9.9161 11.8077 9.89945ZM11.8077 9.89945L9.13224 8.3694C9.0164 8.30382 8.91366 8.38688 8.91366 8.52022V11.506C8.91366 11.6372 9.01858 11.7246 9.13224 11.659L11.788 10.2011C11.8159 10.188 11.8398 10.1676 11.8572 10.1421C11.8746 10.1166 11.8848 10.0869 11.8868 10.0561C11.8888 10.0253 11.8825 9.9945 11.8686 9.96696C11.8547 9.93941 11.8336 9.9161 11.8077 9.89945ZM11.8077 9.89945L9.13224 8.3694C9.0164 8.30382 8.91366 8.38688 8.91366 8.52022V11.506C8.91366 11.6372 9.01858 11.7246 9.13224 11.659L11.788 10.2011C11.8159 10.188 11.8398 10.1676 11.8572 10.1421C11.8746 10.1166 11.8848 10.0869 11.8868 10.0561C11.8888 10.0253 11.8825 9.9945 11.8686 9.96696C11.8547 9.93941 11.8336 9.9161 11.8077 9.89945ZM11.8077 9.89945L9.13224 8.3694C9.0164 8.30382 8.91366 8.38688 8.91366 8.52022V11.506C8.91366 11.6372 9.01858 11.7246 9.13224 11.659L11.788 10.2011C11.8159 10.188 11.8398 10.1676 11.8572 10.1421C11.8746 10.1166 11.8848 10.0869 11.8868 10.0561C11.8888 10.0253 11.8825 9.9945 11.8686 9.96696C11.8547 9.93941 11.8336 9.9161 11.8077 9.89945ZM11.8077 9.89945L9.13224 8.3694C9.0164 8.30382 8.91366 8.38688 8.91366 8.52022V11.506C8.91366 11.6372 9.01858 11.7246 9.13224 11.659L11.788 10.2011C11.8159 10.188 11.8398 10.1676 11.8572 10.1421C11.8746 10.1166 11.8848 10.0869 11.8868 10.0561C11.8888 10.0253 11.8825 9.9945 11.8686 9.96696C11.8547 9.93941 11.8336 9.9161 11.8077 9.89945ZM11.8077 9.89945L9.13224 8.3694C9.0164 8.30382 8.91366 8.38688 8.91366 8.52022V11.506C8.91366 11.6372 9.01858 11.7246 9.13224 11.659L11.788 10.2011C11.8159 10.188 11.8398 10.1676 11.8572 10.1421C11.8746 10.1166 11.8848 10.0869 11.8868 10.0561C11.8888 10.0253 11.8825 9.9945 11.8686 9.96696C11.8547 9.93941 11.8336 9.9161 11.8077 9.89945ZM11.8077 9.89945L9.13224 8.3694C9.0164 8.30382 8.91366 8.38688 8.91366 8.52022V11.506C8.91366 11.6372 9.01858 11.7246 9.13224 11.659L11.788 10.2011C11.8159 10.188 11.8398 10.1676 11.8572 10.1421C11.8746 10.1166 11.8848 10.0869 11.8868 10.0561C11.8888 10.0253 11.8825 9.9945 11.8686 9.96696C11.8547 9.93941 11.8336 9.9161 11.8077 9.89945ZM11.8077 9.89945L9.13224 8.3694C9.0164 8.30382 8.91366 8.38688 8.91366 8.52022V11.506C8.91366 11.6372 9.01858 11.7246 9.13224 11.659L11.788 10.2011C11.8159 10.188 11.8398 10.1676 11.8572 10.1421C11.8746 10.1166 11.8848 10.0869 11.8868 10.0561C11.8888 10.0253 11.8825 9.9945 11.8686 9.96696C11.8547 9.93941 11.8336 9.9161 11.8077 9.89945ZM11.8077 9.89945L9.13224 8.3694C9.0164 8.30382 8.91366 8.38688 8.91366 8.52022V11.506C8.91366 11.6372 9.01858 11.7246 9.13224 11.659L11.788 10.2011C11.8159 10.188 11.8398 10.1676 11.8572 10.1421C11.8746 10.1166 11.8848 10.0869 11.8868 10.0561C11.8888 10.0253 11.8825 9.9945 11.8686 9.96696C11.8547 9.93941 11.8336 9.9161 11.8077 9.89945ZM11.8077 9.89945L9.13224 8.3694C9.0164 8.30382 8.91366 8.38688 8.91366 8.52022V11.506C8.91366 11.6372 9.01858 11.7246 9.13224 11.659L11.788 10.2011C11.8159 10.188 11.8398 10.1676 11.8572 10.1421C11.8746 10.1166 11.8848 10.0869 11.8868 10.0561C11.8888 10.0253 11.8825 9.9945 11.8686 9.96696C11.8547 9.93941 11.8336 9.9161 11.8077 9.89945ZM11.8077 9.89945L9.13224 8.3694C9.0164 8.30382 8.91366 8.38688 8.91366 8.52022V11.506C8.91366 11.6372 9.01858 11.7246 9.13224 11.659L11.788 10.2011C11.8159 10.188 11.8398 10.1676 11.8572 10.1421C11.8746 10.1166 11.8848 10.0869 11.8868 10.0561C11.8888 10.0253 11.8825 9.9945 11.8686 9.96696C11.8547 9.93941 11.8336 9.9161 11.8077 9.89945ZM11.8077 9.89945L9.13224 8.3694C9.0164 8.30382 8.91366 8.38688 8.91366 8.52022V11.506C8.91366 11.6372 9.01858 11.7246 9.13224 11.659L11.788 10.2011C11.8159 10.188 11.8398 10.1676 11.8572 10.1421C11.8746 10.1166 11.8848 10.0869 11.8868 10.0561C11.8888 10.0253 11.8825 9.9945 11.8686 9.96696C11.8547 9.93941 11.8336 9.9161 11.8077 9.89945ZM11.8077 9.89945L9.13224 8.3694C9.0164 8.30382 8.91366 8.38688 8.91366 8.52022V11.506C8.91366 11.6372 9.01858 11.7246 9.13224 11.659L11.788 10.2011C11.8159 10.188 11.8398 10.1676 11.8572 10.1421C11.8746 10.1166 11.8848 10.0869 11.8868 10.0561C11.8888 10.0253 11.8825 9.9945 11.8686 9.96696C11.8547 9.93941 11.8336 9.9161 11.8077 9.89945ZM11.8077 9.89945L9.13224 8.3694C9.0164 8.30382 8.91366 8.38688 8.91366 8.52022V11.506C8.91366 11.6372 9.01858 11.7246 9.13224 11.659L11.788 10.2011C11.8159 10.188 11.8398 10.1676 11.8572 10.1421C11.8746 10.1166 11.8848 10.0869 11.8868 10.0561C11.8888 10.0253 11.8825 9.9945 11.8686 9.96696C11.8547 9.93941 11.8336 9.9161 11.8077 9.89945ZM11.8077 9.89945L9.13224 8.3694C9.0164 8.30382 8.91366 8.38688 8.91366 8.52022V11.506C8.91366 11.6372 9.01858 11.7246 9.13224 11.659L11.788 10.2011C11.8159 10.188 11.8398 10.1676 11.8572 10.1421C11.8746 10.1166 11.8848 10.0869 11.8868 10.0561C11.8888 10.0253 11.8825 9.9945 11.8686 9.96696C11.8547 9.93941 11.8336 9.9161 11.8077 9.89945ZM11.8077 9.89945L9.13224 8.3694C9.0164 8.30382 8.91366 8.38688 8.91366 8.52022V11.506C8.91366 11.6372 9.01858 11.7246 9.13224 11.659L11.788 10.2011C11.8159 10.188 11.8398 10.1676 11.8572 10.1421C11.8746 10.1166 11.8848 10.0869 11.8868 10.0561C11.8888 10.0253 11.8825 9.9945 11.8686 9.96696C11.8547 9.93941 11.8336 9.9161 11.8077 9.89945ZM11.8077 9.89945L9.13224 8.3694C9.0164 8.30382 8.91366 8.38688 8.91366 8.52022V11.506C8.91366 11.6372 9.01858 11.7246 9.13224 11.659L11.788 10.2011C11.8159 10.188 11.8398 10.1676 11.8572 10.1421C11.8746 10.1166 11.8848 10.0869 11.8868 10.0561C11.8888 10.0253 11.8825 9.9945 11.8686 9.96696C11.8547 9.93941 11.8336 9.9161 11.8077 9.89945ZM10 0C8.02219 0 6.08879 0.586489 4.4443 1.6853C2.79981 2.78412 1.51809 4.3459 0.761209 6.17316C0.00433281 8.00042 -0.1937 10.0111 0.192152 11.9509C0.578004 13.8907 1.53041 15.6725 2.92894 17.0711C4.32746 18.4696 6.10929 19.422 8.0491 19.8078C9.98891 20.1937 11.9996 19.9957 13.8268 19.2388C15.6541 18.4819 17.2159 17.2002 18.3147 15.5557C19.4135 13.9112 20 11.9778 20 10C19.9971 7.34872 18.9426 4.80686 17.0679 2.93213C15.1931 1.05739 12.6513 0.00289283 10 0ZM15.9869 11.6044C15.9869 12.2851 15.7166 12.9381 15.2354 13.4197C14.7542 13.9012 14.1015 14.1721 13.4208 14.1727H6.75847C6.07769 14.1721 5.425 13.9012 4.94382 13.4197C4.46264 12.9381 4.19235 12.2851 4.19235 11.6044V8.48306C4.19351 7.80324 4.46438 7.15166 4.9455 6.67136C5.42661 6.19107 6.07865 5.92131 6.75847 5.92131H13.4208C14.1006 5.92131 14.7526 6.19107 15.2337 6.67136C15.7149 7.15166 15.9857 7.80324 15.9869 8.48306V11.6044ZM11.8077 9.89945L9.13224 8.3694C9.0164 8.30382 8.91366 8.38688 8.91366 8.52022V11.506C8.91366 11.6372 9.01858 11.7246 9.13224 11.659L11.788 10.2011C11.8159 10.188 11.8398 10.1676 11.8572 10.1421C11.8746 10.1166 11.8848 10.0869 11.8868 10.0561C11.8888 10.0253 11.8825 9.9945 11.8686 9.96696C11.8547 9.93941 11.8336 9.9161 11.8077 9.89945ZM11.8077 9.89945L9.13224 8.3694C9.0164 8.30382 8.91366 8.38688 8.91366 8.52022V11.506C8.91366 11.6372 9.01858 11.7246 9.13224 11.659L11.788 10.2011C11.8159 10.188 11.8398 10.1676 11.8572 10.1421C11.8746 10.1166 11.8848 10.0869 11.8868 10.0561C11.8888 10.0253 11.8825 9.9945 11.8686 9.96696C11.8547 9.93941 11.8336 9.9161 11.8077 9.89945ZM11.8077 9.89945L9.13224 8.3694C9.0164 8.30382 8.91366 8.38688 8.91366 8.52022V11.506C8.91366 11.6372 9.01858 11.7246 9.13224 11.659L11.788 10.2011C11.8159 10.188 11.8398 10.1676 11.8572 10.1421C11.8746 10.1166 11.8848 10.0869 11.8868 10.0561C11.8888 10.0253 11.8825 9.9945 11.8686 9.96696C11.8547 9.93941 11.8336 9.9161 11.8077 9.89945ZM11.8077 9.89945L9.13224 8.3694C9.0164 8.30382 8.91366 8.38688 8.91366 8.52022V11.506C8.91366 11.6372 9.01858 11.7246 9.13224 11.659L11.788 10.2011C11.8159 10.188 11.8398 10.1676 11.8572 10.1421C11.8746 10.1166 11.8848 10.0869 11.8868 10.0561C11.8888 10.0253 11.8825 9.9945 11.8686 9.96696C11.8547 9.93941 11.8336 9.9161 11.8077 9.89945ZM11.8077 9.89945L9.13224 8.3694C9.0164 8.30382 8.91366 8.38688 8.91366 8.52022V11.506C8.91366 11.6372 9.01858 11.7246 9.13224 11.659L11.788 10.2011C11.8159 10.188 11.8398 10.1676 11.8572 10.1421C11.8746 10.1166 11.8848 10.0869 11.8868 10.0561C11.8888 10.0253 11.8825 9.9945 11.8686 9.96696C11.8547 9.93941 11.8336 9.9161 11.8077 9.89945ZM11.8077 9.89945L9.13224 8.3694C9.0164 8.30382 8.91366 8.38688 8.91366 8.52022V11.506C8.91366 11.6372 9.01858 11.7246 9.13224 11.659L11.788 10.2011C11.8159 10.188 11.8398 10.1676 11.8572 10.1421C11.8746 10.1166 11.8848 10.0869 11.8868 10.0561C11.8888 10.0253 11.8825 9.9945 11.8686 9.96696C11.8547 9.93941 11.8336 9.9161 11.8077 9.89945ZM11.8077 9.89945L9.13224 8.3694C9.0164 8.30382 8.91366 8.38688 8.91366 8.52022V11.506C8.91366 11.6372 9.01858 11.7246 9.13224 11.659L11.788 10.2011C11.8159 10.188 11.8398 10.1676 11.8572 10.1421C11.8746 10.1166 11.8848 10.0869 11.8868 10.0561C11.8888 10.0253 11.8825 9.9945 11.8686 9.96696C11.8547 9.93941 11.8336 9.9161 11.8077 9.89945ZM11.8077 9.89945L9.13224 8.3694C9.0164 8.30382 8.91366 8.38688 8.91366 8.52022V11.506C8.91366 11.6372 9.01858 11.7246 9.13224 11.659L11.788 10.2011C11.8159 10.188 11.8398 10.1676 11.8572 10.1421C11.8746 10.1166 11.8848 10.0869 11.8868 10.0561C11.8888 10.0253 11.8825 9.9945 11.8686 9.96696C11.8547 9.93941 11.8336 9.9161 11.8077 9.89945ZM11.8077 9.89945L9.13224 8.3694C9.0164 8.30382 8.91366 8.38688 8.91366 8.52022V11.506C8.91366 11.6372 9.01858 11.7246 9.13224 11.659L11.788 10.2011C11.8159 10.188 11.8398 10.1676 11.8572 10.1421C11.8746 10.1166 11.8848 10.0869 11.8868 10.0561C11.8888 10.0253 11.8825 9.9945 11.8686 9.96696C11.8547 9.93941 11.8336 9.9161 11.8077 9.89945ZM11.8077 9.89945L9.13224 8.3694C9.0164 8.30382 8.91366 8.38688 8.91366 8.52022V11.506C8.91366 11.6372 9.01858 11.7246 9.13224 11.659L11.788 10.2011C11.8159 10.188 11.8398 10.1676 11.8572 10.1421C11.8746 10.1166 11.8848 10.0869 11.8868 10.0561C11.8888 10.0253 11.8825 9.9945 11.8686 9.96696C11.8547 9.93941 11.8336 9.9161 11.8077 9.89945ZM11.8077 9.89945L9.13224 8.3694C9.0164 8.30382 8.91366 8.38688 8.91366 8.52022V11.506C8.91366 11.6372 9.01858 11.7246 9.13224 11.659L11.788 10.2011C11.8159 10.188 11.8398 10.1676 11.8572 10.1421C11.8746 10.1166 11.8848 10.0869 11.8868 10.0561C11.8888 10.0253 11.8825 9.9945 11.8686 9.96696C11.8547 9.93941 11.8336 9.9161 11.8077 9.89945ZM11.8077 9.89945L9.13224 8.3694C9.0164 8.30382 8.91366 8.38688 8.91366 8.52022V11.506C8.91366 11.6372 9.01858 11.7246 9.13224 11.659L11.788 10.2011C11.8159 10.188 11.8398 10.1676 11.8572 10.1421C11.8746 10.1166 11.8848 10.0869 11.8868 10.0561C11.8888 10.0253 11.8825 9.9945 11.8686 9.96696C11.8547 9.93941 11.8336 9.9161 11.8077 9.89945ZM11.8077 9.89945L9.13224 8.3694C9.0164 8.30382 8.91366 8.38688 8.91366 8.52022V11.506C8.91366 11.6372 9.01858 11.7246 9.13224 11.659L11.788 10.2011C11.8159 10.188 11.8398 10.1676 11.8572 10.1421C11.8746 10.1166 11.8848 10.0869 11.8868 10.0561C11.8888 10.0253 11.8825 9.9945 11.8686 9.96696C11.8547 9.93941 11.8336 9.9161 11.8077 9.89945ZM11.8077 9.89945L9.13224 8.3694C9.0164 8.30382 8.91366 8.38688 8.91366 8.52022V11.506C8.91366 11.6372 9.01858 11.7246 9.13224 11.659L11.788 10.2011C11.8159 10.188 11.8398 10.1676 11.8572 10.1421C11.8746 10.1166 11.8848 10.0869 11.8868 10.0561C11.8888 10.0253 11.8825 9.9945 11.8686 9.96696C11.8547 9.93941 11.8336 9.9161 11.8077 9.89945ZM11.8077 9.89945L9.13224 8.3694C9.0164 8.30382 8.91366 8.38688 8.91366 8.52022V11.506C8.91366 11.6372 9.01858 11.7246 9.13224 11.659L11.788 10.2011C11.8159 10.188 11.8398 10.1676 11.8572 10.1421C11.8746 10.1166 11.8848 10.0869 11.8868 10.0561C11.8888 10.0253 11.8825 9.9945 11.8686 9.96696C11.8547 9.93941 11.8336 9.9161 11.8077 9.89945ZM11.8077 9.89945L9.13224 8.3694C9.0164 8.30382 8.91366 8.38688 8.91366 8.52022V11.506C8.91366 11.6372 9.01858 11.7246 9.13224 11.659L11.788 10.2011C11.8159 10.188 11.8398 10.1676 11.8572 10.1421C11.8746 10.1166 11.8848 10.0869 11.8868 10.0561C11.8888 10.0253 11.8825 9.9945 11.8686 9.96696C11.8547 9.93941 11.8336 9.9161 11.8077 9.89945ZM11.8077 9.89945L9.13224 8.3694C9.0164 8.30382 8.91366 8.38688 8.91366 8.52022V11.506C8.91366 11.6372 9.01858 11.7246 9.13224 11.659L11.788 10.2011C11.8159 10.188 11.8398 10.1676 11.8572 10.1421C11.8746 10.1166 11.8848 10.0869 11.8868 10.0561C11.8888 10.0253 11.8825 9.9945 11.8686 9.96696C11.8547 9.93941 11.8336 9.9161 11.8077 9.89945ZM11.8077 9.89945L9.13224 8.3694C9.0164 8.30382 8.91366 8.38688 8.91366 8.52022V11.506C8.91366 11.6372 9.01858 11.7246 9.13224 11.659L11.788 10.2011C11.8159 10.188 11.8398 10.1676 11.8572 10.1421C11.8746 10.1166 11.8848 10.0869 11.8868 10.0561C11.8888 10.0253 11.8825 9.9945 11.8686 9.96696C11.8547 9.93941 11.8336 9.9161 11.8077 9.89945ZM11.8077 9.89945L9.13224 8.3694C9.0164 8.30382 8.91366 8.38688 8.91366 8.52022V11.506C8.91366 11.6372 9.01858 11.7246 9.13224 11.659L11.788 10.2011C11.8159 10.188 11.8398 10.1676 11.8572 10.1421C11.8746 10.1166 11.8848 10.0869 11.8868 10.0561C11.8888 10.0253 11.8825 9.9945 11.8686 9.96696C11.8547 9.93941 11.8336 9.9161 11.8077 9.89945Z" fill="#BABABA"/>
</svg>
