<svg width="48" height="48" viewBox="0 0 48 48" fill="none" xmlns="http://www.w3.org/2000/svg">
<circle cx="24" cy="24" r="23.5" fill="#F3F7F9" stroke="#DDDDDD"/>
<path d="M34.6654 36V33.3333C34.6654 31.9188 34.1035 30.5623 33.1033 29.5621C32.1031 28.5619 30.7465 28 29.332 28H18.6654C17.2509 28 15.8943 28.5619 14.8941 29.5621C13.8939 30.5623 13.332 31.9188 13.332 33.3333V36" stroke="black" stroke-opacity="0.24" stroke-width="2" stroke-linecap="round" stroke-linejoin="round"/>
<path d="M24.0013 22.6667C26.9468 22.6667 29.3346 20.2789 29.3346 17.3333C29.3346 14.3878 26.9468 12 24.0013 12C21.0558 12 18.668 14.3878 18.668 17.3333C18.668 20.2789 21.0558 22.6667 24.0013 22.6667Z" stroke="black" stroke-opacity="0.24" stroke-width="2" stroke-linecap="round" stroke-linejoin="round"/>
</svg>
