<svg width="120" height="120" viewBox="0 0 120 120" fill="none" xmlns="http://www.w3.org/2000/svg">
<path d="M45 110C47.7614 110 50 107.761 50 105C50 102.239 47.7614 100 45 100C42.2386 100 40 102.239 40 105C40 107.761 42.2386 110 45 110Z" stroke="#F89A43" stroke-opacity="0.24" stroke-width="4" stroke-linecap="round" stroke-linejoin="round"/>
<path d="M100 110C102.761 110 105 107.761 105 105C105 102.239 102.761 100 100 100C97.2386 100 95 102.239 95 105C95 107.761 97.2386 110 100 110Z" stroke="#F89A43" stroke-opacity="0.24" stroke-width="4" stroke-linecap="round" stroke-linejoin="round"/>
<path d="M5 5H25L38.4 71.95C38.8572 74.252 40.1095 76.3198 41.9377 77.7915C43.7659 79.2632 46.0535 80.045 48.4 80H97C99.3465 80.045 101.634 79.2632 103.462 77.7915C105.29 76.3198 106.543 74.252 107 71.95L115 30H30" stroke="#F89A43" stroke-opacity="0.24" stroke-width="4" stroke-linecap="round" stroke-linejoin="round"/>
</svg>
