<svg width="48" height="48" viewBox="0 0 48 48" fill="none" xmlns="http://www.w3.org/2000/svg">
<path d="M26.485 0.600111C28.9761 -0.675885 32.0283 0.142038 33.5478 2.49268C34.4995 3.96508 36.1011 4.88979 37.852 4.97778H37.8523C40.6472 5.11816 42.8822 7.3528 43.0222 10.148C43.1105 11.8989 44.0349 13.5008 45.5073 14.4525C47.858 15.9714 48.6759 19.0239 47.3999 21.5153C46.6004 23.0753 46.6004 24.9254 47.3999 26.4855C48.6759 28.9765 47.858 32.0287 45.5073 33.5483C44.0349 34.5 43.1105 36.1016 43.0222 37.8528C42.8818 40.6476 40.6472 42.8826 37.8523 43.023H37.852C36.1011 43.1106 34.4995 44.0354 33.5478 45.5081V45.5078C32.0286 47.8584 28.9761 48.6763 26.485 47.4003C24.925 46.6009 23.0749 46.6009 21.5149 47.4003C19.0238 48.6763 15.9713 47.8584 14.4521 45.5078V45.5081C13.5003 44.0354 11.8988 43.1106 10.1479 43.023C7.35269 42.8823 5.11772 40.6476 4.97767 37.8528C4.88968 36.1019 3.96498 34.5 2.49258 33.5483C0.141939 32.0291 -0.675991 28.9765 0.600334 26.4855C1.39948 24.9254 1.39948 23.0753 0.600334 21.5153C-0.675991 19.0239 0.141939 15.9717 2.49258 14.4525C3.96498 13.5008 4.88968 11.8989 4.97767 10.148C5.11805 7.3528 7.35269 5.11783 10.1479 4.97778C11.8988 4.88979 13.5003 3.96508 14.4521 2.49268C15.9713 0.142038 19.0238 -0.675885 21.5149 0.600111C23.0749 1.39959 24.9247 1.39959 26.485 0.600111Z" fill="url(#paint0_linear_557_7641)"/>
<path d="M23.9998 44.4716C12.7598 44.4716 3.61523 35.3271 3.61523 24.0873C3.61523 12.8469 12.7598 3.70239 23.9998 3.70239C35.2396 3.70239 44.3845 12.8469 44.3845 24.0873C44.3845 35.3271 35.2396 44.4716 23.9998 44.4716ZM23.9998 4.7154C13.318 4.7154 4.62792 13.4052 4.62792 24.0873C4.62792 34.7688 13.318 43.4589 23.9998 43.4589C34.6817 43.4589 43.3718 34.7688 43.3718 24.0873C43.3718 13.4052 34.6817 4.7154 23.9998 4.7154Z" fill="white"/>
<path d="M23.9998 42.4569C13.8868 42.4569 5.65869 34.2295 5.65869 24.1161C5.65869 14.003 13.8864 5.77563 23.9998 5.77563C34.1129 5.77563 42.3406 14.003 42.3406 24.1161C42.3406 34.2295 34.1125 42.4569 23.9998 42.4569ZM23.9998 6.11276C14.0726 6.11276 5.99648 14.1889 5.99648 24.1161C5.99648 34.0433 14.0726 42.1198 23.9998 42.1198C33.9267 42.1198 42.0031 34.0433 42.0031 24.1161C42.0031 14.1889 33.9267 6.11276 23.9998 6.11276Z" fill="white"/>
<defs>
<linearGradient id="paint0_linear_557_7641" x1="24" y1="0" x2="24" y2="48.0004" gradientUnits="userSpaceOnUse">
<stop stop-color="#FFBC00"/>
<stop offset="1" stop-color="#F89A43"/>
</linearGradient>
</defs>
</svg>
