<svg width="18" height="18" viewBox="0 0 18 18" fill="none" xmlns="http://www.w3.org/2000/svg">
<g clip-path="url(#clip0_401_8806)">
<path d="M11.8125 5.0625H6.1875C5.88913 5.0625 5.60298 5.18103 5.39201 5.39201C5.18103 5.60298 5.0625 5.88913 5.0625 6.1875V11.8125C5.0625 12.1109 5.18103 12.397 5.39201 12.608C5.60298 12.819 5.88913 12.9375 6.1875 12.9375H11.8125C12.1109 12.9375 12.397 12.819 12.608 12.608C12.819 12.397 12.9375 12.1109 12.9375 11.8125V6.1875C12.9375 5.88913 12.819 5.60298 12.608 5.39201C12.397 5.18103 12.1109 5.0625 11.8125 5.0625ZM9 11.25C8.55499 11.25 8.11998 11.118 7.74997 10.8708C7.37996 10.6236 7.09157 10.2722 6.92127 9.86104C6.75097 9.4499 6.70642 8.9975 6.79323 8.56105C6.88005 8.12459 7.09434 7.72368 7.40901 7.40901C7.72368 7.09434 8.12459 6.88005 8.56105 6.79323C8.9975 6.70642 9.4499 6.75097 9.86104 6.92127C10.2722 7.09157 10.6236 7.37996 10.8708 7.74997C11.118 8.11998 11.25 8.55499 11.25 9C11.25 9.59674 11.0129 10.169 10.591 10.591C10.169 11.0129 9.59674 11.25 9 11.25ZM11.5312 7.17188C11.3922 7.17188 11.2562 7.13064 11.1406 7.05338C11.025 6.97612 10.9349 6.8663 10.8816 6.73782C10.8284 6.60935 10.8145 6.46797 10.8416 6.33158C10.8688 6.19518 10.9357 6.0699 11.0341 5.97157C11.1324 5.87323 11.2577 5.80627 11.3941 5.77914C11.5305 5.75201 11.6718 5.76593 11.8003 5.81915C11.9288 5.87237 12.0386 5.96249 12.1159 6.07811C12.1931 6.19374 12.2344 6.32968 12.2344 6.46875C12.2344 6.65523 12.1603 6.83407 12.0284 6.96593C11.8966 7.0978 11.7177 7.17188 11.5312 7.17188Z" fill="#333333" fill-opacity="0.6"/>
<path d="M9 10.125C9.62132 10.125 10.125 9.62132 10.125 9C10.125 8.37868 9.62132 7.875 9 7.875C8.37868 7.875 7.875 8.37868 7.875 9C7.875 9.62132 8.37868 10.125 9 10.125Z" fill="#333333" fill-opacity="0.6"/>
<path d="M8.99997 0C7.21994 0 5.47988 0.527841 3.99984 1.51677C2.5198 2.50571 1.36625 3.91131 0.685058 5.55585C0.00386901 7.20038 -0.174361 9.00998 0.172906 10.7558C0.520173 12.5016 1.37734 14.1053 2.63601 15.364C3.89469 16.6226 5.49833 17.4798 7.24416 17.8271C8.98999 18.1743 10.7996 17.9961 12.4441 17.3149C14.0887 16.6337 15.4943 15.4802 16.4832 14.0001C17.4721 12.5201 18 10.78 18 9C18 6.61305 17.0518 4.32387 15.3639 2.63604C13.6761 0.948212 11.3869 0 8.99997 0V0ZM14.0625 11.8125C14.0625 12.4092 13.8254 12.9815 13.4035 13.4035C12.9815 13.8254 12.4092 14.0625 11.8125 14.0625H6.18747C5.59074 14.0625 5.01844 13.8254 4.59648 13.4035C4.17453 12.9815 3.93747 12.4092 3.93747 11.8125V6.1875C3.93747 5.59076 4.17453 5.01847 4.59648 4.59651C5.01844 4.17455 5.59074 3.9375 6.18747 3.9375H11.8125C12.4092 3.9375 12.9815 4.17455 13.4035 4.59651C13.8254 5.01847 14.0625 5.59076 14.0625 6.1875V11.8125Z" fill="#333333" fill-opacity="0.6"/>
</g>
<defs>
<clipPath id="clip0_401_8806">
<rect width="18" height="18" fill="white"/>
</clipPath>
</defs>
</svg>
