<svg width="32" height="32" viewBox="0 0 32 32" fill="none" xmlns="http://www.w3.org/2000/svg">
<g clip-path="url(#clip0_114_1861)" filter="url(#filter0_d_114_1861)">
<path d="M19.75 6.75H12.25C11.8522 6.75 11.4706 6.90804 11.1893 7.18934C10.908 7.47064 10.75 7.85218 10.75 8.25V15.75C10.75 16.1478 10.908 16.5294 11.1893 16.8107C11.4706 17.092 11.8522 17.25 12.25 17.25H19.75C20.1478 17.25 20.5294 17.092 20.8107 16.8107C21.092 16.5294 21.25 16.1478 21.25 15.75V8.25C21.25 7.85218 21.092 7.47064 20.8107 7.18934C20.5294 6.90804 20.1478 6.75 19.75 6.75ZM16 15C15.4067 15 14.8266 14.8241 14.3333 14.4944C13.8399 14.1648 13.4554 13.6962 13.2284 13.148C13.0013 12.5999 12.9419 11.9967 13.0576 11.4147C13.1734 10.8328 13.4591 10.2982 13.8787 9.87868C14.2982 9.45912 14.8328 9.1734 15.4147 9.05764C15.9967 8.94189 16.5999 9.0013 17.148 9.22836C17.6962 9.45542 18.1648 9.83994 18.4944 10.3333C18.8241 10.8266 19 11.4067 19 12C19 12.7956 18.6839 13.5587 18.1213 14.1213C17.5587 14.6839 16.7956 15 16 15ZM19.375 9.5625C19.1896 9.5625 19.0083 9.50752 18.8542 9.4045C18.7 9.30149 18.5798 9.15507 18.5089 8.98377C18.4379 8.81246 18.4193 8.62396 18.4555 8.4421C18.4917 8.26025 18.581 8.0932 18.7121 7.96209C18.8432 7.83098 19.0102 7.74169 19.1921 7.70551C19.374 7.66934 19.5625 7.68791 19.7338 7.75886C19.9051 7.82982 20.0515 7.94998 20.1545 8.10415C20.2575 8.25832 20.3125 8.43958 20.3125 8.625C20.3125 8.87364 20.2137 9.1121 20.0379 9.28791C19.8621 9.46373 19.6236 9.5625 19.375 9.5625Z" fill="#D1D8DB"/>
<path d="M16 13.5C16.8284 13.5 17.5 12.8284 17.5 12C17.5 11.1716 16.8284 10.5 16 10.5C15.1716 10.5 14.5 11.1716 14.5 12C14.5 12.8284 15.1716 13.5 16 13.5Z" fill="#D1D8DB"/>
<path d="M16 0C13.6266 0 11.3066 0.703788 9.33316 2.02236C7.35977 3.34094 5.8217 5.21509 4.91345 7.4078C4.0052 9.60051 3.76756 12.0133 4.23058 14.3411C4.6936 16.6689 5.83649 18.8071 7.51472 20.4853C9.19295 22.1635 11.3312 23.3064 13.6589 23.7694C15.9867 24.2324 18.3995 23.9948 20.5922 23.0866C22.7849 22.1783 24.6591 20.6402 25.9776 18.6668C27.2962 16.6935 28 14.3734 28 12C28 8.8174 26.7357 5.76516 24.4853 3.51472C22.2349 1.26428 19.1826 0 16 0V0ZM22.75 15.75C22.75 16.5456 22.4339 17.3087 21.8713 17.8713C21.3087 18.4339 20.5457 18.75 19.75 18.75H12.25C11.4544 18.75 10.6913 18.4339 10.1287 17.8713C9.56608 17.3087 9.25001 16.5456 9.25001 15.75V8.25C9.25001 7.45435 9.56608 6.69129 10.1287 6.12868C10.6913 5.56607 11.4544 5.25 12.25 5.25H19.75C20.5457 5.25 21.3087 5.56607 21.8713 6.12868C22.4339 6.69129 22.75 7.45435 22.75 8.25V15.75Z" fill="#D1D8DB"/>
</g>
<defs>
<filter id="filter0_d_114_1861" x="0" y="0" width="32" height="32" filterUnits="userSpaceOnUse" color-interpolation-filters="sRGB">
<feFlood flood-opacity="0" result="BackgroundImageFix"/>
<feColorMatrix in="SourceAlpha" type="matrix" values="0 0 0 0 0 0 0 0 0 0 0 0 0 0 0 0 0 0 127 0" result="hardAlpha"/>
<feOffset dy="4"/>
<feGaussianBlur stdDeviation="2"/>
<feComposite in2="hardAlpha" operator="out"/>
<feColorMatrix type="matrix" values="0 0 0 0 0 0 0 0 0 0 0 0 0 0 0 0 0 0 0.25 0"/>
<feBlend mode="normal" in2="BackgroundImageFix" result="effect1_dropShadow_114_1861"/>
<feBlend mode="normal" in="SourceGraphic" in2="effect1_dropShadow_114_1861" result="shape"/>
</filter>
<clipPath id="clip0_114_1861">
<rect width="24" height="24" fill="white" transform="translate(4)"/>
</clipPath>
</defs>
</svg>
