<svg width="18" height="18" viewBox="0 0 18 18" fill="none" xmlns="http://www.w3.org/2000/svg">
<path d="M8.99977 7.82013e-05C4.02953 7.82013e-05 0 4.02961 0 8.99984C0 13.9702 4.02938 17.9999 8.99977 17.9999C13.9703 17.9999 18 13.9702 18 8.99984C17.9998 4.02961 13.9703 7.82013e-05 8.99977 7.82013e-05ZM5.26528 4.05918C5.87748 4.05918 6.37405 4.51202 6.37405 5.07068C6.37405 5.62935 5.87748 6.08219 5.26528 6.08219C4.65278 6.08219 4.15652 5.62935 4.15652 5.07068C4.15652 4.51202 4.65278 4.05918 5.26528 4.05918ZM6.38245 12.7107H4.19168V6.9941H6.38245V12.7107ZM13.8268 12.7107H11.6255V9.56722C11.6255 9.20837 11.5589 8.9544 11.4261 8.80532C11.2932 8.65655 11.1067 8.58186 10.8665 8.58186C10.6009 8.58186 10.3854 8.68239 10.2204 8.88344C10.0553 9.0845 9.97299 9.44506 9.97299 9.96544V12.7107H7.78207V6.9941H9.82204V7.92516C10.1269 7.54499 10.4356 7.27312 10.7478 7.10973C11.06 6.94649 11.4401 6.86494 11.8888 6.86494C12.4954 6.86494 12.9699 7.04515 13.3127 7.40586C13.6552 7.76643 13.8267 8.32353 13.8267 9.07719V12.7107H13.8268Z" fill="#333333" fill-opacity="0.6"/>
</svg>
