<svg xmlns="http://www.w3.org/2000/svg" width="10.607" height="10.607" viewBox="0 0 10.607 10.607">
  <path id="Path_523" data-name="Path 523" d="M11.589-1.911a.866.866,0,0,0-.25-.607L8.714-5.143l2.625-2.625a.866.866,0,0,0,.25-.607.866.866,0,0,0-.25-.607L10.125-10.2a.866.866,0,0,0-.607-.25.866.866,0,0,0-.607.25L6.286-7.571,3.661-10.2a.866.866,0,0,0-.607-.25.866.866,0,0,0-.607.25L1.232-8.982a.866.866,0,0,0-.25.607.866.866,0,0,0,.25.607L3.857-5.143,1.232-2.518a.866.866,0,0,0-.25.607.866.866,0,0,0,.25.607L2.446-.089a.866.866,0,0,0,.607.25.866.866,0,0,0,.607-.25L6.286-2.714,8.911-.089a.866.866,0,0,0,.607.25.866.866,0,0,0,.607-.25L11.339-1.3A.866.866,0,0,0,11.589-1.911Z" transform="translate(-0.982 10.446)" fill="#737272"/>
</svg>
