<svg width="24" height="24" viewBox="0 0 24 24" fill="none" xmlns="http://www.w3.org/2000/svg">
<g clip-path="url(#clip0_213_6055)">
<path d="M11.9961 0C5.36834 0 -0.00390625 5.37225 -0.00390625 12C-0.00390625 18.627 5.36834 24 11.9961 24C18.6238 24 23.9961 18.627 23.9961 12C23.9961 5.37225 18.6231 0 11.9961 0Z" fill="#E02F2F"/>
<path d="M18.0018 9.34948C18.0018 12.843 16.0593 15.4537 13.1965 15.4537C12.2343 15.4537 11.3305 14.934 11.0208 14.343C11.0208 14.343 10.5033 16.395 10.3945 16.791C10.009 18.1905 8.8743 19.5907 8.78655 19.7055C8.72505 19.785 8.5893 19.7602 8.57505 19.6545C8.5503 19.476 8.26155 17.7105 8.60205 16.2697L9.7473 11.4165C9.7473 11.4165 9.46305 10.848 9.46305 10.0072C9.46305 8.68723 10.228 7.70173 11.1805 7.70173C11.9905 7.70173 12.3813 8.30923 12.3813 9.03823C12.3813 9.85273 11.863 11.0707 11.5953 12.1987C11.3718 13.1437 12.0693 13.9147 13.0008 13.9147C14.6883 13.9147 15.8245 11.7472 15.8245 9.17923C15.8245 7.22773 14.5105 5.76598 12.1188 5.76598C9.41805 5.76598 7.7343 7.78048 7.7343 10.0312C7.7343 10.8075 7.9638 11.355 8.3223 11.778C8.48655 11.973 8.5098 12.051 8.4498 12.2745C8.4063 12.4387 8.30955 12.8325 8.26755 12.9892C8.2083 13.215 8.0253 13.2952 7.82205 13.212C6.5778 12.7042 5.99805 11.3407 5.99805 9.80923C5.99805 7.27948 8.1318 4.24573 12.3633 4.24573C15.7645 4.24723 18.0018 6.70723 18.0018 9.34948Z" fill="white"/>
</g>
<defs>
<clipPath id="clip0_213_6055">
<rect width="24" height="24" fill="white"/>
</clipPath>
</defs>
</svg>
