<?xml version="1.0" standalone="no"?>
<!DOCTYPE svg PUBLIC "-//W3C//DTD SVG 1.1//EN" "http://www.w3.org/Graphics/SVG/1.1/DTD/svg11.dtd" >
<svg xmlns="http://www.w3.org/2000/svg" xmlns:xlink="http://www.w3.org/1999/xlink" version="1.1">
<metadata>
Created by FontForge 20201107 at Wed May  5 03:26:53 2021
 By Jimmy Wärting
Copyright 2014-2017 Indian Type Foundry (info@indiantypefoundry.com)
</metadata>
<defs>
<font id="SVN-Poppins" horiz-adv-x="640" >
  <font-face 
    font-family="SVN-Poppins"
    font-weight="400"
    font-stretch="normal"
    units-per-em="1000"
    panose-1="0 0 5 0 0 0 0 0 0 0"
    ascent="800"
    descent="-200"
    x-height="548"
    cap-height="697"
    bbox="-480 -572 1148 1065"
    underline-thickness="50"
    underline-position="-100"
    unicode-range="U+0020-FB02"
  />
<missing-glyph horiz-adv-x="500" 
d="M0 700h500v-700h-500v700zM420 650h-340l170 -255zM450 95v510l-170 -255zM420 50l-170 255l-170 -255h340zM50 95l170 255l-170 255v-510z" />
    <glyph glyph-name=".notdef" horiz-adv-x="500" 
d="M0 700h500v-700h-500v700zM420 650h-340l170 -255zM450 95v510l-170 -255zM420 50l-170 255l-170 -255h340zM50 95l170 255l-170 255v-510z" />
    <glyph glyph-name=".null" horiz-adv-x="0" 
 />
    <glyph glyph-name="nonmarkingreturn" horiz-adv-x="267" 
 />
    <glyph glyph-name="space" unicode=" " horiz-adv-x="267" 
 />
    <glyph glyph-name="exclam" unicode="!" horiz-adv-x="298" 
d="M97 697h98l-11 -500h-76zM210 56q0 -26 -17.5 -44t-42.5 -18q-26 0 -44 18t-18 44t18 44t44 18q25 0 42.5 -18t17.5 -44z" />
    <glyph glyph-name="quotedbl" unicode="&#x22;" horiz-adv-x="292" 
d="M35 796h86l-11 -199h-63zM170 796h86l-11 -199h-63z" />
    <glyph glyph-name="numbersign" unicode="#" horiz-adv-x="840" 
d="M542 460h-210l-38 -180h210zM487 200h-210l-43 -200h-87l43 200h-157v80h174l38 180h-155v80h172l43 200h87l-43 -200h210l43 200h87l-43 -200h139v-80h-156l-38 -180h138v-80h-155l-43 -200h-87z" />
    <glyph glyph-name="dollar" unicode="$" horiz-adv-x="622" 
d="M267 -6q-45 4 -82.5 18.5t-64.5 38.5t-42.5 57t-16.5 73h97q4 -39 30 -71.5t79 -40.5v250q-38 10 -75 21.5t-66.5 32.5t-47.5 54t-18 85q0 40 15 74.5t42 59.5t65 40.5t85 18.5v83h54v-83q87 -8 138 -55t59 -123h-97q-5 32 -29.5 61.5t-70.5 39.5v-244q37 -9 74 -21
t66 -33t47.5 -54t18.5 -85q0 -35 -13 -69t-39 -61.5t-64.5 -45.5t-89.5 -21v-81h-54v81zM436 186q0 27 -9 46t-24.5 32.5t-36.5 23t-45 16.5v-236q57 6 86 39.5t29 78.5zM153 517q0 -27 9 -46t24 -32.5t36 -23t45 -16.5v231q-51 -5 -82.5 -32t-31.5 -81z" />
    <glyph glyph-name="percent" unicode="%" horiz-adv-x="759" 
d="M42 560q0 70 41.5 109.5t104.5 39.5t104.5 -39.5t41.5 -109.5q0 -35 -11 -63t-30.5 -47.5t-46.5 -29.5t-58 -10q-32 0 -58.5 10t-46 29.5t-30.5 47.5t-11 63zM188 653q-33 0 -53 -22.5t-20 -70.5t20 -71t53 -23t53.5 23t20.5 71t-20.5 70.5t-53.5 22.5zM536 698h90
l-405 -698h-90zM425 138q0 35 11 63t30.5 47.5t46 29.5t58.5 10q31 0 57.5 -10t46 -29.5t30.5 -47.5t11 -63t-11 -62.5t-30.5 -47t-46 -30t-57.5 -10.5q-32 0 -58.5 10.5t-46 30t-30.5 47t-11 62.5zM570 231q-33 0 -53.5 -22.5t-20.5 -70.5t20.5 -70t53.5 -22t53.5 22
t20.5 70t-20.5 70.5t-53.5 22.5z" />
    <glyph glyph-name="ampersand" unicode="&#x26;" horiz-adv-x="739" 
d="M406 548q2 43 -23 65.5t-62 22.5q-42 0 -65.5 -22.5t-23.5 -57.5q0 -31 17.5 -59.5t54.5 -67.5l208 -209q5 7 9 13.5t9 14.5l68 114h98l-82 -142q-10 -17 -19.5 -32.5t-20.5 -30.5l157 -157h-119l-91 92q-51 -54 -108 -79t-132 -25q-54 0 -99 15t-77.5 42.5t-50 67
t-17.5 87.5q0 72 41 128t123 88q-32 38 -46 70t-14 70q0 33 13 61.5t37 49.5t58 32.5t76 11.5q41 0 74 -12.5t55.5 -34t33.5 -51.5t9 -65h-91zM281 66q54 0 97.5 20.5t82.5 65.5l-205 206q-128 -50 -128 -155q0 -29 11 -54t31.5 -43.5t48.5 -29t62 -10.5z" />
    <glyph glyph-name="quotesingle" unicode="'" horiz-adv-x="159" 
d="M35 796h88l-12 -199h-63z" />
    <glyph glyph-name="parenleft" unicode="(" horiz-adv-x="454" 
d="M311 -186q-48 47 -85.5 107.5t-63.5 131t-40 150t-14 163.5q0 85 14 166t41.5 154t68.5 136t94 112h95v-9q-58 -54 -100.5 -119.5t-70 -137.5t-41 -149t-13.5 -153q0 -154 52 -294t158 -249v-9h-95z" />
    <glyph glyph-name="parenright" unicode=")" horiz-adv-x="454" 
d="M48 -186v9q106 109 158 249t52 294q0 76 -13.5 153t-41.5 149t-70 137.5t-100 119.5v9h95q53 -49 94 -112t68.5 -136t41.5 -154t14 -166q0 -84 -14 -163.5t-40 -150t-63.5 -131t-85.5 -107.5h-95z" />
    <glyph glyph-name="asterisk" unicode="*" horiz-adv-x="486" 
d="M265 582l122 88l36 -65l-139 -58l140 -57l-38 -67l-121 88l16 -151h-75l15 151l-121 -89l-39 68l139 58l-139 56l37 67l124 -89l-16 152h76z" />
    <glyph glyph-name="plus" unicode="+" horiz-adv-x="683" 
d="M384 621v-217h213v-77h-213v-216h-85v216h-212v77h212v217h85z" />
    <glyph glyph-name="comma" unicode="," horiz-adv-x="198" 
d="M71 126h100l-112 -269h-61z" />
    <glyph glyph-name="hyphen" unicode="-" horiz-adv-x="551" 
d="M58 405h399v-77h-399v77z" />
    <glyph glyph-name="period" unicode="." horiz-adv-x="210" 
d="M166 56q0 -26 -17.5 -44t-42.5 -18q-26 0 -44 18t-18 44t18 44t44 18q25 0 42.5 -18t17.5 -44z" />
    <glyph glyph-name="slash" unicode="/" horiz-adv-x="476" 
d="M326 942h91l-274 -1112h-90z" />
    <glyph glyph-name="zero" unicode="0" horiz-adv-x="628" 
d="M62 369q0 78 11 144.5t39.5 115.5t77.5 77t124 28t123.5 -28t77 -77t39.5 -115.5t11 -144.5q0 -79 -11 -146.5t-39.5 -117t-77 -77.5t-123.5 -28t-124 28t-77.5 77.5t-39.5 117t-11 146.5zM475 369q0 56 -5 107t-22 90t-49 62t-85 23q-54 0 -86 -23t-49 -62t-22 -90
t-5 -107q0 -59 5 -111t22 -91t49 -61.5t86 -22.5q53 0 85 22.5t49 61.5t22 91t5 111z" />
    <glyph glyph-name="one" unicode="1" horiz-adv-x="320" 
d="M134 640h-96v83h188v-723h-92v640z" />
    <glyph glyph-name="two" unicode="2" horiz-adv-x="575" 
d="M51 73q71 57 138 113t118.5 111.5t82.5 110t31 110.5q0 30 -7 55.5t-23 44.5t-41 29.5t-62 10.5q-36 0 -62.5 -11.5t-44.5 -32.5t-28 -49.5t-11 -62.5h-88q2 58 20.5 101.5t49.5 73t72.5 44.5t90.5 15q51 0 92.5 -14.5t70.5 -42t45 -67.5t16 -90q0 -45 -15 -87.5
t-40 -82.5t-58 -77t-69 -70.5t-72.5 -64t-68.5 -56.5h344v-76h-481v65z" />
    <glyph glyph-name="three" unicode="3" horiz-adv-x="589" 
d="M60 541q7 94 71 145t166 51q53 0 93.5 -14.5t68.5 -39.5t42 -59t14 -73q0 -63 -35.5 -107.5t-92.5 -57.5v-5q63 -15 102 -61.5t39 -124.5q0 -42 -14.5 -78.5t-43.5 -63.5t-71.5 -42.5t-99.5 -15.5q-51 0 -95 13.5t-77 40.5t-53.5 66.5t-24.5 92.5h88q7 -58 48 -97
t113 -39q73 0 108 37t35 94q0 77 -51.5 109t-149.5 32h-23v76h24q91 1 138.5 30t47.5 92q0 52 -33.5 84.5t-99.5 32.5q-64 0 -101 -32t-44 -86h-89z" />
    <glyph glyph-name="four" unicode="4" horiz-adv-x="629" 
d="M410 161h-370v69l351 486h109v-476h100v-79h-100v-161h-90v161zM414 240v381l-269 -381h269z" />
    <glyph glyph-name="five" unicode="5" horiz-adv-x="628" 
d="M523 724v-80h-351v-228q23 31 67 52t98 21q66 0 110.5 -21.5t71.5 -56t38.5 -77t11.5 -84.5q0 -53 -15 -98.5t-45.5 -80t-77 -54t-109.5 -19.5q-54 0 -97 14.5t-74.5 40.5t-51 62.5t-26.5 80.5h89q13 -57 55 -89t106 -32q41 0 71 13t49.5 36.5t29 55t9.5 68.5
q0 78 -39.5 120.5t-118.5 42.5q-55 0 -93.5 -26t-56.5 -69h-86v408h435z" />
    <glyph glyph-name="six" unicode="6" horiz-adv-x="635" 
d="M465 551q-11 54 -42.5 82.5t-94.5 28.5q-44 0 -76.5 -15.5t-55 -50.5t-33.5 -91t-11 -137q24 54 77.5 82.5t118.5 28.5q51 0 92.5 -16.5t71 -47t46 -75.5t16.5 -102q0 -50 -14.5 -93.5t-44 -76t-74 -51.5t-103.5 -19q-80 0 -131.5 27.5t-81 77t-41 118t-11.5 150.5
q0 85 14.5 153t45 115.5t79 73t117.5 25.5q52 0 91 -15t66 -40.5t42.5 -59.5t20.5 -72h-84zM329 402q-31 0 -61 -9.5t-53 -28.5t-37.5 -49t-14.5 -70q0 -36 10.5 -67t31.5 -54.5t53 -36.5t75 -13q72 0 112.5 43t40.5 118q0 78 -39.5 122.5t-117.5 44.5z" />
    <glyph glyph-name="seven" unicode="7" horiz-adv-x="546" 
d="M507 721v-69l-278 -652h-92l282 643h-386v78h474z" />
    <glyph glyph-name="eight" unicode="8" horiz-adv-x="631" 
d="M194 376q-57 22 -86.5 63.5t-29.5 102.5q0 40 15 75t44.5 61t74 41t103.5 15t103.5 -15t74.5 -41.5t45 -61.5t15 -74q0 -60 -31 -102.5t-85 -63.5q63 -19 99 -65.5t36 -115.5q0 -50 -18.5 -89.5t-52.5 -67.5t-81.5 -43t-104.5 -15t-104 15t-80.5 43t-52 67.5t-18.5 89.5
q0 69 36.5 116t97.5 65zM315 406q67 0 108.5 34t41.5 91q0 63 -40.5 95t-109.5 32q-67 0 -108 -32t-41 -96q0 -57 41.5 -90.5t107.5 -33.5zM315 336q-35 0 -65.5 -8t-53.5 -25t-36 -43t-13 -62q0 -64 45 -103t123 -39t122.5 39.5t44.5 102.5q0 35 -12.5 61t-35 43t-53 25.5
t-66.5 8.5z" />
    <glyph glyph-name="nine" unicode="9" horiz-adv-x="630" 
d="M179 194q10 -57 46 -88t99 -31q40 0 70.5 14.5t50.5 48t30 87.5t9 134q-22 -46 -70.5 -71t-108.5 -25q-50 0 -92.5 15.5t-73.5 45.5t-48.5 74t-17.5 101q0 52 15 95.5t45 75t74.5 49.5t103.5 18q73 0 122 -25t78 -72t41 -114t12 -151q0 -90 -11.5 -160t-39.5 -118
t-75.5 -73t-118.5 -25q-54 0 -94.5 15.5t-68 42t-42.5 62t-19 75.5h84zM320 340q33 0 61 10.5t48.5 30t32 48.5t11.5 65q0 75 -41 121t-119 46q-72 0 -112.5 -44t-40.5 -116q0 -70 39.5 -115.5t120.5 -45.5z" />
    <glyph glyph-name="colon" unicode=":" horiz-adv-x="213" 
d="M166 56q0 -26 -17.5 -44t-42.5 -18q-26 0 -44 18t-18 44t18 44t44 18q25 0 42.5 -18t17.5 -44zM166 484q0 -26 -17.5 -44t-42.5 -18q-26 0 -44 18t-18 44t18 44t44 18q25 0 42.5 -18t17.5 -44z" />
    <glyph glyph-name="semicolon" unicode=";" horiz-adv-x="264" 
d="M190 485q0 -26 -17.5 -44t-42.5 -18q-26 0 -44 18t-18 44t18 44t44 18q25 0 42.5 -18t17.5 -44zM96 126h100l-112 -269h-61z" />
    <glyph glyph-name="less" unicode="&#x3c;" horiz-adv-x="555" 
d="M440 136h-115l-241 230l241 229h115l-242 -229z" />
    <glyph glyph-name="equal" unicode="=" horiz-adv-x="723" 
d="M101 297h520v-77h-520v77zM101 512h520v-77h-520v77z" />
    <glyph glyph-name="greater" unicode="&#x3e;" horiz-adv-x="539" 
d="M336 366l-242 229h115l242 -229l-242 -230h-115z" />
    <glyph glyph-name="question" unicode="?" horiz-adv-x="524" 
d="M37 505q0 45 15.5 82.5t44 63.5t68.5 40.5t90 14.5q49 0 89.5 -14.5t70 -41t45.5 -64.5t16 -86q0 -55 -18 -94t-50 -64t-76.5 -36.5t-96.5 -11.5l-3 -95h-79l-4 158h29q43 0 81 5.5t67 21t46 43.5t17 73q0 60 -36 95t-97 35q-63 0 -98 -32.5t-35 -92.5h-86zM252 56
q0 -26 -17.5 -44t-42.5 -18q-26 0 -44 18t-18 44t18 44t44 18q25 0 42.5 -18t17.5 -44z" />
    <glyph glyph-name="at" unicode="@" horiz-adv-x="1013" 
d="M723 -7q-51 0 -77.5 25.5t-30.5 67.5q-31 -45 -78 -69t-101 -24q-78 0 -120.5 47t-42.5 125q0 56 18 107.5t50.5 90.5t77.5 62.5t100 23.5q95 0 128 -72l11 62h79l-50 -289q-7 -43 2.5 -69t47.5 -26q32 0 56.5 24t40.5 60.5t24 80t8 82.5q0 132 -77.5 203.5t-222.5 71.5
q-91 0 -167.5 -33.5t-132 -92.5t-87 -138.5t-31.5 -171.5q0 -134 80 -204.5t221 -70.5q42 0 85 8t81 26l12 -62q-45 -19 -94.5 -28t-101.5 -9q-81 0 -147 23.5t-113.5 66.5t-73 104.5t-25.5 137.5q0 106 37.5 199t104.5 161.5t160 108t203 39.5q85 0 152 -24.5t114 -68.5
t72 -105.5t25 -135.5q0 -58 -14.5 -114t-42 -100.5t-68 -72t-92.5 -27.5zM627 247q2 27 -3.5 51t-19 42t-35 28.5t-50.5 10.5q-38 0 -67.5 -17.5t-50.5 -45.5t-32 -64t-11 -73q0 -51 25.5 -83t79.5 -32q33 0 62 14t51 39t35.5 58t15.5 72z" />
    <glyph glyph-name="A" unicode="A" horiz-adv-x="674" 
d="M489 155h-304l-56 -155h-96l252 693h105l251 -693h-96zM337 581l-126 -352h252z" />
    <glyph glyph-name="B" unicode="B" horiz-adv-x="613" 
d="M473 196q0 58 -40 91.5t-107 33.5h-158v-246h161q69 0 106.5 32t37.5 89zM455 509q0 52 -34.5 82.5t-101.5 30.5h-151v-226h153q64 0 99 29.5t35 83.5zM564 187q0 -39 -15 -73.5t-44.5 -59.5t-71.5 -39.5t-96 -14.5h-260v697h250q55 0 96.5 -14t69 -38t41.5 -56.5
t14 -68.5q0 -66 -35.5 -105t-86.5 -56q28 -5 53.5 -20.5t44 -38.5t29.5 -52t11 -61z" />
    <glyph glyph-name="C" unicode="C" horiz-adv-x="772" 
d="M43 349q0 78 27 144t74 113t110.5 73.5t136.5 26.5q115 0 199.5 -54t123.5 -157h-109q-29 63 -82.5 97t-131.5 34q-55 0 -101.5 -19t-80.5 -55t-53.5 -87.5t-19.5 -115.5t19.5 -115t53.5 -87t80.5 -55t101.5 -19q78 0 131.5 33.5t82.5 96.5h109q-39 -102 -123.5 -155.5
t-199.5 -53.5q-73 0 -136.5 26t-110.5 73t-74 112.5t-27 143.5z" />
    <glyph glyph-name="D" unicode="D" horiz-adv-x="707" 
d="M294 697q86 0 154.5 -24.5t116.5 -69.5t73.5 -110t25.5 -146t-25.5 -145.5t-73.5 -109t-116.5 -68.5t-154.5 -24h-217v697h217zM294 75q138 0 207.5 71.5t69.5 200.5t-70 202.5t-207 73.5h-126v-548h126z" />
    <glyph glyph-name="E" unicode="E" horiz-adv-x="513" 
d="M452 623h-284v-233h254v-75h-254v-240h284v-75h-375v698h375v-75z" />
    <glyph glyph-name="F" unicode="F" horiz-adv-x="504" 
d="M77 697h394v-74h-303v-235h246v-74h-246v-314h-91v697z" />
    <glyph glyph-name="G" unicode="G" horiz-adv-x="778" 
d="M393 705q112 0 196.5 -55t124.5 -155h-109q-29 61 -83 94.5t-129 33.5q-55 0 -102 -19t-81.5 -55t-54 -86.5t-19.5 -113.5t19.5 -113.5t54 -86t81.5 -54.5t102 -19q51 0 94 16t75 45.5t51.5 71t24.5 93.5h-278v74h375v-70q-6 -65 -33.5 -122t-72.5 -99t-105 -66.5
t-131 -24.5q-74 0 -137.5 26t-111 73t-74.5 112.5t-27 143.5t27 143.5t74.5 113t111 73.5t137.5 26z" />
    <glyph glyph-name="H" unicode="H" horiz-adv-x="691" 
d="M523 316h-355v-316h-91v697h91v-306h355v306h91v-697h-91v316z" />
    <glyph glyph-name="I" unicode="I" horiz-adv-x="246" 
d="M77 697h91v-697h-91v697z" />
    <glyph glyph-name="J" unicode="J" horiz-adv-x="530" 
d="M336 697h92v-515q0 -44 -14 -78.5t-39.5 -59.5t-61 -38t-78.5 -13q-44 0 -79.5 13.5t-61 39t-39.5 61.5t-14 82h91q1 -48 25 -81.5t78 -33.5q27 0 46 8.5t31.5 23.5t18 34.5t5.5 41.5v515z" />
    <glyph glyph-name="K" unicode="K" horiz-adv-x="599" 
d="M168 318v-318h-91v697h91v-323l288 323h115l-316 -349l319 -348h-119z" />
    <glyph glyph-name="L" unicode="L" horiz-adv-x="432" 
d="M168 697v-623h244v-74h-335v697h91z" />
    <glyph glyph-name="M" unicode="M" horiz-adv-x="861" 
d="M77 692h98l256 -572l256 572h97v-692h-91v516l-230 -516h-64l-231 517v-517h-91v692z" />
    <glyph glyph-name="N" unicode="N" horiz-adv-x="703" 
d="M625 698v-698h-91l-366 555v-555h-91v698h91l366 -554v554h91z" />
    <glyph glyph-name="O" unicode="O" horiz-adv-x="786" 
d="M743 349q0 -78 -27 -143.5t-74 -113t-111 -73.5t-138 -26t-137.5 26t-111 73.5t-74.5 113t-27 143.5t27 143.5t74.5 113t111 73.5t137.5 26t138 -26t111 -73.5t74 -113t27 -143.5zM136 349q0 -64 19.5 -115t54 -87t81.5 -55.5t102 -19.5t102 19.5t81.5 55.5t54 87
t19.5 115t-19.5 115.5t-54 87.5t-81.5 55t-102 19t-102 -19t-81.5 -55t-54 -87.5t-19.5 -115.5z" />
    <glyph glyph-name="P" unicode="P" horiz-adv-x="579" 
d="M302 366q78 0 113 33.5t35 93.5q0 61 -35 95t-113 34h-134v-256h134zM543 493q0 -40 -13.5 -76.5t-42.5 -64.5t-75 -44.5t-110 -16.5h-134v-291h-91v697h225q61 0 106.5 -16t75.5 -43.5t44.5 -64.5t14.5 -80z" />
    <glyph glyph-name="Q" unicode="Q" horiz-adv-x="788" 
d="M136 349q0 -64 19.5 -115t54 -87t81.5 -55.5t102 -19.5t102 19.5t81.5 55.5t54 87t19.5 115t-19.5 115.5t-54 87.5t-81.5 55t-102 19t-102 -19t-81.5 -55t-54 -87.5t-19.5 -115.5zM743 349q0 -103 -45 -182t-120 -124l176 -175h-118l-139 139q-53 -14 -104 -14
q-74 0 -137.5 26t-111 73.5t-74.5 113t-27 143.5t27 143.5t74.5 113t111 73.5t137.5 26t138 -26t111 -73.5t74 -113t27 -143.5z" />
    <glyph glyph-name="R" unicode="R" horiz-adv-x="608" 
d="M450 492q0 60 -35 95t-113 35h-134v-264h134q77 0 112.5 37.5t35.5 96.5zM302 697q61 0 106.5 -16t75.5 -44t45 -65t15 -80q0 -33 -9.5 -65t-29.5 -58.5t-51.5 -46.5t-75.5 -30l175 -292h-109l-166 285h-110v-285h-91v697h225z" />
    <glyph glyph-name="S" unicode="S" horiz-adv-x="587" 
d="M530 190q0 -37 -15 -72.5t-44.5 -63t-72.5 -44.5t-100 -17q-53 0 -96.5 14t-75.5 39.5t-50 61t-19 78.5h97q2 -22 11 -42.5t26.5 -37t44 -26.5t62.5 -10q66 0 103 32.5t37 83.5q0 35 -16 57.5t-42.5 36.5t-60.5 23.5t-69.5 19.5t-69.5 22.5t-60.5 33.5t-42.5 53t-16 81
q0 43 16.5 78.5t47 61t73 39.5t94.5 14q49 0 90 -13t71 -36.5t48 -56.5t22 -73h-100q-2 17 -11.5 35t-26.5 32.5t-41.5 24t-55.5 9.5q-28 1 -52.5 -6t-42.5 -21t-28.5 -35.5t-10.5 -49.5q0 -34 16 -55t42.5 -35.5t60.5 -24t69 -19.5t69 -23t60.5 -34.5t42.5 -54t16 -80.5z
" />
    <glyph glyph-name="T" unicode="T" horiz-adv-x="541" 
d="M34 697h472v-74h-190v-623h-91v623h-191v74z" />
    <glyph glyph-name="U" unicode="U" horiz-adv-x="675" 
d="M75 697h91v-441q0 -96 47.5 -139.5t124.5 -43.5t124 43.5t47 139.5v441h91v-440q0 -68 -21 -117.5t-56.5 -82t-83.5 -48.5t-102 -16t-101.5 16t-83.5 48.5t-56.5 82t-20.5 117.5v440z" />
    <glyph glyph-name="V" unicode="V" horiz-adv-x="676" 
d="M557 697h96l-263 -697h-105l-263 697h97l219 -601z" />
    <glyph glyph-name="W" unicode="W" horiz-adv-x="976" 
d="M23 697h97l152 -591l168 591h102l160 -589l153 589h98l-202 -697h-102l-162 561l-168 -561l-101 -1z" />
    <glyph glyph-name="X" unicode="X" horiz-adv-x="621" 
d="M306 272l-159 -272h-101l213 348l-214 349h102l168 -273l160 273h102l-215 -349l214 -348h-103z" />
    <glyph glyph-name="Y" unicode="Y" horiz-adv-x="584" 
d="M19 697h101l172 -353l172 353h101l-227 -434v-263h-91v263z" />
    <glyph glyph-name="Z" unicode="Z" horiz-adv-x="541" 
d="M492 625l-338 -546h340v-79h-448v72l338 546h-334v79h442v-72z" />
    <glyph glyph-name="bracketleft" unicode="[" horiz-adv-x="423" 
d="M133 934h180v-75h-95v-969h95v-76h-180v1120z" />
    <glyph glyph-name="backslash" unicode="\" horiz-adv-x="658" 
d="M534 -170h-90l-313 1112h90z" />
    <glyph glyph-name="bracketright" unicode="]" horiz-adv-x="423" 
d="M290 -186h-180v76h95v969h-95v75h180v-1120z" />
    <glyph glyph-name="asciicircum" unicode="^" horiz-adv-x="629" 
d="M316 581l-185 -412h-94l235 524h85l236 -524h-95z" />
    <glyph glyph-name="underscore" unicode="_" horiz-adv-x="733" 
d="M105 -38h532v-84h-532v84z" />
    <glyph glyph-name="grave" unicode="`" horiz-adv-x="257" 
d="M17 782l213 -125v-68l-213 114v79z" />
    <glyph glyph-name="a" unicode="a" horiz-adv-x="676" 
d="M43 276q0 64 20 116t55 88.5t82.5 56.5t102.5 20q39 0 71 -9t57.5 -24t44.5 -35t31 -41v100h92v-548h-92v102q-12 -22 -31.5 -42t-45.5 -35.5t-58.5 -24.5t-69.5 -9q-55 0 -102 20.5t-82 58t-55 90t-20 116.5zM507 275q0 48 -15 85.5t-40.5 63.5t-59.5 40t-71 14
q-38 0 -71.5 -13.5t-58.5 -39t-40 -63.5t-15 -86t15 -86.5t40 -64.5t58.5 -40t71.5 -14q37 0 71 13.5t59.5 40t40.5 64.5t15 86z" />
    <glyph glyph-name="b" unicode="b" horiz-adv-x="676" 
d="M168 446q26 46 79 78.5t126 32.5q55 0 103 -20t82.5 -56.5t54.5 -88.5t20 -116t-20 -116.5t-55 -90t-82.5 -58t-102.5 -20.5q-75 0 -127 32.5t-78 77.5v-101h-91v740h91v-294zM540 276q0 48 -15 86t-40.5 63.5t-59.5 39t-71 13.5q-38 0 -71.5 -14t-59 -40t-40.5 -63.5
t-15 -85.5t15 -86t40.5 -64.5t59 -40t71.5 -13.5q37 0 71 14t59.5 40t40.5 64.5t15 86.5z" />
    <glyph glyph-name="c" unicode="c" horiz-adv-x="607" 
d="M43 275q0 64 20 116.5t55 89t84 56.5t108 20q103 0 167.5 -48.5t85.5 -136.5h-98q-14 51 -54 79.5t-101 28.5q-38 0 -69.5 -13t-55 -39t-36.5 -64.5t-13 -88.5q0 -51 13 -89.5t36.5 -65t55 -39.5t69.5 -13q61 0 100.5 28t54.5 80h98q-22 -82 -86 -133.5t-167 -51.5
q-59 0 -108 20t-84 57t-55 89.5t-20 117.5z" />
    <glyph glyph-name="d" unicode="d" horiz-adv-x="676" 
d="M43 276q0 64 20 116t55 88.5t82.5 56.5t103.5 20q65 0 119.5 -29.5t83.5 -77.5v290h92v-740h-92v103q-25 -46 -77 -79t-127 -33q-55 0 -102.5 20.5t-82.5 58t-55 90t-20 116.5zM507 275q0 48 -15 85.5t-40.5 63.5t-59.5 40t-71 14q-38 0 -71.5 -13.5t-58.5 -39t-40 -63.5
t-15 -86t15 -86.5t40 -64.5t58.5 -40t71.5 -14q37 0 71 13.5t59.5 40t40.5 64.5t15 86z" />
    <glyph glyph-name="e" unicode="e" horiz-adv-x="620" 
d="M310 480q-33 0 -63 -11t-53 -32t-38 -52t-19 -71h346q0 40 -14 71t-37.5 52t-55 32t-66.5 11zM566 169q-11 -38 -32.5 -70.5t-53 -56.5t-73.5 -37.5t-93 -13.5q-59 0 -108.5 20t-85.5 57t-56.5 89.5t-20.5 117.5t20 117t55.5 89t85.5 56.5t110 19.5t108.5 -20t83 -55
t53 -83t18.5 -104q0 -15 -0.5 -28t-2.5 -27h-438q3 -42 18 -74t39 -53.5t55 -33t66 -11.5q63 0 101 28t53 73h98z" />
    <glyph glyph-name="f" unicode="f" horiz-adv-x="329" 
d="M94 473h-71v75h71v39q0 93 47 135t153 42v-76q-62 0 -85.5 -23.5t-23.5 -77.5v-39h115v-75h-115v-473h-91v473z" />
    <glyph glyph-name="g" unicode="g" horiz-adv-x="676" 
d="M43 276q0 64 20 116t55 88.5t82.5 56.5t102.5 20q75 0 127.5 -32t76.5 -77v100h92v-560q0 -57 -18.5 -104t-52.5 -81.5t-82.5 -53.5t-108.5 -19q-54 0 -99.5 13t-80 38t-56.5 60t-29 79h90q15 -51 60.5 -81t114.5 -30q36 0 67.5 11.5t54 34t35.5 56t13 77.5v115
q-12 -23 -31.5 -43t-45.5 -35.5t-58 -24.5t-69 -9q-55 0 -102.5 20.5t-82.5 58t-55 90t-20 116.5zM507 275q0 48 -15 85.5t-40.5 63.5t-59.5 40t-71 14q-38 0 -71.5 -13.5t-58.5 -39t-40 -63.5t-15 -86t15 -86.5t40 -64.5t58.5 -40t71.5 -14q37 0 71 13.5t59.5 40t40.5 64.5
t15 86z" />
    <glyph glyph-name="h" unicode="h" 
d="M77 740h91v-271q27 45 75 67t106 22q46 0 86 -14.5t69.5 -44t46.5 -73.5t17 -103v-323h-90v310q0 85 -42 127t-111 42q-70 0 -113.5 -43t-43.5 -133v-303h-91v740z" />
    <glyph glyph-name="i" unicode="i" horiz-adv-x="246" 
d="M77 548h91v-548h-91v548zM124 637q-28 0 -46.5 18.5t-18.5 46.5t18.5 46.5t46.5 18.5q26 0 44.5 -18.5t18.5 -46.5t-18.5 -46.5t-44.5 -18.5z" />
    <glyph glyph-name="j" unicode="j" horiz-adv-x="248" 
d="M171 548v-667q0 -75 -37.5 -108t-107.5 -33h-53v77h38q38 0 53.5 15t15.5 51v665h91zM126 637q-28 0 -46.5 18.5t-18.5 46.5t18.5 46.5t46.5 18.5q26 0 44.5 -18.5t18.5 -46.5t-18.5 -46.5t-44.5 -18.5z" />
    <glyph glyph-name="k" unicode="k" horiz-adv-x="515" 
d="M77 740h91v-435l211 243h127l-258 -273l259 -275h-124l-215 242v-242h-91v740z" />
    <glyph glyph-name="l" unicode="l" horiz-adv-x="246" 
d="M77 740h91v-740h-91v740z" />
    <glyph glyph-name="m" unicode="m" horiz-adv-x="1030" 
d="M868 310q0 85 -40.5 127t-109.5 42t-112 -43.5t-43 -133.5v-302h-90v310q0 85 -40.5 127t-109.5 42t-112 -43.5t-43 -133.5v-302h-91v548h91v-79q27 45 73 67t100 22q69 0 121.5 -29.5t79.5 -92.5q24 60 77.5 91t116.5 31q47 0 87.5 -14.5t70.5 -44t47 -73.5t17 -103
v-323h-90v310z" />
    <glyph glyph-name="n" unicode="n" 
d="M478 310q0 85 -42 127t-111 42q-70 0 -113.5 -43t-43.5 -133v-303h-91v548h91v-78q27 43 73 65.5t103 22.5q48 0 89 -14.5t71 -44t47 -73.5t17 -103v-323h-90v310z" />
    <glyph glyph-name="o" unicode="o" 
d="M597 275q0 -65 -22 -117.5t-60 -89.5t-89.5 -57t-109.5 -20t-108 20t-86.5 57t-57.5 89.5t-21 117.5t21.5 117t59 89t88 56.5t108.5 19.5t109 -19.5t88 -56.5t58.5 -89t21.5 -117zM136 275q0 -52 15 -90.5t39.5 -63.5t57 -37.5t68.5 -12.5t69.5 12.5t60 37.5t42.5 63.5
t16 90.5t-15.5 90t-41.5 63t-59.5 37.5t-68.5 12.5q-36 0 -69 -12.5t-58.5 -37.5t-40.5 -63t-15 -90z" />
    <glyph glyph-name="p" unicode="p" horiz-adv-x="676" 
d="M168 447q12 22 31.5 42t45.5 35t58 24t70 9q55 0 102.5 -20t82.5 -56.5t55 -88.5t20 -116t-20 -116.5t-55 -90t-82.5 -58t-102.5 -20.5q-38 0 -69.5 9.5t-57.5 24.5t-45.5 35t-32.5 41v-361h-91v808h91v-101zM540 276q0 48 -15 86t-40.5 63.5t-59.5 39t-71 13.5
q-38 0 -71.5 -14t-59 -40t-40.5 -63.5t-15 -85.5t15 -86t40.5 -64.5t59 -40t71.5 -13.5q37 0 71 14t59.5 40t40.5 64.5t15 86.5z" />
    <glyph glyph-name="q" unicode="q" horiz-adv-x="676" 
d="M43 276q0 64 20 116t55 88.5t82.5 56.5t103.5 20q38 0 70 -9t57.5 -24t44.5 -35t31 -41v100h92v-808h-92v361q-12 -21 -31.5 -41t-45.5 -35t-58.5 -24.5t-70.5 -9.5q-54 0 -101.5 20.5t-82 58t-54.5 90t-20 116.5zM507 275q0 48 -15 85.5t-40.5 63.5t-59.5 40t-71 14
q-38 0 -71.5 -13.5t-58.5 -39t-40 -63.5t-15 -86t15 -86.5t40 -64.5t58.5 -40t71.5 -14q37 0 71 13.5t59.5 40t40.5 64.5t15 86z" />
    <glyph glyph-name="r" unicode="r" horiz-adv-x="373" 
d="M168 0h-91v548h91v-89q23 46 67 72.5t110 26.5v-94h-24q-33 0 -61 -8t-48.5 -27.5t-32 -51t-11.5 -79.5v-298z" />
    <glyph glyph-name="s" unicode="s" horiz-adv-x="522" 
d="M471 149q0 -34 -14 -63t-40.5 -50t-63.5 -33t-82 -12q-48 0 -88 12.5t-69.5 35t-47 53.5t-19.5 69h94q4 -40 37.5 -66.5t91.5 -26.5q54 0 83 23.5t29 57.5q0 30 -24 46.5t-60 28t-78 22t-78 29t-60 48.5t-24 81q0 31 14 59t40.5 49t63.5 33t83 12q91 0 146.5 -45.5
t60.5 -126.5h-91q-3 42 -33.5 68.5t-85.5 26.5q-51 0 -79 -21.5t-28 -54.5q0 -32 23.5 -50t59 -30t77 -22.5t77.5 -28t60 -46.5t25 -78z" />
    <glyph glyph-name="t" unicode="t" horiz-adv-x="364" 
d="M97 473h-71v75h71v138h91v-138h143v-75h-143v-323q0 -42 17 -57.5t59 -15.5h67v-77h-82q-73 0 -112.5 33.5t-39.5 116.5v323z" />
    <glyph glyph-name="u" unicode="u" 
d="M563 0h-91v81q-26 -43 -73 -66t-102 -23q-47 0 -88 14.5t-71.5 44t-48 73.5t-17.5 103v321h90v-309q0 -85 42 -126.5t111 -41.5q72 0 114.5 43t42.5 133v301h91v-548z" />
    <glyph glyph-name="v" unicode="v" horiz-adv-x="561" 
d="M110 548l171 -464l170 464h97l-215 -548h-106l-215 548h98z" />
    <glyph glyph-name="w" unicode="w" horiz-adv-x="820" 
d="M12 548h93l126 -460l136 460h93l133 -461l124 461h90l-171 -548h-94l-132 435l-132 -435h-94z" />
    <glyph glyph-name="x" unicode="x" horiz-adv-x="479" 
d="M233 204l-125 -204h-95l177 272l-177 276h103l130 -203l124 203h95l-176 -271l177 -277h-103z" />
    <glyph glyph-name="y" unicode="y" horiz-adv-x="563" 
d="M455 548h94l-330 -806h-94l108 264l-221 542h101l172 -444z" />
    <glyph glyph-name="z" unicode="z" horiz-adv-x="455" 
d="M412 474l-267 -399h269v-75h-373v75l266 399h-264v74h369v-74z" />
    <glyph glyph-name="braceleft" unicode="{" horiz-adv-x="462" 
d="M207 233q0 38 -22.5 66t-79.5 39v71q57 11 79.5 39t22.5 66q0 29 -3 63.5t-7 70t-7 71t-3 67.5q0 75 41.5 111.5t107.5 36.5h58v-79h-41q-38 0 -57.5 -16.5t-19.5 -58.5q0 -29 3 -62.5t6.5 -69t6.5 -71t3 -66.5q0 -51 -25.5 -87.5t-82.5 -48.5v-2q57 -13 82.5 -49.5
t25.5 -87.5q0 -31 -3 -66.5t-6.5 -71t-6.5 -69.5t-3 -62q0 -42 19.5 -58.5t57.5 -16.5h41v-79h-58q-66 0 -107.5 36.5t-41.5 111.5q0 32 3 67.5t7 71t7 70t3 63.5z" />
    <glyph glyph-name="bar" unicode="|" horiz-adv-x="291" 
d="M191 795v-901h-91v901h91z" />
    <glyph glyph-name="braceright" unicode="}" horiz-adv-x="462" 
d="M255 233q0 -29 3 -63.5t7 -70t7 -71t3 -67.5q0 -75 -41.5 -111.5t-107.5 -36.5h-58v79h41q38 0 57.5 16.5t19.5 58.5q0 28 -3 62t-6.5 69.5t-6.5 71t-3 66.5q0 51 25.5 87.5t82.5 49.5v2q-57 12 -82.5 48.5t-25.5 87.5q0 31 3 66.5t6.5 71t6.5 69t3 62.5q0 42 -19.5 58.5
t-57.5 16.5h-41v79h58q66 0 107.5 -36.5t41.5 -111.5q0 -32 -3 -67.5t-7 -71t-7 -70t-3 -63.5q0 -38 22.5 -66t79.5 -39v-71q-57 -11 -79.5 -39t-22.5 -66z" />
    <glyph glyph-name="asciitilde" unicode="~" horiz-adv-x="519" 
d="M37 248q14 75 50 110.5t91 35.5q28 0 50 -10.5t41.5 -22.5t38 -22.5t39.5 -10.5q26 0 44 17t23 48h68q-13 -76 -49 -111t-93 -35q-28 0 -49.5 10.5t-40.5 22.5t-37.5 22.5t-40.5 10.5q-26 0 -44.5 -17.5t-23.5 -47.5h-67z" />
    <glyph glyph-name="uni00A0" unicode="&#xa0;" horiz-adv-x="267" 
 />
    <glyph glyph-name="exclamdown" unicode="&#xa1;" horiz-adv-x="298" 
d="M108 361h76l11 -500h-98zM210 502q0 -26 -17.5 -44t-42.5 -18q-26 0 -44 18t-18 44t18 44t44 18q25 0 42.5 -18t17.5 -44z" />
    <glyph glyph-name="cent" unicode="&#xa2;" horiz-adv-x="665" 
d="M556 184q-5 -36 -21.5 -67.5t-43.5 -55t-63.5 -38.5t-80.5 -18v-94h-54v94q-56 4 -98.5 25.5t-71 55.5t-43.5 79t-15 97t15 97t43.5 79t71 55t98.5 26v92h54v-92q44 -3 80.5 -18t63.5 -38.5t43.5 -54.5t21.5 -67h-85q-11 48 -48.5 76t-100.5 28q-37 0 -68.5 -12
t-54 -35.5t-35.5 -57.5t-13 -78t13 -78t35.5 -57t54 -35t68.5 -12q63 0 100.5 28t48.5 76h85z" />
    <glyph glyph-name="sterling" unicode="&#xa3;" horiz-adv-x="620" 
d="M108 508q0 48 16 87t44.5 66.5t69 42.5t88.5 15q54 0 94 -17t66.5 -45.5t40 -66t15.5 -79.5h-84q-2 57 -34 94t-98 37q-27 0 -50.5 -8t-41.5 -24.5t-28.5 -42.5t-10.5 -63t8.5 -69t19.5 -63h194v-64h-174q4 -15 6.5 -30.5t2.5 -31.5q0 -51 -18 -92.5t-53 -79.5h364v-76
h-446l-16 52q19 21 34 41.5t26 43.5t17 50t6 61q0 17 -2.5 32t-6.5 30h-113v64h91q-11 29 -19 61.5t-8 74.5z" />
    <glyph glyph-name="currency" unicode="&#xa4;" horiz-adv-x="537" 
d="M369 377q0 28 -8.5 50.5t-22.5 37.5t-32.5 23t-38.5 8q-42 0 -70.5 -30.5t-28.5 -88.5t28.5 -88t70.5 -30q19 0 37.5 7.5t33 22.5t23 37t8.5 51zM372 230q-47 -30 -105 -30q-59 0 -103 29l-59 -59l-42 42l59 59q-14 22 -22 48t-8 58t8.5 59t23.5 48l-61 60l42 42l61 -61
q44 29 102 29q59 0 103 -29l61 61l41 -42l-60 -60q33 -44 33 -107q0 -31 -8.5 -57.5t-23.5 -48.5l59 -59l-41 -42z" />
    <glyph glyph-name="yen" unicode="&#xa5;" horiz-adv-x="595" 
d="M225 315l-172 2v66h137l-165 314h102l171 -352l171 352h102l-164 -314h137v-66l-173 -2l-27 -52v-39h200v-67h-200v-157h-91v157h-200v67h200v39z" />
    <glyph glyph-name="brokenbar" unicode="&#xa6;" horiz-adv-x="291" 
d="M191 273v-379h-91v379h91zM100 417v378h91v-378h-91z" />
    <glyph glyph-name="section" unicode="&#xa7;" horiz-adv-x="575" 
d="M76 555q0 32 14 60.5t40 50t64.5 34t86.5 12.5q45 0 83 -11t66 -32t44 -52t17 -71h-91q-2 20 -9.5 38.5t-21.5 32.5t-36 22t-52 8q-54 0 -84 -21t-30 -63q0 -19 7.5 -34t26 -28.5t49.5 -27t78 -28.5q46 -15 83.5 -32t63.5 -39t40 -50.5t14 -65.5q0 -55 -34.5 -98
t-103.5 -65q46 -21 77 -52t31 -82q0 -32 -14 -60.5t-40 -50t-64 -34t-86 -12.5q-45 0 -83 11t-66 32t-44.5 51.5t-17.5 70.5h91q4 -42 32 -71.5t88 -29.5q54 0 83.5 20.5t29.5 65.5q0 19 -7.5 33.5t-26 28t-49.5 26.5t-78 28t-84 32.5t-63 39.5t-40 50.5t-14 65.5
q0 55 34.5 98.5t103.5 63.5q-45 22 -76.5 53t-31.5 82zM436 258q0 49 -40 81.5t-110 32.5q-35 0 -62.5 -9t-46.5 -25t-28.5 -36.5t-9.5 -43.5q0 -48 39.5 -81.5t111.5 -33.5q35 0 62 9.5t46 25t28.5 36.5t9.5 44z" />
    <glyph glyph-name="dieresis" unicode="&#xa8;" horiz-adv-x="314" 
d="M76 622q-23 0 -38 15t-15 37t15 37.5t38 15.5q21 0 36.5 -15.5t15.5 -37.5t-15.5 -37t-36.5 -15zM238 622q-23 0 -37.5 15t-14.5 37t14.5 37.5t37.5 15.5q22 0 37.5 -15.5t15.5 -37.5t-15.5 -37t-37.5 -15z" />
    <glyph glyph-name="copyright" unicode="&#xa9;" horiz-adv-x="792" 
d="M49 349q0 78 25.5 143t71.5 112.5t110 73.5t141 26t140.5 -26t109.5 -73.5t71 -112.5t25 -143t-25 -143t-71 -112.5t-109.5 -73.5t-140.5 -26t-141 26t-110 73.5t-71.5 112.5t-25.5 143zM700 349q0 70 -21 128.5t-60.5 99.5t-95.5 64t-126 23q-71 0 -127 -23t-96 -64
t-61 -99.5t-21 -128.5t21 -128t61 -100t96 -65t127 -23q70 0 126 23t95.5 65t60.5 100t21 128zM516 432q-13 42 -45.5 62.5t-75.5 20.5q-57 0 -96.5 -41.5t-39.5 -124.5q0 -82 39.5 -123.5t96.5 -41.5q48 0 77.5 21.5t43.5 61.5h84q-20 -69 -74.5 -109t-130.5 -40
q-45 0 -84.5 16t-69 46t-46.5 73t-17 97t17 97t46.5 72.5t69 45.5t84.5 16q76 0 130.5 -38.5t74.5 -110.5h-84z" />
    <glyph glyph-name="ordfeminine" unicode="&#xaa;" horiz-adv-x="450" 
d="M202 347q-36 0 -67 13.5t-53.5 38t-35.5 58t-13 73.5t13 73t35.5 56.5t53 36.5t65.5 13q51 0 83 -19.5t48 -47.5v61h72v-350h-72v60q-15 -28 -48 -47t-81 -19zM219 652q-45 0 -78 -31.5t-33 -91.5q0 -30 9 -53t24 -39t35 -24.5t43 -8.5q46 0 79 32t33 92t-33 92t-79 32z
" />
    <glyph glyph-name="guillemotleft" unicode="&#xab;" horiz-adv-x="461" 
d="M230 120h-89l-96 175l96 175h89l-99 -175zM411 120h-90l-95 175l95 175h90l-99 -175z" />
    <glyph glyph-name="logicalnot" unicode="&#xac;" horiz-adv-x="650" 
d="M41 432h565v-212h-91v140h-474v72z" />
    <glyph glyph-name="uni00AD" unicode="&#xad;" horiz-adv-x="551" 
d="M58 405h399v-77h-399v77z" />
    <glyph glyph-name="registered" unicode="&#xae;" horiz-adv-x="509" 
d="M255 667q-75 0 -117.5 -46t-42.5 -119t42.5 -119t117.5 -46q36 0 66 12t51 34t32.5 52.5t11.5 66.5t-11.5 66.5t-32.5 52.5t-51 34t-66 12zM255 297q-45 0 -82 15.5t-64 43t-42 65t-15 81.5t15 81.5t42 64.5t64 42.5t82 15.5q44 0 81 -15.5t64 -42.5t42 -64.5t15 -81.5
t-15 -81.5t-42 -65t-64 -43t-81 -15.5zM345 544q0 -24 -12.5 -40.5t-34.5 -23.5l56 -83l-63 -1l-48 80h-17v-80h-52v215h96q34 0 54.5 -18t20.5 -49zM226 564v-45h41q11 0 18.5 5.5t7.5 17.5t-7.5 17t-18.5 5h-41z" />
    <glyph glyph-name="macron" unicode="&#xaf;" horiz-adv-x="387" 
d="M17 709h352v-68h-352v68z" />
    <glyph glyph-name="degree" unicode="&#xb0;" horiz-adv-x="410" 
d="M28 524q0 40 13.5 72.5t37 55t56 35t70.5 12.5t70.5 -12.5t56 -35t36.5 -55t13 -72.5t-13.5 -72.5t-37 -56t-56 -36t-71.5 -12.5t-71 12.5t-55 36t-36 56t-13 72.5zM308 524q0 60 -30.5 91t-73.5 31q-42 0 -72.5 -31t-30.5 -91q0 -61 29.5 -91.5t72.5 -30.5
q42 0 73.5 30.5t31.5 91.5z" />
    <glyph glyph-name="plusminus" unicode="&#xb1;" horiz-adv-x="686" 
d="M386 624v-170h211v-77h-211v-182h211v-77h-509v77h213v182h-213v77h213v170h85z" />
    <glyph glyph-name="twosuperior" unicode="&#xb2;" horiz-adv-x="330" 
d="M30 603q2 46 35 76.5t94 30.5q29 0 52.5 -9t40 -24t25 -35t8.5 -42q0 -40 -22.5 -69.5t-70.5 -63.5l-79 -56h176v-59h-257v52l109 88q29 24 48.5 48.5t19.5 56.5q0 28 -15 42.5t-37 14.5q-24 0 -37.5 -13.5t-16.5 -37.5h-73z" />
    <glyph glyph-name="threesuperior" unicode="&#xb3;" horiz-adv-x="332" 
d="M27 611q5 45 40.5 72t95.5 27q28 0 52 -8t42 -22t28 -32.5t10 -40.5q0 -31 -17.5 -50.5t-44.5 -27.5v-2q26 -9 45.5 -30t19.5 -53q0 -40 -37.5 -68.5t-100.5 -28.5q-60 0 -96.5 28t-40.5 79h72q4 -28 21 -40.5t43 -12.5q28 0 44.5 14t16.5 38q0 25 -17.5 38.5t-45.5 13.5
h-43v48h41q28 0 45.5 12.5t17.5 37.5q0 23 -16 37.5t-44 14.5q-27 0 -42 -12t-20 -32h-69z" />
    <glyph glyph-name="acute" unicode="&#xb4;" horiz-adv-x="247" 
d="M230 782v-79l-213 -114v68z" />
    <glyph glyph-name="uni00B5" unicode="&#xb5;" horiz-adv-x="645" 
d="M568 0h-91v100q-26 -55 -74 -82t-108 -27q-38 0 -72 14t-56 49v-314h-90v808h90v-300q0 -91 43.5 -135t112.5 -44t111.5 44t42.5 132v303h91v-548z" />
    <glyph glyph-name="paragraph" unicode="&#xb6;" horiz-adv-x="596" 
d="M518 692v-692h-81v621h-77v-621h-81v286h-11q-61 0 -105.5 15.5t-74 43t-43.5 64.5t-14 79q0 43 14 80t43.5 64.5t74 43.5t105.5 16h250z" />
    <glyph glyph-name="periodcentered" unicode="&#xb7;" horiz-adv-x="212" 
d="M169 341q0 -26 -17.5 -44t-42.5 -18q-26 0 -44 18t-18 44t18 44t44 18q25 0 42.5 -18t17.5 -44z" />
    <glyph glyph-name="cedilla" unicode="&#xb8;" horiz-adv-x="272" 
d="M125 -58q58 1 93.5 -23.5t35.5 -75.5q0 -48 -34 -75.5t-88 -27.5h-115v59h97q32 0 48 10t16 34q0 23 -16 33t-48 10h-50v121h61v-65z" />
    <glyph glyph-name="onesuperior" unicode="&#xb9;" horiz-adv-x="196" 
d="M79 648h-54v56h126v-352h-72v296z" />
    <glyph glyph-name="ordmasculine" unicode="&#xba;" horiz-adv-x="436" 
d="M33 528q0 41 14 74.5t39 57t59 36.5t73 13q40 0 73.5 -13t58.5 -36.5t39 -57t14 -74.5t-14.5 -74.5t-39.5 -57.5t-59 -37t-73 -13q-40 0 -73.5 13t-58 37t-38.5 57.5t-14 74.5zM329 527q0 31 -9 54t-24.5 39t-35.5 24t-42 8t-42 -8t-35 -24t-24 -39t-9 -54
q0 -60 32 -91.5t77 -31.5q22 0 42 8t35.5 23.5t25 38.5t9.5 53z" />
    <glyph glyph-name="guillemotright" unicode="&#xbb;" horiz-adv-x="461" 
d="M231 120l98 175l-98 175h89l96 -175l-96 -175h-89zM50 120l99 175l-99 175h89l96 -175l-96 -175h-89z" />
    <glyph glyph-name="onequarter" unicode="&#xbc;" 
d="M436 698h86l-374 -698h-86zM604 116v-47h-48v-69h-72v69h-183v42l158 242h97v-237h48zM486 116v175l-111 -175h111zM92 648h-54v56h126v-352h-72v296z" />
    <glyph glyph-name="onehalf" unicode="&#xbd;" horiz-adv-x="675" 
d="M423 698h86l-365 -698h-87zM90 648h-54v56h126v-352h-72v296zM368 250q2 46 35 76.5t94 30.5q29 0 52.5 -9t40 -24t25 -35t8.5 -42q0 -40 -22.5 -69.5t-70.5 -63.5l-79 -56h176v-59h-257v52l109 88q29 24 48.5 48.5t19.5 56.5q0 28 -15 42.5t-37 14.5q-24 0 -37.5 -13.5
t-16.5 -37.5h-73z" />
    <glyph glyph-name="threequarters" unicode="&#xbe;" horiz-adv-x="709" 
d="M531 698h86l-389 -698h-85zM682 116v-47h-47v-69h-72v69h-183v42l158 242h97v-237h47zM564 116v175l-111 -175h111zM39 611q5 45 40.5 72t95.5 27q28 0 52 -8t42 -22t28 -32.5t10 -40.5q0 -31 -17.5 -50.5t-44.5 -27.5v-2q26 -9 45.5 -30t19.5 -53q0 -40 -37.5 -68.5
t-100.5 -28.5q-60 0 -96.5 28t-40.5 79h72q4 -28 21 -40.5t43 -12.5q28 0 44.5 14t16.5 38q0 25 -17.5 38.5t-45.5 13.5h-43v48h41q28 0 45.5 12.5t17.5 37.5q0 23 -16 37.5t-44 14.5q-27 0 -42 -12t-20 -32h-69z" />
    <glyph glyph-name="questiondown" unicode="&#xbf;" horiz-adv-x="519" 
d="M485 45q0 -45 -15.5 -82.5t-44 -63.5t-69 -40.5t-89.5 -14.5t-89.5 14.5t-70 41t-45.5 64.5t-16 86q0 55 18 94t50 64t76 36.5t97 11.5l3 95h79l4 -158h-29q-43 0 -81 -5.5t-67 -21t-46 -43.5t-17 -73q0 -60 36 -95t97 -35q63 0 98 32.5t35 92.5h86zM270 494
q0 26 17.5 44t42.5 18q26 0 44 -18t18 -44t-18 -44t-44 -18q-25 0 -42.5 18t-17.5 44z" />
    <glyph glyph-name="Agrave" unicode="&#xc0;" horiz-adv-x="674" 
d="M489 155h-304l-56 -155h-96l252 693h105l251 -693h-96zM337 581l-126 -352h252zM269 917l163 -102l-45 -63l-163 99z" />
    <glyph glyph-name="Aacute" unicode="&#xc1;" horiz-adv-x="674" 
d="M489 155h-304l-56 -155h-96l252 693h105l251 -693h-96zM337 581l-126 -352h252zM472 851l-163 -99l-45 63l163 102z" />
    <glyph glyph-name="Acircumflex" unicode="&#xc2;" horiz-adv-x="674" 
d="M489 155h-304l-56 -155h-96l252 693h105l251 -693h-96zM337 581l-126 -352h252zM486 798l-45 -56l-103 65l-103 -65l-45 56l148 95z" />
    <glyph glyph-name="Atilde" unicode="&#xc3;" horiz-adv-x="674" 
d="M489 155h-304l-56 -155h-96l252 693h105l251 -693h-96zM337 581l-126 -352h252zM196 763q2 51 24 80t64 29q20 0 35 -5.5t29 -13.5q11 -8 19.5 -14.5t19.5 -6.5t20.5 9.5t9.5 29.5h69q0 -52 -23.5 -80.5t-65.5 -28.5q-21 0 -36.5 6.5t-28.5 15.5q-11 8 -19.5 13.5
t-18.5 5.5q-11 0 -20 -9.5t-9 -30.5h-69z" />
    <glyph glyph-name="Adieresis" unicode="&#xc4;" horiz-adv-x="674" 
d="M489 155h-304l-56 -155h-96l252 693h105l251 -693h-96zM257 767q-23 0 -38 15t-15 37t15 37.5t38 15.5q21 0 36.5 -15.5t15.5 -37.5t-15.5 -37t-36.5 -15zM419 767q-23 0 -37.5 15t-14.5 37t14.5 37.5t37.5 15.5q22 0 37.5 -15.5t15.5 -37.5t-15.5 -37t-37.5 -15z
M337 581l-126 -352h252z" />
    <glyph glyph-name="Aring" unicode="&#xc5;" horiz-adv-x="674" 
d="M489 155h-304l-56 -155h-96l252 693h105l251 -693h-96zM338 801q23 0 38.5 15.5t15.5 41.5t-15.5 41t-38.5 15t-38.5 -15t-15.5 -41t15.5 -41.5t38.5 -15.5zM338 962q45 0 76 -28t31 -77t-31 -77t-76 -28t-76 28t-31 77t31 77t76 28zM337 581l-126 -352h252z" />
    <glyph glyph-name="AE" unicode="&#xc6;" horiz-adv-x="900" 
d="M238 226h227v403zM556 626v-239h252v-70h-252v-245h282v-72h-373v155h-267l-87 -155h-99l395 698h431v-72h-282z" />
    <glyph glyph-name="Ccedilla" unicode="&#xc7;" horiz-adv-x="772" 
d="M43 349q0 78 27 144t74 113t110.5 73.5t136.5 26.5q115 0 199.5 -54t123.5 -157h-109q-29 63 -82.5 97t-131.5 34q-55 0 -101.5 -19t-80.5 -55t-53.5 -87.5t-19.5 -115.5t19.5 -115t53.5 -87t80.5 -55t101.5 -19q78 0 131.5 33.5t82.5 96.5h109q-36 -94 -111 -147
t-177 -61v-53q58 1 93.5 -23.5t35.5 -75.5q0 -48 -34 -75.5t-88 -27.5h-115v59h97q32 0 48 10t16 34q0 23 -16 33t-48 10h-50v109q-68 4 -127 32t-102.5 74.5t-68 109.5t-24.5 138z" />
    <glyph glyph-name="Egrave" unicode="&#xc8;" horiz-adv-x="513" 
d="M452 623h-284v-233h254v-75h-254v-240h284v-75h-375v698h375v-75zM198 917l163 -102l-45 -63l-163 99z" />
    <glyph glyph-name="Eacute" unicode="&#xc9;" horiz-adv-x="513" 
d="M452 623h-284v-233h254v-75h-254v-240h284v-75h-375v698h375v-75zM412 851l-163 -99l-45 63l163 102z" />
    <glyph glyph-name="Ecircumflex" unicode="&#xca;" horiz-adv-x="513" 
d="M452 623h-284v-233h254v-75h-254v-240h284v-75h-375v698h375v-75zM414 798l-45 -56l-103 65l-103 -65l-45 56l148 95z" />
    <glyph glyph-name="Edieresis" unicode="&#xcb;" horiz-adv-x="513" 
d="M452 623h-284v-233h254v-75h-254v-240h284v-75h-375v698h375v-75zM174 767q-23 0 -38 15t-15 37t15 37.5t38 15.5q21 0 36.5 -15.5t15.5 -37.5t-15.5 -37t-36.5 -15zM336 767q-23 0 -37.5 15t-14.5 37t14.5 37.5t37.5 15.5q22 0 37.5 -15.5t15.5 -37.5t-15.5 -37
t-37.5 -15z" />
    <glyph glyph-name="Igrave" unicode="&#xcc;" horiz-adv-x="246" 
d="M77 697h91v-697h-91v697zM47 917l163 -102l-45 -63l-163 99z" />
    <glyph glyph-name="Iacute" unicode="&#xcd;" horiz-adv-x="246" 
d="M77 697h91v-697h-91v697zM242 851l-163 -99l-45 63l163 102z" />
    <glyph glyph-name="Icircumflex" unicode="&#xce;" horiz-adv-x="246" 
d="M77 697h91v-697h-91v697zM261 742l-138 85l-139 -85v72l139 83l138 -83v-72z" />
    <glyph glyph-name="Idieresis" unicode="&#xcf;" horiz-adv-x="246" 
d="M77 697h91v-697h-91v697zM42 767q-23 0 -38 15t-15 37t15 37.5t38 15.5q21 0 36.5 -15.5t15.5 -37.5t-15.5 -37t-36.5 -15zM204 767q-23 0 -37.5 15t-14.5 37t14.5 37.5t37.5 15.5q22 0 37.5 -15.5t15.5 -37.5t-15.5 -37t-37.5 -15z" />
    <glyph glyph-name="Eth" unicode="&#xd0;" horiz-adv-x="725" 
d="M313 697q85 0 153.5 -24.5t116.5 -69.5t73.5 -110t25.5 -146t-25.5 -145.5t-73.5 -109t-116.5 -68.5t-153.5 -24h-217v305h-87v84h87v308h217zM313 70q68 0 119.5 19.5t86.5 55.5t52.5 87t17.5 115t-17.5 115t-52.5 87t-86.5 55t-119.5 19h-126v-234h192v-84h-192v-235
h126z" />
    <glyph glyph-name="Ntilde" unicode="&#xd1;" horiz-adv-x="703" 
d="M625 698v-698h-91l-366 555v-555h-91v698h91l366 -554v554h91zM205 752q8 52 34.5 78.5t65.5 26.5q20 0 34.5 -7t27 -16t25 -16t27.5 -7q17 0 29 10.5t15 32.5h52q-6 -51 -33.5 -77.5t-66.5 -26.5q-20 0 -35 7t-27.5 16t-24.5 16t-27 7q-37 0 -43 -44h-53z" />
    <glyph glyph-name="Ograve" unicode="&#xd2;" horiz-adv-x="786" 
d="M743 349q0 -78 -27 -143.5t-74 -113t-111 -73.5t-138 -26t-137.5 26t-111 73.5t-74.5 113t-27 143.5t27 143.5t74.5 113t111 73.5t137.5 26t138 -26t111 -73.5t74 -113t27 -143.5zM136 349q0 -64 19.5 -115t54 -87t81.5 -55.5t102 -19.5t102 19.5t81.5 55.5t54 87
t19.5 115t-19.5 115.5t-54 87.5t-81.5 55t-102 19t-102 -19t-81.5 -55t-54 -87.5t-19.5 -115.5zM329 917l163 -102l-45 -63l-163 99z" />
    <glyph glyph-name="Oacute" unicode="&#xd3;" horiz-adv-x="786" 
d="M743 349q0 -78 -27 -143.5t-74 -113t-111 -73.5t-138 -26t-137.5 26t-111 73.5t-74.5 113t-27 143.5t27 143.5t74.5 113t111 73.5t137.5 26t138 -26t111 -73.5t74 -113t27 -143.5zM136 349q0 -64 19.5 -115t54 -87t81.5 -55.5t102 -19.5t102 19.5t81.5 55.5t54 87
t19.5 115t-19.5 115.5t-54 87.5t-81.5 55t-102 19t-102 -19t-81.5 -55t-54 -87.5t-19.5 -115.5zM552 851l-163 -99l-45 63l163 102z" />
    <glyph glyph-name="Ocircumflex" unicode="&#xd4;" horiz-adv-x="786" 
d="M743 349q0 -78 -27 -143.5t-74 -113t-111 -73.5t-138 -26t-137.5 26t-111 73.5t-74.5 113t-27 143.5t27 143.5t74.5 113t111 73.5t137.5 26t138 -26t111 -73.5t74 -113t27 -143.5zM136 349q0 -64 19.5 -115t54 -87t81.5 -55.5t102 -19.5t102 19.5t81.5 55.5t54 87
t19.5 115t-19.5 115.5t-54 87.5t-81.5 55t-102 19t-102 -19t-81.5 -55t-54 -87.5t-19.5 -115.5zM544 798l-45 -56l-103 65l-103 -65l-45 56l148 95z" />
    <glyph glyph-name="Otilde" unicode="&#xd5;" horiz-adv-x="786" 
d="M743 349q0 -78 -27 -143.5t-74 -113t-111 -73.5t-138 -26t-137.5 26t-111 73.5t-74.5 113t-27 143.5t27 143.5t74.5 113t111 73.5t137.5 26t138 -26t111 -73.5t74 -113t27 -143.5zM136 349q0 -64 19.5 -115t54 -87t81.5 -55.5t102 -19.5t102 19.5t81.5 55.5t54 87
t19.5 115t-19.5 115.5t-54 87.5t-81.5 55t-102 19t-102 -19t-81.5 -55t-54 -87.5t-19.5 -115.5zM253 763q2 51 24 80t64 29q20 0 35 -5.5t29 -13.5q11 -8 19.5 -14.5t19.5 -6.5t20.5 9.5t9.5 29.5h69q0 -52 -23.5 -80.5t-65.5 -28.5q-21 0 -36.5 6.5t-28.5 15.5
q-11 8 -19.5 13.5t-18.5 5.5q-11 0 -20 -9.5t-9 -30.5h-69z" />
    <glyph glyph-name="Odieresis" unicode="&#xd6;" horiz-adv-x="786" 
d="M743 349q0 -78 -27 -143.5t-74 -113t-111 -73.5t-138 -26t-137.5 26t-111 73.5t-74.5 113t-27 143.5t27 143.5t74.5 113t111 73.5t137.5 26t138 -26t111 -73.5t74 -113t27 -143.5zM136 349q0 -64 19.5 -115t54 -87t81.5 -55.5t102 -19.5t102 19.5t81.5 55.5t54 87
t19.5 115t-19.5 115.5t-54 87.5t-81.5 55t-102 19t-102 -19t-81.5 -55t-54 -87.5t-19.5 -115.5zM315 767q-23 0 -38 15t-15 37t15 37.5t38 15.5q21 0 36.5 -15.5t15.5 -37.5t-15.5 -37t-36.5 -15zM477 767q-23 0 -37.5 15t-14.5 37t14.5 37.5t37.5 15.5q22 0 37.5 -15.5
t15.5 -37.5t-15.5 -37t-37.5 -15z" />
    <glyph glyph-name="multiply" unicode="&#xd7;" horiz-adv-x="643" 
d="M103 210l159 159l-156 156l58 59l157 -157l157 157l60 -60l-157 -157l158 -159l-58 -58l-159 159l-159 -159z" />
    <glyph glyph-name="Oslash" unicode="&#xd8;" horiz-adv-x="786" 
d="M743 349q0 -78 -27 -143.5t-74 -113t-111 -73.5t-138 -26q-64 0 -120 19.5t-101 55.5l-63 -68h-74l97 106q-42 48 -65.5 109t-23.5 134q0 78 27 143.5t74.5 113t111 73.5t137.5 26q64 0 120 -19.5t101 -55.5l63 68h74l-97 -105q42 -48 65.5 -108.5t23.5 -135.5zM136 349
q0 -55 14.5 -100t40.5 -80l367 400q-68 57 -165 57q-55 0 -102 -19t-81.5 -55t-54 -87.5t-19.5 -115.5zM393 72q55 0 102 19.5t81.5 55.5t54 87t19.5 115q0 55 -14 100t-40 80l-368 -400q67 -57 165 -57z" />
    <glyph glyph-name="Ugrave" unicode="&#xd9;" horiz-adv-x="675" 
d="M75 697h91v-441q0 -96 47.5 -139.5t124.5 -43.5t124 43.5t47 139.5v441h91v-440q0 -68 -21 -117.5t-56.5 -82t-83.5 -48.5t-102 -16t-101.5 16t-83.5 48.5t-56.5 82t-20.5 117.5v440zM259 917l163 -102l-45 -63l-163 99z" />
    <glyph glyph-name="Uacute" unicode="&#xda;" horiz-adv-x="675" 
d="M75 697h91v-441q0 -96 47.5 -139.5t124.5 -43.5t124 43.5t47 139.5v441h91v-440q0 -68 -21 -117.5t-56.5 -82t-83.5 -48.5t-102 -16t-101.5 16t-83.5 48.5t-56.5 82t-20.5 117.5v440zM492 851l-163 -99l-45 63l163 102z" />
    <glyph glyph-name="Ucircumflex" unicode="&#xdb;" horiz-adv-x="675" 
d="M75 697h91v-441q0 -96 47.5 -139.5t124.5 -43.5t124 43.5t47 139.5v441h91v-440q0 -68 -21 -117.5t-56.5 -82t-83.5 -48.5t-102 -16t-101.5 16t-83.5 48.5t-56.5 82t-20.5 117.5v440zM476 742l-138 85l-139 -85v72l139 83l138 -83v-72z" />
    <glyph glyph-name="Udieresis" unicode="&#xdc;" horiz-adv-x="675" 
d="M75 697h91v-441q0 -96 47.5 -139.5t124.5 -43.5t124 43.5t47 139.5v441h91v-440q0 -68 -21 -117.5t-56.5 -82t-83.5 -48.5t-102 -16t-101.5 16t-83.5 48.5t-56.5 82t-20.5 117.5v440zM257 767q-23 0 -38 15t-15 37t15 37.5t38 15.5q21 0 36.5 -15.5t15.5 -37.5t-15.5 -37
t-36.5 -15zM419 767q-23 0 -37.5 15t-14.5 37t14.5 37.5t37.5 15.5q22 0 37.5 -15.5t15.5 -37.5t-15.5 -37t-37.5 -15z" />
    <glyph glyph-name="Yacute" unicode="&#xdd;" horiz-adv-x="584" 
d="M19 697h101l172 -353l172 353h101l-227 -434v-263h-91v263zM452 851l-163 -99l-45 63l163 102z" />
    <glyph glyph-name="Thorn" unicode="&#xde;" horiz-adv-x="579" 
d="M302 219q78 0 113 35t35 95t-35 96t-113 36h-134v-262h134zM543 349q0 -41 -13.5 -77.5t-42.5 -64.5t-75 -44.5t-110 -16.5h-134v-146h-91v698h91v-145h134q61 0 106.5 -16t75.5 -43.5t44.5 -64.5t14.5 -80z" />
    <glyph glyph-name="germandbls" unicode="&#xdf;" horiz-adv-x="681" 
d="M60 561q0 43 14 81.5t43 67t73.5 45t104.5 16.5q54 0 95 -14t68.5 -37t41.5 -53t14 -62q0 -31 -10.5 -55t-26 -43.5t-34 -35t-34 -29.5t-26 -27t-10.5 -28q0 -10 5 -19t17.5 -18t34 -18.5t54.5 -20.5q75 -24 107 -63t32 -97q0 -72 -49.5 -116.5t-140.5 -44.5
q-88 0 -142 47.5t-62 132.5h92q3 -48 32 -77.5t80 -29.5q48 0 72.5 21t24.5 60q0 36 -21.5 58t-77.5 40q-79 26 -114.5 56t-35.5 77q0 38 22 65.5t49 51.5t49 48.5t22 57.5q0 45 -34.5 70.5t-94.5 25.5q-77 0 -110 -38t-33 -106v-550h-91v561z" />
    <glyph glyph-name="agrave" unicode="&#xe0;" horiz-adv-x="676" 
d="M43 276q0 64 20 116t55 88.5t82.5 56.5t102.5 20q39 0 71 -9t57.5 -24t44.5 -35t31 -41v100h92v-548h-92v102q-12 -22 -31.5 -42t-45.5 -35.5t-58.5 -24.5t-69.5 -9q-55 0 -102 20.5t-82 58t-55 90t-20 116.5zM507 275q0 48 -15 85.5t-40.5 63.5t-59.5 40t-71 14
q-38 0 -71.5 -13.5t-58.5 -39t-40 -63.5t-15 -86t15 -86.5t40 -64.5t58.5 -40t71.5 -14q37 0 71 13.5t59.5 40t40.5 64.5t15 86zM277 788l163 -102l-45 -63l-163 99z" />
    <glyph glyph-name="aacute" unicode="&#xe1;" horiz-adv-x="676" 
d="M43 276q0 64 20 116t55 88.5t82.5 56.5t102.5 20q39 0 71 -9t57.5 -24t44.5 -35t31 -41v100h92v-548h-92v102q-12 -22 -31.5 -42t-45.5 -35.5t-58.5 -24.5t-69.5 -9q-55 0 -102 20.5t-82 58t-55 90t-20 116.5zM507 275q0 48 -15 85.5t-40.5 63.5t-59.5 40t-71 14
q-38 0 -71.5 -13.5t-58.5 -39t-40 -63.5t-15 -86t15 -86.5t40 -64.5t58.5 -40t71.5 -14q37 0 71 13.5t59.5 40t40.5 64.5t15 86zM489 722l-163 -99l-45 63l163 102z" />
    <glyph glyph-name="acircumflex" unicode="&#xe2;" horiz-adv-x="676" 
d="M43 276q0 64 20 116t55 88.5t82.5 56.5t102.5 20q39 0 71 -9t57.5 -24t44.5 -35t31 -41v100h92v-548h-92v102q-12 -22 -31.5 -42t-45.5 -35.5t-58.5 -24.5t-69.5 -9q-55 0 -102 20.5t-82 58t-55 90t-20 116.5zM507 275q0 48 -15 85.5t-40.5 63.5t-59.5 40t-71 14
q-38 0 -71.5 -13.5t-58.5 -39t-40 -63.5t-15 -86t15 -86.5t40 -64.5t58.5 -40t71.5 -14q37 0 71 13.5t59.5 40t40.5 64.5t15 86zM488 669l-45 -56l-103 65l-103 -65l-45 56l148 95z" />
    <glyph glyph-name="atilde" unicode="&#xe3;" horiz-adv-x="676" 
d="M43 276q0 64 20 116t55 88.5t82.5 56.5t102.5 20q39 0 71 -9t57.5 -24t44.5 -35t31 -41v100h92v-548h-92v102q-12 -22 -31.5 -42t-45.5 -35.5t-58.5 -24.5t-69.5 -9q-55 0 -102 20.5t-82 58t-55 90t-20 116.5zM507 275q0 48 -15 85.5t-40.5 63.5t-59.5 40t-71 14
q-38 0 -71.5 -13.5t-58.5 -39t-40 -63.5t-15 -86t15 -86.5t40 -64.5t58.5 -40t71.5 -14q37 0 71 13.5t59.5 40t40.5 64.5t15 86zM207 634q2 51 24 80t64 29q20 0 35 -5.5t29 -13.5q11 -8 19.5 -14.5t19.5 -6.5t20.5 9.5t9.5 29.5h69q0 -52 -23.5 -80.5t-65.5 -28.5
q-21 0 -36.5 6.5t-28.5 15.5q-11 8 -19.5 13.5t-18.5 5.5q-11 0 -20 -9.5t-9 -30.5h-69z" />
    <glyph glyph-name="adieresis" unicode="&#xe4;" horiz-adv-x="676" 
d="M43 276q0 64 20 116t55 88.5t82.5 56.5t102.5 20q39 0 71 -9t57.5 -24t44.5 -35t31 -41v100h92v-548h-92v102q-12 -22 -31.5 -42t-45.5 -35.5t-58.5 -24.5t-69.5 -9q-55 0 -102 20.5t-82 58t-55 90t-20 116.5zM507 275q0 48 -15 85.5t-40.5 63.5t-59.5 40t-71 14
q-38 0 -71.5 -13.5t-58.5 -39t-40 -63.5t-15 -86t15 -86.5t40 -64.5t58.5 -40t71.5 -14q37 0 71 13.5t59.5 40t40.5 64.5t15 86zM258 622q-23 0 -38 15t-15 37t15 37.5t38 15.5q21 0 36.5 -15.5t15.5 -37.5t-15.5 -37t-36.5 -15zM420 622q-23 0 -37.5 15t-14.5 37t14.5 37.5
t37.5 15.5q22 0 37.5 -15.5t15.5 -37.5t-15.5 -37t-37.5 -15z" />
    <glyph glyph-name="aring" unicode="&#xe5;" horiz-adv-x="676" 
d="M43 276q0 64 20 116t55 88.5t82.5 56.5t102.5 20q39 0 71 -9t57.5 -24t44.5 -35t31 -41v100h92v-548h-92v102q-12 -22 -31.5 -42t-45.5 -35.5t-58.5 -24.5t-69.5 -9q-55 0 -102 20.5t-82 58t-55 90t-20 116.5zM507 275q0 48 -15 85.5t-40.5 63.5t-59.5 40t-71 14
q-38 0 -71.5 -13.5t-58.5 -39t-40 -63.5t-15 -86t15 -86.5t40 -64.5t58.5 -40t71.5 -14q37 0 71 13.5t59.5 40t40.5 64.5t15 86zM339 817q45 0 76 -28t31 -77t-31 -77t-76 -28t-76 28t-31 77t31 77t76 28zM339 656q23 0 38.5 15.5t15.5 41.5t-15.5 41t-38.5 15t-38.5 -15
t-15.5 -41t15.5 -41.5t38.5 -15.5z" />
    <glyph glyph-name="ae" unicode="&#xe6;" horiz-adv-x="1097" 
d="M784 480q-35 0 -66.5 -11.5t-56.5 -33.5t-41 -54t-20 -72h361q0 41 -14 73t-38 53.5t-56.5 33t-68.5 11.5zM1043 169q-11 -38 -32 -70.5t-52 -56.5t-71.5 -37.5t-89.5 -13.5q-69 0 -124.5 30.5t-84.5 84.5v-106h-79v105q-29 -48 -82 -81t-125 -33q-55 0 -102.5 20.5
t-82.5 58t-55 90t-20 116.5t20 116t55.5 88.5t84 56.5t105.5 20q69 0 120.5 -28t84.5 -82v101h76v-101q38 58 90.5 84t118.5 26q58 0 105.5 -20t81.5 -55.5t52 -83t18 -101.5q0 -14 -1 -27t-3 -27h-451q4 -44 21 -77t42.5 -54.5t56.5 -32.5t63 -11q66 0 107 28t55 73h98z
M136 276q0 -48 15 -86.5t40 -64.5t58.5 -40t71.5 -14q37 0 71 13.5t59.5 40t40.5 64.5t15 86t-15 85.5t-40.5 63.5t-59.5 40t-71 14q-38 0 -71.5 -13.5t-58.5 -39t-40 -63.5t-15 -86z" />
    <glyph glyph-name="ccedilla" unicode="&#xe7;" horiz-adv-x="607" 
d="M43 275q0 64 20 116.5t55 89t84 56.5t108 20q103 0 167.5 -48.5t85.5 -136.5h-98q-14 51 -54 79.5t-101 28.5q-38 0 -69.5 -13t-55 -39t-36.5 -64.5t-13 -88.5q0 -51 13 -89.5t36.5 -65t55 -39.5t69.5 -13q61 0 100.5 28t54.5 80h98q-20 -76 -77 -126t-148 -58v-50
q58 1 93.5 -23.5t35.5 -75.5q0 -48 -34 -75.5t-88 -27.5h-115v59h97q32 0 48 10t16 34q0 23 -16 33t-48 10h-50v107q-52 5 -95 27t-74 58.5t-48 86.5t-17 110z" />
    <glyph glyph-name="egrave" unicode="&#xe8;" horiz-adv-x="620" 
d="M310 480q-33 0 -63 -11t-53 -32t-38 -52t-19 -71h346q0 40 -14 71t-37.5 52t-55 32t-66.5 11zM566 169q-11 -38 -32.5 -70.5t-53 -56.5t-73.5 -37.5t-93 -13.5q-59 0 -108.5 20t-85.5 57t-56.5 89.5t-20.5 117.5t20 117t55.5 89t85.5 56.5t110 19.5t108.5 -20t83 -55
t53 -83t18.5 -104q0 -15 -0.5 -28t-2.5 -27h-438q3 -42 18 -74t39 -53.5t55 -33t66 -11.5q63 0 101 28t53 73h98zM246 788l163 -102l-45 -63l-163 99z" />
    <glyph glyph-name="eacute" unicode="&#xe9;" horiz-adv-x="620" 
d="M310 480q-33 0 -63 -11t-53 -32t-38 -52t-19 -71h346q0 40 -14 71t-37.5 52t-55 32t-66.5 11zM566 169q-11 -38 -32.5 -70.5t-53 -56.5t-73.5 -37.5t-93 -13.5q-59 0 -108.5 20t-85.5 57t-56.5 89.5t-20.5 117.5t20 117t55.5 89t85.5 56.5t110 19.5t108.5 -20t83 -55
t53 -83t18.5 -104q0 -15 -0.5 -28t-2.5 -27h-438q3 -42 18 -74t39 -53.5t55 -33t66 -11.5q63 0 101 28t53 73h98zM469 722l-163 -99l-45 63l163 102z" />
    <glyph glyph-name="ecircumflex" unicode="&#xea;" horiz-adv-x="620" 
d="M310 480q-33 0 -63 -11t-53 -32t-38 -52t-19 -71h346q0 40 -14 71t-37.5 52t-55 32t-66.5 11zM566 169q-11 -38 -32.5 -70.5t-53 -56.5t-73.5 -37.5t-93 -13.5q-59 0 -108.5 20t-85.5 57t-56.5 89.5t-20.5 117.5t20 117t55.5 89t85.5 56.5t110 19.5t108.5 -20t83 -55
t53 -83t18.5 -104q0 -15 -0.5 -28t-2.5 -27h-438q3 -42 18 -74t39 -53.5t55 -33t66 -11.5q63 0 101 28t53 73h98zM465 669l-45 -56l-103 65l-103 -65l-45 56l148 95z" />
    <glyph glyph-name="edieresis" unicode="&#xeb;" horiz-adv-x="620" 
d="M310 480q-33 0 -63 -11t-53 -32t-38 -52t-19 -71h346q0 40 -14 71t-37.5 52t-55 32t-66.5 11zM566 169q-11 -38 -32.5 -70.5t-53 -56.5t-73.5 -37.5t-93 -13.5q-59 0 -108.5 20t-85.5 57t-56.5 89.5t-20.5 117.5t20 117t55.5 89t85.5 56.5t110 19.5t108.5 -20t83 -55
t53 -83t18.5 -104q0 -15 -0.5 -28t-2.5 -27h-438q3 -42 18 -74t39 -53.5t55 -33t66 -11.5q63 0 101 28t53 73h98zM229 622q-23 0 -38 15t-15 37t15 37.5t38 15.5q21 0 36.5 -15.5t15.5 -37.5t-15.5 -37t-36.5 -15zM391 622q-23 0 -37.5 15t-14.5 37t14.5 37.5t37.5 15.5
q22 0 37.5 -15.5t15.5 -37.5t-15.5 -37t-37.5 -15z" />
    <glyph glyph-name="igrave" unicode="&#xec;" horiz-adv-x="246" 
d="M77 548h91v-548h-91v548zM46 788l163 -102l-45 -63l-163 99z" />
    <glyph glyph-name="iacute" unicode="&#xed;" horiz-adv-x="246" 
d="M77 548h91v-548h-91v548zM239 722l-163 -99l-45 63l163 102z" />
    <glyph glyph-name="icircumflex" unicode="&#xee;" horiz-adv-x="246" 
d="M77 548h91v-548h-91v548zM261 597l-138 85l-139 -85v72l139 83l138 -83v-72z" />
    <glyph glyph-name="idieresis" unicode="&#xef;" horiz-adv-x="246" 
d="M77 548h91v-548h-91v548zM42 622q-23 0 -38 15t-15 37t15 37.5t38 15.5q21 0 36.5 -15.5t15.5 -37.5t-15.5 -37t-36.5 -15zM204 622q-23 0 -37.5 15t-14.5 37t14.5 37.5t37.5 15.5q22 0 37.5 -15.5t15.5 -37.5t-15.5 -37t-37.5 -15z" />
    <glyph glyph-name="eth" unicode="&#xf0;" horiz-adv-x="638" 
d="M355 676q-16 16 -34.5 31.5t-38.5 32.5h93q12 -11 23.5 -20.5t22.5 -20.5l131 44v-51l-94 -32q69 -76 103.5 -160.5t34.5 -184.5q0 -81 -21.5 -141.5t-59 -101t-88.5 -61t-111 -20.5t-110 20.5t-86.5 58t-56.5 90.5t-20 118q0 64 20.5 115.5t56.5 88t85 56.5t106 20
q119 0 181 -92q-16 48 -40 89t-61 83l-130 -44v50zM136 278q0 -51 14 -90.5t38.5 -66t57 -40t70.5 -13.5q37 0 70.5 13.5t59 39.5t41 64.5t15.5 89.5t-15 89.5t-40.5 64.5t-59 39t-69.5 13q-37 0 -70 -13t-58 -38.5t-39.5 -63.5t-14.5 -88z" />
    <glyph glyph-name="ntilde" unicode="&#xf1;" 
d="M168 0h-91v548h91v-78q27 43 73 65.5t103 22.5q48 0 89 -14.5t71 -44t47 -73.5t17 -103v-323h-90v310q0 85 -42 127t-111 42q-70 0 -113.5 -43t-43.5 -133v-303zM175 607q8 52 34.5 78.5t65.5 26.5q20 0 34.5 -7t27 -16t25 -16t27.5 -7q17 0 29 10.5t15 32.5h52
q-6 -51 -33.5 -77.5t-66.5 -26.5q-20 0 -35 7t-27.5 16t-24.5 16t-27 7q-37 0 -43 -44h-53z" />
    <glyph glyph-name="ograve" unicode="&#xf2;" 
d="M597 275q0 -65 -22 -117.5t-60 -89.5t-89.5 -57t-109.5 -20t-108 20t-86.5 57t-57.5 89.5t-21 117.5t21.5 117t59 89t88 56.5t108.5 19.5t109 -19.5t88 -56.5t58.5 -89t21.5 -117zM136 275q0 -52 15 -90.5t39.5 -63.5t57 -37.5t68.5 -12.5t69.5 12.5t60 37.5t42.5 63.5
t16 90.5t-15.5 90t-41.5 63t-59.5 37.5t-68.5 12.5q-36 0 -69 -12.5t-58.5 -37.5t-40.5 -63t-15 -90zM246 788l163 -102l-45 -63l-163 99z" />
    <glyph glyph-name="oacute" unicode="&#xf3;" 
d="M597 275q0 -65 -22 -117.5t-60 -89.5t-89.5 -57t-109.5 -20t-108 20t-86.5 57t-57.5 89.5t-21 117.5t21.5 117t59 89t88 56.5t108.5 19.5t109 -19.5t88 -56.5t58.5 -89t21.5 -117zM136 275q0 -52 15 -90.5t39.5 -63.5t57 -37.5t68.5 -12.5t69.5 12.5t60 37.5t42.5 63.5
t16 90.5t-15.5 90t-41.5 63t-59.5 37.5t-68.5 12.5q-36 0 -69 -12.5t-58.5 -37.5t-40.5 -63t-15 -90zM479 722l-163 -99l-45 63l163 102z" />
    <glyph glyph-name="ocircumflex" unicode="&#xf4;" 
d="M597 275q0 -65 -22 -117.5t-60 -89.5t-89.5 -57t-109.5 -20t-108 20t-86.5 57t-57.5 89.5t-21 117.5t21.5 117t59 89t88 56.5t108.5 19.5t109 -19.5t88 -56.5t58.5 -89t21.5 -117zM136 275q0 -52 15 -90.5t39.5 -63.5t57 -37.5t68.5 -12.5t69.5 12.5t60 37.5t42.5 63.5
t16 90.5t-15.5 90t-41.5 63t-59.5 37.5t-68.5 12.5q-36 0 -69 -12.5t-58.5 -37.5t-40.5 -63t-15 -90zM469 669l-45 -56l-103 65l-103 -65l-45 56l148 95z" />
    <glyph glyph-name="otilde" unicode="&#xf5;" 
d="M597 275q0 -65 -22 -117.5t-60 -89.5t-89.5 -57t-109.5 -20t-108 20t-86.5 57t-57.5 89.5t-21 117.5t21.5 117t59 89t88 56.5t108.5 19.5t109 -19.5t88 -56.5t58.5 -89t21.5 -117zM136 275q0 -52 15 -90.5t39.5 -63.5t57 -37.5t68.5 -12.5t69.5 12.5t60 37.5t42.5 63.5
t16 90.5t-15.5 90t-41.5 63t-59.5 37.5t-68.5 12.5q-36 0 -69 -12.5t-58.5 -37.5t-40.5 -63t-15 -90zM184 634q2 51 24 80t64 29q20 0 35 -5.5t29 -13.5q11 -8 19.5 -14.5t19.5 -6.5t20.5 9.5t9.5 29.5h69q0 -52 -23.5 -80.5t-65.5 -28.5q-21 0 -36.5 6.5t-28.5 15.5
q-11 8 -19.5 13.5t-18.5 5.5q-11 0 -20 -9.5t-9 -30.5h-69z" />
    <glyph glyph-name="odieresis" unicode="&#xf6;" 
d="M597 275q0 -65 -22 -117.5t-60 -89.5t-89.5 -57t-109.5 -20t-108 20t-86.5 57t-57.5 89.5t-21 117.5t21.5 117t59 89t88 56.5t108.5 19.5t109 -19.5t88 -56.5t58.5 -89t21.5 -117zM136 275q0 -52 15 -90.5t39.5 -63.5t57 -37.5t68.5 -12.5t69.5 12.5t60 37.5t42.5 63.5
t16 90.5t-15.5 90t-41.5 63t-59.5 37.5t-68.5 12.5q-36 0 -69 -12.5t-58.5 -37.5t-40.5 -63t-15 -90zM240 629q-23 0 -38 15t-15 37t15 37.5t38 15.5q21 0 36.5 -15.5t15.5 -37.5t-15.5 -37t-36.5 -15zM402 629q-23 0 -37.5 15t-14.5 37t14.5 37.5t37.5 15.5
q22 0 37.5 -15.5t15.5 -37.5t-15.5 -37t-37.5 -15z" />
    <glyph glyph-name="divide" unicode="&#xf7;" horiz-adv-x="657" 
d="M78 405h510v-77h-510v77zM395 153q0 -26 -17.5 -44t-42.5 -18q-26 0 -44 18t-18 44t18 44t44 18q25 0 42.5 -18t17.5 -44zM395 582q0 -26 -17.5 -44t-42.5 -18q-26 0 -44 18t-18 44t18 44t44 18q25 0 42.5 -18t17.5 -44z" />
    <glyph glyph-name="oslash" unicode="&#xf8;" 
d="M597 275q0 -65 -22 -117.5t-60 -89.5t-89.5 -57t-109.5 -20q-51 0 -93.5 14.5t-77.5 40.5l-42 -46h-65l72 79q-32 37 -49.5 86.5t-17.5 109.5q0 65 21.5 117t59 89t88 56.5t108.5 19.5q101 0 175 -57l43 48h65l-73 -80q32 -36 49.5 -84.5t17.5 -108.5zM136 275
q0 -80 35 -130l266 292q-25 21 -55.5 31t-62.5 10q-36 0 -69 -12.5t-58.5 -37.5t-40.5 -63t-15 -90zM316 71q36 0 69.5 12.5t60 37.5t42.5 63.5t16 90.5q0 79 -35 126l-266 -292q47 -38 113 -38z" />
    <glyph glyph-name="ugrave" unicode="&#xf9;" 
d="M563 0h-91v81q-26 -43 -73 -66t-102 -23q-47 0 -88 14.5t-71.5 44t-48 73.5t-17.5 103v321h90v-309q0 -85 42 -126.5t111 -41.5q72 0 114.5 43t42.5 133v301h91v-548zM236 788l163 -102l-45 -63l-163 99z" />
    <glyph glyph-name="uacute" unicode="&#xfa;" 
d="M563 0h-91v81q-26 -43 -73 -66t-102 -23q-47 0 -88 14.5t-71.5 44t-48 73.5t-17.5 103v321h90v-309q0 -85 42 -126.5t111 -41.5q72 0 114.5 43t42.5 133v301h91v-548zM479 722l-163 -99l-45 63l163 102z" />
    <glyph glyph-name="ucircumflex" unicode="&#xfb;" 
d="M563 0h-91v81q-26 -43 -73 -66t-102 -23q-47 0 -88 14.5t-71.5 44t-48 73.5t-17.5 103v321h90v-309q0 -85 42 -126.5t111 -41.5q72 0 114.5 43t42.5 133v301h91v-548zM459 597l-138 85l-139 -85v72l139 83l138 -83v-72z" />
    <glyph glyph-name="udieresis" unicode="&#xfc;" 
d="M563 0h-91v81q-26 -43 -73 -66t-102 -23q-47 0 -88 14.5t-71.5 44t-48 73.5t-17.5 103v321h90v-309q0 -85 42 -126.5t111 -41.5q72 0 114.5 43t42.5 133v301h91v-548zM240 622q-23 0 -38 15t-15 37t15 37.5t38 15.5q21 0 36.5 -15.5t15.5 -37.5t-15.5 -37t-36.5 -15z
M402 622q-23 0 -37.5 15t-14.5 37t14.5 37.5t37.5 15.5q22 0 37.5 -15.5t15.5 -37.5t-15.5 -37t-37.5 -15z" />
    <glyph glyph-name="yacute" unicode="&#xfd;" horiz-adv-x="563" 
d="M455 548h94l-330 -806h-94l108 264l-221 542h101l172 -444zM429 722l-163 -99l-45 63l163 102z" />
    <glyph glyph-name="thorn" unicode="&#xfe;" horiz-adv-x="676" 
d="M168 432q25 54 77.5 89.5t127.5 35.5q55 0 102.5 -20t82.5 -56.5t55 -88.5t20 -116t-20 -116.5t-55 -90t-82.5 -58t-102.5 -20.5q-75 0 -127 36t-78 93v-380h-91v1000h91v-308zM540 276q0 48 -15 86t-40.5 63.5t-59.5 39t-71 13.5q-38 0 -71.5 -14t-59 -40t-40.5 -63.5
t-15 -85.5t15 -86t40.5 -64.5t59 -40t71.5 -13.5q37 0 71 14t59.5 40t40.5 64.5t15 86.5z" />
    <glyph glyph-name="ydieresis" unicode="&#xff;" horiz-adv-x="563" 
d="M455 548h94l-330 -806h-94l108 264l-221 542h101l172 -444zM201 622q-23 0 -38 15t-15 37t15 37.5t38 15.5q21 0 36.5 -15.5t15.5 -37.5t-15.5 -37t-36.5 -15zM363 622q-23 0 -37.5 15t-14.5 37t14.5 37.5t37.5 15.5q22 0 37.5 -15.5t15.5 -37.5t-15.5 -37t-37.5 -15z
" />
    <glyph glyph-name="Amacron" unicode="&#x100;" horiz-adv-x="674" 
d="M489 155h-304l-56 -155h-96l252 693h105l251 -693h-96zM161 854h352v-68h-352v68zM337 581l-126 -352h252z" />
    <glyph glyph-name="amacron" unicode="&#x101;" horiz-adv-x="676" 
d="M43 276q0 64 20 116t55 88.5t82.5 56.5t102.5 20q39 0 71 -9t57.5 -24t44.5 -35t31 -41v100h92v-548h-92v102q-12 -22 -31.5 -42t-45.5 -35.5t-58.5 -24.5t-69.5 -9q-55 0 -102 20.5t-82 58t-55 90t-20 116.5zM507 275q0 48 -15 85.5t-40.5 63.5t-59.5 40t-71 14
q-38 0 -71.5 -13.5t-58.5 -39t-40 -63.5t-15 -86t15 -86.5t40 -64.5t58.5 -40t71.5 -14q37 0 71 13.5t59.5 40t40.5 64.5t15 86zM163 709h352v-68h-352v68z" />
    <glyph glyph-name="Abreve" unicode="&#x102;" horiz-adv-x="674" 
d="M489 155h-304l-56 -155h-96l252 693h105l251 -693h-96zM337 581l-126 -352h252zM272 866q0 -29 15.5 -44.5t50.5 -15.5t51 15.5t16 44.5h72q0 -57 -35 -93t-104 -36t-103.5 36t-34.5 93h72z" />
    <glyph glyph-name="abreve" unicode="&#x103;" horiz-adv-x="676" 
d="M43 276q0 64 20 116t55 88.5t82.5 56.5t102.5 20q39 0 71 -9t57.5 -24t44.5 -35t31 -41v100h92v-548h-92v102q-12 -22 -31.5 -42t-45.5 -35.5t-58.5 -24.5t-69.5 -9q-55 0 -102 20.5t-82 58t-55 90t-20 116.5zM507 275q0 48 -15 85.5t-40.5 63.5t-59.5 40t-71 14
q-38 0 -71.5 -13.5t-58.5 -39t-40 -63.5t-15 -86t15 -86.5t40 -64.5t58.5 -40t71.5 -14q37 0 71 13.5t59.5 40t40.5 64.5t15 86zM283 741q0 -29 15.5 -44.5t50.5 -15.5t51 15.5t16 44.5h72q0 -57 -35 -93t-104 -36t-103.5 36t-34.5 93h72z" />
    <glyph glyph-name="Aogonek" unicode="&#x104;" horiz-adv-x="674" 
d="M390 693l251 -693l-54 -27q-35 -17 -48 -34t-13 -36q0 -23 16.5 -35.5t42.5 -12.5q28 0 65 13v-60q-17 -6 -36.5 -10t-39.5 -4q-23 0 -45 5.5t-39 17.5t-28 31t-11 46q0 32 19.5 61.5t70.5 56.5l-52 143h-304l-56 -155h-96l252 693h105zM337 581l-126 -352h252z" />
    <glyph glyph-name="aogonek" unicode="&#x105;" horiz-adv-x="676" 
d="M43 276q0 64 20 116t55 88.5t82.5 56.5t102.5 20q39 0 71 -9t57.5 -24t44.5 -35t31 -41v100h92v-548l-55 -27q-34 -17 -47 -34t-13 -36q0 -23 16 -35.5t43 -12.5q29 0 65 13v-60q-17 -6 -37 -10t-40 -4q-23 0 -44.5 5.5t-39 17.5t-28 31t-10.5 46q0 33 22 63.5t76 59.5
v85q-12 -22 -31.5 -42t-45.5 -35.5t-58.5 -24.5t-69.5 -9q-55 0 -102 20.5t-82 58t-55 90t-20 116.5zM507 275q0 48 -15 85.5t-40.5 63.5t-59.5 40t-71 14q-38 0 -71.5 -13.5t-58.5 -39t-40 -63.5t-15 -86t15 -86.5t40 -64.5t58.5 -40t71.5 -14q37 0 71 13.5t59.5 40
t40.5 64.5t15 86z" />
    <glyph glyph-name="Cacute" unicode="&#x106;" horiz-adv-x="772" 
d="M43 349q0 78 27 144t74 113t110.5 73.5t136.5 26.5q115 0 199.5 -54t123.5 -157h-109q-29 63 -82.5 97t-131.5 34q-55 0 -101.5 -19t-80.5 -55t-53.5 -87.5t-19.5 -115.5t19.5 -115t53.5 -87t80.5 -55t101.5 -19q78 0 131.5 33.5t82.5 96.5h109q-39 -102 -123.5 -155.5
t-199.5 -53.5q-73 0 -136.5 26t-110.5 73t-74 112.5t-27 143.5zM494 933v-79l-213 -114v68z" />
    <glyph glyph-name="cacute" unicode="&#x107;" horiz-adv-x="607" 
d="M43 275q0 64 20 116.5t55 89t84 56.5t108 20q103 0 167.5 -48.5t85.5 -136.5h-98q-14 51 -54 79.5t-101 28.5q-38 0 -69.5 -13t-55 -39t-36.5 -64.5t-13 -88.5q0 -51 13 -89.5t36.5 -65t55 -39.5t69.5 -13q61 0 100.5 28t54.5 80h98q-22 -82 -86 -133.5t-167 -51.5
q-59 0 -108 20t-84 57t-55 89.5t-20 117.5zM402 782v-79l-213 -114v68z" />
    <glyph glyph-name="Cdotaccent" unicode="&#x10a;" horiz-adv-x="772" 
d="M43 349q0 78 27 144t74 113t110.5 73.5t136.5 26.5q115 0 199.5 -54t123.5 -157h-109q-29 63 -82.5 97t-131.5 34q-55 0 -101.5 -19t-80.5 -55t-53.5 -87.5t-19.5 -115.5t19.5 -115t53.5 -87t80.5 -55t101.5 -19q78 0 131.5 33.5t82.5 96.5h109q-39 -102 -123.5 -155.5
t-199.5 -53.5q-73 0 -136.5 26t-110.5 73t-74 112.5t-27 143.5zM397 767q-23 0 -38 15t-15 37t15 37.5t38 15.5q22 0 37 -15.5t15 -37.5t-15 -37t-37 -15z" />
    <glyph glyph-name="cdotaccent" unicode="&#x10b;" horiz-adv-x="607" 
d="M43 275q0 64 20 116.5t55 89t84 56.5t108 20q103 0 167.5 -48.5t85.5 -136.5h-98q-14 51 -54 79.5t-101 28.5q-38 0 -69.5 -13t-55 -39t-36.5 -64.5t-13 -88.5q0 -51 13 -89.5t36.5 -65t55 -39.5t69.5 -13q61 0 100.5 28t54.5 80h98q-22 -82 -86 -133.5t-167 -51.5
q-59 0 -108 20t-84 57t-55 89.5t-20 117.5zM304 617q-23 0 -38 15t-15 37t15 37.5t38 15.5q22 0 37 -15.5t15 -37.5t-15 -37t-37 -15z" />
    <glyph glyph-name="Ccaron" unicode="&#x10c;" horiz-adv-x="772" 
d="M43 349q0 78 27 144t74 113t110.5 73.5t136.5 26.5q115 0 199.5 -54t123.5 -157h-109q-29 63 -82.5 97t-131.5 34q-55 0 -101.5 -19t-80.5 -55t-53.5 -87.5t-19.5 -115.5t19.5 -115t53.5 -87t80.5 -55t101.5 -19q78 0 131.5 33.5t82.5 96.5h109q-39 -102 -123.5 -155.5
t-199.5 -53.5q-73 0 -136.5 26t-110.5 73t-74 112.5t-27 143.5zM535 902v-72l-138 -82l-139 82v72l139 -85z" />
    <glyph glyph-name="ccaron" unicode="&#x10d;" horiz-adv-x="607" 
d="M43 275q0 64 20 116.5t55 89t84 56.5t108 20q103 0 167.5 -48.5t85.5 -136.5h-98q-14 51 -54 79.5t-101 28.5q-38 0 -69.5 -13t-55 -39t-36.5 -64.5t-13 -88.5q0 -51 13 -89.5t36.5 -65t55 -39.5t69.5 -13q61 0 100.5 28t54.5 80h98q-22 -82 -86 -133.5t-167 -51.5
q-59 0 -108 20t-84 57t-55 89.5t-20 117.5zM442 751v-72l-138 -82l-139 82v72l139 -85z" />
    <glyph glyph-name="Dcaron" unicode="&#x10e;" horiz-adv-x="707" 
d="M294 697q86 0 154.5 -24.5t116.5 -69.5t73.5 -110t25.5 -146t-25.5 -145.5t-73.5 -109t-116.5 -68.5t-154.5 -24h-217v697h217zM294 75q138 0 207.5 71.5t69.5 200.5t-70 202.5t-207 73.5h-126v-548h126zM490 896v-72l-138 -82l-139 82v72l139 -85z" />
    <glyph glyph-name="dcaron" unicode="&#x10f;" horiz-adv-x="754" 
d="M743 740q5 -26 8 -49t3 -43q0 -60 -25.5 -86.5t-76.5 -26.5v43q26 0 37 13.5t11 39.5v23h-49v86h92zM43 276q0 64 20 116t55 88.5t82.5 56.5t103.5 20q65 0 119.5 -29.5t83.5 -77.5v290h92v-740h-92v103q-25 -46 -77 -79t-127 -33q-55 0 -102.5 20.5t-82.5 58t-55 90
t-20 116.5zM507 275q0 48 -15 85.5t-40.5 63.5t-59.5 40t-71 14q-38 0 -71.5 -13.5t-58.5 -39t-40 -63.5t-15 -86t15 -86.5t40 -64.5t58.5 -40t71.5 -14q37 0 71 13.5t59.5 40t40.5 64.5t15 86z" />
    <glyph glyph-name="Dcroat" unicode="&#x110;" horiz-adv-x="725" 
d="M313 697q85 0 153.5 -24.5t116.5 -69.5t73.5 -110t25.5 -146t-25.5 -145.5t-73.5 -109t-116.5 -68.5t-153.5 -24h-217v305h-71v78h71v314h217zM313 70q68 0 119.5 19.5t86.5 55.5t52.5 87t17.5 115t-17.5 115t-52.5 87t-86.5 55t-119.5 19h-126v-240h187v-78h-187v-235
h126z" />
    <glyph glyph-name="dcroat" unicode="&#x111;" horiz-adv-x="675" 
d="M43 276q0 64 20 116t55 88.5t82.5 56.5t103.5 20q65 0 119.5 -29.5t83.5 -77.5v155h-142v73h142v62h92v-62h61v-73h-61v-605h-92v103q-25 -46 -77 -79t-127 -33q-55 0 -102.5 20.5t-82.5 58t-55 90t-20 116.5zM507 275q0 48 -15 85.5t-40.5 63.5t-59.5 40t-71 14
q-38 0 -71.5 -13.5t-58.5 -39t-40 -63.5t-15 -86t15 -86.5t40 -64.5t58.5 -40t71.5 -14q37 0 71 13.5t59.5 40t40.5 64.5t15 86z" />
    <glyph glyph-name="Emacron" unicode="&#x112;" horiz-adv-x="513" 
d="M452 623h-284v-233h254v-75h-254v-240h284v-75h-375v698h375v-75zM78 854h352v-68h-352v68z" />
    <glyph glyph-name="emacron" unicode="&#x113;" horiz-adv-x="620" 
d="M310 480q-33 0 -63 -11t-53 -32t-38 -52t-19 -71h346q0 40 -14 71t-37.5 52t-55 32t-66.5 11zM566 169q-11 -38 -32.5 -70.5t-53 -56.5t-73.5 -37.5t-93 -13.5q-59 0 -108.5 20t-85.5 57t-56.5 89.5t-20.5 117.5t20 117t55.5 89t85.5 56.5t110 19.5t108.5 -20t83 -55
t53 -83t18.5 -104q0 -15 -0.5 -28t-2.5 -27h-438q3 -42 18 -74t39 -53.5t55 -33t66 -11.5q63 0 101 28t53 73h98zM134 709h352v-68h-352v68z" />
    <glyph glyph-name="Ebreve" unicode="&#x114;" horiz-adv-x="513" 
d="M452 623h-284v-233h254v-75h-254v-240h284v-75h-375v698h375v-75zM397 877q0 -57 -36.5 -93.5t-105.5 -36.5t-106 37t-37 94v17h54q0 -36 20 -56.5t69 -20.5q48 0 68 20.5t20 56.5h54v-18z" />
    <glyph glyph-name="ebreve" unicode="&#x115;" horiz-adv-x="620" 
d="M310 480q-33 0 -63 -11t-53 -32t-38 -52t-19 -71h346q0 40 -14 71t-37.5 52t-55 32t-66.5 11zM566 169q-11 -38 -32.5 -70.5t-53 -56.5t-73.5 -37.5t-93 -13.5q-59 0 -108.5 20t-85.5 57t-56.5 89.5t-20.5 117.5t20 117t55.5 89t85.5 56.5t110 19.5t108.5 -20t83 -55
t53 -83t18.5 -104q0 -15 -0.5 -28t-2.5 -27h-438q3 -42 18 -74t39 -53.5t55 -33t66 -11.5q63 0 101 28t53 73h98zM453 732q0 -57 -36.5 -93.5t-105.5 -36.5t-106 37t-37 94v17h54q0 -36 20 -56.5t69 -20.5q48 0 68 20.5t20 56.5h54v-18z" />
    <glyph glyph-name="Edotaccent" unicode="&#x116;" horiz-adv-x="513" 
d="M452 623h-284v-233h254v-75h-254v-240h284v-75h-375v698h375v-75zM255 761q-23 0 -38 15t-15 37t15 37.5t38 15.5q22 0 37 -15.5t15 -37.5t-15 -37t-37 -15z" />
    <glyph glyph-name="edotaccent" unicode="&#x117;" horiz-adv-x="620" 
d="M310 480q-33 0 -63 -11t-53 -32t-38 -52t-19 -71h346q0 40 -14 71t-37.5 52t-55 32t-66.5 11zM566 169q-11 -38 -32.5 -70.5t-53 -56.5t-73.5 -37.5t-93 -13.5q-59 0 -108.5 20t-85.5 57t-56.5 89.5t-20.5 117.5t20 117t55.5 89t85.5 56.5t110 19.5t108.5 -20t83 -55
t53 -83t18.5 -104q0 -15 -0.5 -28t-2.5 -27h-438q3 -42 18 -74t39 -53.5t55 -33t66 -11.5q63 0 101 28t53 73h98zM311 617q-23 0 -38 15t-15 37t15 37.5t38 15.5q22 0 37 -15.5t15 -37.5t-15 -37t-37 -15z" />
    <glyph glyph-name="Eogonek" unicode="&#x118;" horiz-adv-x="513" 
d="M452 623h-284v-233h254v-75h-254v-240h284v-75l-55 -27q-34 -17 -47 -34t-13 -36q0 -23 16 -35.5t43 -12.5q29 0 65 13v-60q-17 -6 -37 -10t-40 -4q-23 0 -44.5 5.5t-39 17.5t-28 31t-10.5 46q0 29 15.5 55t53.5 51h-254v698h375v-75z" />
    <glyph glyph-name="eogonek" unicode="&#x119;" horiz-adv-x="620" 
d="M310 480q-33 0 -63 -11t-53 -32t-38 -52t-19 -71h346q0 40 -14 71t-37.5 52t-55 32t-66.5 11zM429 -178q-17 -6 -37 -10t-40 -4q-23 0 -44.5 5.5t-39 17.5t-28 31t-10.5 46q0 23 10 44.5t33 41.5q-51 6 -93 28.5t-72.5 59t-47.5 85.5t-17 108q0 65 20 117t55.5 89
t85.5 56.5t110 19.5t108.5 -20t83 -55t53 -83t18.5 -104q0 -15 -0.5 -28t-2.5 -27h-438q3 -42 18 -74t39 -53.5t55 -33t66 -11.5q63 0 101 28t53 73h98q-17 -60 -60.5 -105t-112.5 -63l-28 -14q-34 -17 -47 -34t-13 -36q0 -23 16 -35.5t43 -12.5q29 0 65 13v-60z" />
    <glyph glyph-name="Ecaron" unicode="&#x11a;" horiz-adv-x="513" 
d="M452 623h-284v-233h254v-75h-254v-240h284v-75h-375v698h375v-75zM393 896v-72l-138 -82l-139 82v72l139 -85z" />
    <glyph glyph-name="ecaron" unicode="&#x11b;" horiz-adv-x="620" 
d="M310 480q-33 0 -63 -11t-53 -32t-38 -52t-19 -71h346q0 40 -14 71t-37.5 52t-55 32t-66.5 11zM566 169q-11 -38 -32.5 -70.5t-53 -56.5t-73.5 -37.5t-93 -13.5q-59 0 -108.5 20t-85.5 57t-56.5 89.5t-20.5 117.5t20 117t55.5 89t85.5 56.5t110 19.5t108.5 -20t83 -55
t53 -83t18.5 -104q0 -15 -0.5 -28t-2.5 -27h-438q3 -42 18 -74t39 -53.5t55 -33t66 -11.5q63 0 101 28t53 73h98zM449 751v-72l-138 -82l-139 82v72l139 -85z" />
    <glyph glyph-name="Gbreve" unicode="&#x11e;" horiz-adv-x="778" 
d="M393 705q112 0 196.5 -55t124.5 -155h-109q-29 61 -83 94.5t-129 33.5q-55 0 -102 -19t-81.5 -55t-54 -86.5t-19.5 -113.5t19.5 -113.5t54 -86t81.5 -54.5t102 -19q51 0 94 16t75 45.5t51.5 71t24.5 93.5h-278v74h375v-70q-6 -65 -33.5 -122t-72.5 -99t-105 -66.5
t-131 -24.5q-74 0 -137.5 26t-111 73t-74.5 112.5t-27 143.5t27 143.5t74.5 113t111 73.5t137.5 26zM535 877q0 -57 -36.5 -93.5t-105.5 -36.5t-106 37t-37 94v17h54q0 -36 20 -56.5t69 -20.5q48 0 68 20.5t20 56.5h54v-18z" />
    <glyph glyph-name="gbreve" unicode="&#x11f;" horiz-adv-x="676" 
d="M43 276q0 64 20 116t55 88.5t82.5 56.5t102.5 20q75 0 127.5 -32t76.5 -77v100h92v-560q0 -57 -18.5 -104t-52.5 -81.5t-82.5 -53.5t-108.5 -19q-54 0 -99.5 13t-80 38t-56.5 60t-29 79h90q15 -51 60.5 -81t114.5 -30q36 0 67.5 11.5t54 34t35.5 56t13 77.5v115
q-12 -23 -31.5 -43t-45.5 -35.5t-58 -24.5t-69 -9q-55 0 -102.5 20.5t-82.5 58t-55 90t-20 116.5zM507 275q0 48 -15 85.5t-40.5 63.5t-59.5 40t-71 14q-38 0 -71.5 -13.5t-58.5 -39t-40 -63.5t-15 -86t15 -86.5t40 -64.5t58.5 -40t71.5 -14q37 0 71 13.5t59.5 40t40.5 64.5
t15 86zM481 732q0 -57 -36.5 -93.5t-105.5 -36.5t-106 37t-37 94v17h54q0 -36 20 -56.5t69 -20.5q48 0 68 20.5t20 56.5h54v-18z" />
    <glyph glyph-name="Gdotaccent" unicode="&#x120;" horiz-adv-x="778" 
d="M393 705q112 0 196.5 -55t124.5 -155h-109q-29 61 -83 94.5t-129 33.5q-55 0 -102 -19t-81.5 -55t-54 -86.5t-19.5 -113.5t19.5 -113.5t54 -86t81.5 -54.5t102 -19q51 0 94 16t75 45.5t51.5 71t24.5 93.5h-278v74h375v-70q-6 -65 -33.5 -122t-72.5 -99t-105 -66.5
t-131 -24.5q-74 0 -137.5 26t-111 73t-74.5 112.5t-27 143.5t27 143.5t74.5 113t111 73.5t137.5 26zM392 761q-23 0 -38 15t-15 37t15 37.5t38 15.5q22 0 37 -15.5t15 -37.5t-15 -37t-37 -15z" />
    <glyph glyph-name="gdotaccent" unicode="&#x121;" horiz-adv-x="676" 
d="M43 276q0 64 20 116t55 88.5t82.5 56.5t102.5 20q75 0 127.5 -32t76.5 -77v100h92v-560q0 -57 -18.5 -104t-52.5 -81.5t-82.5 -53.5t-108.5 -19q-54 0 -99.5 13t-80 38t-56.5 60t-29 79h90q15 -51 60.5 -81t114.5 -30q36 0 67.5 11.5t54 34t35.5 56t13 77.5v115
q-12 -23 -31.5 -43t-45.5 -35.5t-58 -24.5t-69 -9q-55 0 -102.5 20.5t-82.5 58t-55 90t-20 116.5zM507 275q0 48 -15 85.5t-40.5 63.5t-59.5 40t-71 14q-38 0 -71.5 -13.5t-58.5 -39t-40 -63.5t-15 -86t15 -86.5t40 -64.5t58.5 -40t71.5 -14q37 0 71 13.5t59.5 40t40.5 64.5
t15 86zM339 617q-23 0 -38 15t-15 37t15 37.5t38 15.5q22 0 37 -15.5t15 -37.5t-15 -37t-37 -15z" />
    <glyph glyph-name="uni0122" unicode="&#x122;" horiz-adv-x="778" 
d="M433 -49q11 -49 11 -83q0 -60 -26 -87.5t-75 -27.5v42q26 0 37 14.5t11 41.5v18h-48v82h90zM393 705q112 0 196.5 -55t124.5 -155h-109q-29 61 -83 94.5t-129 33.5q-55 0 -102 -19t-81.5 -55t-54 -86.5t-19.5 -113.5t19.5 -113.5t54 -86t81.5 -54.5t102 -19q51 0 94 16
t75 45.5t51.5 71t24.5 93.5h-278v74h375v-70q-6 -65 -33.5 -122t-72.5 -99t-105 -66.5t-131 -24.5q-74 0 -137.5 26t-111 73t-74.5 112.5t-27 143.5t27 143.5t74.5 113t111 73.5t137.5 26z" />
    <glyph glyph-name="uni0123" unicode="&#x123;" horiz-adv-x="676" 
d="M291 596q-6 26 -8.5 49t-2.5 43q0 60 25 86.5t76 26.5v-42q-47 0 -47 -54v-23h48v-86h-91zM43 276q0 64 20 116t55 88.5t82.5 56.5t102.5 20q75 0 127.5 -32t76.5 -77v100h92v-560q0 -57 -18.5 -104t-52.5 -81.5t-82.5 -53.5t-108.5 -19q-54 0 -99.5 13t-80 38t-56.5 60
t-29 79h90q15 -51 60.5 -81t114.5 -30q36 0 67.5 11.5t54 34t35.5 56t13 77.5v115q-12 -23 -31.5 -43t-45.5 -35.5t-58 -24.5t-69 -9q-55 0 -102.5 20.5t-82.5 58t-55 90t-20 116.5zM507 275q0 48 -15 85.5t-40.5 63.5t-59.5 40t-71 14q-38 0 -71.5 -13.5t-58.5 -39
t-40 -63.5t-15 -86t15 -86.5t40 -64.5t58.5 -40t71.5 -14q37 0 71 13.5t59.5 40t40.5 64.5t15 86z" />
    <glyph glyph-name="Itilde" unicode="&#x128;" horiz-adv-x="246" 
d="M77 697h91v-697h-91v697zM-20 763q2 51 24 80t64 29q20 0 35 -5.5t29 -13.5q11 -8 19.5 -14.5t19.5 -6.5t20.5 9.5t9.5 29.5h69q0 -52 -23.5 -80.5t-65.5 -28.5q-21 0 -36.5 6.5t-28.5 15.5q-11 8 -19.5 13.5t-18.5 5.5q-11 0 -20 -9.5t-9 -30.5h-69z" />
    <glyph glyph-name="itilde" unicode="&#x129;" horiz-adv-x="246" 
d="M77 548h91v-548h-91v548zM-26 634q2 51 24 80t64 29q20 0 35 -5.5t29 -13.5q11 -8 19.5 -14.5t19.5 -6.5t20.5 9.5t9.5 29.5h69q0 -52 -23.5 -80.5t-65.5 -28.5q-21 0 -36.5 6.5t-28.5 15.5q-11 8 -19.5 13.5t-18.5 5.5q-11 0 -20 -9.5t-9 -30.5h-69z" />
    <glyph glyph-name="Imacron" unicode="&#x12a;" horiz-adv-x="246" 
d="M77 697h91v-697h-91v697zM-54 854h352v-68h-352v68z" />
    <glyph glyph-name="imacron" unicode="&#x12b;" horiz-adv-x="246" 
d="M77 548h91v-548h-91v548zM-54 709h352v-68h-352v68z" />
    <glyph glyph-name="uni012C" unicode="&#x12c;" horiz-adv-x="246" 
d="M77 697h91v-697h-91v697zM265 877q0 -57 -36.5 -93.5t-105.5 -36.5t-106 37t-37 94v17h54q0 -36 20 -56.5t69 -20.5q48 0 68 20.5t20 56.5h54v-18z" />
    <glyph glyph-name="uni012D" unicode="&#x12d;" horiz-adv-x="246" 
d="M77 548h91v-548h-91v548zM265 732q0 -57 -36.5 -93.5t-105.5 -36.5t-106 37t-37 94v17h54q0 -36 20 -56.5t69 -20.5q48 0 68 20.5t20 56.5h54v-18z" />
    <glyph glyph-name="Iogonek" unicode="&#x12e;" horiz-adv-x="246" 
d="M177 -191q-17 -6 -37 -10t-40 -4q-23 0 -44.5 5.5t-39 17.5t-28 31t-10.5 46q0 33 22.5 64t76.5 59v679h91v-697h-2l-53 -26q-34 -17 -47 -34t-13 -36q0 -23 16 -35.5t43 -12.5q29 0 65 13v-60z" />
    <glyph glyph-name="iogonek" unicode="&#x12f;" horiz-adv-x="246" 
d="M177 -191q-17 -6 -37 -10t-40 -4q-23 0 -44.5 5.5t-39 17.5t-28 31t-10.5 46q0 33 22.5 64t76.5 59v530h91v-548h-2l-53 -26q-34 -17 -47 -34t-13 -36q0 -23 16 -35.5t43 -12.5q29 0 65 13v-60zM124 637q-26 0 -44 18t-18 44t18 44t44 18q25 0 42.5 -18t17.5 -44
t-17.5 -44t-42.5 -18z" />
    <glyph glyph-name="Idotaccent" unicode="&#x130;" horiz-adv-x="246" 
d="M77 697h91v-697h-91v697zM123 761q-23 0 -38 15t-15 37t15 37.5t38 15.5q22 0 37 -15.5t15 -37.5t-15 -37t-37 -15z" />
    <glyph glyph-name="dotlessi" unicode="&#x131;" horiz-adv-x="246" 
d="M77 548h91v-548h-91v548z" />
    <glyph glyph-name="uni0136" unicode="&#x136;" horiz-adv-x="599" 
d="M341 -49q6 -23 8.5 -43.5t2.5 -39.5q0 -60 -25.5 -87.5t-74.5 -27.5v42q47 0 47 56v18h-48v82h90zM168 318v-318h-91v697h91v-323l288 323h115l-316 -349l319 -348h-119z" />
    <glyph glyph-name="uni0137" unicode="&#x137;" horiz-adv-x="515" 
d="M302 -49q10 -41 10 -83q0 -60 -25.5 -87.5t-74.5 -27.5v42q47 0 47 56v18h-47v82h90zM77 740h91v-435l211 243h127l-258 -273l259 -275h-124l-215 242v-242h-91v740z" />
    <glyph glyph-name="Lacute" unicode="&#x139;" horiz-adv-x="432" 
d="M168 697v-623h244v-74h-335v697h91zM314 927v-79l-213 -114v68z" />
    <glyph glyph-name="lacute" unicode="&#x13a;" horiz-adv-x="246" 
d="M77 740h91v-740h-91v740zM220 974v-79l-213 -114v68z" />
    <glyph glyph-name="uni013B" unicode="&#x13b;" horiz-adv-x="432" 
d="M287 -49q6 -23 8.5 -43.5t2.5 -39.5q0 -60 -26 -87.5t-75 -27.5v42q47 0 47 56v18h-48v82h91zM168 697v-623h244v-74h-335v697h91z" />
    <glyph glyph-name="uni013C" unicode="&#x13c;" horiz-adv-x="246" 
d="M166 -49q11 -49 11 -83q0 -60 -26.5 -87.5t-75.5 -27.5v42q26 0 37 14.5t11 41.5v18h-48v82h91zM77 740h91v-740h-91v740z" />
    <glyph glyph-name="Lcaron" unicode="&#x13d;" horiz-adv-x="446" 
d="M373 697q6 -26 8.5 -48.5t2.5 -42.5q0 -60 -25 -87t-76 -27v43q26 0 36.5 13.5t10.5 40.5v23h-49v85h92zM168 697v-623h244v-74h-335v697h91z" />
    <glyph glyph-name="lcaron" unicode="&#x13e;" horiz-adv-x="369" 
d="M333 740q6 -26 8.5 -49t2.5 -43q0 -60 -25 -86.5t-76 -26.5v43q26 0 37 13.5t11 39.5v23h-50v86h92zM77 740h91v-740h-91v740z" />
    <glyph glyph-name="Ldot" unicode="&#x13f;" horiz-adv-x="432" 
d="M168 697v-623h244v-74h-335v697h91zM217 761q-23 0 -38 15t-15 37t15 37.5t38 15.5q22 0 37 -15.5t15 -37.5t-15 -37t-37 -15z" />
    <glyph glyph-name="ldot" unicode="&#x140;" horiz-adv-x="246" 
d="M123 775q-23 0 -38 15t-15 37t15 37.5t38 15.5q22 0 37.5 -15.5t15.5 -37.5t-15.5 -37t-37.5 -15zM77 740h91v-740h-91v740z" />
    <glyph glyph-name="Lslash" unicode="&#x141;" horiz-adv-x="437" 
d="M182 697v-286l109 39v-70l-109 -39v-271h243v-70h-334v308l-82 -29v69l82 30v319h91z" />
    <glyph glyph-name="lslash" unicode="&#x142;" horiz-adv-x="251" 
d="M80 337l-71 -28v72l71 27v332h91v-296l71 27v-71l-71 -28v-372h-91v337z" />
    <glyph glyph-name="Nacute" unicode="&#x143;" horiz-adv-x="703" 
d="M625 698v-698h-91l-366 555v-555h-91v698h91l366 -554v554h91zM449 927v-79l-213 -114v68z" />
    <glyph glyph-name="nacute" unicode="&#x144;" 
d="M419 782v-79l-213 -114v68zM478 310q0 85 -42 127t-111 42q-70 0 -113.5 -43t-43.5 -133v-303h-91v548h91v-78q27 43 73 65.5t103 22.5q48 0 89 -14.5t71 -44t47 -73.5t17 -103v-323h-90v310z" />
    <glyph glyph-name="uni0145" unicode="&#x145;" horiz-adv-x="703" 
d="M394 -49q6 -23 8.5 -43.5t2.5 -39.5q0 -60 -26 -87.5t-74 -27.5v42q46 0 46 56v18h-47v82h90zM625 698v-698h-91l-366 555v-555h-91v698h91l366 -554v554h91z" />
    <glyph glyph-name="uni0146" unicode="&#x146;" 
d="M364 -49q12 -45 12 -83q0 -60 -26 -87.5t-75 -27.5v42q47 0 47 56v18h-48v82h90zM478 310q0 85 -42 127t-111 42q-70 0 -113.5 -43t-43.5 -133v-303h-91v548h91v-78q27 43 73 65.5t103 22.5q48 0 89 -14.5t71 -44t47 -73.5t17 -103v-323h-90v310z" />
    <glyph glyph-name="Ncaron" unicode="&#x147;" horiz-adv-x="703" 
d="M625 698v-698h-91l-366 555v-555h-91v698h91l366 -554v554h91zM490 896v-72l-138 -82l-139 82v72l139 -85z" />
    <glyph glyph-name="ncaron" unicode="&#x148;" 
d="M478 310q0 85 -42 127t-111 42q-70 0 -113.5 -43t-43.5 -133v-303h-91v548h91v-78q27 43 73 65.5t103 22.5q48 0 89 -14.5t71 -44t47 -73.5t17 -103v-323h-90v310zM460 751v-72l-138 -82l-139 82v72l139 -85z" />
    <glyph glyph-name="Omacron" unicode="&#x14c;" horiz-adv-x="786" 
d="M743 349q0 -78 -27 -143.5t-74 -113t-111 -73.5t-138 -26t-137.5 26t-111 73.5t-74.5 113t-27 143.5t27 143.5t74.5 113t111 73.5t137.5 26t138 -26t111 -73.5t74 -113t27 -143.5zM136 349q0 -64 19.5 -115t54 -87t81.5 -55.5t102 -19.5t102 19.5t81.5 55.5t54 87
t19.5 115t-19.5 115.5t-54 87.5t-81.5 55t-102 19t-102 -19t-81.5 -55t-54 -87.5t-19.5 -115.5zM219 854h352v-68h-352v68z" />
    <glyph glyph-name="omacron" unicode="&#x14d;" 
d="M597 275q0 -65 -22 -117.5t-60 -89.5t-89.5 -57t-109.5 -20t-108 20t-86.5 57t-57.5 89.5t-21 117.5t21.5 117t59 89t88 56.5t108.5 19.5t109 -19.5t88 -56.5t58.5 -89t21.5 -117zM136 275q0 -52 15 -90.5t39.5 -63.5t57 -37.5t68.5 -12.5t69.5 12.5t60 37.5t42.5 63.5
t16 90.5t-15.5 90t-41.5 63t-59.5 37.5t-68.5 12.5q-36 0 -69 -12.5t-58.5 -37.5t-40.5 -63t-15 -90zM144 716h352v-68h-352v68z" />
    <glyph glyph-name="uni014E" unicode="&#x14e;" horiz-adv-x="786" 
d="M743 349q0 -78 -27 -143.5t-74 -113t-111 -73.5t-138 -26t-137.5 26t-111 73.5t-74.5 113t-27 143.5t27 143.5t74.5 113t111 73.5t137.5 26t138 -26t111 -73.5t74 -113t27 -143.5zM136 349q0 -64 19.5 -115t54 -87t81.5 -55.5t102 -19.5t102 19.5t81.5 55.5t54 87
t19.5 115t-19.5 115.5t-54 87.5t-81.5 55t-102 19t-102 -19t-81.5 -55t-54 -87.5t-19.5 -115.5zM538 877q0 -57 -36.5 -93.5t-105.5 -36.5t-106 37t-37 94v17h54q0 -36 20 -56.5t69 -20.5q48 0 68 20.5t20 56.5h54v-18z" />
    <glyph glyph-name="uni014F" unicode="&#x14f;" 
d="M597 275q0 -65 -22 -117.5t-60 -89.5t-89.5 -57t-109.5 -20t-108 20t-86.5 57t-57.5 89.5t-21 117.5t21.5 117t59 89t88 56.5t108.5 19.5t109 -19.5t88 -56.5t58.5 -89t21.5 -117zM136 275q0 -52 15 -90.5t39.5 -63.5t57 -37.5t68.5 -12.5t69.5 12.5t60 37.5t42.5 63.5
t16 90.5t-15.5 90t-41.5 63t-59.5 37.5t-68.5 12.5q-36 0 -69 -12.5t-58.5 -37.5t-40.5 -63t-15 -90zM463 739q0 -57 -36.5 -93.5t-105.5 -36.5t-106 37t-37 94v17h54q0 -36 20 -56.5t69 -20.5q48 0 68 20.5t20 56.5h54v-18z" />
    <glyph glyph-name="Ohungarumlaut" unicode="&#x150;" horiz-adv-x="786" 
d="M743 349q0 -78 -27 -143.5t-74 -113t-111 -73.5t-138 -26t-137.5 26t-111 73.5t-74.5 113t-27 143.5t27 143.5t74.5 113t111 73.5t137.5 26t138 -26t111 -73.5t74 -113t27 -143.5zM136 349q0 -64 19.5 -115t54 -87t81.5 -55.5t102 -19.5t102 19.5t81.5 55.5t54 87
t19.5 115t-19.5 115.5t-54 87.5t-81.5 55t-102 19t-102 -19t-81.5 -55t-54 -87.5t-19.5 -115.5zM429 900l-87 -154h-61l67 154h81zM582 900l-92 -154h-60l72 154h80z" />
    <glyph glyph-name="ohungarumlaut" unicode="&#x151;" 
d="M597 275q0 -65 -22 -117.5t-60 -89.5t-89.5 -57t-109.5 -20t-108 20t-86.5 57t-57.5 89.5t-21 117.5t21.5 117t59 89t88 56.5t108.5 19.5t109 -19.5t88 -56.5t58.5 -89t21.5 -117zM136 275q0 -52 15 -90.5t39.5 -63.5t57 -37.5t68.5 -12.5t69.5 12.5t60 37.5t42.5 63.5
t16 90.5t-15.5 90t-41.5 63t-59.5 37.5t-68.5 12.5q-36 0 -69 -12.5t-58.5 -37.5t-40.5 -63t-15 -90zM354 762l-87 -154h-61l67 154h81zM507 762l-92 -154h-60l72 154h80z" />
    <glyph glyph-name="OE" unicode="&#x152;" horiz-adv-x="1086" 
d="M741 626v-239h253v-71h-253v-244h283v-72h-374v143q-39 -73 -107.5 -111.5t-156.5 -38.5q-71 0 -133.5 26t-109 73.5t-73.5 113t-27 143.5q0 79 27 144.5t73.5 112.5t108.5 73t133 26q90 0 158 -37.5t107 -109.5v139h374v-71h-283zM393 623q-55 0 -102 -19t-81.5 -55
t-54 -86.5t-19.5 -113.5t19.5 -113.5t54 -86t81.5 -55t102 -19.5t102 19.5t81.5 55t54 86t19.5 113.5t-19.5 113.5t-54 86.5t-81.5 55t-102 19z" />
    <glyph glyph-name="oe" unicode="&#x153;" horiz-adv-x="1080" 
d="M503 275q0 52 -15.5 90.5t-41.5 64t-59 38t-69 12.5t-68.5 -12.5t-58 -38t-40.5 -64t-15 -90.5t15 -91t39.5 -64.5t57 -38.5t68.5 -13t69.5 13t59.5 38.5t42 64.5t16 91zM770 480q-35 0 -65 -11.5t-53 -33.5t-37.5 -54.5t-17.5 -74.5h346q0 42 -14 74.5t-37.5 54.5
t-55 33.5t-66.5 11.5zM43 275q0 65 21.5 117t59 89t88 56.5t108.5 19.5q75 0 135 -35t93 -98q32 63 90 98t136 35q60 0 108.5 -20t83 -54.5t53 -82.5t18.5 -103q0 -14 -1 -27t-3 -27h-436q2 -42 16 -75t37 -55t54 -33.5t66 -11.5q63 0 101.5 28t53.5 73h98
q-11 -38 -32.5 -70.5t-53.5 -56.5t-74 -37.5t-93 -13.5q-75 0 -132.5 34.5t-89.5 100.5q-35 -66 -96 -100.5t-136 -34.5q-59 0 -108.5 20t-86.5 57t-57.5 89.5t-20.5 117.5z" />
    <glyph glyph-name="Racute" unicode="&#x154;" horiz-adv-x="608" 
d="M450 492q0 60 -35 95t-113 35h-134v-264h134q77 0 112.5 37.5t35.5 96.5zM302 697q61 0 106.5 -16t75.5 -44t45 -65t15 -80q0 -33 -9.5 -65t-29.5 -58.5t-51.5 -46.5t-75.5 -30l175 -292h-109l-166 285h-110v-285h-91v697h225zM408 927v-79l-213 -114v68z" />
    <glyph glyph-name="racute" unicode="&#x155;" horiz-adv-x="373" 
d="M168 0h-91v548h91v-89q23 46 67 72.5t110 26.5v-94h-24q-33 0 -61 -8t-48.5 -27.5t-32 -51t-11.5 -79.5v-298zM328 782v-79l-213 -114v68z" />
    <glyph glyph-name="uni0156" unicode="&#x156;" horiz-adv-x="608" 
d="M346 -49q10 -41 10 -83q0 -60 -25.5 -87.5t-74.5 -27.5v42q47 0 47 56v18h-47v82h90zM77 0v697h225q61 0 106.5 -16t75.5 -44t45 -65t15 -80q0 -33 -9.5 -65t-29.5 -58.5t-51.5 -46.5t-75.5 -30l175 -292h-109l-166 285h-110v-285h-91zM450 492q0 60 -35 95t-113 35h-134
v-264h134q77 0 112.5 37.5t35.5 96.5z" />
    <glyph glyph-name="uni0157" unicode="&#x157;" horiz-adv-x="373" 
d="M165 -49q6 -23 8.5 -43.5t2.5 -39.5q0 -60 -26 -87.5t-75 -27.5v42q47 0 47 56v18h-47v82h90zM168 0h-91v548h91v-89q23 46 67 72.5t110 26.5v-94h-24q-33 0 -61 -8t-48.5 -27.5t-32 -51t-11.5 -79.5v-298z" />
    <glyph glyph-name="Rcaron" unicode="&#x158;" horiz-adv-x="608" 
d="M450 492q0 60 -35 95t-113 35h-134v-264h134q77 0 112.5 37.5t35.5 96.5zM302 697q61 0 106.5 -16t75.5 -44t45 -65t15 -80q0 -33 -9.5 -65t-29.5 -58.5t-51.5 -46.5t-75.5 -30l175 -292h-109l-166 285h-110v-285h-91v697h225zM449 896v-72l-138 -82l-139 82v72l139 -85z
" />
    <glyph glyph-name="rcaron" unicode="&#x159;" horiz-adv-x="373" 
d="M168 0h-91v548h91v-89q23 46 67 72.5t110 26.5v-94h-24q-33 0 -61 -8t-48.5 -27.5t-32 -51t-11.5 -79.5v-298zM369 751v-72l-138 -82l-139 82v72l139 -85z" />
    <glyph glyph-name="Sacute" unicode="&#x15a;" horiz-adv-x="587" 
d="M530 190q0 -37 -15 -72.5t-44.5 -63t-72.5 -44.5t-100 -17q-53 0 -96.5 14t-75.5 39.5t-50 61t-19 78.5h97q2 -22 11 -42.5t26.5 -37t44 -26.5t62.5 -10q66 0 103 32.5t37 83.5q0 35 -16 57.5t-42.5 36.5t-60.5 23.5t-69.5 19.5t-69.5 22.5t-60.5 33.5t-42.5 53t-16 81
q0 43 16.5 78.5t47 61t73 39.5t94.5 14q49 0 90 -13t71 -36.5t48 -56.5t22 -73h-100q-2 17 -11.5 35t-26.5 32.5t-41.5 24t-55.5 9.5q-28 1 -52.5 -6t-42.5 -21t-28.5 -35.5t-10.5 -49.5q0 -34 16 -55t42.5 -35.5t60.5 -24t69 -19.5t69 -23t60.5 -34.5t42.5 -54t16 -80.5z
M389 933v-79l-213 -114v68z" />
    <glyph glyph-name="sacute" unicode="&#x15b;" horiz-adv-x="522" 
d="M471 149q0 -34 -14 -63t-40.5 -50t-63.5 -33t-82 -12q-48 0 -88 12.5t-69.5 35t-47 53.5t-19.5 69h94q4 -40 37.5 -66.5t91.5 -26.5q54 0 83 23.5t29 57.5q0 30 -24 46.5t-60 28t-78 22t-78 29t-60 48.5t-24 81q0 31 14 59t40.5 49t63.5 33t83 12q91 0 146.5 -45.5
t60.5 -126.5h-91q-3 42 -33.5 68.5t-85.5 26.5q-51 0 -79 -21.5t-28 -54.5q0 -32 23.5 -50t59 -30t77 -22.5t77.5 -28t60 -46.5t25 -78zM358 789v-79l-213 -114v68z" />
    <glyph glyph-name="uni015E" unicode="&#x15e;" horiz-adv-x="587" 
d="M530 190q0 -35 -13 -68t-38.5 -60t-63 -45t-86.5 -23v-57q58 1 93.5 -23.5t35.5 -75.5q0 -48 -34 -75.5t-88 -27.5h-115v59h97q32 0 48 10t16 34q0 23 -16 33t-48 10h-50v113q-47 4 -85.5 19.5t-66 40.5t-43 58.5t-16.5 73.5h97q2 -22 11 -42.5t26.5 -37t44 -26.5
t62.5 -10q66 0 103 32.5t37 83.5q0 35 -16 57.5t-42.5 36.5t-60.5 23.5t-69.5 19.5t-69.5 22.5t-60.5 33.5t-42.5 53t-16 81q0 43 16.5 78.5t47 61t73 39.5t94.5 14q49 0 90 -13t71 -36.5t48 -56.5t22 -73h-100q-2 17 -11.5 35t-26.5 32.5t-41.5 24t-55.5 9.5
q-28 1 -52.5 -6t-42.5 -21t-28.5 -35.5t-10.5 -49.5q0 -34 16 -55t42.5 -35.5t60.5 -24t69 -19.5t69 -23t60.5 -34.5t42.5 -54t16 -80.5z" />
    <glyph glyph-name="uni015F" unicode="&#x15f;" horiz-adv-x="522" 
d="M471 149q0 -32 -12.5 -59t-35.5 -48t-55.5 -34t-72.5 -16v-50q58 1 93.5 -23.5t35.5 -75.5q0 -48 -34 -75.5t-88 -27.5h-115v59h97q32 0 48 10t16 34q0 23 -16 33t-48 10h-50v107q-41 4 -74.5 18.5t-58 36.5t-38.5 51t-16 62h94q4 -40 37.5 -66.5t91.5 -26.5
q54 0 83 23.5t29 57.5q0 30 -24 46.5t-60 28t-78 22t-78 29t-60 48.5t-24 81q0 31 14 59t40.5 49t63.5 33t83 12q91 0 146.5 -45.5t60.5 -126.5h-91q-3 42 -33.5 68.5t-85.5 26.5q-51 0 -79 -21.5t-28 -54.5q0 -32 23.5 -50t59 -30t77 -22.5t77.5 -28t60 -46.5t25 -78z" />
    <glyph glyph-name="Scaron" unicode="&#x160;" horiz-adv-x="587" 
d="M530 190q0 -37 -15 -72.5t-44.5 -63t-72.5 -44.5t-100 -17q-53 0 -96.5 14t-75.5 39.5t-50 61t-19 78.5h97q2 -22 11 -42.5t26.5 -37t44 -26.5t62.5 -10q66 0 103 32.5t37 83.5q0 35 -16 57.5t-42.5 36.5t-60.5 23.5t-69.5 19.5t-69.5 22.5t-60.5 33.5t-42.5 53t-16 81
q0 43 16.5 78.5t47 61t73 39.5t94.5 14q49 0 90 -13t71 -36.5t48 -56.5t22 -73h-100q-2 17 -11.5 35t-26.5 32.5t-41.5 24t-55.5 9.5q-28 1 -52.5 -6t-42.5 -21t-28.5 -35.5t-10.5 -49.5q0 -34 16 -55t42.5 -35.5t60.5 -24t69 -19.5t69 -23t60.5 -34.5t42.5 -54t16 -80.5z
M429 902v-72l-138 -82l-139 82v72l139 -85z" />
    <glyph glyph-name="scaron" unicode="&#x161;" horiz-adv-x="522" 
d="M471 149q0 -34 -14 -63t-40.5 -50t-63.5 -33t-82 -12q-48 0 -88 12.5t-69.5 35t-47 53.5t-19.5 69h94q4 -40 37.5 -66.5t91.5 -26.5q54 0 83 23.5t29 57.5q0 30 -24 46.5t-60 28t-78 22t-78 29t-60 48.5t-24 81q0 31 14 59t40.5 49t63.5 33t83 12q91 0 146.5 -45.5
t60.5 -126.5h-91q-3 42 -33.5 68.5t-85.5 26.5q-51 0 -79 -21.5t-28 -54.5q0 -32 23.5 -50t59 -30t77 -22.5t77.5 -28t60 -46.5t25 -78zM399 758v-72l-138 -82l-139 82v72l139 -85z" />
    <glyph glyph-name="uni0162" unicode="&#x162;" horiz-adv-x="541" 
d="M34 697h472v-74h-190v-623h-14v-58q58 1 93.5 -23.5t35.5 -75.5q0 -48 -34 -75.5t-88 -27.5h-115v59h97q32 0 48 10t16 34q0 23 -16 33t-48 10h-50v114h-16v623h-191v74z" />
    <glyph glyph-name="uni0163" unicode="&#x163;" horiz-adv-x="364" 
d="M97 473h-71v75h71v138h91v-138h143v-75h-143v-323q0 -42 17 -57.5t59 -15.5h67v-77h-82h-11.5t-10.5 1v-59q57 1 93 -23.5t36 -75.5q0 -48 -34 -75.5t-88 -27.5h-115v59h97q32 0 48 10t16 34q0 23 -16 33t-48 10h-51v129q-33 15 -50.5 47.5t-17.5 87.5v323z" />
    <glyph glyph-name="Tcaron" unicode="&#x164;" horiz-adv-x="541" 
d="M34 697h472v-74h-190v-623h-91v623h-191v74zM409 896v-72l-138 -82l-139 82v72l139 -85z" />
    <glyph glyph-name="tcaron" unicode="&#x165;" horiz-adv-x="367" 
d="M353 773q6 -26 9 -45.5t3 -39.5q0 -52 -25.5 -74.5t-76.5 -22.5v42q48 0 48 36v18h-49v86h91zM97 473h-71v75h71v138h91v-138h143v-75h-143v-323q0 -42 17 -57.5t59 -15.5h67v-77h-82q-73 0 -112.5 33.5t-39.5 116.5v323z" />
    <glyph glyph-name="Utilde" unicode="&#x168;" horiz-adv-x="675" 
d="M75 697h91v-441q0 -96 47.5 -139.5t124.5 -43.5t124 43.5t47 139.5v441h91v-440q0 -68 -21 -117.5t-56.5 -82t-83.5 -48.5t-102 -16t-101.5 16t-83.5 48.5t-56.5 82t-20.5 117.5v440zM196 763q2 51 24 80t64 29q20 0 35 -5.5t29 -13.5q11 -8 19.5 -14.5t19.5 -6.5
t20.5 9.5t9.5 29.5h69q0 -52 -23.5 -80.5t-65.5 -28.5q-21 0 -36.5 6.5t-28.5 15.5q-11 8 -19.5 13.5t-18.5 5.5q-11 0 -20 -9.5t-9 -30.5h-69z" />
    <glyph glyph-name="utilde" unicode="&#x169;" 
d="M472 81q-26 -43 -73 -66t-102 -23q-47 0 -88 14.5t-71.5 44t-48 73.5t-17.5 103v321h90v-309q0 -85 42 -126.5t111 -41.5q72 0 114.5 43t42.5 133v301h91v-548h-91v81zM173 634q2 51 24 80t64 29q20 0 35 -5.5t29 -13.5q11 -8 19.5 -14.5t19.5 -6.5t20.5 9.5t9.5 29.5h69
q0 -52 -23.5 -80.5t-65.5 -28.5q-21 0 -36.5 6.5t-28.5 15.5q-11 8 -19.5 13.5t-18.5 5.5q-11 0 -20 -9.5t-9 -30.5h-69z" />
    <glyph glyph-name="Umacron" unicode="&#x16a;" horiz-adv-x="675" 
d="M75 697h91v-441q0 -96 47.5 -139.5t124.5 -43.5t124 43.5t47 139.5v441h91v-440q0 -68 -21 -117.5t-56.5 -82t-83.5 -48.5t-102 -16t-101.5 16t-83.5 48.5t-56.5 82t-20.5 117.5v440zM161 854h352v-68h-352v68z" />
    <glyph glyph-name="umacron" unicode="&#x16b;" 
d="M563 0h-91v81q-26 -43 -73 -66t-102 -23q-47 0 -88 14.5t-71.5 44t-48 73.5t-17.5 103v321h90v-309q0 -85 42 -126.5t111 -41.5q72 0 114.5 43t42.5 133v301h91v-548zM144 709h352v-68h-352v68z" />
    <glyph glyph-name="Ubreve" unicode="&#x16c;" horiz-adv-x="675" 
d="M75 697h91v-441q0 -96 47.5 -139.5t124.5 -43.5t124 43.5t47 139.5v441h91v-440q0 -68 -21 -117.5t-56.5 -82t-83.5 -48.5t-102 -16t-101.5 16t-83.5 48.5t-56.5 82t-20.5 117.5v440zM480 877q0 -57 -36.5 -93.5t-105.5 -36.5t-106 37t-37 94v17h54q0 -36 20 -56.5
t69 -20.5q48 0 68 20.5t20 56.5h54v-18z" />
    <glyph glyph-name="ubreve" unicode="&#x16d;" 
d="M563 0h-91v81q-26 -43 -73 -66t-102 -23q-47 0 -88 14.5t-71.5 44t-48 73.5t-17.5 103v321h90v-309q0 -85 42 -126.5t111 -41.5q72 0 114.5 43t42.5 133v301h91v-548zM463 732q0 -57 -36.5 -93.5t-105.5 -36.5t-106 37t-37 94v17h54q0 -36 20 -56.5t69 -20.5
q48 0 68 20.5t20 56.5h54v-18z" />
    <glyph glyph-name="Uring" unicode="&#x16e;" horiz-adv-x="675" 
d="M75 697h91v-441q0 -96 47.5 -139.5t124.5 -43.5t124 43.5t47 139.5v441h91v-440q0 -68 -21 -117.5t-56.5 -82t-83.5 -48.5t-102 -16t-101.5 16t-83.5 48.5t-56.5 82t-20.5 117.5v440zM338 962q45 0 76 -28t31 -77t-31 -77t-76 -28t-76 28t-31 77t31 77t76 28zM338 801
q23 0 38.5 15.5t15.5 41.5t-15.5 41t-38.5 15t-38.5 -15t-15.5 -41t15.5 -41.5t38.5 -15.5z" />
    <glyph glyph-name="uring" unicode="&#x16f;" 
d="M563 0h-91v81q-26 -43 -73 -66t-102 -23q-47 0 -88 14.5t-71.5 44t-48 73.5t-17.5 103v321h90v-309q0 -85 42 -126.5t111 -41.5q72 0 114.5 43t42.5 133v301h91v-548zM321 656q23 0 38.5 15.5t15.5 41.5t-15.5 41t-38.5 15t-38.5 -15t-15.5 -41t15.5 -41.5t38.5 -15.5z
M321 817q45 0 76 -28t31 -77t-31 -77t-76 -28t-76 28t-31 77t31 77t76 28z" />
    <glyph glyph-name="Uhungarumlaut" unicode="&#x170;" horiz-adv-x="675" 
d="M75 697h91v-441q0 -96 47.5 -139.5t124.5 -43.5t124 43.5t47 139.5v441h91v-440q0 -68 -21 -117.5t-56.5 -82t-83.5 -48.5t-102 -16t-101.5 16t-83.5 48.5t-56.5 82t-20.5 117.5v440zM371 900l-87 -154h-61l67 154h81zM524 900l-92 -154h-60l72 154h80z" />
    <glyph glyph-name="uhungarumlaut" unicode="&#x171;" 
d="M563 0h-91v81q-26 -43 -73 -66t-102 -23q-47 0 -88 14.5t-71.5 44t-48 73.5t-17.5 103v321h90v-309q0 -85 42 -126.5t111 -41.5q72 0 114.5 43t42.5 133v301h91v-548zM354 755l-87 -154h-61l67 154h81zM507 755l-92 -154h-60l72 154h80z" />
    <glyph glyph-name="Uogonek" unicode="&#x172;" horiz-adv-x="675" 
d="M75 697h91v-441q0 -96 47.5 -139.5t124.5 -43.5t124 43.5t47 139.5v441h91v-440q0 -56 -14.5 -100t-40 -76t-61 -52t-76.5 -29l-55 -27q-34 -17 -47 -34t-13 -36q0 -23 16 -35.5t43 -12.5q29 0 65 13v-60q-17 -6 -37 -10t-40 -4q-23 0 -44.5 5.5t-39 17.5t-28 31
t-10.5 46q0 28 15 53.5t50 49.5q-44 7 -82 26.5t-66 51.5t-44 77.5t-16 104.5v440z" />
    <glyph glyph-name="uogonek" unicode="&#x173;" 
d="M563 0h-1l1 -1l-55 -27q-34 -17 -47 -34t-13 -36q0 -23 16 -35.5t43 -12.5q29 0 65 13v-60q-17 -6 -37 -10t-40 -4q-23 0 -44.5 5.5t-39 17.5t-28 31t-10.5 46q0 33 22.5 64t76.5 59v65q-26 -43 -73 -66t-102 -23q-47 0 -88 14.5t-71.5 44t-48 73.5t-17.5 103v321h90
v-309q0 -85 42 -126.5t111 -41.5q72 0 114.5 43t42.5 133v301h91v-548z" />
    <glyph glyph-name="Wcircumflex" unicode="&#x174;" horiz-adv-x="976" 
d="M23 697h97l152 -591l168 591h102l160 -589l153 589h98l-202 -697h-102l-162 561l-168 -561l-101 -1zM623 750l-138 85l-139 -85v72l139 83l138 -83v-72z" />
    <glyph glyph-name="wcircumflex" unicode="&#x175;" horiz-adv-x="820" 
d="M12 548h93l126 -460l136 460h93l133 -461l124 461h90l-171 -548h-94l-132 435l-132 -435h-94zM549 597l-138 85l-139 -85v72l139 83l138 -83v-72z" />
    <glyph glyph-name="Ycircumflex" unicode="&#x176;" horiz-adv-x="584" 
d="M19 697h101l172 -353l172 353h101l-227 -434v-263h-91v263zM431 742l-138 85l-139 -85v72l139 83l138 -83v-72z" />
    <glyph glyph-name="ycircumflex" unicode="&#x177;" horiz-adv-x="563" 
d="M455 548h94l-330 -806h-94l108 264l-221 542h101l172 -444zM420 597l-138 85l-139 -85v72l139 83l138 -83v-72z" />
    <glyph glyph-name="Ydieresis" unicode="&#x178;" horiz-adv-x="584" 
d="M19 697h101l172 -353l172 353h101l-227 -434v-263h-91v263zM212 767q-23 0 -38 15t-15 37t15 37.5t38 15.5q21 0 36.5 -15.5t15.5 -37.5t-15.5 -37t-36.5 -15zM374 767q-23 0 -37.5 15t-14.5 37t14.5 37.5t37.5 15.5q22 0 37.5 -15.5t15.5 -37.5t-15.5 -37t-37.5 -15z
" />
    <glyph glyph-name="Zacute" unicode="&#x179;" horiz-adv-x="541" 
d="M492 625l-338 -546h340v-79h-448v72l338 546h-334v79h442v-72zM368 927v-79l-213 -114v68z" />
    <glyph glyph-name="zacute" unicode="&#x17a;" horiz-adv-x="455" 
d="M412 474l-267 -399h269v-75h-373v75l266 399h-264v74h369v-74zM326 782v-79l-213 -114v68z" />
    <glyph glyph-name="Zdotaccent" unicode="&#x17b;" horiz-adv-x="541" 
d="M492 625l-338 -546h340v-79h-448v72l338 546h-334v79h442v-72zM271 761q-23 0 -38 15t-15 37t15 37.5t38 15.5q22 0 37 -15.5t15 -37.5t-15 -37t-37 -15z" />
    <glyph glyph-name="zdotaccent" unicode="&#x17c;" horiz-adv-x="455" 
d="M412 474l-267 -399h269v-75h-373v75l266 399h-264v74h369v-74zM229 617q-23 0 -38 15t-15 37t15 37.5t38 15.5q22 0 37 -15.5t15 -37.5t-15 -37t-37 -15z" />
    <glyph glyph-name="Zcaron" unicode="&#x17d;" horiz-adv-x="541" 
d="M492 625l-338 -546h340v-79h-448v72l338 546h-334v79h442v-72zM409 896v-72l-138 -82l-139 82v72l139 -85z" />
    <glyph glyph-name="zcaron" unicode="&#x17e;" horiz-adv-x="455" 
d="M412 474l-267 -399h269v-75h-373v75l266 399h-264v74h369v-74zM367 751v-72l-138 -82l-139 82v72l139 -85z" />
    <glyph glyph-name="uni018F" unicode="&#x18f;" horiz-adv-x="786" 
d="M394 75q48 0 89.5 15t73 43.5t50.5 70t22 94.5h-466q0 -50 16.5 -91.5t47 -70.5t73 -45t94.5 -16zM394 -7q-72 0 -132 22t-103 64t-67 103t-24 139q0 29 3 62h558q-3 54 -21.5 98.5t-49 76t-72.5 48.5t-91 17q-78 0 -135.5 -38t-80.5 -105h-105q16 52 46 93.5t71.5 70.5
t93 45t110.5 16q73 0 134.5 -26t105.5 -73t68.5 -112.5t24.5 -144.5t-24 -144.5t-67.5 -112.5t-105.5 -73t-137 -26z" />
    <glyph glyph-name="florin" unicode="&#x192;" horiz-adv-x="332" 
d="M108 595q10 91 62 131.5t154 40.5l-7 -76q-58 0 -85.5 -22t-32.5 -74l-5 -47h115l-7 -74h-116l-56 -531q-8 -75 -46 -107.5t-108 -32.5h-24l7 75h19q28 0 42.5 14t18.5 51l56 531h-70l7 74h71z" />
    <glyph glyph-name="Ohorn" unicode="&#x1a0;" horiz-adv-x="786" 
d="M743 349q0 -78 -27 -143.5t-74 -113t-111 -73.5t-138 -26t-137.5 26t-111 73.5t-74.5 113t-27 143.5t27 143.5t74.5 113t111 73.5t137.5 26q35 0 78 -8h63q38 0 54.5 23.5t16.5 59.5h82q0 -55 -23.5 -90t-62.5 -50q66 -48 104 -122.5t38 -168.5zM136 349q0 -64 19.5 -115
t54 -87t81.5 -55.5t102 -19.5t102 19.5t81.5 55.5t54 87t19.5 115t-19.5 115.5t-54 87.5t-81.5 55t-102 19t-102 -19t-81.5 -55t-54 -87.5t-19.5 -115.5z" />
    <glyph glyph-name="ohorn" unicode="&#x1a1;" 
d="M597 275q0 -65 -22 -117.5t-60 -89.5t-89.5 -57t-109.5 -20t-108 20t-86.5 57t-57.5 89.5t-21 117.5t21.5 117t59 89t88 56.5t108.5 19.5q43 0 79 -10h29q38 0 54.5 23.5t16.5 59.5h82q0 -54 -21.5 -87.5t-56.5 -49.5q45 -37 69.5 -91.5t24.5 -126.5zM136 275
q0 -52 15 -90.5t39.5 -63.5t57 -37.5t68.5 -12.5t69.5 12.5t60 37.5t42.5 63.5t16 90.5t-15.5 90t-41.5 63t-59.5 37.5t-68.5 12.5q-36 0 -69 -12.5t-58.5 -37.5t-40.5 -63t-15 -90z" />
    <glyph glyph-name="Uhorn" unicode="&#x1af;" horiz-adv-x="675" 
d="M75 697h91v-441q0 -96 47.5 -139.5t124.5 -43.5t124 43.5t47 139.5v441h51q38 0 54.5 23.5t16.5 59.5h82q0 -64 -31 -101t-82 -46v-376q0 -68 -21 -117.5t-56.5 -82t-83.5 -48.5t-102 -16t-101.5 16t-83.5 48.5t-56.5 82t-20.5 117.5v440z" />
    <glyph glyph-name="uhorn" unicode="&#x1b0;" 
d="M684 630q0 -67 -33.5 -103.5t-87.5 -44.5v-482h-91v81q-26 -43 -73 -66t-102 -23q-47 0 -88 14.5t-71.5 44t-48 73.5t-17.5 103v321h90v-309q0 -85 42 -126.5t111 -41.5q72 0 114.5 43t42.5 133v301h73q30 5 43.5 27t13.5 55h82z" />
    <glyph glyph-name="uni01FC" unicode="&#x1fc;" horiz-adv-x="900" 
d="M657 933v-79l-213 -114v68zM238 226h227v403zM556 626v-239h252v-70h-252v-245h282v-72h-373v155h-267l-87 -155h-99l395 698h431v-72h-282z" />
    <glyph glyph-name="uni01FD" unicode="&#x1fd;" horiz-adv-x="1100" 
d="M784 480q-35 0 -66.5 -11.5t-56.5 -33.5t-41 -54t-20 -72h361q0 41 -14 73t-38 53.5t-56.5 33t-68.5 11.5zM1043 169q-11 -38 -32 -70.5t-52 -56.5t-71.5 -37.5t-89.5 -13.5q-69 0 -124.5 30.5t-84.5 84.5v-106h-79v105q-29 -48 -82 -81t-125 -33q-55 0 -102.5 20.5
t-82.5 58t-55 90t-20 116.5t20 116t55.5 88.5t84 56.5t105.5 20q69 0 120.5 -28t84.5 -82v101h76v-101q38 58 90.5 84t118.5 26q58 0 105.5 -20t81.5 -55.5t52 -83t18 -101.5q0 -14 -1 -27t-3 -27h-451q4 -44 21 -77t42.5 -54.5t56.5 -32.5t63 -11q66 0 107 28t55 73h98z
M136 276q0 -48 15 -86.5t40 -64.5t58.5 -40t71.5 -14q37 0 71 13.5t59.5 40t40.5 64.5t15 86t-15 85.5t-40.5 63.5t-59.5 40t-71 14q-38 0 -71.5 -13.5t-58.5 -39t-40 -63.5t-15 -86zM721 782v-79l-213 -114v68z" />
    <glyph glyph-name="uni0218" unicode="&#x218;" horiz-adv-x="587" 
d="M343 -49q6 -23 8.5 -43.5t2.5 -39.5q0 -60 -26 -87.5t-75 -27.5v42q47 0 47 56v18h-47v82h90zM530 190q0 -37 -15 -72.5t-44.5 -63t-72.5 -44.5t-100 -17q-53 0 -96.5 14t-75.5 39.5t-50 61t-19 78.5h97q2 -22 11 -42.5t26.5 -37t44 -26.5t62.5 -10q66 0 103 32.5
t37 83.5q0 35 -16 57.5t-42.5 36.5t-60.5 23.5t-69.5 19.5t-69.5 22.5t-60.5 33.5t-42.5 53t-16 81q0 43 16.5 78.5t47 61t73 39.5t94.5 14q49 0 90 -13t71 -36.5t48 -56.5t22 -73h-100q-2 17 -11.5 35t-26.5 32.5t-41.5 24t-55.5 9.5q-28 1 -52.5 -6t-42.5 -21t-28.5 -35.5
t-10.5 -49.5q0 -34 16 -55t42.5 -35.5t60.5 -24t69 -19.5t69 -23t60.5 -34.5t42.5 -54t16 -80.5z" />
    <glyph glyph-name="uni0219" unicode="&#x219;" horiz-adv-x="522" 
d="M309 -49q11 -49 11 -83q0 -60 -26 -87.5t-75 -27.5v42q47 0 47 56v18h-47v82h90zM471 149q0 -34 -14 -63t-40.5 -50t-63.5 -33t-82 -12q-48 0 -88 12.5t-69.5 35t-47 53.5t-19.5 69h94q4 -40 37.5 -66.5t91.5 -26.5q54 0 83 23.5t29 57.5q0 30 -24 46.5t-60 28t-78 22
t-78 29t-60 48.5t-24 81q0 31 14 59t40.5 49t63.5 33t83 12q91 0 146.5 -45.5t60.5 -126.5h-91q-3 42 -33.5 68.5t-85.5 26.5q-51 0 -79 -21.5t-28 -54.5q0 -32 23.5 -50t59 -30t77 -22.5t77.5 -28t60 -46.5t25 -78z" />
    <glyph glyph-name="uni021A" unicode="&#x21a;" horiz-adv-x="541" 
d="M313 -49q10 -41 10 -83q0 -60 -25.5 -87.5t-74.5 -27.5v42q47 0 47 56v18h-47v82h90zM34 697h472v-74h-190v-623h-91v623h-191v74z" />
    <glyph glyph-name="uni021B" unicode="&#x21b;" horiz-adv-x="364" 
d="M233 -49q6 -23 8.5 -43.5t2.5 -39.5q0 -60 -25 -87.5t-76 -27.5v42q26 0 37 14.5t11 41.5v18h-48v82h90zM97 473h-71v75h71v138h91v-138h143v-75h-143v-323q0 -42 17 -57.5t59 -15.5h67v-77h-82q-73 0 -112.5 33.5t-39.5 116.5v323z" />
    <glyph glyph-name="uni0259" unicode="&#x259;" horiz-adv-x="620" 
d="M310 68q33 0 63 11t53 32t38 52t19 71h-346q0 -40 14 -71t37.5 -52t55 -32t66.5 -11zM306 -9q-60 0 -108.5 20t-83 55t-53 83t-18.5 104q0 15 0.5 28t2.5 27h438q-3 42 -18 74t-39 53.5t-55 33t-66 11.5q-63 0 -101 -28t-53 -73h-98q10 37 31.5 69.5t54 56.5t74 38
t92.5 14q58 0 108 -20t86 -57t56.5 -89.5t20.5 -117.5t-20 -117t-55.5 -89t-85.5 -56.5t-110 -19.5z" />
    <glyph glyph-name="uni02BC" unicode="&#x2bc;" horiz-adv-x="219" 
d="M32 470l59 227h101l-96 -227h-64z" />
    <glyph glyph-name="circumflex" unicode="&#x2c6;" horiz-adv-x="311" 
d="M294 597l-138 85l-139 -85v72l139 83l138 -83v-72z" />
    <glyph glyph-name="caron" unicode="&#x2c7;" horiz-adv-x="311" 
d="M294 751v-72l-138 -82l-139 82v72l139 -85z" />
    <glyph glyph-name="uni02C9" unicode="&#x2c9;" horiz-adv-x="387" 
d="M17 709h352v-68h-352v68z" />
    <glyph glyph-name="breve" unicode="&#x2d8;" horiz-adv-x="320" 
d="M302 732q0 -57 -36.5 -93.5t-105.5 -36.5t-106 37t-37 94v17h54q0 -36 20 -56.5t69 -20.5q48 0 68 20.5t20 56.5h54v-18z" />
    <glyph glyph-name="dotaccent" unicode="&#x2d9;" horiz-adv-x="143" 
d="M72 622q-23 0 -38 15t-15 37t15 37.5t38 15.5q22 0 37 -15.5t15 -37.5t-15 -37t-37 -15z" />
    <glyph glyph-name="ring" unicode="&#x2da;" horiz-adv-x="243" 
d="M122 817q45 0 76 -28t31 -77t-31 -77t-76 -28t-76 28t-31 77t31 77t76 28zM122 656q23 0 38.5 15.5t15.5 41.5t-15.5 41t-38.5 15t-38.5 -15t-15.5 -41t15.5 -41.5t38.5 -15.5z" />
    <glyph glyph-name="ogonek" unicode="&#x2db;" horiz-adv-x="241" 
d="M186 47l24 -47l-55 -27q-34 -17 -47 -34t-13 -36q0 -23 16 -35.5t43 -12.5q29 0 65 13v-60q-17 -6 -37 -10t-40 -4q-23 0 -44.5 5.5t-39 17.5t-28 31t-10.5 46q0 36 25.5 69t91.5 63z" />
    <glyph glyph-name="tilde" unicode="&#x2dc;" horiz-adv-x="345" 
d="M17 607q8 52 34.5 78.5t65.5 26.5q20 0 34.5 -7t27 -16t25 -16t27.5 -7q17 0 29 10.5t15 32.5h52q-6 -51 -33.5 -77.5t-66.5 -26.5q-20 0 -35 7t-27.5 16t-24.5 16t-27 7q-37 0 -43 -44h-53z" />
    <glyph glyph-name="hungarumlaut" unicode="&#x2dd;" horiz-adv-x="344" 
d="M165 755l-87 -154h-61l67 154h81zM318 755l-92 -154h-60l72 154h80z" />
    <glyph glyph-name="gravecomb" unicode="&#x300;" horiz-adv-x="6" 
d="M-234 996l88 -104l-62 -38l-91 98z" />
    <glyph glyph-name="acutecomb" unicode="&#x301;" horiz-adv-x="6" 
d="M-104 952l-91 -98l-62 38l88 104z" />
    <glyph glyph-name="tildecomb" unicode="&#x303;" horiz-adv-x="6" 
d="M-480 912q2 42 24 66.5t64 24.5q20 0 35 -4.5t29 -11.5q11 -6 19.5 -11.5t19.5 -5.5t20.5 7.5t9.5 24.5h69q0 -45 -23.5 -68t-65.5 -23q-21 0 -36.5 5t-28.5 13q-11 7 -19.5 11.5t-18.5 4.5q-11 0 -20 -8t-9 -25h-69z" />
    <glyph glyph-name="hookabovecomb" unicode="&#x309;" horiz-adv-x="5" 
d="M-301 944q1 19 10.5 32.5t24 22.5t33 13t37.5 4q40 0 67.5 -20t27.5 -52q0 -18 -6.5 -31t-17 -21.5t-22.5 -13t-24 -5.5l-2 -19h-52l-2 55q62 0 62 36q0 12 -10 18t-22 6q-14 0 -26 -4t-15 -21h-63z" />
    <glyph glyph-name="dotbelowcomb" unicode="&#x323;" horiz-adv-x="5" 
d="M-359 -224q-28 0 -46.5 18.5t-18.5 46.5t18.5 46.5t46.5 18.5q26 0 44.5 -18.5t18.5 -46.5t-18.5 -46.5t-44.5 -18.5z" />
    <glyph glyph-name="pi" unicode="&#x3c0;" horiz-adv-x="710" 
d="M39 548h628v-71h-80v-477h-90v477h-288v-477h-91v477h-79v71z" />
    <glyph glyph-name="dvCandrabindu" unicode="&#x901;" horiz-adv-x="0" 
d="M-151 818q-51 0 -89.5 14t-64 38t-38 56t-12.5 68h69q0 -21 8 -41.5t25 -37t42 -26.5t60 -10q34 0 59.5 10t42.5 26.5t25 37t8 41.5h68q0 -36 -12.5 -68t-38 -56t-63.5 -38t-89 -14zM-151 982q-17 0 -29 12t-12 29t12 29.5t29 12.5q18 0 30 -12.5t12 -29.5t-12 -29
t-30 -12z" />
    <glyph glyph-name="dvAnusvara" unicode="&#x902;" horiz-adv-x="0" 
d="M-147 835q-24 0 -40.5 16.5t-16.5 39.5t16.5 39.5t40.5 16.5q23 0 39.5 -16.5t16.5 -39.5t-16.5 -39.5t-39.5 -16.5z" />
    <glyph glyph-name="dvVisarga" unicode="&#x903;" horiz-adv-x="232" 
d="M116 436q-23 0 -40 16t-17 40q0 23 17 39.5t40 16.5q24 0 40.5 -16.5t16.5 -39.5q0 -24 -16.5 -40t-40.5 -16zM116 132q-23 0 -40 16.5t-17 39.5t17 39.5t40 16.5q24 0 40.5 -16.5t16.5 -39.5t-16.5 -39.5t-40.5 -16.5z" />
    <glyph glyph-name="dvA" unicode="&#x905;" horiz-adv-x="828" 
d="M282 448q33 0 57 10t40 25.5t24 35.5t8 41q0 28 -9.5 50t-26.5 37t-39.5 23t-47.5 8q-27 0 -50.5 -8t-41 -23t-27.5 -36t-10 -48h-78q0 43 15.5 77.5t43 58.5t65.5 37t83 13q43 0 79.5 -12.5t63 -35.5t41 -56t14.5 -74q0 -57 -30.5 -98t-91.5 -56v-2q30 -5 54 -19h221
v344h215v-70h-132v-670h-83v327l-158 1q18 -38 18 -82t-14.5 -79.5t-41 -61t-64 -39t-83.5 -13.5q-49 0 -89.5 14.5t-70 41.5t-46 64.5t-16.5 82.5h78q0 -29 10 -53t28.5 -41t44 -27t55.5 -10q61 0 96.5 35.5t35.5 92.5q0 42 -23 75h-3l-1 6q-17 20 -44 33t-69 13h-39v68h39
z" />
    <glyph glyph-name="dvAA" unicode="&#x906;" horiz-adv-x="1114" 
d="M282 448q33 0 57 10t40 25.5t24 35.5t8 41q0 28 -9.5 50t-26.5 37t-39.5 23t-47.5 8q-27 0 -50.5 -8t-41 -23t-27.5 -36t-10 -48h-78q0 43 15.5 77.5t43 58.5t65.5 37t83 13q43 0 79.5 -12.5t63 -35.5t41 -56t14.5 -74q0 -57 -30.5 -98t-91.5 -56v-2q30 -5 54 -19h221
v344h509v-70h-131v-670h-84v670h-211v-670h-83v327l-158 1q18 -38 18 -82t-14.5 -79.5t-41 -61t-64 -39t-83.5 -13.5q-49 0 -89.5 14.5t-70 41.5t-46 64.5t-16.5 82.5h78q0 -29 10 -53t28.5 -41t44 -27t55.5 -10q61 0 96.5 35.5t35.5 92.5q0 42 -23 75h-3l-1 6
q-17 20 -44 33t-69 13h-39v68h39z" />
    <glyph glyph-name="dvI" unicode="&#x907;" horiz-adv-x="580" 
d="M-36 740h653v-70h-152v-181h-177q-21 0 -42.5 -3.5t-39.5 -12.5t-29 -25.5t-11 -42.5q0 -45 32 -63.5t77 -18.5h44q38 0 75 -8.5t66 -28t47 -52.5t18 -82q0 -35 -11.5 -65t-34 -52.5t-56.5 -35.5t-78 -13q-41 0 -70.5 10.5t-50.5 25t-33 30.5t-17 27v-156h-79v256h75
q5 -57 44 -93t109 -36q62 0 92 31t30 73q0 32 -12 53t-32 33.5t-45 17.5t-52 5h-53q-33 1 -63.5 9.5t-54 25.5t-37.5 43.5t-14 64.5q0 40 16 68t41.5 44.5t58.5 24t67 7.5h119v120h-420v70z" />
    <glyph glyph-name="dvII" unicode="&#x908;" horiz-adv-x="580" 
d="M174 -77h-79v256h75q5 -57 44 -93t109 -36q62 0 92 31t30 73q0 32 -12 53t-32 33.5t-45 17.5t-52 5h-53q-33 1 -63.5 9.5t-54 25.5t-37.5 43.5t-14 64.5q0 40 16 68t41.5 44.5t58.5 24t67 7.5h119v120h-420v70h421v74q0 41 9.5 76.5t29.5 61.5t51.5 40.5t75.5 14.5
q79 0 121 -47t40 -122h-74q2 45 -20.5 71.5t-64.5 26.5q-90 0 -90 -122v-74h154v-70h-152v-181h-177q-21 0 -42.5 -3.5t-39.5 -12.5t-29 -25.5t-11 -42.5q0 -45 32 -63.5t77 -18.5h44q38 0 75 -8.5t66 -28t47 -52.5t18 -82q0 -35 -11.5 -65t-34 -52.5t-56.5 -35.5t-78 -13
q-41 0 -70.5 10.5t-50.5 25t-33 30.5t-17 27v-156z" />
    <glyph glyph-name="dvU" unicode="&#x909;" horiz-adv-x="575" 
d="M-27 740h629v-70h-122v-104q0 -62 -31.5 -103t-79.5 -49v-2q66 -14 103.5 -68t37.5 -126q0 -47 -15 -86.5t-43 -68t-68.5 -44.5t-92.5 -16q-53 0 -97 16.5t-75.5 46t-49.5 70.5t-18 91h80q0 -32 12 -59t33 -47t49.5 -31.5t61.5 -11.5t59.5 11t45.5 30.5t29 46t10 58.5
q0 26 -8.5 52.5t-26.5 48t-47 35t-69 13.5h-46v74h36q66 0 97.5 35t31.5 89v99h-426v70z" />
    <glyph glyph-name="dvUU" unicode="&#x90a;" horiz-adv-x="865" 
d="M-27 740h918v-70h-411v-104q0 -62 -31.5 -103t-79.5 -49v-2h208q48 0 90 -11t73.5 -34.5t49.5 -61t18 -90.5q0 -48 -15 -83.5t-41 -58.5t-61.5 -34.5t-76.5 -11.5q-11 0 -23 1t-24 3v64q9 -1 17.5 -1h16.5q26 0 49 6.5t40.5 21.5t27.5 38.5t10 57.5t-12 58.5t-33 39.5
t-48.5 22t-57.5 7h-109q42 -54 42 -131q0 -45 -15 -84t-43 -67t-69 -44t-92 -16q-53 0 -97 16.5t-75.5 46t-49.5 70.5t-18 91h80q0 -32 12 -59t33 -47t49.5 -31.5t61.5 -11.5t59.5 11t45.5 30.5t29 46t10 58.5q0 26 -8.5 52.5t-26.5 48t-47 35t-69 13.5h-46v74h36
q66 0 97.5 35t31.5 89v99h-426v70z" />
    <glyph glyph-name="dvvR" unicode="&#x90b;" horiz-adv-x="1021" 
d="M498 276l-273 -276h-104v6l377 356q-11 57 -53.5 95t-108.5 38q-41 0 -74 -13t-57 -37.5t-37 -59.5t-13 -78h-83q0 58 17.5 106t49 82t76 52.5t98.5 18.5q66 0 112 -26.5t73 -71.5v202h-525v70h1075v-70h-472v-232h179q45 0 64.5 20.5t19.5 54.5v59h73v-354h-19
q-58 0 -87.5 -30.5t-29.5 -75.5q0 -28 9.5 -47.5t25.5 -32t37.5 -18t45.5 -5.5q15 0 30.5 3t26.5 6v-68q-12 -3 -31 -5.5t-37 -2.5q-39 0 -73 10t-59.5 30.5t-40 51t-14.5 72.5q0 64 38.5 107t104.5 54v127q-41 -23 -96 -23h-167v-371h-78v276z" />
    <glyph glyph-name="dvvL" unicode="&#x90c;" horiz-adv-x="900" 
d="M-27 740h953v-70h-251v-128q72 -14 113.5 -73t41.5 -153q0 -58 -16 -100h-7q-65 0 -95 -31t-30 -75q0 -28 9.5 -47.5t25.5 -31.5t37.5 -17.5t45.5 -5.5q32 0 58 8v-67q-14 -4 -32 -6.5t-35 -2.5q-40 0 -74.5 10t-60 31t-40.5 52t-15 73q0 30 10 57t29 48t44.5 34.5
t57.5 17.5q6 25 6 54q0 32 -8 60t-24 49t-40 33t-56 12q-68 0 -100.5 -50.5t-32.5 -131.5v-18h-71v18q0 39 -8 72.5t-23.5 58t-39.5 38t-56 13.5q-67 0 -101 -43.5t-34 -112.5q0 -78 40.5 -124.5t118.5 -46.5q6 0 13.5 0.5t15.5 1.5v-73q-10 -1 -18 -1h-16q-59 0 -103.5 18
t-74.5 50.5t-45 77.5t-15 98q0 54 15.5 96.5t43 72.5t65.5 45.5t84 15.5q39 0 68.5 -13t50 -34t33.5 -47t20 -52h3q6 23 16.5 46t27.5 42.5t40.5 33.5t55.5 20v128h-620v70z" />
    <glyph glyph-name="dvEcandra" unicode="&#x90d;" horiz-adv-x="652" 
d="M-27 740h705v-70h-112v-116q0 -111 -46.5 -162t-159.5 -39v74q67 -6 96 25t29 104v114h-300v-399q0 -85 39.5 -132.5t117.5 -47.5q72 0 111 41t39 116h82q0 -109 -61 -169t-169 -60q-62 0 -107.5 18.5t-75 52t-44 80t-14.5 103.5l-1 397h-129v70zM329 837
q-53 0 -91.5 14.5t-63.5 39t-37 56t-12 66.5h73q0 -21 7.5 -41t23.5 -35.5t40.5 -25.5t59.5 -10q34 0 59 10t41 25.5t23.5 35.5t7.5 41h72q0 -35 -12 -66.5t-36.5 -56t-63 -39t-91.5 -14.5z" />
    <glyph glyph-name="dvE" unicode="&#x90f;" horiz-adv-x="652" 
d="M-27 740h705v-70h-112v-116q0 -111 -46.5 -162t-159.5 -39v74q67 -6 96 25t29 104v114h-300v-399q0 -85 39.5 -132.5t117.5 -47.5q72 0 111 41t39 116h82q0 -109 -61 -169t-169 -60q-62 0 -107.5 18.5t-75 52t-44 80t-14.5 103.5l-1 397h-129v70z" />
    <glyph glyph-name="dvAI" unicode="&#x910;" horiz-adv-x="652" 
d="M344 19q-62 0 -107.5 18.5t-75 52t-44 80t-14.5 103.5l-1 397h-129v70h508q-38 60 -65.5 94.5t-52 52t-51.5 22t-63 4.5h-42v68h41q49 0 86 -6.5t71 -30.5t70.5 -72t85.5 -132h117v-70h-112v-116q0 -111 -46.5 -162t-159.5 -39v74q67 -6 96 25t29 104v114h-300v-399
q0 -85 39.5 -132.5t117.5 -47.5q72 0 111 41t39 116h82q0 -109 -61 -169t-169 -60z" />
    <glyph glyph-name="dvOcandra" unicode="&#x911;" horiz-adv-x="1121" 
d="M282 448q33 0 57 10t40 25.5t24 35.5t8 41q0 28 -9.5 50t-26.5 37t-39.5 23t-47.5 8q-27 0 -50.5 -8t-41 -23t-27.5 -36t-10 -48h-78q0 43 15.5 77.5t43 58.5t65.5 37t83 13q43 0 79.5 -12.5t63 -35.5t41 -56t14.5 -74q0 -57 -30.5 -98t-91.5 -56v-2q30 -5 54 -19h221
v344h509v-70h-131v-670h-84v670h-211v-670h-83v327l-158 1q18 -38 18 -82t-14.5 -79.5t-41 -61t-64 -39t-83.5 -13.5q-49 0 -89.5 14.5t-70 41.5t-46 64.5t-16.5 82.5h78q0 -29 10 -53t28.5 -41t44 -27t55.5 -10q61 0 96.5 35.5t35.5 92.5q0 42 -23 75h-3l-1 6
q-17 20 -44 33t-69 13h-39v68h39zM829 837q-53 0 -91.5 14.5t-63.5 39t-37 56t-12 66.5h73q0 -21 7.5 -41t23.5 -35.5t40.5 -25.5t59.5 -10q34 0 59 10t41 25.5t23.5 35.5t7.5 41h72q0 -35 -12 -66.5t-36.5 -56t-63 -39t-91.5 -14.5z" />
    <glyph glyph-name="dvO" unicode="&#x913;" horiz-adv-x="1121" 
d="M639 0v327l-158 1q18 -38 18 -82t-14.5 -79.5t-41 -61t-64 -39t-83.5 -13.5q-49 0 -89.5 14.5t-70 41.5t-46 64.5t-16.5 82.5h78q0 -29 10 -53t28.5 -41t44 -27t55.5 -10q61 0 96.5 35.5t35.5 92.5q0 42 -23 75h-3l-1 6q-17 20 -44 33t-69 13h-39v68h39q33 0 57 10
t40 25.5t24 35.5t8 41q0 28 -9.5 50t-26.5 37t-39.5 23t-47.5 8q-27 0 -50.5 -8t-41 -23t-27.5 -36t-10 -48h-78q0 43 15.5 77.5t43 58.5t65.5 37t83 13q43 0 79.5 -12.5t63 -35.5t41 -56t14.5 -74q0 -57 -30.5 -98t-91.5 -56v-2q30 -5 54 -19h221v344h292
q-38 60 -65.5 94.5t-52 52t-51.5 22t-63 4.5h-42v68h41q49 0 86 -6.5t71 -30.5t70.5 -72t85.5 -132h137v-70h-131v-670h-84v670h-211v-670h-83z" />
    <glyph glyph-name="dvAU" unicode="&#x914;" horiz-adv-x="1121" 
d="M639 0v327l-158 1q18 -38 18 -82t-14.5 -79.5t-41 -61t-64 -39t-83.5 -13.5q-49 0 -89.5 14.5t-70 41.5t-46 64.5t-16.5 82.5h78q0 -29 10 -53t28.5 -41t44 -27t55.5 -10q61 0 96.5 35.5t35.5 92.5q0 42 -23 75h-3l-1 6q-17 20 -44 33t-69 13h-39v68h39q33 0 57 10
t40 25.5t24 35.5t8 41q0 28 -9.5 50t-26.5 37t-39.5 23t-47.5 8q-27 0 -50.5 -8t-41 -23t-27.5 -36t-10 -48h-78q0 43 15.5 77.5t43 58.5t65.5 37t83 13q43 0 79.5 -12.5t63 -35.5t41 -56t14.5 -74q0 -57 -30.5 -98t-91.5 -56v-2q30 -5 54 -19h221v344h297q-43 34 -71.5 53
t-53 28.5t-51.5 11.5t-67 2h-43v54h41q37 0 64 -1.5t51.5 -9.5t51 -24.5t62.5 -46.5q-35 65 -62.5 101t-53 53.5t-51.5 21t-59 3.5h-44v55h43q49 0 84 -6.5t68.5 -35.5t71.5 -90t93 -169h138v-70h-131v-670h-84v670h-211v-670h-83z" />
    <glyph glyph-name="dvKA" unicode="&#x915;" horiz-adv-x="995" 
d="M463 202q-22 -45 -66.5 -74.5t-113.5 -29.5q-47 0 -86 16.5t-67.5 46.5t-44 73t-15.5 96q0 52 16 94.5t44.5 72.5t68.5 46t87 16q69 0 112 -28.5t65 -73.5v213h-490v70h1048v-70h-478v-217q21 45 63.5 75.5t109.5 30.5q46 0 84 -16.5t66 -46.5t43.5 -72t15.5 -92
q0 -55 -16 -97.5t-44 -72t-66 -45t-83 -15.5q-38 0 -62 7v66q9 -2 20 -3t22 -1q30 0 56.5 10.5t46 31t30.5 50t11 67.5q0 36 -11.5 65t-31.5 49.5t-46.5 31.5t-57.5 11q-40 0 -68.5 -14.5t-46.5 -38t-26.5 -53t-8.5 -59.5v-322h-80v202zM309 168q40 0 69 14.5t48 38t28 52
t9 55.5q0 28 -9 56.5t-27.5 51.5t-48 37t-69.5 14q-32 0 -60.5 -11t-49.5 -31t-33 -49.5t-12 -65.5q0 -38 11.5 -68t32.5 -51t49.5 -32t61.5 -11z" />
    <glyph glyph-name="dvKHA" unicode="&#x916;" horiz-adv-x="933" 
d="M611 201q35 0 60.5 12.5t42 33t24 45.5t7.5 49t-7.5 49t-24 45t-41.5 32.5t-61 12.5q-28 0 -53 -9t-44 -26.5t-30 -43t-11 -58.5q0 -34 10.5 -60.5t29.5 -44.5t44 -27.5t54 -9.5zM595 136q-20 0 -38 3q-14 -29 -35 -55t-49 -45.5t-63 -30.5t-77 -11q-57 0 -103 16.5
t-78.5 48t-50.5 77t-18 104.5v156h36q30 0 55.5 6.5t45 23.5t30.5 46t11 74v121h-288v70h987v-70h-132v-670h-83v218q-20 -35 -56.5 -58.5t-93.5 -23.5zM335 70q60 0 97.5 28t56.5 66q-43 26 -67.5 71t-24.5 108q0 46 15 83t42 63.5t63 41t78 14.5q57 0 93.5 -23t56.5 -58
v206h-400v-131q0 -57 -14.5 -95.5t-39 -62.5t-57 -34t-68.5 -10v-103q0 -75 44 -119.5t125 -44.5z" />
    <glyph glyph-name="dvGA" unicode="&#x917;" horiz-adv-x="746" 
d="M557 670h-178v-270q0 -36 -9 -68t-29 -56t-51 -38t-75 -14q-84 0 -125.5 48t-41.5 123v30h82v-31q0 -18 4 -35.5t13.5 -31.5t25.5 -22.5t39 -8.5q25 0 41 9t25.5 23t13 32.5t3.5 36.5v273h-322v70h799v-70h-132v-670h-83v670z" />
    <glyph glyph-name="dvGHA" unicode="&#x918;" horiz-adv-x="710" 
d="M324 174q41 0 77 13.5t63 38t42.5 59t15.5 75.5v310h-339v-73q0 -58 30.5 -89t105.5 -31h47v-68h-53q-39 0 -66.5 -9t-45 -24t-26 -35.5t-8.5 -44.5q0 -31 12 -54t33 -38t50 -22.5t62 -7.5zM-27 740h764v-70h-131v-670h-84v221q-31 -54 -87 -85t-129 -31q-48 0 -89 11.5
t-70.5 34.5t-46.5 57.5t-17 79.5q0 33 11 59.5t29 45.5t42 31t50 17v2q-24 4 -45 14.5t-36.5 28.5t-25 44.5t-9.5 62.5v77h-126v70z" />
    <glyph glyph-name="dvNGA" unicode="&#x919;" horiz-adv-x="660" 
d="M588 342q-22 0 -37 15t-15 36q0 22 15 37t37 15t37 -15t15 -37q0 -21 -15 -36t-37 -15zM-27 740h713v-70h-219v-181h-177q-21 0 -42 -3.5t-38.5 -12.5t-28.5 -25.5t-11 -41.5q0 -23 8.5 -39t23.5 -26t34 -14t40 -4h45q37 0 74 -8.5t66 -28t47 -52t18 -80.5
q0 -37 -13.5 -67.5t-40 -53t-66 -35t-91.5 -12.5q-56 0 -101 14t-76.5 39t-48.5 60.5t-18 79.5h82q1 -57 41.5 -93t118.5 -36q69 0 101.5 30t32.5 75q0 31 -12 52t-31.5 33.5t-44.5 17.5t-52 5h-41q-32 0 -64 7t-57.5 23.5t-42 44.5t-16.5 70q0 39 15.5 66t41 43.5t58 24
t66.5 7.5h119v121h-413v70z" />
    <glyph glyph-name="dvCA" unicode="&#x91a;" horiz-adv-x="735" 
d="M-27 740h788v-70h-131v-670h-84v204q-28 -48 -78 -76t-114 -28q-44 0 -82.5 13.5t-67.5 39t-45.5 62.5t-16.5 85q0 54 23.5 95.5t66.5 65.5h-182v66h363v-66h-35q-36 0 -65 -11.5t-49.5 -31t-31.5 -47t-11 -58.5q0 -35 12.5 -61.5t33.5 -44.5t49 -27.5t60 -9.5
q37 0 68.5 14t54 38.5t35 57t12.5 70.5v320h-573v70z" />
    <glyph glyph-name="dvCHA" unicode="&#x91b;" horiz-adv-x="817" 
d="M-27 740h871v-70h-219v-124q63 -12 104.5 -62.5t41.5 -141.5q0 -74 -27 -132t-76 -99t-117.5 -62.5t-152.5 -21.5q-72 0 -132 14t-102.5 41.5t-66.5 68.5t-24 95q0 36 11 64.5t29.5 49t44 33.5t54.5 18v3q-24 4 -44.5 14.5t-36.5 28.5t-25 45t-9 63v105h-124v70zM399 99
q66 0 120.5 16.5t93.5 48t61 77t22 103.5q0 36 -9.5 63t-25 45t-35 27t-40.5 9q-18 0 -37 -6.5t-34.5 -20t-25 -36t-9.5 -53.5q0 -42 17 -93h-69q-18 49 -18 101q0 40 11 69t30 49.5t44 32t53 16.5v123h-369v-102q0 -58 30 -89t102 -31h22v-69h-20q-41 0 -70.5 -10
t-48.5 -27t-27.5 -40t-8.5 -48q0 -78 64.5 -116.5t176.5 -38.5z" />
    <glyph glyph-name="dvJA" unicode="&#x91c;" horiz-adv-x="840" 
d="M-27 740h894v-70h-132v-670h-83v427h-190v-95q0 -44 -13.5 -81t-38.5 -63.5t-61.5 -41.5t-81.5 -15q-47 0 -82.5 15t-60 41.5t-37 63.5t-12.5 81v167h84v-165q0 -58 29 -94t80 -36q54 0 83.5 36t29.5 94v165h271v171h-679v70z" />
    <glyph glyph-name="dvJHA" unicode="&#x91d;" horiz-adv-x="849" 
d="M662 323v347h-197v-181h-177q-21 0 -42.5 -3.5t-39.5 -12.5t-29 -25.5t-11 -42.5q0 -45 32 -63.5t77 -18.5h387zM662 259l-189 1q22 -19 35.5 -46.5t13.5 -69.5q0 -32 -10.5 -59.5t-32 -47.5t-54 -32t-75.5 -12q-41 0 -70.5 10t-50 23.5t-32.5 27.5t-17 23v-154h-79v248
h75q3 -23 13.5 -44t29.5 -37t46 -25t62 -9q61 0 89.5 29.5t28.5 68.5q0 51 -35.5 80t-105.5 29h-53q-33 1 -63.5 9.5t-54 25.5t-37.5 43.5t-14 64.5q0 40 16 68t41.5 44.5t58.5 24t67 7.5h119v120h-411v70h903v-70h-132v-670h-82v259z" />
    <glyph glyph-name="dvNYA" unicode="&#x91e;" horiz-adv-x="810" 
d="M-27 740h863v-70h-131v-670h-84v293h-105q-5 -44 -21.5 -81t-45 -64.5t-68.5 -43t-91 -15.5q-50 0 -88.5 14t-66 38t-44 55.5t-21.5 66.5h79q5 -20 16 -38t29 -32.5t42 -23t55 -8.5q37 0 65.5 13t47.5 35.5t28.5 52.5t9.5 63q0 32 -9.5 61.5t-28.5 52t-47.5 36
t-65.5 13.5q-32 0 -56.5 -9t-42 -23.5t-28.5 -33t-15 -36.5h-79q4 35 20.5 66.5t44 55.5t66.5 38t89 14t89 -15t67.5 -41.5t45.5 -62t23 -76.5h106v305h-648v70z" />
    <glyph glyph-name="dvTTA" unicode="&#x91f;" horiz-adv-x="650" 
d="M-27 740h704v-70h-213v-187h-101q-44 0 -82 -11.5t-66.5 -35t-45 -58.5t-16.5 -83q0 -39 13.5 -72t38.5 -57t58.5 -37.5t74.5 -13.5q42 0 76.5 14t59 39t38 59.5t13.5 75.5h80q0 -58 -19 -106t-54 -82t-83.5 -53t-108.5 -19q-59 0 -108.5 18.5t-85.5 51.5t-56 79t-20 102
q0 63 21 111.5t59.5 81.5t91.5 50t117 17h23v116h-409v70z" />
    <glyph glyph-name="dvTTHA" unicode="&#x920;" horiz-adv-x="675" 
d="M338 118q41 0 75 13.5t59 37.5t38.5 57t13.5 73t-13.5 73t-38.5 57t-59 37t-75 13t-74.5 -13t-58.5 -37t-38.5 -57t-13.5 -73t13.5 -73t38.5 -57t58.5 -37.5t74.5 -13.5zM338 47q-57 0 -106 18t-85 51t-56.5 79.5t-20.5 103.5q0 53 17.5 96t48 75t71.5 51.5t89 25.5v123
h-323v70h729v-70h-324v-122q48 -6 89.5 -25.5t72.5 -51.5t48.5 -75.5t17.5 -96.5q0 -57 -20.5 -103.5t-56.5 -79.5t-85 -51t-106 -18z" />
    <glyph glyph-name="dvDDA" unicode="&#x921;" horiz-adv-x="574" 
d="M-27 740h627v-70h-139v-181h-171q-21 0 -42 -3.5t-38.5 -12.5t-28.5 -25.5t-11 -41.5q0 -23 8.5 -39t23.5 -26t34 -14t40 -4h45q37 0 74 -8.5t66 -28t47 -52t18 -80.5q0 -37 -13.5 -67.5t-40 -53t-66 -35t-91.5 -12.5q-56 0 -101 14t-76.5 39t-48.5 60.5t-18 79.5h82
q1 -57 41.5 -93t118.5 -36q69 0 101.5 30t32.5 75q0 31 -12 52t-31.5 33.5t-44.5 17.5t-52 5h-41q-32 0 -64 7t-57.5 23.5t-42 44.5t-16.5 70q0 39 15.5 66t41 43.5t58 24t66.5 7.5h114v121h-408v70z" />
    <glyph glyph-name="dvDDHA" unicode="&#x922;" horiz-adv-x="641" 
d="M-27 740h695v-70h-185v-172h-95q-51 0 -94.5 -13t-75.5 -40t-50 -68t-18 -96q0 -47 15.5 -85.5t44.5 -66.5t70 -43.5t92 -15.5q36 0 66.5 9.5t53 27t35.5 42t13 54.5q0 45 -27.5 74t-72.5 29q-37 0 -64 -23t-27 -65q0 -5 0.5 -10t2.5 -9h-63q-1 7 -1.5 15t-0.5 15
q0 33 12 58.5t33 43.5t49.5 27t61.5 9q39 0 70 -12t53 -34t34 -52t12 -66q0 -44 -16.5 -80t-48 -61.5t-76 -39.5t-100.5 -14q-64 0 -119 19t-95.5 55t-63.5 87t-23 114q0 69 22.5 120.5t62 86t93.5 51.5t116 17h40v112h-431v70z" />
    <glyph glyph-name="dvNNA" unicode="&#x923;" horiz-adv-x="856" 
d="M282 254q51 0 79.5 33.5t28.5 87.5v295h-217v-295q0 -54 29 -87.5t80 -33.5zM-27 740h909v-70h-132v-670h-83v670h-195v-287q0 -44 -12.5 -80.5t-36.5 -63t-60 -41.5t-82 -15q-47 0 -82.5 15.5t-59.5 42.5t-36 63.5t-12 78.5v287h-118v70z" />
    <glyph glyph-name="dvTA" unicode="&#x924;" horiz-adv-x="694" 
d="M-27 740h748v-70h-132v-670h-84v426h-146q-93 0 -149 -44t-56 -134q0 -85 47 -132t140 -47h22v-67h-33q-58 0 -105.5 15.5t-82 46t-53.5 77t-19 108.5q0 65 21.5 112t59.5 77.5t90 45t114 14.5h150v172h-532v70z" />
    <glyph glyph-name="dvTHA" unicode="&#x925;" horiz-adv-x="766" 
d="M577 229q-10 -24 -29 -47.5t-47.5 -41.5t-66 -29.5t-84.5 -11.5q-63 0 -113 19t-85.5 54.5t-54 85.5t-18.5 113q0 26 3 53h99q38 0 75 6t66 21.5t47 43t18 71.5q0 48 -28.5 79.5t-79.5 31.5q-54 0 -83 -31t-29 -85q0 -23 4 -43h-76q-2 11 -3 23t-1 23q0 43 14 77.5
t39 58.5t60 36.5t76 12.5q42 0 76 -13.5t58.5 -38.5t37.5 -59t13 -74q0 -52 -19 -90t-53 -62.5t-81 -36.5t-102 -12h-51q0 -43 12.5 -78.5t38 -61t63.5 -40t89 -14.5q44 0 83 14t68.5 41t46.5 66t17 89v361h216v-70h-132v-670h-84v229z" />
    <glyph glyph-name="dvDA" unicode="&#x926;" horiz-adv-x="609" 
d="M-27 740h663l-1 -70h-144v-182h-148q-39 0 -73.5 -10.5t-60 -31t-40 -51.5t-14.5 -72q0 -72 42.5 -114.5t114.5 -42.5q25 0 50 8t45.5 24.5t33.5 42t13 61.5h77v-318h-82v192q-21 -35 -63 -56t-96 -21q-48 0 -88.5 15t-69.5 44.5t-45.5 71.5t-16.5 96q0 59 21 103t57 73
t84.5 43.5t103.5 14.5h72v110h-435v70z" />
    <glyph glyph-name="dvDHA" unicode="&#x927;" horiz-adv-x="712" 
d="M305 98q-45 0 -85 11t-69 33t-46 54.5t-17 75.5q0 33 11 58.5t28 43.5t39 29t44 14v3q-24 6 -47.5 18.5t-41.5 32.5t-29 48t-11 65q0 36 12.5 66.5t35 52.5t54 34t69.5 12q39 0 70 -12t52.5 -33t32.5 -50.5t11 -63.5v-15.5t-1 -17.5h-64q1 10 1 15v9q0 42 -25.5 70
t-73.5 28t-74.5 -30t-26.5 -73q0 -58 41.5 -90t110.5 -32h57v-68h-54q-69 0 -102.5 -29t-33.5 -77q0 -29 11.5 -50t32 -35t48 -20.5t59.5 -6.5q44 0 81.5 14.5t64.5 41.5t42.5 64.5t15.5 83.5v368h214v-70h-130v-670h-84v220q-30 -57 -87.5 -89.5t-135.5 -32.5z" />
    <glyph glyph-name="dvNA" unicode="&#x928;" horiz-adv-x="789" 
d="M267 188q27 0 50.5 9t40 25.5t26 39t9.5 49.5t-9.5 49.5t-26 39t-40 25.5t-50.5 9q-57 0 -92.5 -34.5t-35.5 -89.5q0 -54 35.5 -88t92.5 -34zM-27 740h843v-70h-132v-670h-83v434h-195q23 -23 38.5 -55.5t15.5 -77.5q0 -43 -15 -77t-41 -58t-61.5 -36.5t-76.5 -12.5
q-43 0 -80 13.5t-64.5 38.5t-43 61t-15.5 80q0 46 16 82t44.5 61t66.5 38t83 13h328v166h-628v70z" />
    <glyph glyph-name="dvPA" unicode="&#x92a;" horiz-adv-x="655" 
d="M319 268q36 0 63.5 12.5t46 33.5t28.5 49t10 60v247h-299v-225q0 -81 36.5 -129t114.5 -48zM-27 740h708v-70h-131v-670h-83v283q-24 -40 -66 -63t-102 -23q-54 0 -94 18t-66.5 50.5t-40 78t-13.5 101.5v225h-112v70z" />
    <glyph glyph-name="dvPHA" unicode="&#x92b;" horiz-adv-x="985" 
d="M309 268q34 0 60 12t43.5 33t26.5 48.5t9 57.5v251h-280v-229q0 -81 34 -127t107 -46zM-27 740h1039v-70h-481v-216q21 45 64.5 75t112.5 30q45 0 83.5 -16.5t66 -46t43 -71t15.5 -91.5q0 -55 -16 -98t-43.5 -73t-66 -45.5t-83.5 -15.5q-37 0 -64 8v65q25 -5 45 -5
q31 0 57 11t45.5 31.5t30.5 50t11 67.5q0 36 -11.5 65t-31.5 49.5t-47 31.5t-58 11q-41 0 -70 -15t-47.5 -40t-27 -56t-8.5 -63v-313h-83v281q-23 -39 -62 -61.5t-96 -22.5q-51 0 -89.5 17.5t-64 49.5t-38.5 77t-13 100v229h-112v70z" />
    <glyph glyph-name="dvBA" unicode="&#x92c;" horiz-adv-x="689" 
d="M504 196q-23 -45 -71 -75t-120 -30q-51 0 -95 17t-77 48t-52 75t-19 99q0 54 18.5 98.5t51 75.5t76 48t94.5 17q72 0 120.5 -30.5t73.5 -75.5v207h-531v70h742v-70h-131v-670h-80v196zM326 512q-73 0 -123 -44l273 -240q16 23 23.5 50.5t7.5 53.5q0 33 -11 65t-33.5 57.5
t-56.5 41.5t-80 16zM328 153q40 0 70.5 12.5t52.5 32.5l-275 240q-15 -22 -23.5 -49t-8.5 -59q0 -42 14.5 -75t40 -55.5t58.5 -34.5t71 -12z" />
    <glyph glyph-name="dvBHA" unicode="&#x92d;" horiz-adv-x="795" 
d="M260 172q51 0 77.5 34.5t26.5 97.5v81h-92q-54 0 -86 -28t-32 -79q0 -49 30 -77.5t76 -28.5zM261 101q-42 0 -76 12.5t-58 36t-37.5 56t-13.5 72.5q0 43 15 75.5t41 55t61.5 34t76.5 11.5h94v94q0 60 -22 94.5t-70 34.5q-42 0 -67 -27t-25 -78q0 -21 4 -38h-83
q-2 10 -3 20.5t-1 20.5q0 78 45 126t127 48q47 0 80 -15.5t53.5 -44t30 -68t9.5 -86.5v-81h164v286h216v-70h-133v-670h-83v385h-164v-77q0 -100 -46.5 -153.5t-134.5 -53.5z" />
    <glyph glyph-name="dvMA" unicode="&#x92e;" horiz-adv-x="786" 
d="M232 172q49 0 76.5 34.5t27.5 97.5v81h-93q-51 0 -84 -28t-33 -79q0 -49 30 -77.5t76 -28.5zM597 670h-183v-216h183v216zM-27 740h839v-70h-131v-670h-84v385h-183v-77q0 -100 -47 -153.5t-135 -53.5q-85 0 -134.5 48t-49.5 129q0 43 14.5 75.5t40.5 55t61.5 34
t76.5 11.5h95v216h-363v70z" />
    <glyph glyph-name="dvYA" unicode="&#x92f;" horiz-adv-x="737" 
d="M350 182q42 0 78.5 13.5t63 38.5t42 59.5t15.5 76.5v300h-201v-83q0 -97 -50.5 -143.5t-146.5 -50.5v-7q0 -94 51.5 -149t147.5 -55zM-27 740h791v-70h-132v-670h-83v219q-27 -45 -81 -76t-135 -31q-64 0 -113 20t-82.5 57t-51 89t-17.5 116q0 23 3 47h14q85 0 132 35
t47 125v69h-292v70z" />
    <glyph glyph-name="dvRA" unicode="&#x930;" horiz-adv-x="535" 
d="M-27 740h589v-70h-120v-96q0 -111 -55 -173t-171 -62h-51v-137q0 -61 27.5 -100t86.5 -39q54 0 84 35.5t30 93.5v19h80v-17q0 -94 -50.5 -148.5t-141.5 -54.5q-50 0 -87 16t-62 45t-37 68.5t-12 86.5v200h105q171 0 171 167v96h-386v70z" />
    <glyph glyph-name="dvRxA" unicode="&#x931;" horiz-adv-x="535" 
d="M-27 740h589v-70h-120v-96q0 -111 -55 -173t-171 -62h-51v-137q0 -61 27.5 -100t86.5 -39q54 0 84 35.5t30 93.5v19h80v-17q0 -94 -50.5 -148.5t-141.5 -54.5q-50 0 -87 16t-62 45t-37 68.5t-12 86.5v200h105q171 0 171 167v96h-386v70zM115 -160q-24 0 -40 16t-16 39
q0 24 16 40.5t40 16.5t40 -16.5t16 -40.5q0 -23 -16 -39t-40 -16z" />
    <glyph glyph-name="dvLA" unicode="&#x932;" horiz-adv-x="904" 
d="M596 69q-8 0 -16 0.5t-18 1.5v73q8 -1 15.5 -1.5t13.5 -0.5q78 0 118.5 47.5t40.5 122.5q0 33 -8 61.5t-24.5 50t-40.5 33.5t-57 12q-68 0 -100.5 -51t-32.5 -132v-15h-71v15q0 40 -8 73.5t-23.5 58t-39.5 38t-56 13.5q-33 0 -58.5 -12t-42.5 -33t-25.5 -49.5t-8.5 -62.5
q0 -75 40.5 -122.5t118.5 -47.5q6 0 13.5 0.5t15.5 1.5v-73q-10 -1 -18 -1.5t-16 -0.5q-59 0 -103.5 18.5t-74.5 51.5t-45 77.5t-15 97.5q0 54 15.5 96.5t43 72t65.5 45t84 15.5q40 0 69.5 -13t50 -33.5t33.5 -46.5t20 -52h3q6 24 17 47.5t29 43t43 33.5t59 19v129h-629v70
h957v-70h-246v-133q69 -17 109.5 -74.5t40.5 -148.5q0 -53 -15 -97.5t-45 -77.5t-74.5 -51.5t-103.5 -18.5z" />
    <glyph glyph-name="dvLLA" unicode="&#x933;" horiz-adv-x="998" 
d="M305 167q34 0 62.5 11t48 31.5t30.5 48.5t11 62t-11 63t-30.5 50t-48 32.5t-62.5 11.5q-33 0 -61.5 -11t-49 -32t-32 -50t-11.5 -65q0 -34 11.5 -62t32.5 -48t49 -31t61 -11zM692 167q33 0 61.5 11t49 31t32 48t11.5 62q0 36 -11.5 65t-31.5 50t-48.5 32t-61.5 11
q-35 0 -63 -11.5t-48 -32.5t-31 -50t-11 -63t11 -62t30.5 -48.5t47.5 -31.5t63 -11zM703 95q-39 0 -72 11t-59 29.5t-44.5 44t-27.5 55.5h-3q-9 -30 -27.5 -55.5t-44.5 -44t-59 -29.5t-72 -11q-48 0 -89 16.5t-71 46t-47 71t-17 91.5q0 52 17.5 94.5t47.5 72.5t70.5 46
t87.5 16q40 0 72.5 -10.5t58 -29t43.5 -44t30 -54.5h3q21 54 64.5 91t109.5 45v123h-701v70h1050v-70h-267v-127q37 -8 69 -27t54.5 -47.5t35.5 -66t13 -82.5q0 -50 -17.5 -91.5t-47.5 -71t-71 -46t-89 -16.5z" />
    <glyph glyph-name="dvVA" unicode="&#x935;" horiz-adv-x="674" 
d="M319 163q44 0 76 15t52.5 39t30.5 53t10 58v1q0 30 -10 59.5t-30.5 53t-52.5 38.5t-76 15q-35 0 -65.5 -11.5t-53 -33t-35.5 -52t-13 -68.5q0 -39 12.5 -70t35 -52.5t53 -33t66.5 -11.5zM569 670v-670h-81v201q-25 -46 -72.5 -75.5t-117.5 -29.5q-51 0 -93 17t-72 47.5
t-46.5 74.5t-16.5 98q0 51 17 93.5t47 73t72 47t92 16.5q72 0 119 -29.5t71 -75.5v212h-515v70h728v-70h-132z" />
    <glyph glyph-name="dvSHA" unicode="&#x936;" horiz-adv-x="814" 
d="M303 -8q-53 0 -92.5 16t-66.5 45.5t-40.5 70.5t-13.5 92v175h146q40 0 75 9t61 27.5t41 47.5t15 68q0 63 -33 98t-90 35t-90.5 -35.5t-33.5 -96.5q0 -22 3 -44h-83q-2 12 -3 23t-1 23q0 45 14.5 82.5t41.5 64.5t65.5 41.5t86.5 14.5q46 0 84.5 -14t66 -41t42.5 -66
t15 -90q0 -55 -19 -96t-52.5 -68t-79 -40.5t-98.5 -13.5h-90v-110q0 -63 29.5 -104.5t97.5 -41.5q57 0 88 37t31 97v13h81v-14q0 -97 -52.5 -151t-145.5 -54zM625 740h216v-70h-132v-670h-84v740z" />
    <glyph glyph-name="dvSSA" unicode="&#x937;" horiz-adv-x="661" 
d="M474 670h-309l309 -249v249zM320 263q57 0 93.5 27.5t50.5 70.5l-299 242v-160q0 -84 37 -132t118 -48zM-27 740h715v-70h-132v-670h-82v278q-24 -40 -65.5 -63t-104.5 -23q-55 0 -96 18t-68.5 51.5t-41 80t-13.5 103.5v225h-112v70z" />
    <glyph glyph-name="dvSA" unicode="&#x938;" horiz-adv-x="819" 
d="M429 579q0 -54 -16 -94.5t-45 -66.5h263v252h-202v-91zM-27 740h873v-70h-133v-670h-82v349h-466v-146q0 -61 28 -100.5t88 -39.5q54 0 84.5 35.5t30.5 93.5v12h80q1 -5 1 -9.5v-6.5q0 -90 -52 -143.5t-143 -53.5q-50 0 -87.5 16.5t-62 45t-37 68t-12.5 86.5v204h92
q88 0 130 45t42 123v91h-374v70z" />
    <glyph glyph-name="dvHA" unicode="&#x939;" horiz-adv-x="586" 
d="M528 62q-5 -33 -22 -63t-45 -53t-67 -36.5t-88 -13.5q-56 0 -99 17t-72.5 47t-44.5 70t-15 87q0 63 28.5 112t79.5 76q-35 15 -59.5 45t-24.5 76q0 32 12 56t33.5 39.5t51.5 23.5t65 8h131v117h-419v70h639v-70h-141v-178h-183q-21 0 -40.5 -4t-34 -14t-23.5 -25.5
t-9 -37.5q0 -32 20 -52.5t51 -29.5q14 2 28 3.5t28 1.5q52 0 91 -14t66 -37t42.5 -53t20.5 -61h-80q-4 17 -14.5 34.5t-28 31.5t-42.5 23t-57 9q-36 0 -64 -12t-46.5 -32.5t-28.5 -48t-10 -58.5q0 -32 10 -59.5t28.5 -47.5t46.5 -31.5t64 -11.5q31 0 55.5 8.5t42 22t28.5 31
t16 34.5h80z" />
    <glyph glyph-name="dvNukta" unicode="&#x93c;" horiz-adv-x="0" 
d="M-359 -148q-24 0 -40 16t-16 39q0 24 16 40.5t40 16.5t40 -16.5t16 -40.5q0 -23 -16 -39t-40 -16z" />
    <glyph glyph-name="dvAvagraha" unicode="&#x93d;" horiz-adv-x="576" 
d="M76 133h233q42 0 62.5 18t20.5 45t-19 52.5t-48 51.5t-62 53t-62 57.5t-48 65t-19 75.5q0 33 12 56t32.5 37.5t48 21t58.5 6.5h203v-71h-184q-17 0 -32.5 -2.5t-27 -9.5t-18.5 -19t-7 -30q0 -28 19 -54t48 -52t62 -53t62 -57t48 -64.5t19 -74.5q0 -52 -37 -88t-111 -36
h-253v72z" />
    <glyph glyph-name="dvmAA" unicode="&#x93e;" horiz-adv-x="294" 
d="M105 670h-132v70h347v-70h-131v-670h-84v670z" />
    <glyph glyph-name="dvmI" unicode="&#x93f;" horiz-adv-x="294" 
d="M189 0h-84v670h-132v70h132q1 69 33.5 118t85.5 79.5t122 44.5t144 14t144.5 -15.5t122.5 -47.5t85 -81t32 -115v-17h-84v16q0 54 -28 91t-71.5 59t-96.5 31.5t-104 9.5t-105 -8t-97.5 -28.5t-71.5 -57t-28 -93.5h132v-70h-131v-670z" />
    <glyph glyph-name="dvmII" unicode="&#x940;" horiz-adv-x="294" 
d="M-189 778q0 46 10 85.5t32.5 69t58.5 46.5t89 17t89 -17t58 -46.5t31.5 -69t9.5 -85.5v-38h131v-70h-131v-670h-84v670h-132v70h134v42q0 26 -4.5 52t-16.5 46.5t-32.5 33t-52.5 12.5t-53 -12.5t-33 -33t-17 -46.5t-5 -52v-62h-82v58z" />
    <glyph glyph-name="dvmU" unicode="&#x941;" horiz-adv-x="0" 
d="M-197 -300q-46 0 -88.5 12t-74.5 37.5t-50.5 65t-16.5 95.5h75q-2 -38 9.5 -65t32.5 -44.5t49.5 -26t61.5 -8.5q60 0 94 27t34 78q0 36 -24 64t-70 28h-24v66h24q41 0 72 -12t52 -33.5t31.5 -50.5t10.5 -63q0 -81 -52.5 -125.5t-145.5 -44.5z" />
    <glyph glyph-name="dvmUU" unicode="&#x942;" horiz-adv-x="0" 
d="M-176 -291q-35 0 -65 10t-52 29.5t-35 48t-13 66.5t14 68.5t39 51.5t60.5 32.5t77.5 11.5q61 0 107 -21t76.5 -58t45.5 -88.5t15 -111.5v-16.5t-1 -16.5h-69v41q0 100 -47.5 153.5t-125.5 53.5q-57 0 -90.5 -26.5t-33.5 -74.5q0 -43 29.5 -67.5t72.5 -24.5q8 0 16 0.5
t17 1.5v-62q-10 -1 -19 -1h-19z" />
    <glyph glyph-name="dvmvR" unicode="&#x943;" horiz-adv-x="0" 
d="M-137 -310q-36 0 -70.5 9t-61 29.5t-43 52.5t-16.5 77q0 36 12.5 67t36.5 53.5t59.5 35.5t80.5 13h34v-59h-28q-57 0 -85.5 -31t-28.5 -76q0 -28 10 -47.5t26.5 -32t39 -18t46.5 -5.5q22 0 41.5 3t31.5 7v-65q-17 -6 -40 -9.5t-45 -3.5z" />
    <glyph glyph-name="dvmvRR" unicode="&#x944;" horiz-adv-x="0" 
d="M-141 -447q-33 0 -64 7t-55 23t-38.5 41t-14.5 60q0 48 26.5 76.5t64.5 36.5v3q-39 9 -64.5 34.5t-25.5 73.5q0 33 13 56t34 37t46.5 20t51.5 6h62v-48h-33q-18 0 -35 -3.5t-30 -12.5t-21 -23t-8 -35q0 -40 29 -57t69 -17h47v-62h-46q-19 0 -36.5 -3.5t-31.5 -12.5
t-22.5 -23.5t-8.5 -36.5q0 -21 8.5 -35t22.5 -22.5t33 -12.5t39 -4q30 0 57 5t41 10v-63q-19 -8 -49 -13t-61 -5z" />
    <glyph glyph-name="dvmEcandra" unicode="&#x945;" horiz-adv-x="0" 
d="M-151 818q-53 0 -91.5 14.5t-63.5 39t-37 56t-12 66.5h73q0 -21 7.5 -41t23.5 -35.5t40.5 -25.5t59.5 -10q34 0 59 10t41 25.5t23.5 35.5t7.5 41h72q0 -35 -12 -66.5t-36.5 -56t-63 -39t-91.5 -14.5z" />
    <glyph glyph-name="dvmE" unicode="&#x947;" horiz-adv-x="0" 
d="M-185 736q-39 61 -66.5 96.5t-52.5 53.5t-52 22.5t-64 4.5h-42v68h41q49 0 86 -6.5t71 -31.5t71 -73.5t87 -133.5h-79z" />
    <glyph glyph-name="dvmAI" unicode="&#x948;" horiz-adv-x="0" 
d="M-178 737q-44 35 -73 54.5t-54.5 29.5t-52.5 12t-67 2h-43v54h41q37 0 64 -1.5t51.5 -9.5t51 -24.5t62.5 -46.5q-35 65 -62.5 101t-53 53.5t-51.5 21t-59 3.5h-44v55h43q33 0 59 -2t49 -11.5t44.5 -29t46 -53t53.5 -84.5t67 -124h-72z" />
    <glyph glyph-name="dvmOcandra" unicode="&#x949;" horiz-adv-x="294" 
d="M105 670h-132v70h347v-70h-131v-670h-84v670zM147 818q-53 0 -91.5 14.5t-63.5 39t-37 56t-12 66.5h73q0 -21 7.5 -41t23.5 -35.5t40.5 -25.5t59.5 -10q34 0 59 10t41 25.5t23.5 35.5t7.5 41h72q0 -35 -12 -66.5t-36.5 -56t-63 -39t-91.5 -14.5z" />
    <glyph glyph-name="dvmO" unicode="&#x94b;" horiz-adv-x="294" 
d="M105 0v670h-132v70h133q-38 60 -65.5 94.5t-52 52t-51.5 22t-63 4.5h-42v68h41q49 0 86 -6.5t71 -30.5t70.5 -72t85.5 -132h134v-70h-131v-670h-84z" />
    <glyph glyph-name="dvmAU" unicode="&#x94c;" horiz-adv-x="294" 
d="M105 0v670h-132v70h136q-43 34 -71.5 53t-53 28.5t-51.5 11.5t-67 2h-43v54h41q37 0 64 -1.5t51.5 -9.5t51 -24.5t62.5 -46.5q-35 65 -62.5 101t-53 53.5t-51.5 21t-59 3.5h-44v55h43q49 0 84 -6.5t68.5 -35.5t71.5 -90t93 -169h137v-70h-131v-670h-84z" />
    <glyph glyph-name="dvVirama" unicode="&#x94d;" horiz-adv-x="0" 
d="M-186 -61h84l124 -199h-86z" />
    <glyph glyph-name="dvOm" unicode="&#x950;" horiz-adv-x="1056" 
d="M301 12q-49 0 -90 14.5t-70 41.5t-45.5 64.5t-16.5 82.5h79q0 -29 10 -53t28.5 -41t44 -27t55.5 -10q63 0 97.5 37.5t34.5 97.5q0 23 -7.5 46t-24.5 42t-43.5 30.5t-65.5 11.5h-39v71h39q33 0 57.5 10t40.5 26.5t24 37.5t8 44q0 30 -10 53t-27 38.5t-39.5 24t-48.5 8.5
q-27 0 -50 -8t-40 -22.5t-27 -35.5t-10 -48h-78q0 43 15.5 77t42.5 58t65 37t83 13q44 0 81 -13t63.5 -37t41.5 -58t15 -76q0 -60 -30 -103.5t-93 -57.5v-3q13 -2 23 -5.5t18 -7.5h60q54 0 84.5 24.5t30.5 92.5q0 43 9.5 79.5t32 62.5t58 40.5t88.5 14.5q107 0 151 -64.5
t44 -182.5v-136q0 -136 -60 -207t-194 -71q-48 0 -98 10v70q23 -4 44.5 -6t39.5 -2q54 0 90 14t57.5 40.5t30.5 65t9 88.5v144q0 38 -5.5 69t-19 52.5t-35.5 33t-54 11.5q-31 0 -52 -10t-34 -27.5t-18.5 -40.5t-5.5 -49q0 -100 -44 -141t-137 -41h-2q24 -42 24 -95
q0 -45 -15 -82t-42 -63t-64.5 -40t-83.5 -14zM576 744q-51 0 -89.5 14t-64 38t-38 56t-12.5 68h68q0 -21 8.5 -41t25 -36.5t42 -26.5t60.5 -10q34 0 59.5 10t42 26.5t25 36.5t8.5 41h68q0 -36 -12.5 -68t-38 -56t-63.5 -38t-89 -14zM576 908q-18 0 -29.5 12t-11.5 30
q0 17 11.5 29.5t29.5 12.5t30 -12.5t12 -29.5q0 -18 -12 -30t-30 -12z" />
    <glyph glyph-name="dvKxA" unicode="&#x958;" horiz-adv-x="995" 
d="M463 202q-22 -45 -66.5 -74.5t-113.5 -29.5q-47 0 -86 16.5t-67.5 46.5t-44 73t-15.5 96q0 52 16 94.5t44.5 72.5t68.5 46t87 16q69 0 112 -28.5t65 -73.5v213h-490v70h1048v-70h-478v-217q21 45 63.5 75.5t109.5 30.5q46 0 84 -16.5t66 -46.5t43.5 -72t15.5 -92
q0 -55 -16 -97.5t-44 -72t-66 -45t-83 -15.5q-38 0 -62 7v66q9 -2 20 -3t22 -1q30 0 56.5 10.5t46 31t30.5 50t11 67.5q0 36 -11.5 65t-31.5 49.5t-46.5 31.5t-57.5 11q-40 0 -68.5 -14.5t-46.5 -38t-26.5 -53t-8.5 -59.5v-322h-80v202zM269 -95q-24 0 -40 16t-16 39
q0 24 16 40.5t40 16.5t40 -16.5t16 -40.5q0 -23 -16 -39t-40 -16zM309 168q40 0 69 14.5t48 38t28 52t9 55.5q0 28 -9 56.5t-27.5 51.5t-48 37t-69.5 14q-32 0 -60.5 -11t-49.5 -31t-33 -49.5t-12 -65.5q0 -38 11.5 -68t32.5 -51t49.5 -32t61.5 -11z" />
    <glyph glyph-name="dvKHxA" unicode="&#x959;" horiz-adv-x="933" 
d="M595 136q-20 0 -38 3q-14 -29 -35 -55t-49 -45.5t-63 -30.5t-77 -11q-57 0 -103 16.5t-78.5 48t-50.5 77t-18 104.5v156h36q30 0 55.5 6.5t45 23.5t30.5 46t11 74v121h-288v70h987v-70h-132v-670h-83v218q-20 -35 -56.5 -58.5t-93.5 -23.5zM316 -193q-24 0 -40 16t-16 39
q0 24 16 40.5t40 16.5t40 -16.5t16 -40.5q0 -23 -16 -39t-40 -16zM611 201q35 0 60.5 12.5t42 33t24 45.5t7.5 49t-7.5 49t-24 45t-41.5 32.5t-61 12.5q-28 0 -53 -9t-44 -26.5t-30 -43t-11 -58.5q0 -34 10.5 -60.5t29.5 -44.5t44 -27.5t54 -9.5zM335 70q60 0 97.5 28
t56.5 66q-43 26 -67.5 71t-24.5 108q0 46 15 83t42 63.5t63 41t78 14.5q57 0 93.5 -23t56.5 -58v206h-400v-131q0 -57 -14.5 -95.5t-39 -62.5t-57 -34t-68.5 -10v-103q0 -75 44 -119.5t125 -44.5z" />
    <glyph glyph-name="dvGxA" unicode="&#x95a;" horiz-adv-x="745" 
d="M557 670h-178v-270q0 -36 -9 -68t-29 -56t-51 -38t-75 -14q-84 0 -125.5 48t-41.5 123v30h82v-31q0 -18 4 -35.5t13.5 -31.5t25.5 -22.5t39 -8.5q25 0 41 9t25.5 23t13 32.5t3.5 36.5v273h-322v70h799v-70h-132v-670h-83v670zM219 28q-24 0 -40 16t-16 39q0 24 16 40.5
t40 16.5t40 -16.5t16 -40.5q0 -23 -16 -39t-40 -16z" />
    <glyph glyph-name="dvJxA" unicode="&#x95b;" horiz-adv-x="840" 
d="M-27 740h894v-70h-132v-670h-83v427h-190v-95q0 -44 -13.5 -81t-38.5 -63.5t-61.5 -41.5t-81.5 -15q-47 0 -82.5 15t-60 41.5t-37 63.5t-12.5 81v167h84v-165q0 -58 29 -94t80 -36q54 0 83.5 36t29.5 94v165h271v171h-679v70zM271 -60q-24 0 -40 16t-16 39q0 24 16 40.5
t40 16.5t40 -16.5t16 -40.5q0 -23 -16 -39t-40 -16z" />
    <glyph glyph-name="dvDDxA" unicode="&#x95c;" horiz-adv-x="574" 
d="M-27 740h627v-70h-139v-181h-171q-21 0 -42 -3.5t-38.5 -12.5t-28.5 -25.5t-11 -41.5q0 -23 8.5 -39t23.5 -26t34 -14t40 -4h45q37 0 74 -8.5t66 -28t47 -52t18 -80.5q0 -37 -13.5 -67.5t-40 -53t-66 -35t-91.5 -12.5q-56 0 -101 14t-76.5 39t-48.5 60.5t-18 79.5h82
q1 -57 41.5 -93t118.5 -36q69 0 101.5 30t32.5 75q0 31 -12 52t-31.5 33.5t-44.5 17.5t-52 5h-41q-32 0 -64 7t-57.5 23.5t-42 44.5t-16.5 70q0 39 15.5 66t41 43.5t58 24t66.5 7.5h114v121h-408v70zM310 -206q-24 0 -40 16t-16 39q0 24 16 40.5t40 16.5t40 -16.5t16 -40.5
q0 -23 -16 -39t-40 -16z" />
    <glyph glyph-name="dvDDHxA" unicode="&#x95d;" horiz-adv-x="641" 
d="M-27 740h695v-70h-185v-172h-95q-51 0 -94.5 -13t-75.5 -40t-50 -68t-18 -96q0 -47 15.5 -85.5t44.5 -66.5t70 -43.5t92 -15.5q36 0 66.5 9.5t53 27t35.5 42t13 54.5q0 45 -27.5 74t-72.5 29q-37 0 -64 -23t-27 -65q0 -5 0.5 -10t2.5 -9h-63q-1 7 -1.5 15t-0.5 15
q0 33 12 58.5t33 43.5t49.5 27t61.5 9q39 0 70 -12t53 -34t34 -52t12 -66q0 -44 -16.5 -80t-48 -61.5t-76 -39.5t-100.5 -14q-64 0 -119 19t-95.5 55t-63.5 87t-23 114q0 69 22.5 120.5t62 86t93.5 51.5t116 17h40v112h-431v70zM347 -183q-24 0 -40 16t-16 39q0 24 16 40.5
t40 16.5t40 -16.5t16 -40.5q0 -23 -16 -39t-40 -16z" />
    <glyph glyph-name="dvPHxA" unicode="&#x95e;" horiz-adv-x="985" 
d="M309 268q34 0 60 12t43.5 33t26.5 48.5t9 57.5v251h-280v-229q0 -81 34 -127t107 -46zM-27 740h1039v-70h-481v-216q21 45 64.5 75t112.5 30q45 0 83.5 -16.5t66 -46t43 -71t15.5 -91.5q0 -55 -16 -98t-43.5 -73t-66 -45.5t-83.5 -15.5q-37 0 -64 8v65q25 -5 45 -5
q31 0 57 11t45.5 31.5t30.5 50t11 67.5q0 36 -11.5 65t-31.5 49.5t-47 31.5t-58 11q-41 0 -70 -15t-47.5 -40t-27 -56t-8.5 -63v-313h-83v281q-23 -39 -62 -61.5t-96 -22.5q-51 0 -89.5 17.5t-64 49.5t-38.5 77t-13 100v229h-112v70zM260 9q-24 0 -40 16t-16 39
q0 24 16 40.5t40 16.5t40 -16.5t16 -40.5q0 -23 -16 -39t-40 -16z" />
    <glyph glyph-name="dvvRR" unicode="&#x960;" horiz-adv-x="980" 
d="M498 276l-273 -276h-104v6l377 356q-11 57 -53.5 95t-108.5 38q-41 0 -74 -13t-57 -37.5t-37 -59.5t-13 -78h-83q0 58 17.5 106t49 82t76 52.5t98.5 18.5q66 0 112 -26.5t73 -71.5v202h-525v70h1076v-70h-473v-232h179q45 0 64.5 20.5t19.5 54.5v59h73v-356h-41
q-18 0 -35 -3.5t-29.5 -12t-20.5 -23t-8 -35.5q0 -40 29 -56.5t69 -16.5h47v-63h-47q-19 0 -36.5 -3.5t-31.5 -12.5t-22.5 -23.5t-8.5 -36.5q0 -21 8.5 -35t23 -22.5t33 -12.5t39.5 -4q29 0 56 5.5t41 10.5v-63q-19 -8 -48.5 -13.5t-60.5 -5.5q-33 0 -64 7.5t-55 23.5
t-38.5 41t-14.5 60q0 48 26.5 76.5t64.5 36.5v2q-39 9 -65 35t-26 74q0 33 13 55.5t33.5 37t46 20.5t49.5 6v129q-41 -23 -96 -23h-167v-371h-78v276z" />
    <glyph glyph-name="dvvLL" unicode="&#x961;" horiz-adv-x="909" 
d="M-27 740h958v-70h-256v-128q72 -14 113.5 -73t41.5 -153q0 -58 -16 -100h-37q-18 0 -35 -3.5t-29.5 -12t-20.5 -23t-8 -35.5q0 -40 29 -56.5t69 -16.5h47v-63h-47q-19 0 -36.5 -3.5t-31.5 -12.5t-22.5 -23.5t-8.5 -36.5q0 -21 8.5 -35t22.5 -22.5t33 -12.5t39 -4
q29 0 57 5.5t41 10.5v-63q-19 -8 -49 -13.5t-60 -5.5q-33 0 -64 7.5t-55 23.5t-38.5 41t-14.5 61q0 46 26.5 75t63.5 37v2q-38 9 -64 35t-26 74q0 32 12.5 54.5t32.5 36.5t44.5 20.5t49.5 7.5q6 24 6 52q0 32 -8 60t-24 49t-40 33t-56 12q-68 0 -100.5 -50.5t-32.5 -131.5
v-18h-71v18q0 39 -8 72.5t-23.5 58t-39.5 38t-56 13.5q-67 0 -101 -43.5t-34 -112.5q0 -78 40.5 -124.5t118.5 -46.5q6 0 13.5 0.5t15.5 1.5v-73q-10 -1 -18 -1h-16q-59 0 -103.5 18t-74.5 50.5t-45 77.5t-15 98q0 54 15.5 96.5t43 72.5t65.5 45.5t84 15.5q39 0 68.5 -13
t50 -34t33.5 -47t20 -52h3q6 23 16.5 46t27.5 42.5t40.5 33.5t55.5 20v128h-620v70z" />
    <glyph glyph-name="dvmvL" unicode="&#x962;" horiz-adv-x="0" 
d="M103 -463q-30 0 -55.5 7.5t-45 22.5t-30.5 38t-11 54q0 46 27.5 78t75.5 39q2 8 2 17v17q0 48 -21.5 79t-67.5 31q-48 0 -70.5 -36t-22.5 -93v-13h-56v13q0 57 -21.5 93t-69.5 36t-71.5 -31t-23.5 -80q0 -54 29 -86.5t83 -32.5h11t10 2v-58q-6 -1 -12.5 -1h-11.5
q-87 0 -131 49.5t-44 127.5q0 40 11.5 71.5t31.5 53t48 33t61 11.5q29 0 50.5 -9t36.5 -24t24.5 -34t14.5 -38h2q5 19 15 38t26 34t38.5 24t52.5 9q64 0 105 -45t41 -124q0 -34 -11 -72h-6q-48 0 -70.5 -21.5t-22.5 -53.5q0 -38 26.5 -55.5t59.5 -17.5q25 0 43 7v-55
q-25 -5 -50 -5z" />
    <glyph glyph-name="dvmvLL" unicode="&#x963;" horiz-adv-x="0" 
d="M171 -561q-13 -5 -34.5 -8t-44.5 -3q-25 0 -47.5 5t-40 16.5t-28 30t-10.5 44.5q0 35 19 56t46 26v2q-29 7 -47 27t-18 54q0 23 8.5 39.5t22.5 27t31.5 16t35.5 6.5q2 8 2 16v16q0 48 -21.5 79t-67.5 31q-48 0 -70.5 -36t-22.5 -93v-13h-56v13q0 57 -21.5 93t-69.5 36
t-71.5 -31t-23.5 -80q0 -54 29 -86.5t83 -32.5h11t10 2v-58q-6 -1 -12.5 -1h-11.5q-87 0 -131 49.5t-44 127.5q0 40 11.5 71.5t31.5 53t48 33t61 11.5q29 0 50.5 -9t36.5 -24t24.5 -34t14.5 -38h2q5 19 15 38t26 34t38.5 24t52.5 9q64 0 105 -45t41 -124q0 -34 -11 -72h-29
q-26 0 -46 -11.5t-20 -40.5t20.5 -40.5t49.5 -11.5h33v-51h-32q-27 0 -49.5 -10.5t-22.5 -42.5q0 -29 22.5 -40t51.5 -11q22 0 41.5 3.5t28.5 7.5v-51z" />
    <glyph glyph-name="danda" unicode="&#x964;" horiz-adv-x="282" 
d="M239 0h-82v741h82v-741z" />
    <glyph glyph-name="doubledanda" unicode="&#x965;" horiz-adv-x="493" 
d="M239 0h-82v741h82v-741zM450 0h-83v741h83v-741z" />
    <glyph glyph-name="dvZero" unicode="&#x966;" horiz-adv-x="628" 
d="M62 369q0 78 11 144.5t39.5 115.5t77.5 77t124 28t123.5 -28t77 -77t39.5 -115.5t11 -144.5q0 -79 -11 -146.5t-39.5 -117t-77 -77.5t-123.5 -28t-124 28t-77.5 77.5t-39.5 117t-11 146.5zM475 369q0 56 -5 107t-22 90t-49 62t-85 23q-54 0 -86 -23t-49 -62t-22 -90
t-5 -107q0 -59 5 -111t22 -91t49 -61.5t86 -22.5q53 0 85 22.5t49 61.5t22 91t5 111z" />
    <glyph glyph-name="dvOne" unicode="&#x967;" horiz-adv-x="320" 
d="M134 640h-96v83h188v-723h-92v640z" />
    <glyph glyph-name="dvTwo" unicode="&#x968;" horiz-adv-x="575" 
d="M51 73q71 57 138 113t118.5 111.5t82.5 110t31 110.5q0 30 -7 55.5t-23 44.5t-41 29.5t-62 10.5q-36 0 -62.5 -11.5t-44.5 -32.5t-28 -49.5t-11 -62.5h-88q2 58 20.5 101.5t49.5 73t72.5 44.5t90.5 15q51 0 92.5 -14.5t70.5 -42t45 -67.5t16 -90q0 -45 -15 -87.5
t-40 -82.5t-58 -77t-69 -70.5t-72.5 -64t-68.5 -56.5h344v-76h-481v65z" />
    <glyph glyph-name="dvThree" unicode="&#x969;" horiz-adv-x="589" 
d="M60 541q7 94 71 145t166 51q53 0 93.5 -14.5t68.5 -39.5t42 -59t14 -73q0 -63 -35.5 -107.5t-92.5 -57.5v-5q63 -15 102 -61.5t39 -124.5q0 -42 -14.5 -78.5t-43.5 -63.5t-71.5 -42.5t-99.5 -15.5q-51 0 -95 13.5t-77 40.5t-53.5 66.5t-24.5 92.5h88q7 -58 48 -97
t113 -39q73 0 108 37t35 94q0 77 -51.5 109t-149.5 32h-23v76h24q91 1 138.5 30t47.5 92q0 52 -33.5 84.5t-99.5 32.5q-64 0 -101 -32t-44 -86h-89z" />
    <glyph glyph-name="dvFour" unicode="&#x96a;" horiz-adv-x="629" 
d="M410 161h-370v69l351 486h109v-476h100v-79h-100v-161h-90v161zM414 240v381l-269 -381h269z" />
    <glyph glyph-name="dvFive" unicode="&#x96b;" horiz-adv-x="628" 
d="M523 724v-80h-351v-228q23 31 67 52t98 21q66 0 110.5 -21.5t71.5 -56t38.5 -77t11.5 -84.5q0 -53 -15 -98.5t-45.5 -80t-77 -54t-109.5 -19.5q-54 0 -97 14.5t-74.5 40.5t-51 62.5t-26.5 80.5h89q13 -57 55 -89t106 -32q41 0 71 13t49.5 36.5t29 55t9.5 68.5
q0 78 -39.5 120.5t-118.5 42.5q-55 0 -93.5 -26t-56.5 -69h-86v408h435z" />
    <glyph glyph-name="dvSix" unicode="&#x96c;" horiz-adv-x="635" 
d="M465 551q-11 54 -42.5 82.5t-94.5 28.5q-44 0 -76.5 -15.5t-55 -50.5t-33.5 -91t-11 -137q24 54 77.5 82.5t118.5 28.5q51 0 92.5 -16.5t71 -47t46 -75.5t16.5 -102q0 -50 -14.5 -93.5t-44 -76t-74 -51.5t-103.5 -19q-80 0 -131.5 27.5t-81 77t-41 118t-11.5 150.5
q0 85 14.5 153t45 115.5t79 73t117.5 25.5q52 0 91 -15t66 -40.5t42.5 -59.5t20.5 -72h-84zM329 402q-31 0 -61 -9.5t-53 -28.5t-37.5 -49t-14.5 -70q0 -36 10.5 -67t31.5 -54.5t53 -36.5t75 -13q72 0 112.5 43t40.5 118q0 78 -39.5 122.5t-117.5 44.5z" />
    <glyph glyph-name="dvSeven" unicode="&#x96d;" horiz-adv-x="546" 
d="M507 721v-69l-278 -652h-92l282 643h-386v78h474z" />
    <glyph glyph-name="dvEight" unicode="&#x96e;" horiz-adv-x="631" 
d="M194 376q-57 22 -86.5 63.5t-29.5 102.5q0 40 15 75t44.5 61t74 41t103.5 15t103.5 -15t74.5 -41.5t45 -61.5t15 -74q0 -60 -31 -102.5t-85 -63.5q63 -19 99 -65.5t36 -115.5q0 -50 -18.5 -89.5t-52.5 -67.5t-81.5 -43t-104.5 -15t-104 15t-80.5 43t-52 67.5t-18.5 89.5
q0 69 36.5 116t97.5 65zM315 406q67 0 108.5 34t41.5 91q0 63 -40.5 95t-109.5 32q-67 0 -108 -32t-41 -96q0 -57 41.5 -90.5t107.5 -33.5zM315 336q-35 0 -65.5 -8t-53.5 -25t-36 -43t-13 -62q0 -64 45 -103t123 -39t122.5 39.5t44.5 102.5q0 35 -12.5 61t-35 43t-53 25.5
t-66.5 8.5z" />
    <glyph glyph-name="dvNine" unicode="&#x96f;" horiz-adv-x="630" 
d="M179 194q10 -57 46 -88t99 -31q40 0 70.5 14.5t50.5 48t30 87.5t9 134q-22 -46 -70.5 -71t-108.5 -25q-50 0 -92.5 15.5t-73.5 45.5t-48.5 74t-17.5 101q0 52 15 95.5t45 75t74.5 49.5t103.5 18q73 0 122 -25t78 -72t41 -114t12 -151q0 -90 -11.5 -160t-39.5 -118
t-75.5 -73t-118.5 -25q-54 0 -94.5 15.5t-68 42t-42.5 62t-19 75.5h84zM320 340q33 0 61 10.5t48.5 30t32 48.5t11.5 65q0 75 -41 121t-119 46q-72 0 -112.5 -44t-40.5 -116q0 -70 39.5 -115.5t120.5 -45.5z" />
    <glyph glyph-name="dvAbbreviationsign" unicode="&#x970;" horiz-adv-x="493" 
d="M249 510q36 0 66 -12t52 -33.5t34 -51.5t12 -66q0 -35 -12 -64.5t-34 -50.5t-52 -33t-66 -12q-37 0 -67.5 12t-53 33.5t-35 51.5t-12.5 65t12.5 64.5t35 51t53 33.5t67.5 12zM249 458q-51 0 -83 -30.5t-32 -78.5t32 -78.5t83 -30.5q48 0 78.5 29.5t30.5 77.5
q0 49 -30.5 80t-78.5 31z" />
    <glyph glyph-name="dvAcandra" unicode="&#x972;" horiz-adv-x="829" 
d="M282 448q33 0 57 10t40 25.5t24 35.5t8 41q0 28 -9.5 50t-26.5 37t-39.5 23t-47.5 8q-27 0 -50.5 -8t-41 -23t-27.5 -36t-10 -48h-78q0 43 15.5 77.5t43 58.5t65.5 37t83 13q43 0 79.5 -12.5t63 -35.5t41 -56t14.5 -74q0 -57 -30.5 -98t-91.5 -56v-2q30 -5 54 -19h221
v344h215v-70h-132v-670h-83v327l-158 1q18 -38 18 -82t-14.5 -79.5t-41 -61t-64 -39t-83.5 -13.5q-49 0 -89.5 14.5t-70 41.5t-46 64.5t-16.5 82.5h78q0 -29 10 -53t28.5 -41t44 -27t55.5 -10q61 0 96.5 35.5t35.5 92.5q0 42 -23 75h-3l-1 6q-17 20 -44 33t-69 13h-39v68h39
zM689 840q-53 0 -91.5 14.5t-63.5 39t-37 56t-12 66.5h73q0 -21 7.5 -41t23.5 -35.5t40.5 -25.5t59.5 -10q34 0 59 10t41 25.5t23.5 35.5t7.5 41h72q0 -35 -12 -66.5t-36.5 -56t-63 -39t-91.5 -14.5z" />
    <glyph glyph-name="Wgrave" unicode="&#x1e80;" horiz-adv-x="976" 
d="M23 697h97l152 -591l168 591h102l160 -589l153 589h98l-202 -697h-102l-162 561l-168 -561l-101 -1zM327 932l213 -125v-68l-213 114v79z" />
    <glyph glyph-name="wgrave" unicode="&#x1e81;" horiz-adv-x="820" 
d="M12 548h93l126 -460l136 460h93l133 -461l124 461h90l-171 -548h-94l-132 435l-132 -435h-94zM242 782l213 -125v-68l-213 114v79z" />
    <glyph glyph-name="Wacute" unicode="&#x1e82;" horiz-adv-x="976" 
d="M23 697h97l152 -591l168 591h102l160 -589l153 589h98l-202 -697h-102l-162 561l-168 -561l-101 -1zM655 935v-79l-213 -114v68z" />
    <glyph glyph-name="wacute" unicode="&#x1e83;" horiz-adv-x="820" 
d="M12 548h93l126 -460l136 460h93l133 -461l124 461h90l-171 -548h-94l-132 435l-132 -435h-94zM579 782v-79l-213 -114v68z" />
    <glyph glyph-name="Wdieresis" unicode="&#x1e84;" horiz-adv-x="976" 
d="M23 697h97l152 -591l168 591h102l160 -589l153 589h98l-202 -697h-102l-162 561l-168 -561l-101 -1zM404 773q-23 0 -38 15t-15 37t15 37.5t38 15.5q21 0 36.5 -15.5t15.5 -37.5t-15.5 -37t-36.5 -15zM566 773q-23 0 -37.5 15t-14.5 37t14.5 37.5t37.5 15.5
q22 0 37.5 -15.5t15.5 -37.5t-15.5 -37t-37.5 -15z" />
    <glyph glyph-name="wdieresis" unicode="&#x1e85;" horiz-adv-x="820" 
d="M12 548h93l126 -460l136 460h93l133 -461l124 461h90l-171 -548h-94l-132 435l-132 -435h-94zM329 622q-23 0 -38 15t-15 37t15 37.5t38 15.5q21 0 36.5 -15.5t15.5 -37.5t-15.5 -37t-36.5 -15zM491 622q-23 0 -37.5 15t-14.5 37t14.5 37.5t37.5 15.5q22 0 37.5 -15.5
t15.5 -37.5t-15.5 -37t-37.5 -15z" />
    <glyph glyph-name="uni1EA0" unicode="&#x1ea0;" horiz-adv-x="674" 
d="M336 -224q-28 0 -46.5 18.5t-18.5 46.5t18.5 46.5t46.5 18.5q26 0 44.5 -18.5t18.5 -46.5t-18.5 -46.5t-44.5 -18.5zM489 155h-304l-56 -155h-96l252 693h105l251 -693h-96zM337 581l-126 -352h252z" />
    <glyph glyph-name="uni1EA1" unicode="&#x1ea1;" horiz-adv-x="676" 
d="M316 -224q-28 0 -46.5 18.5t-18.5 46.5t18.5 46.5t46.5 18.5q26 0 44.5 -18.5t18.5 -46.5t-18.5 -46.5t-44.5 -18.5zM43 276q0 64 20 116t55 88.5t82.5 56.5t102.5 20q39 0 71 -9t57.5 -24t44.5 -35t31 -41v100h92v-548h-92v102q-12 -22 -31.5 -42t-45.5 -35.5
t-58.5 -24.5t-69.5 -9q-55 0 -102 20.5t-82 58t-55 90t-20 116.5zM507 275q0 48 -15 85.5t-40.5 63.5t-59.5 40t-71 14q-38 0 -71.5 -13.5t-58.5 -39t-40 -63.5t-15 -86t15 -86.5t40 -64.5t58.5 -40t71.5 -14q37 0 71 13.5t59.5 40t40.5 64.5t15 86z" />
    <glyph glyph-name="uni1EA2" unicode="&#x1ea2;" horiz-adv-x="674" 
d="M238 856q1 22 10.5 38t24 26t33 14.5t37.5 4.5q40 0 67.5 -22.5t27.5 -60.5q0 -21 -6.5 -36t-17 -25t-22.5 -15t-24 -6l-2 -22h-52l-2 64q39 0 52 10.5t13 30.5q0 14 -10.5 22t-24.5 8q-16 0 -28.5 -6t-15.5 -25h-60zM489 155h-304l-56 -155h-96l252 693h105l251 -693
h-96zM337 581l-126 -352h252z" />
    <glyph glyph-name="uni1EA3" unicode="&#x1ea3;" horiz-adv-x="676" 
d="M252 728q1 22 10.5 38t24 26t33 14.5t37.5 4.5q40 0 67.5 -22.5t27.5 -60.5q0 -21 -6.5 -36t-17 -25t-22.5 -15t-24 -6l-2 -22h-52l-2 64q39 0 52 10.5t13 30.5q0 14 -10.5 22t-24.5 8q-16 0 -28.5 -6t-15.5 -25h-60zM43 276q0 64 20 116t55 88.5t82.5 56.5t102.5 20
q39 0 71 -9t57.5 -24t44.5 -35t31 -41v100h92v-548h-92v102q-12 -22 -31.5 -42t-45.5 -35.5t-58.5 -24.5t-69.5 -9q-55 0 -102 20.5t-82 58t-55 90t-20 116.5zM507 275q0 48 -15 85.5t-40.5 63.5t-59.5 40t-71 14q-38 0 -71.5 -13.5t-58.5 -39t-40 -63.5t-15 -86t15 -86.5
t40 -64.5t58.5 -40t71.5 -14q37 0 71 13.5t59.5 40t40.5 64.5t15 86z" />
    <glyph glyph-name="uni1EA4" unicode="&#x1ea4;" horiz-adv-x="674" 
d="M489 155h-304l-56 -155h-96l252 693h105l251 -693h-96zM337 581l-126 -352h252zM486 798l-45 -56l-103 65l-103 -65l-45 56l148 95zM553 952l-91 -98l-62 38l88 104z" />
    <glyph glyph-name="uni1EA5" unicode="&#x1ea5;" horiz-adv-x="676" 
d="M554 824l-91 -98l-62 38l88 104zM43 276q0 64 20 116t55 88.5t82.5 56.5t102.5 20q39 0 71 -9t57.5 -24t44.5 -35t31 -41v100h92v-548h-92v102q-12 -22 -31.5 -42t-45.5 -35.5t-58.5 -24.5t-69.5 -9q-55 0 -102 20.5t-82 58t-55 90t-20 116.5zM507 275q0 48 -15 85.5
t-40.5 63.5t-59.5 40t-71 14q-38 0 -71.5 -13.5t-58.5 -39t-40 -63.5t-15 -86t15 -86.5t40 -64.5t58.5 -40t71.5 -14q37 0 71 13.5t59.5 40t40.5 64.5t15 86zM488 669l-45 -56l-103 65l-103 -65l-45 56l148 95z" />
    <glyph glyph-name="uni1EA6" unicode="&#x1ea6;" horiz-adv-x="674" 
d="M425 996l88 -104l-62 -38l-91 98zM489 155h-304l-56 -155h-96l252 693h105l251 -693h-96zM337 581l-126 -352h252zM486 798l-45 -56l-103 65l-103 -65l-45 56l148 95z" />
    <glyph glyph-name="uni1EA7" unicode="&#x1ea7;" horiz-adv-x="676" 
d="M427 867l88 -104l-62 -38l-91 98zM43 276q0 64 20 116t55 88.5t82.5 56.5t102.5 20q39 0 71 -9t57.5 -24t44.5 -35t31 -41v100h92v-548h-92v102q-12 -22 -31.5 -42t-45.5 -35.5t-58.5 -24.5t-69.5 -9q-55 0 -102 20.5t-82 58t-55 90t-20 116.5zM507 275q0 48 -15 85.5
t-40.5 63.5t-59.5 40t-71 14q-38 0 -71.5 -13.5t-58.5 -39t-40 -63.5t-15 -86t15 -86.5t40 -64.5t58.5 -40t71.5 -14q37 0 71 13.5t59.5 40t40.5 64.5t15 86zM488 669l-45 -56l-103 65l-103 -65l-45 56l148 95z" />
    <glyph glyph-name="uni1EA8" unicode="&#x1ea8;" horiz-adv-x="674" 
d="M360 944q1 19 10.5 32.5t24 22.5t33 13t37.5 4q40 0 67.5 -20t27.5 -52q0 -18 -6.5 -31t-17 -21.5t-22.5 -13t-24 -5.5l-2 -19h-52l-2 55q62 0 62 36q0 12 -10 18t-22 6q-14 0 -26 -4t-15 -21h-63zM489 155h-304l-56 -155h-96l252 693h105l251 -693h-96zM337 581
l-126 -352h252zM486 798l-45 -56l-103 65l-103 -65l-45 56l148 95z" />
    <glyph glyph-name="uni1EA9" unicode="&#x1ea9;" horiz-adv-x="676" 
d="M362 815q1 19 10.5 32.5t24 22.5t33 13t37.5 4q40 0 67.5 -20t27.5 -52q0 -18 -6.5 -31t-17 -21.5t-22.5 -13t-24 -5.5l-2 -19h-52l-2 55q62 0 62 36q0 12 -10 18t-22 6q-14 0 -26 -4t-15 -21h-63zM43 276q0 64 20 116t55 88.5t82.5 56.5t102.5 20q39 0 71 -9t57.5 -24
t44.5 -35t31 -41v100h92v-548h-92v102q-12 -22 -31.5 -42t-45.5 -35.5t-58.5 -24.5t-69.5 -9q-55 0 -102 20.5t-82 58t-55 90t-20 116.5zM507 275q0 48 -15 85.5t-40.5 63.5t-59.5 40t-71 14q-38 0 -71.5 -13.5t-58.5 -39t-40 -63.5t-15 -86t15 -86.5t40 -64.5t58.5 -40
t71.5 -14q37 0 71 13.5t59.5 40t40.5 64.5t15 86zM488 669l-45 -56l-103 65l-103 -65l-45 56l148 95z" />
    <glyph glyph-name="uni1EAA" unicode="&#x1eaa;" horiz-adv-x="674" 
d="M486 792l-45 -50l-103 58l-103 -58l-45 50l148 84zM190 892q2 42 24 66.5t64 24.5q20 0 35 -4.5t29 -11.5q11 -6 19.5 -11.5t19.5 -5.5t20.5 7.5t9.5 24.5h69q0 -45 -23.5 -68t-65.5 -23q-21 0 -36.5 5t-28.5 13q-11 7 -19.5 11.5t-18.5 4.5q-11 0 -20 -8t-9 -25h-69z
M489 155h-304l-56 -155h-96l252 693h105l251 -693h-96zM337 581l-126 -352h252z" />
    <glyph glyph-name="uni1EAB" unicode="&#x1eab;" horiz-adv-x="676" 
d="M488 663l-45 -50l-103 58l-103 -58l-45 50l148 84zM192 763q2 42 24 66.5t64 24.5q20 0 35 -4.5t29 -11.5q11 -6 19.5 -11.5t19.5 -5.5t20.5 7.5t9.5 24.5h69q0 -45 -23.5 -68t-65.5 -23q-21 0 -36.5 5t-28.5 13q-11 7 -19.5 11.5t-18.5 4.5q-11 0 -20 -8t-9 -25h-69z
M43 276q0 64 20 116t55 88.5t82.5 56.5t102.5 20q39 0 71 -9t57.5 -24t44.5 -35t31 -41v100h92v-548h-92v102q-12 -22 -31.5 -42t-45.5 -35.5t-58.5 -24.5t-69.5 -9q-55 0 -102 20.5t-82 58t-55 90t-20 116.5zM507 275q0 48 -15 85.5t-40.5 63.5t-59.5 40t-71 14
q-38 0 -71.5 -13.5t-58.5 -39t-40 -63.5t-15 -86t15 -86.5t40 -64.5t58.5 -40t71.5 -14q37 0 71 13.5t59.5 40t40.5 64.5t15 86z" />
    <glyph glyph-name="uni1EAC" unicode="&#x1eac;" horiz-adv-x="674" 
d="M336 -224q-28 0 -46.5 18.5t-18.5 46.5t18.5 46.5t46.5 18.5q26 0 44.5 -18.5t18.5 -46.5t-18.5 -46.5t-44.5 -18.5zM489 155h-304l-56 -155h-96l252 693h105l251 -693h-96zM337 581l-126 -352h252zM486 798l-45 -56l-103 65l-103 -65l-45 56l148 95z" />
    <glyph glyph-name="uni1EAD" unicode="&#x1ead;" horiz-adv-x="676" 
d="M316 -224q-28 0 -46.5 18.5t-18.5 46.5t18.5 46.5t46.5 18.5q26 0 44.5 -18.5t18.5 -46.5t-18.5 -46.5t-44.5 -18.5zM43 276q0 64 20 116t55 88.5t82.5 56.5t102.5 20q39 0 71 -9t57.5 -24t44.5 -35t31 -41v100h92v-548h-92v102q-12 -22 -31.5 -42t-45.5 -35.5
t-58.5 -24.5t-69.5 -9q-55 0 -102 20.5t-82 58t-55 90t-20 116.5zM507 275q0 48 -15 85.5t-40.5 63.5t-59.5 40t-71 14q-38 0 -71.5 -13.5t-58.5 -39t-40 -63.5t-15 -86t15 -86.5t40 -64.5t58.5 -40t71.5 -14q37 0 71 13.5t59.5 40t40.5 64.5t15 86zM488 669l-45 -56
l-103 65l-103 -65l-45 56l148 95z" />
    <glyph glyph-name="uni1EAE" unicode="&#x1eae;" horiz-adv-x="674" 
d="M489 155h-304l-56 -155h-96l252 693h105l251 -693h-96zM337 581l-126 -352h252zM272 866q0 -29 15.5 -44.5t50.5 -15.5t51 15.5t16 44.5h72q0 -57 -35 -93t-104 -36t-103.5 36t-34.5 93h72zM433 976l-91 -98l-62 38l88 104z" />
    <glyph glyph-name="uni1EAF" unicode="&#x1eaf;" horiz-adv-x="676" 
d="M451 851l-91 -98l-62 38l88 104zM43 276q0 64 20 116t55 88.5t82.5 56.5t102.5 20q39 0 71 -9t57.5 -24t44.5 -35t31 -41v100h92v-548h-92v102q-12 -22 -31.5 -42t-45.5 -35.5t-58.5 -24.5t-69.5 -9q-55 0 -102 20.5t-82 58t-55 90t-20 116.5zM507 275q0 48 -15 85.5
t-40.5 63.5t-59.5 40t-71 14q-38 0 -71.5 -13.5t-58.5 -39t-40 -63.5t-15 -86t15 -86.5t40 -64.5t58.5 -40t71.5 -14q37 0 71 13.5t59.5 40t40.5 64.5t15 86zM283 741q0 -29 15.5 -44.5t50.5 -15.5t51 15.5t16 44.5h72q0 -57 -35 -93t-104 -36t-103.5 36t-34.5 93h72z" />
    <glyph glyph-name="uni1EB0" unicode="&#x1eb0;" horiz-adv-x="674" 
d="M489 155h-304l-56 -155h-96l252 693h105l251 -693h-96zM337 581l-126 -352h252zM272 866q0 -29 15.5 -44.5t50.5 -15.5t51 15.5t16 44.5h72q0 -57 -35 -93t-104 -36t-103.5 36t-34.5 93h72zM314 1020l88 -104l-62 -38l-91 98z" />
    <glyph glyph-name="uni1EB1" unicode="&#x1eb1;" horiz-adv-x="676" 
d="M325 895l88 -104l-62 -38l-91 98zM43 276q0 64 20 116t55 88.5t82.5 56.5t102.5 20q39 0 71 -9t57.5 -24t44.5 -35t31 -41v100h92v-548h-92v102q-12 -22 -31.5 -42t-45.5 -35.5t-58.5 -24.5t-69.5 -9q-55 0 -102 20.5t-82 58t-55 90t-20 116.5zM507 275q0 48 -15 85.5
t-40.5 63.5t-59.5 40t-71 14q-38 0 -71.5 -13.5t-58.5 -39t-40 -63.5t-15 -86t15 -86.5t40 -64.5t58.5 -40t71.5 -14q37 0 71 13.5t59.5 40t40.5 64.5t15 86zM283 741q0 -29 15.5 -44.5t50.5 -15.5t51 15.5t16 44.5h72q0 -57 -35 -93t-104 -36t-103.5 36t-34.5 93h72z" />
    <glyph glyph-name="uni1EB2" unicode="&#x1eb2;" horiz-adv-x="674" 
d="M489 155h-304l-56 -155h-96l252 693h105l251 -693h-96zM337 581l-126 -352h252zM272 848q0 -25 15.5 -38.5t50.5 -13.5t51 13.5t16 38.5h72q0 -48 -35 -79.5t-104 -31.5t-103.5 31.5t-34.5 79.5h72zM238 943q1 19 10.5 32.5t24 22.5t33 13t37.5 4q40 0 67.5 -20t27.5 -52
q0 -18 -6.5 -31t-17 -21.5t-22.5 -13t-24 -5.5l-2 -19h-52l-2 55q39 0 52 9.5t13 26.5q0 12 -10.5 19t-24.5 7q-16 0 -28.5 -5t-15.5 -22h-60z" />
    <glyph glyph-name="uni1EB3" unicode="&#x1eb3;" horiz-adv-x="676" 
d="M283 723q0 -25 15.5 -38.5t50.5 -13.5t51 13.5t16 38.5h72q0 -48 -35 -79.5t-104 -31.5t-103.5 31.5t-34.5 79.5h72zM249 818q1 19 10.5 32.5t24 22.5t33 13t37.5 4q40 0 67.5 -20t27.5 -52q0 -18 -6.5 -31t-17 -21.5t-22.5 -13t-24 -5.5l-2 -19h-52l-2 55q39 0 52 9.5
t13 26.5q0 12 -10.5 19t-24.5 7q-16 0 -28.5 -5t-15.5 -22h-60zM43 276q0 64 20 116t55 88.5t82.5 56.5t102.5 20q39 0 71 -9t57.5 -24t44.5 -35t31 -41v100h92v-548h-92v102q-12 -22 -31.5 -42t-45.5 -35.5t-58.5 -24.5t-69.5 -9q-55 0 -102 20.5t-82 58t-55 90t-20 116.5z
M507 275q0 48 -15 85.5t-40.5 63.5t-59.5 40t-71 14q-38 0 -71.5 -13.5t-58.5 -39t-40 -63.5t-15 -86t15 -86.5t40 -64.5t58.5 -40t71.5 -14q37 0 71 13.5t59.5 40t40.5 64.5t15 86z" />
    <glyph glyph-name="uni1EB4" unicode="&#x1eb4;" horiz-adv-x="674" 
d="M272 848q0 -25 15.5 -38.5t50.5 -13.5t51 13.5t16 38.5h72q0 -48 -35 -79.5t-104 -31.5t-103.5 31.5t-34.5 79.5h72zM489 155h-304l-56 -155h-96l252 693h105l251 -693h-96zM337 581l-126 -352h252zM193 878q2 42 24 66.5t64 24.5q20 0 35 -4.5t29 -11.5
q11 -6 19.5 -11.5t19.5 -5.5t20.5 7.5t9.5 24.5h69q0 -45 -23.5 -68t-65.5 -23q-21 0 -36.5 5t-28.5 13q-11 7 -19.5 11.5t-18.5 4.5q-11 0 -20 -8t-9 -25h-69z" />
    <glyph glyph-name="uni1EB5" unicode="&#x1eb5;" horiz-adv-x="676" 
d="M283 723q0 -25 15.5 -38.5t50.5 -13.5t51 13.5t16 38.5h72q0 -48 -35 -79.5t-104 -31.5t-103.5 31.5t-34.5 79.5h72zM204 753q2 42 24 66.5t64 24.5q20 0 35 -4.5t29 -11.5q11 -6 19.5 -11.5t19.5 -5.5t20.5 7.5t9.5 24.5h69q0 -45 -23.5 -68t-65.5 -23q-21 0 -36.5 5
t-28.5 13q-11 7 -19.5 11.5t-18.5 4.5q-11 0 -20 -8t-9 -25h-69zM43 276q0 64 20 116t55 88.5t82.5 56.5t102.5 20q39 0 71 -9t57.5 -24t44.5 -35t31 -41v100h92v-548h-92v102q-12 -22 -31.5 -42t-45.5 -35.5t-58.5 -24.5t-69.5 -9q-55 0 -102 20.5t-82 58t-55 90t-20 116.5
zM507 275q0 48 -15 85.5t-40.5 63.5t-59.5 40t-71 14q-38 0 -71.5 -13.5t-58.5 -39t-40 -63.5t-15 -86t15 -86.5t40 -64.5t58.5 -40t71.5 -14q37 0 71 13.5t59.5 40t40.5 64.5t15 86z" />
    <glyph glyph-name="uni1EB6" unicode="&#x1eb6;" horiz-adv-x="674" 
d="M336 -224q-28 0 -46.5 18.5t-18.5 46.5t18.5 46.5t46.5 18.5q26 0 44.5 -18.5t18.5 -46.5t-18.5 -46.5t-44.5 -18.5zM489 155h-304l-56 -155h-96l252 693h105l251 -693h-96zM337 581l-126 -352h252zM272 866q0 -29 15.5 -44.5t50.5 -15.5t51 15.5t16 44.5h72
q0 -57 -35 -93t-104 -36t-103.5 36t-34.5 93h72z" />
    <glyph glyph-name="uni1EB7" unicode="&#x1eb7;" horiz-adv-x="676" 
d="M316 -224q-28 0 -46.5 18.5t-18.5 46.5t18.5 46.5t46.5 18.5q26 0 44.5 -18.5t18.5 -46.5t-18.5 -46.5t-44.5 -18.5zM43 276q0 64 20 116t55 88.5t82.5 56.5t102.5 20q39 0 71 -9t57.5 -24t44.5 -35t31 -41v100h92v-548h-92v102q-12 -22 -31.5 -42t-45.5 -35.5
t-58.5 -24.5t-69.5 -9q-55 0 -102 20.5t-82 58t-55 90t-20 116.5zM507 275q0 48 -15 85.5t-40.5 63.5t-59.5 40t-71 14q-38 0 -71.5 -13.5t-58.5 -39t-40 -63.5t-15 -86t15 -86.5t40 -64.5t58.5 -40t71.5 -14q37 0 71 13.5t59.5 40t40.5 64.5t15 86zM283 741
q0 -29 15.5 -44.5t50.5 -15.5t51 15.5t16 44.5h72q0 -57 -35 -93t-104 -36t-103.5 36t-34.5 93h72z" />
    <glyph glyph-name="uni1EB8" unicode="&#x1eb8;" horiz-adv-x="513" 
d="M257 -224q-28 0 -46.5 18.5t-18.5 46.5t18.5 46.5t46.5 18.5q26 0 44.5 -18.5t18.5 -46.5t-18.5 -46.5t-44.5 -18.5zM452 623h-284v-233h254v-75h-254v-240h284v-75h-375v698h375v-75z" />
    <glyph glyph-name="uni1EB9" unicode="&#x1eb9;" horiz-adv-x="620" 
d="M304 -224q-28 0 -46.5 18.5t-18.5 46.5t18.5 46.5t46.5 18.5q26 0 44.5 -18.5t18.5 -46.5t-18.5 -46.5t-44.5 -18.5zM310 480q-33 0 -63 -11t-53 -32t-38 -52t-19 -71h346q0 40 -14 71t-37.5 52t-55 32t-66.5 11zM566 169q-11 -38 -32.5 -70.5t-53 -56.5t-73.5 -37.5
t-93 -13.5q-59 0 -108.5 20t-85.5 57t-56.5 89.5t-20.5 117.5t20 117t55.5 89t85.5 56.5t110 19.5t108.5 -20t83 -55t53 -83t18.5 -104q0 -15 -0.5 -28t-2.5 -27h-438q3 -42 18 -74t39 -53.5t55 -33t66 -11.5q63 0 101 28t53 73h98z" />
    <glyph glyph-name="uni1EBA" unicode="&#x1eba;" horiz-adv-x="513" 
d="M172 856q1 22 10.5 38t24 26t33 14.5t37.5 4.5q40 0 67.5 -22.5t27.5 -60.5q0 -21 -6.5 -36t-17 -25t-22.5 -15t-24 -6l-2 -22h-52l-2 64q39 0 52 10.5t13 30.5q0 14 -10.5 22t-24.5 8q-16 0 -28.5 -6t-15.5 -25h-60zM452 623h-284v-233h254v-75h-254v-240h284v-75h-375
v698h375v-75z" />
    <glyph glyph-name="uni1EBB" unicode="&#x1ebb;" horiz-adv-x="620" 
d="M228 728q1 22 10.5 38t24 26t33 14.5t37.5 4.5q40 0 67.5 -22.5t27.5 -60.5q0 -21 -6.5 -36t-17 -25t-22.5 -15t-24 -6l-2 -22h-52l-2 64q39 0 52 10.5t13 30.5q0 14 -10.5 22t-24.5 8q-16 0 -28.5 -6t-15.5 -25h-60zM310 480q-33 0 -63 -11t-53 -32t-38 -52t-19 -71h346
q0 40 -14 71t-37.5 52t-55 32t-66.5 11zM566 169q-11 -38 -32.5 -70.5t-53 -56.5t-73.5 -37.5t-93 -13.5q-59 0 -108.5 20t-85.5 57t-56.5 89.5t-20.5 117.5t20 117t55.5 89t85.5 56.5t110 19.5t108.5 -20t83 -55t53 -83t18.5 -104q0 -15 -0.5 -28t-2.5 -27h-438
q3 -42 18 -74t39 -53.5t55 -33t66 -11.5q63 0 101 28t53 73h98z" />
    <glyph glyph-name="uni1EBC" unicode="&#x1ebc;" horiz-adv-x="513" 
d="M125 763q2 51 24 80t64 29q20 0 35 -5.5t29 -13.5q11 -8 19.5 -14.5t19.5 -6.5t20.5 9.5t9.5 29.5h69q0 -52 -23.5 -80.5t-65.5 -28.5q-21 0 -36.5 6.5t-28.5 15.5q-11 8 -19.5 13.5t-18.5 5.5q-11 0 -20 -9.5t-9 -30.5h-69zM452 623h-284v-233h254v-75h-254v-240h284
v-75h-375v698h375v-75z" />
    <glyph glyph-name="uni1EBD" unicode="&#x1ebd;" horiz-adv-x="620" 
d="M180 634q2 51 24 80t64 29q20 0 35 -5.5t29 -13.5q11 -8 19.5 -14.5t19.5 -6.5t20.5 9.5t9.5 29.5h69q0 -52 -23.5 -80.5t-65.5 -28.5q-21 0 -36.5 6.5t-28.5 15.5q-11 8 -19.5 13.5t-18.5 5.5q-11 0 -20 -9.5t-9 -30.5h-69zM310 480q-33 0 -63 -11t-53 -32t-38 -52
t-19 -71h346q0 40 -14 71t-37.5 52t-55 32t-66.5 11zM566 169q-11 -38 -32.5 -70.5t-53 -56.5t-73.5 -37.5t-93 -13.5q-59 0 -108.5 20t-85.5 57t-56.5 89.5t-20.5 117.5t20 117t55.5 89t85.5 56.5t110 19.5t108.5 -20t83 -55t53 -83t18.5 -104q0 -15 -0.5 -28t-2.5 -27
h-438q3 -42 18 -74t39 -53.5t55 -33t66 -11.5q63 0 101 28t53 73h98z" />
    <glyph glyph-name="uni1EBE" unicode="&#x1ebe;" horiz-adv-x="513" 
d="M481 952l-91 -98l-62 38l88 104zM452 623h-284v-233h254v-75h-254v-240h284v-75h-375v698h375v-75zM414 798l-45 -56l-103 65l-103 -65l-45 56l148 95z" />
    <glyph glyph-name="uni1EBF" unicode="&#x1ebf;" horiz-adv-x="620" 
d="M532 823l-91 -98l-62 38l88 104zM310 480q-33 0 -63 -11t-53 -32t-38 -52t-19 -71h346q0 40 -14 71t-37.5 52t-55 32t-66.5 11zM566 169q-11 -38 -32.5 -70.5t-53 -56.5t-73.5 -37.5t-93 -13.5q-59 0 -108.5 20t-85.5 57t-56.5 89.5t-20.5 117.5t20 117t55.5 89
t85.5 56.5t110 19.5t108.5 -20t83 -55t53 -83t18.5 -104q0 -15 -0.5 -28t-2.5 -27h-438q3 -42 18 -74t39 -53.5t55 -33t66 -11.5q63 0 101 28t53 73h98zM465 669l-45 -56l-103 65l-103 -65l-45 56l148 95z" />
    <glyph glyph-name="uni1EC0" unicode="&#x1ec0;" horiz-adv-x="513" 
d="M353 996l88 -104l-62 -38l-91 98zM452 623h-284v-233h254v-75h-254v-240h284v-75h-375v698h375v-75zM414 798l-45 -56l-103 65l-103 -65l-45 56l148 95z" />
    <glyph glyph-name="uni1EC1" unicode="&#x1ec1;" horiz-adv-x="620" 
d="M404 867l88 -104l-62 -38l-91 98zM310 480q-33 0 -63 -11t-53 -32t-38 -52t-19 -71h346q0 40 -14 71t-37.5 52t-55 32t-66.5 11zM566 169q-11 -38 -32.5 -70.5t-53 -56.5t-73.5 -37.5t-93 -13.5q-59 0 -108.5 20t-85.5 57t-56.5 89.5t-20.5 117.5t20 117t55.5 89
t85.5 56.5t110 19.5t108.5 -20t83 -55t53 -83t18.5 -104q0 -15 -0.5 -28t-2.5 -27h-438q3 -42 18 -74t39 -53.5t55 -33t66 -11.5q63 0 101 28t53 73h98zM465 669l-45 -56l-103 65l-103 -65l-45 56l148 95z" />
    <glyph glyph-name="uni1EC2" unicode="&#x1ec2;" horiz-adv-x="513" 
d="M288 944q1 19 10.5 32.5t24 22.5t33 13t37.5 4q40 0 67.5 -20t27.5 -52q0 -18 -6.5 -31t-17 -21.5t-22.5 -13t-24 -5.5l-2 -19h-52l-2 55q62 0 62 36q0 12 -10 18t-22 6q-14 0 -26 -4t-15 -21h-63zM452 623h-284v-233h254v-75h-254v-240h284v-75h-375v698h375v-75z
M414 798l-45 -56l-103 65l-103 -65l-45 56l148 95z" />
    <glyph glyph-name="uni1EC3" unicode="&#x1ec3;" horiz-adv-x="620" 
d="M339 815q1 19 10.5 32.5t24 22.5t33 13t37.5 4q40 0 67.5 -20t27.5 -52q0 -18 -6.5 -31t-17 -21.5t-22.5 -13t-24 -5.5l-2 -19h-52l-2 55q62 0 62 36q0 12 -10 18t-22 6q-14 0 -26 -4t-15 -21h-63zM310 480q-33 0 -63 -11t-53 -32t-38 -52t-19 -71h346q0 40 -14 71
t-37.5 52t-55 32t-66.5 11zM566 169q-11 -38 -32.5 -70.5t-53 -56.5t-73.5 -37.5t-93 -13.5q-59 0 -108.5 20t-85.5 57t-56.5 89.5t-20.5 117.5t20 117t55.5 89t85.5 56.5t110 19.5t108.5 -20t83 -55t53 -83t18.5 -104q0 -15 -0.5 -28t-2.5 -27h-438q3 -42 18 -74t39 -53.5
t55 -33t66 -11.5q63 0 101 28t53 73h98zM465 669l-45 -56l-103 65l-103 -65l-45 56l148 95z" />
    <glyph glyph-name="uni1EC4" unicode="&#x1ec4;" horiz-adv-x="513" 
d="M452 623h-284v-233h254v-75h-254v-240h284v-75h-375v698h375v-75zM414 792l-45 -50l-103 58l-103 -58l-45 50l148 84zM118 892q2 42 24 66.5t64 24.5q20 0 35 -4.5t29 -11.5q11 -6 19.5 -11.5t19.5 -5.5t20.5 7.5t9.5 24.5h69q0 -45 -23.5 -68t-65.5 -23q-21 0 -36.5 5
t-28.5 13q-11 7 -19.5 11.5t-18.5 4.5q-11 0 -20 -8t-9 -25h-69z" />
    <glyph glyph-name="uni1EC5" unicode="&#x1ec5;" horiz-adv-x="620" 
d="M465 663l-45 -50l-103 58l-103 -58l-45 50l148 84zM169 763q2 42 24 66.5t64 24.5q20 0 35 -4.5t29 -11.5q11 -6 19.5 -11.5t19.5 -5.5t20.5 7.5t9.5 24.5h69q0 -45 -23.5 -68t-65.5 -23q-21 0 -36.5 5t-28.5 13q-11 7 -19.5 11.5t-18.5 4.5q-11 0 -20 -8t-9 -25h-69z
M310 480q-33 0 -63 -11t-53 -32t-38 -52t-19 -71h346q0 40 -14 71t-37.5 52t-55 32t-66.5 11zM566 169q-11 -38 -32.5 -70.5t-53 -56.5t-73.5 -37.5t-93 -13.5q-59 0 -108.5 20t-85.5 57t-56.5 89.5t-20.5 117.5t20 117t55.5 89t85.5 56.5t110 19.5t108.5 -20t83 -55t53 -83
t18.5 -104q0 -15 -0.5 -28t-2.5 -27h-438q3 -42 18 -74t39 -53.5t55 -33t66 -11.5q63 0 101 28t53 73h98z" />
    <glyph glyph-name="uni1EC6" unicode="&#x1ec6;" horiz-adv-x="513" 
d="M257 -224q-28 0 -46.5 18.5t-18.5 46.5t18.5 46.5t46.5 18.5q26 0 44.5 -18.5t18.5 -46.5t-18.5 -46.5t-44.5 -18.5zM452 623h-284v-233h254v-75h-254v-240h284v-75h-375v698h375v-75zM414 798l-45 -56l-103 65l-103 -65l-45 56l148 95z" />
    <glyph glyph-name="uni1EC7" unicode="&#x1ec7;" horiz-adv-x="620" 
d="M304 -224q-28 0 -46.5 18.5t-18.5 46.5t18.5 46.5t46.5 18.5q26 0 44.5 -18.5t18.5 -46.5t-18.5 -46.5t-44.5 -18.5zM310 480q-33 0 -63 -11t-53 -32t-38 -52t-19 -71h346q0 40 -14 71t-37.5 52t-55 32t-66.5 11zM566 169q-11 -38 -32.5 -70.5t-53 -56.5t-73.5 -37.5
t-93 -13.5q-59 0 -108.5 20t-85.5 57t-56.5 89.5t-20.5 117.5t20 117t55.5 89t85.5 56.5t110 19.5t108.5 -20t83 -55t53 -83t18.5 -104q0 -15 -0.5 -28t-2.5 -27h-438q3 -42 18 -74t39 -53.5t55 -33t66 -11.5q63 0 101 28t53 73h98zM465 669l-45 -56l-103 65l-103 -65
l-45 56l148 95z" />
    <glyph glyph-name="uni1EC8" unicode="&#x1ec8;" horiz-adv-x="246" 
d="M21 856q1 22 10.5 38t24 26t33 14.5t37.5 4.5q40 0 67.5 -22.5t27.5 -60.5q0 -21 -6.5 -36t-17 -25t-22.5 -15t-24 -6l-2 -22h-52l-2 64q39 0 52 10.5t13 30.5q0 14 -10.5 22t-24.5 8q-16 0 -28.5 -6t-15.5 -25h-60zM77 697h91v-697h-91v697z" />
    <glyph glyph-name="uni1EC9" unicode="&#x1ec9;" horiz-adv-x="246" 
d="M22 728q1 22 10.5 38t24 26t33 14.5t37.5 4.5q40 0 67.5 -22.5t27.5 -60.5q0 -21 -6.5 -36t-17 -25t-22.5 -15t-24 -6l-2 -22h-52l-2 64q39 0 52 10.5t13 30.5q0 14 -10.5 22t-24.5 8q-16 0 -28.5 -6t-15.5 -25h-60zM77 548h91v-548h-91v548z" />
    <glyph glyph-name="uni1ECA" unicode="&#x1eca;" horiz-adv-x="246" 
d="M77 697h91v-697h-91v697zM124 -224q-28 0 -46.5 18.5t-18.5 46.5t18.5 46.5t46.5 18.5q26 0 44.5 -18.5t18.5 -46.5t-18.5 -46.5t-44.5 -18.5z" />
    <glyph glyph-name="uni1ECB" unicode="&#x1ecb;" horiz-adv-x="246" 
d="M124 -224q-28 0 -46.5 18.5t-18.5 46.5t18.5 46.5t46.5 18.5q26 0 44.5 -18.5t18.5 -46.5t-18.5 -46.5t-44.5 -18.5zM77 548h91v-548h-91v548zM124 637q-28 0 -46.5 18.5t-18.5 46.5t18.5 46.5t46.5 18.5q26 0 44.5 -18.5t18.5 -46.5t-18.5 -46.5t-44.5 -18.5z" />
    <glyph glyph-name="uni1ECC" unicode="&#x1ecc;" horiz-adv-x="786" 
d="M396 -224q-28 0 -46.5 18.5t-18.5 46.5t18.5 46.5t46.5 18.5q26 0 44.5 -18.5t18.5 -46.5t-18.5 -46.5t-44.5 -18.5zM743 349q0 -78 -27 -143.5t-74 -113t-111 -73.5t-138 -26t-137.5 26t-111 73.5t-74.5 113t-27 143.5t27 143.5t74.5 113t111 73.5t137.5 26t138 -26
t111 -73.5t74 -113t27 -143.5zM136 349q0 -64 19.5 -115t54 -87t81.5 -55.5t102 -19.5t102 19.5t81.5 55.5t54 87t19.5 115t-19.5 115.5t-54 87.5t-81.5 55t-102 19t-102 -19t-81.5 -55t-54 -87.5t-19.5 -115.5z" />
    <glyph glyph-name="uni1ECD" unicode="&#x1ecd;" 
d="M321 -224q-28 0 -46.5 18.5t-18.5 46.5t18.5 46.5t46.5 18.5q26 0 44.5 -18.5t18.5 -46.5t-18.5 -46.5t-44.5 -18.5zM597 275q0 -65 -22 -117.5t-60 -89.5t-89.5 -57t-109.5 -20t-108 20t-86.5 57t-57.5 89.5t-21 117.5t21.5 117t59 89t88 56.5t108.5 19.5t109 -19.5
t88 -56.5t58.5 -89t21.5 -117zM136 275q0 -52 15 -90.5t39.5 -63.5t57 -37.5t68.5 -12.5t69.5 12.5t60 37.5t42.5 63.5t16 90.5t-15.5 90t-41.5 63t-59.5 37.5t-68.5 12.5q-36 0 -69 -12.5t-58.5 -37.5t-40.5 -63t-15 -90z" />
    <glyph glyph-name="uni1ECE" unicode="&#x1ece;" horiz-adv-x="786" 
d="M304 856q1 22 10.5 38t24 26t33 14.5t37.5 4.5q40 0 67.5 -22.5t27.5 -60.5q0 -21 -6.5 -36t-17 -25t-22.5 -15t-24 -6l-2 -22h-52l-2 64q39 0 52 10.5t13 30.5q0 14 -10.5 22t-24.5 8q-16 0 -28.5 -6t-15.5 -25h-60zM743 349q0 -78 -27 -143.5t-74 -113t-111 -73.5
t-138 -26t-137.5 26t-111 73.5t-74.5 113t-27 143.5t27 143.5t74.5 113t111 73.5t137.5 26t138 -26t111 -73.5t74 -113t27 -143.5zM136 349q0 -64 19.5 -115t54 -87t81.5 -55.5t102 -19.5t102 19.5t81.5 55.5t54 87t19.5 115t-19.5 115.5t-54 87.5t-81.5 55t-102 19
t-102 -19t-81.5 -55t-54 -87.5t-19.5 -115.5z" />
    <glyph glyph-name="uni1ECF" unicode="&#x1ecf;" 
d="M228 728q1 22 10.5 38t24 26t33 14.5t37.5 4.5q40 0 67.5 -22.5t27.5 -60.5q0 -21 -6.5 -36t-17 -25t-22.5 -15t-24 -6l-2 -22h-52l-2 64q39 0 52 10.5t13 30.5q0 14 -10.5 22t-24.5 8q-16 0 -28.5 -6t-15.5 -25h-60zM597 275q0 -65 -22 -117.5t-60 -89.5t-89.5 -57
t-109.5 -20t-108 20t-86.5 57t-57.5 89.5t-21 117.5t21.5 117t59 89t88 56.5t108.5 19.5t109 -19.5t88 -56.5t58.5 -89t21.5 -117zM136 275q0 -52 15 -90.5t39.5 -63.5t57 -37.5t68.5 -12.5t69.5 12.5t60 37.5t42.5 63.5t16 90.5t-15.5 90t-41.5 63t-59.5 37.5t-68.5 12.5
q-36 0 -69 -12.5t-58.5 -37.5t-40.5 -63t-15 -90z" />
    <glyph glyph-name="uni1ED0" unicode="&#x1ed0;" horiz-adv-x="786" 
d="M611 952l-91 -98l-62 38l88 104zM743 349q0 -78 -27 -143.5t-74 -113t-111 -73.5t-138 -26t-137.5 26t-111 73.5t-74.5 113t-27 143.5t27 143.5t74.5 113t111 73.5t137.5 26t138 -26t111 -73.5t74 -113t27 -143.5zM136 349q0 -64 19.5 -115t54 -87t81.5 -55.5t102 -19.5
t102 19.5t81.5 55.5t54 87t19.5 115t-19.5 115.5t-54 87.5t-81.5 55t-102 19t-102 -19t-81.5 -55t-54 -87.5t-19.5 -115.5zM544 798l-45 -56l-103 65l-103 -65l-45 56l148 95z" />
    <glyph glyph-name="uni1ED1" unicode="&#x1ed1;" 
d="M536 823l-91 -98l-62 38l88 104zM597 275q0 -65 -22 -117.5t-60 -89.5t-89.5 -57t-109.5 -20t-108 20t-86.5 57t-57.5 89.5t-21 117.5t21.5 117t59 89t88 56.5t108.5 19.5t109 -19.5t88 -56.5t58.5 -89t21.5 -117zM136 275q0 -52 15 -90.5t39.5 -63.5t57 -37.5
t68.5 -12.5t69.5 12.5t60 37.5t42.5 63.5t16 90.5t-15.5 90t-41.5 63t-59.5 37.5t-68.5 12.5q-36 0 -69 -12.5t-58.5 -37.5t-40.5 -63t-15 -90zM469 669l-45 -56l-103 65l-103 -65l-45 56l148 95z" />
    <glyph glyph-name="uni1ED2" unicode="&#x1ed2;" horiz-adv-x="786" 
d="M483 996l88 -104l-62 -38l-91 98zM743 349q0 -78 -27 -143.5t-74 -113t-111 -73.5t-138 -26t-137.5 26t-111 73.5t-74.5 113t-27 143.5t27 143.5t74.5 113t111 73.5t137.5 26t138 -26t111 -73.5t74 -113t27 -143.5zM136 349q0 -64 19.5 -115t54 -87t81.5 -55.5t102 -19.5
t102 19.5t81.5 55.5t54 87t19.5 115t-19.5 115.5t-54 87.5t-81.5 55t-102 19t-102 -19t-81.5 -55t-54 -87.5t-19.5 -115.5zM544 798l-45 -56l-103 65l-103 -65l-45 56l148 95z" />
    <glyph glyph-name="uni1ED3" unicode="&#x1ed3;" 
d="M408 867l88 -104l-62 -38l-91 98zM597 275q0 -65 -22 -117.5t-60 -89.5t-89.5 -57t-109.5 -20t-108 20t-86.5 57t-57.5 89.5t-21 117.5t21.5 117t59 89t88 56.5t108.5 19.5t109 -19.5t88 -56.5t58.5 -89t21.5 -117zM136 275q0 -52 15 -90.5t39.5 -63.5t57 -37.5
t68.5 -12.5t69.5 12.5t60 37.5t42.5 63.5t16 90.5t-15.5 90t-41.5 63t-59.5 37.5t-68.5 12.5q-36 0 -69 -12.5t-58.5 -37.5t-40.5 -63t-15 -90zM469 669l-45 -56l-103 65l-103 -65l-45 56l148 95z" />
    <glyph glyph-name="uni1ED4" unicode="&#x1ed4;" horiz-adv-x="786" 
d="M418 944q1 19 10.5 32.5t24 22.5t33 13t37.5 4q40 0 67.5 -20t27.5 -52q0 -18 -6.5 -31t-17 -21.5t-22.5 -13t-24 -5.5l-2 -19h-52l-2 55q62 0 62 36q0 12 -10 18t-22 6q-14 0 -26 -4t-15 -21h-63zM743 349q0 -78 -27 -143.5t-74 -113t-111 -73.5t-138 -26t-137.5 26
t-111 73.5t-74.5 113t-27 143.5t27 143.5t74.5 113t111 73.5t137.5 26t138 -26t111 -73.5t74 -113t27 -143.5zM136 349q0 -64 19.5 -115t54 -87t81.5 -55.5t102 -19.5t102 19.5t81.5 55.5t54 87t19.5 115t-19.5 115.5t-54 87.5t-81.5 55t-102 19t-102 -19t-81.5 -55
t-54 -87.5t-19.5 -115.5zM544 798l-45 -56l-103 65l-103 -65l-45 56l148 95z" />
    <glyph glyph-name="uni1ED5" unicode="&#x1ed5;" 
d="M343 815q1 19 10.5 32.5t24 22.5t33 13t37.5 4q40 0 67.5 -20t27.5 -52q0 -18 -6.5 -31t-17 -21.5t-22.5 -13t-24 -5.5l-2 -19h-52l-2 55q62 0 62 36q0 12 -10 18t-22 6q-14 0 -26 -4t-15 -21h-63zM597 275q0 -65 -22 -117.5t-60 -89.5t-89.5 -57t-109.5 -20t-108 20
t-86.5 57t-57.5 89.5t-21 117.5t21.5 117t59 89t88 56.5t108.5 19.5t109 -19.5t88 -56.5t58.5 -89t21.5 -117zM136 275q0 -52 15 -90.5t39.5 -63.5t57 -37.5t68.5 -12.5t69.5 12.5t60 37.5t42.5 63.5t16 90.5t-15.5 90t-41.5 63t-59.5 37.5t-68.5 12.5q-36 0 -69 -12.5
t-58.5 -37.5t-40.5 -63t-15 -90zM469 669l-45 -56l-103 65l-103 -65l-45 56l148 95z" />
    <glyph glyph-name="uni1ED6" unicode="&#x1ed6;" horiz-adv-x="786" 
d="M544 792l-45 -50l-103 58l-103 -58l-45 50l148 84zM248 892q2 42 24 66.5t64 24.5q20 0 35 -4.5t29 -11.5q11 -6 19.5 -11.5t19.5 -5.5t20.5 7.5t9.5 24.5h69q0 -45 -23.5 -68t-65.5 -23q-21 0 -36.5 5t-28.5 13q-11 7 -19.5 11.5t-18.5 4.5q-11 0 -20 -8t-9 -25h-69z
M743 349q0 -78 -27 -143.5t-74 -113t-111 -73.5t-138 -26t-137.5 26t-111 73.5t-74.5 113t-27 143.5t27 143.5t74.5 113t111 73.5t137.5 26t138 -26t111 -73.5t74 -113t27 -143.5zM136 349q0 -64 19.5 -115t54 -87t81.5 -55.5t102 -19.5t102 19.5t81.5 55.5t54 87t19.5 115
t-19.5 115.5t-54 87.5t-81.5 55t-102 19t-102 -19t-81.5 -55t-54 -87.5t-19.5 -115.5z" />
    <glyph glyph-name="uni1ED7" unicode="&#x1ed7;" 
d="M469 663l-45 -50l-103 58l-103 -58l-45 50l148 84zM173 763q2 42 24 66.5t64 24.5q20 0 35 -4.5t29 -11.5q11 -6 19.5 -11.5t19.5 -5.5t20.5 7.5t9.5 24.5h69q0 -45 -23.5 -68t-65.5 -23q-21 0 -36.5 5t-28.5 13q-11 7 -19.5 11.5t-18.5 4.5q-11 0 -20 -8t-9 -25h-69z
M597 275q0 -65 -22 -117.5t-60 -89.5t-89.5 -57t-109.5 -20t-108 20t-86.5 57t-57.5 89.5t-21 117.5t21.5 117t59 89t88 56.5t108.5 19.5t109 -19.5t88 -56.5t58.5 -89t21.5 -117zM136 275q0 -52 15 -90.5t39.5 -63.5t57 -37.5t68.5 -12.5t69.5 12.5t60 37.5t42.5 63.5
t16 90.5t-15.5 90t-41.5 63t-59.5 37.5t-68.5 12.5q-36 0 -69 -12.5t-58.5 -37.5t-40.5 -63t-15 -90z" />
    <glyph glyph-name="uni1ED8" unicode="&#x1ed8;" horiz-adv-x="786" 
d="M396 -224q-28 0 -46.5 18.5t-18.5 46.5t18.5 46.5t46.5 18.5q26 0 44.5 -18.5t18.5 -46.5t-18.5 -46.5t-44.5 -18.5zM743 349q0 -78 -27 -143.5t-74 -113t-111 -73.5t-138 -26t-137.5 26t-111 73.5t-74.5 113t-27 143.5t27 143.5t74.5 113t111 73.5t137.5 26t138 -26
t111 -73.5t74 -113t27 -143.5zM136 349q0 -64 19.5 -115t54 -87t81.5 -55.5t102 -19.5t102 19.5t81.5 55.5t54 87t19.5 115t-19.5 115.5t-54 87.5t-81.5 55t-102 19t-102 -19t-81.5 -55t-54 -87.5t-19.5 -115.5zM544 798l-45 -56l-103 65l-103 -65l-45 56l148 95z" />
    <glyph glyph-name="uni1ED9" unicode="&#x1ed9;" 
d="M321 -224q-28 0 -46.5 18.5t-18.5 46.5t18.5 46.5t46.5 18.5q26 0 44.5 -18.5t18.5 -46.5t-18.5 -46.5t-44.5 -18.5zM597 275q0 -65 -22 -117.5t-60 -89.5t-89.5 -57t-109.5 -20t-108 20t-86.5 57t-57.5 89.5t-21 117.5t21.5 117t59 89t88 56.5t108.5 19.5t109 -19.5
t88 -56.5t58.5 -89t21.5 -117zM136 275q0 -52 15 -90.5t39.5 -63.5t57 -37.5t68.5 -12.5t69.5 12.5t60 37.5t42.5 63.5t16 90.5t-15.5 90t-41.5 63t-59.5 37.5t-68.5 12.5q-36 0 -69 -12.5t-58.5 -37.5t-40.5 -63t-15 -90zM469 669l-45 -56l-103 65l-103 -65l-45 56l148 95z
" />
    <glyph glyph-name="uni1EDA" unicode="&#x1eda;" horiz-adv-x="786" 
d="M552 851l-163 -99l-45 63l163 102zM743 349q0 -78 -27 -143.5t-74 -113t-111 -73.5t-138 -26t-137.5 26t-111 73.5t-74.5 113t-27 143.5t27 143.5t74.5 113t111 73.5t137.5 26q35 0 78 -8h63q38 0 54.5 23.5t16.5 59.5h82q0 -55 -23.5 -90t-62.5 -50q66 -48 104 -122.5
t38 -168.5zM136 349q0 -64 19.5 -115t54 -87t81.5 -55.5t102 -19.5t102 19.5t81.5 55.5t54 87t19.5 115t-19.5 115.5t-54 87.5t-81.5 55t-102 19t-102 -19t-81.5 -55t-54 -87.5t-19.5 -115.5z" />
    <glyph glyph-name="uni1EDB" unicode="&#x1edb;" 
d="M479 722l-163 -99l-45 63l163 102zM597 275q0 -65 -22 -117.5t-60 -89.5t-89.5 -57t-109.5 -20t-108 20t-86.5 57t-57.5 89.5t-21 117.5t21.5 117t59 89t88 56.5t108.5 19.5q43 0 79 -10h29q38 0 54.5 23.5t16.5 59.5h82q0 -54 -21.5 -87.5t-56.5 -49.5
q45 -37 69.5 -91.5t24.5 -126.5zM136 275q0 -52 15 -90.5t39.5 -63.5t57 -37.5t68.5 -12.5t69.5 12.5t60 37.5t42.5 63.5t16 90.5t-15.5 90t-41.5 63t-59.5 37.5t-68.5 12.5q-36 0 -69 -12.5t-58.5 -37.5t-40.5 -63t-15 -90z" />
    <glyph glyph-name="uni1EDC" unicode="&#x1edc;" horiz-adv-x="786" 
d="M329 917l163 -102l-45 -63l-163 99zM743 349q0 -78 -27 -143.5t-74 -113t-111 -73.5t-138 -26t-137.5 26t-111 73.5t-74.5 113t-27 143.5t27 143.5t74.5 113t111 73.5t137.5 26q35 0 78 -8h63q38 0 54.5 23.5t16.5 59.5h82q0 -55 -23.5 -90t-62.5 -50q66 -48 104 -122.5
t38 -168.5zM136 349q0 -64 19.5 -115t54 -87t81.5 -55.5t102 -19.5t102 19.5t81.5 55.5t54 87t19.5 115t-19.5 115.5t-54 87.5t-81.5 55t-102 19t-102 -19t-81.5 -55t-54 -87.5t-19.5 -115.5z" />
    <glyph glyph-name="uni1EDD" unicode="&#x1edd;" 
d="M246 788l163 -102l-45 -63l-163 99zM597 275q0 -65 -22 -117.5t-60 -89.5t-89.5 -57t-109.5 -20t-108 20t-86.5 57t-57.5 89.5t-21 117.5t21.5 117t59 89t88 56.5t108.5 19.5q43 0 79 -10h29q38 0 54.5 23.5t16.5 59.5h82q0 -54 -21.5 -87.5t-56.5 -49.5
q45 -37 69.5 -91.5t24.5 -126.5zM136 275q0 -52 15 -90.5t39.5 -63.5t57 -37.5t68.5 -12.5t69.5 12.5t60 37.5t42.5 63.5t16 90.5t-15.5 90t-41.5 63t-59.5 37.5t-68.5 12.5q-36 0 -69 -12.5t-58.5 -37.5t-40.5 -63t-15 -90z" />
    <glyph glyph-name="uni1EDE" unicode="&#x1ede;" horiz-adv-x="786" 
d="M304 856q1 22 10.5 38t24 26t33 14.5t37.5 4.5q40 0 67.5 -22.5t27.5 -60.5q0 -21 -6.5 -36t-17 -25t-22.5 -15t-24 -6l-2 -22h-52l-2 64q39 0 52 10.5t13 30.5q0 14 -10.5 22t-24.5 8q-16 0 -28.5 -6t-15.5 -25h-60zM743 349q0 -78 -27 -143.5t-74 -113t-111 -73.5
t-138 -26t-137.5 26t-111 73.5t-74.5 113t-27 143.5t27 143.5t74.5 113t111 73.5t137.5 26q35 0 78 -8h63q38 0 54.5 23.5t16.5 59.5h82q0 -55 -23.5 -90t-62.5 -50q66 -48 104 -122.5t38 -168.5zM136 349q0 -64 19.5 -115t54 -87t81.5 -55.5t102 -19.5t102 19.5t81.5 55.5
t54 87t19.5 115t-19.5 115.5t-54 87.5t-81.5 55t-102 19t-102 -19t-81.5 -55t-54 -87.5t-19.5 -115.5z" />
    <glyph glyph-name="uni1EDF" unicode="&#x1edf;" 
d="M228 728q1 22 10.5 38t24 26t33 14.5t37.5 4.5q40 0 67.5 -22.5t27.5 -60.5q0 -21 -6.5 -36t-17 -25t-22.5 -15t-24 -6l-2 -22h-52l-2 64q39 0 52 10.5t13 30.5q0 14 -10.5 22t-24.5 8q-16 0 -28.5 -6t-15.5 -25h-60zM597 275q0 -65 -22 -117.5t-60 -89.5t-89.5 -57
t-109.5 -20t-108 20t-86.5 57t-57.5 89.5t-21 117.5t21.5 117t59 89t88 56.5t108.5 19.5q43 0 79 -10h29q38 0 54.5 23.5t16.5 59.5h82q0 -54 -21.5 -87.5t-56.5 -49.5q45 -37 69.5 -91.5t24.5 -126.5zM136 275q0 -52 15 -90.5t39.5 -63.5t57 -37.5t68.5 -12.5t69.5 12.5
t60 37.5t42.5 63.5t16 90.5t-15.5 90t-41.5 63t-59.5 37.5t-68.5 12.5q-36 0 -69 -12.5t-58.5 -37.5t-40.5 -63t-15 -90z" />
    <glyph glyph-name="uni1EE0" unicode="&#x1ee0;" horiz-adv-x="786" 
d="M253 763q2 51 24 80t64 29q20 0 35 -5.5t29 -13.5q11 -8 19.5 -14.5t19.5 -6.5t20.5 9.5t9.5 29.5h69q0 -52 -23.5 -80.5t-65.5 -28.5q-21 0 -36.5 6.5t-28.5 15.5q-11 8 -19.5 13.5t-18.5 5.5q-11 0 -20 -9.5t-9 -30.5h-69zM743 349q0 -78 -27 -143.5t-74 -113
t-111 -73.5t-138 -26t-137.5 26t-111 73.5t-74.5 113t-27 143.5t27 143.5t74.5 113t111 73.5t137.5 26q35 0 78 -8h63q38 0 54.5 23.5t16.5 59.5h82q0 -55 -23.5 -90t-62.5 -50q66 -48 104 -122.5t38 -168.5zM136 349q0 -64 19.5 -115t54 -87t81.5 -55.5t102 -19.5t102 19.5
t81.5 55.5t54 87t19.5 115t-19.5 115.5t-54 87.5t-81.5 55t-102 19t-102 -19t-81.5 -55t-54 -87.5t-19.5 -115.5z" />
    <glyph glyph-name="uni1EE1" unicode="&#x1ee1;" 
d="M184 634q2 51 24 80t64 29q20 0 35 -5.5t29 -13.5q11 -8 19.5 -14.5t19.5 -6.5t20.5 9.5t9.5 29.5h69q0 -52 -23.5 -80.5t-65.5 -28.5q-21 0 -36.5 6.5t-28.5 15.5q-11 8 -19.5 13.5t-18.5 5.5q-11 0 -20 -9.5t-9 -30.5h-69zM597 275q0 -65 -22 -117.5t-60 -89.5
t-89.5 -57t-109.5 -20t-108 20t-86.5 57t-57.5 89.5t-21 117.5t21.5 117t59 89t88 56.5t108.5 19.5q43 0 79 -10h29q38 0 54.5 23.5t16.5 59.5h82q0 -54 -21.5 -87.5t-56.5 -49.5q45 -37 69.5 -91.5t24.5 -126.5zM136 275q0 -52 15 -90.5t39.5 -63.5t57 -37.5t68.5 -12.5
t69.5 12.5t60 37.5t42.5 63.5t16 90.5t-15.5 90t-41.5 63t-59.5 37.5t-68.5 12.5q-36 0 -69 -12.5t-58.5 -37.5t-40.5 -63t-15 -90z" />
    <glyph glyph-name="uni1EE2" unicode="&#x1ee2;" horiz-adv-x="786" 
d="M396 -224q-28 0 -46.5 18.5t-18.5 46.5t18.5 46.5t46.5 18.5q26 0 44.5 -18.5t18.5 -46.5t-18.5 -46.5t-44.5 -18.5zM743 349q0 -78 -27 -143.5t-74 -113t-111 -73.5t-138 -26t-137.5 26t-111 73.5t-74.5 113t-27 143.5t27 143.5t74.5 113t111 73.5t137.5 26q35 0 78 -8
h63q38 0 54.5 23.5t16.5 59.5h82q0 -55 -23.5 -90t-62.5 -50q66 -48 104 -122.5t38 -168.5zM136 349q0 -64 19.5 -115t54 -87t81.5 -55.5t102 -19.5t102 19.5t81.5 55.5t54 87t19.5 115t-19.5 115.5t-54 87.5t-81.5 55t-102 19t-102 -19t-81.5 -55t-54 -87.5t-19.5 -115.5z
" />
    <glyph glyph-name="uni1EE3" unicode="&#x1ee3;" 
d="M321 -224q-28 0 -46.5 18.5t-18.5 46.5t18.5 46.5t46.5 18.5q26 0 44.5 -18.5t18.5 -46.5t-18.5 -46.5t-44.5 -18.5zM597 275q0 -65 -22 -117.5t-60 -89.5t-89.5 -57t-109.5 -20t-108 20t-86.5 57t-57.5 89.5t-21 117.5t21.5 117t59 89t88 56.5t108.5 19.5q43 0 79 -10
h29q38 0 54.5 23.5t16.5 59.5h82q0 -54 -21.5 -87.5t-56.5 -49.5q45 -37 69.5 -91.5t24.5 -126.5zM136 275q0 -52 15 -90.5t39.5 -63.5t57 -37.5t68.5 -12.5t69.5 12.5t60 37.5t42.5 63.5t16 90.5t-15.5 90t-41.5 63t-59.5 37.5t-68.5 12.5q-36 0 -69 -12.5t-58.5 -37.5
t-40.5 -63t-15 -90z" />
    <glyph glyph-name="uni1EE4" unicode="&#x1ee4;" horiz-adv-x="675" 
d="M336 -224q-28 0 -46.5 18.5t-18.5 46.5t18.5 46.5t46.5 18.5q26 0 44.5 -18.5t18.5 -46.5t-18.5 -46.5t-44.5 -18.5zM75 697h91v-441q0 -96 47.5 -139.5t124.5 -43.5t124 43.5t47 139.5v441h91v-440q0 -68 -21 -117.5t-56.5 -82t-83.5 -48.5t-102 -16t-101.5 16
t-83.5 48.5t-56.5 82t-20.5 117.5v440z" />
    <glyph glyph-name="uni1EE5" unicode="&#x1ee5;" 
d="M309 -224q-28 0 -46.5 18.5t-18.5 46.5t18.5 46.5t46.5 18.5q26 0 44.5 -18.5t18.5 -46.5t-18.5 -46.5t-44.5 -18.5zM563 0h-91v81q-26 -43 -73 -66t-102 -23q-47 0 -88 14.5t-71.5 44t-48 73.5t-17.5 103v321h90v-309q0 -85 42 -126.5t111 -41.5q72 0 114.5 43t42.5 133
v301h91v-548z" />
    <glyph glyph-name="uni1EE6" unicode="&#x1ee6;" horiz-adv-x="675" 
d="M239 856q1 22 10.5 38t24 26t33 14.5t37.5 4.5q40 0 67.5 -22.5t27.5 -60.5q0 -21 -6.5 -36t-17 -25t-22.5 -15t-24 -6l-2 -22h-52l-2 64q39 0 52 10.5t13 30.5q0 14 -10.5 22t-24.5 8q-16 0 -28.5 -6t-15.5 -25h-60zM75 697h91v-441q0 -96 47.5 -139.5t124.5 -43.5
t124 43.5t47 139.5v441h91v-440q0 -68 -21 -117.5t-56.5 -82t-83.5 -48.5t-102 -16t-101.5 16t-83.5 48.5t-56.5 82t-20.5 117.5v440z" />
    <glyph glyph-name="uni1EE7" unicode="&#x1ee7;" 
d="M222 728q1 22 10.5 38t24 26t33 14.5t37.5 4.5q40 0 67.5 -22.5t27.5 -60.5q0 -21 -6.5 -36t-17 -25t-22.5 -15t-24 -6l-2 -22h-52l-2 64q39 0 52 10.5t13 30.5q0 14 -10.5 22t-24.5 8q-16 0 -28.5 -6t-15.5 -25h-60zM563 0h-91v81q-26 -43 -73 -66t-102 -23
q-47 0 -88 14.5t-71.5 44t-48 73.5t-17.5 103v321h90v-309q0 -85 42 -126.5t111 -41.5q72 0 114.5 43t42.5 133v301h91v-548z" />
    <glyph glyph-name="uni1EE8" unicode="&#x1ee8;" horiz-adv-x="675" 
d="M492 851l-163 -99l-45 63l163 102zM75 697h91v-441q0 -96 47.5 -139.5t124.5 -43.5t124 43.5t47 139.5v441h51q38 0 54.5 23.5t16.5 59.5h82q0 -64 -31 -101t-82 -46v-376q0 -68 -21 -117.5t-56.5 -82t-83.5 -48.5t-102 -16t-101.5 16t-83.5 48.5t-56.5 82t-20.5 117.5
v440z" />
    <glyph glyph-name="uni1EE9" unicode="&#x1ee9;" 
d="M479 722l-163 -99l-45 63l163 102zM684 630q0 -67 -33.5 -103.5t-87.5 -44.5v-482h-91v81q-26 -43 -73 -66t-102 -23q-47 0 -88 14.5t-71.5 44t-48 73.5t-17.5 103v321h90v-309q0 -85 42 -126.5t111 -41.5q72 0 114.5 43t42.5 133v301h73q30 5 43.5 27t13.5 55h82z" />
    <glyph glyph-name="uni1EEA" unicode="&#x1eea;" horiz-adv-x="675" 
d="M259 917l163 -102l-45 -63l-163 99zM75 697h91v-441q0 -96 47.5 -139.5t124.5 -43.5t124 43.5t47 139.5v441h51q38 0 54.5 23.5t16.5 59.5h82q0 -64 -31 -101t-82 -46v-376q0 -68 -21 -117.5t-56.5 -82t-83.5 -48.5t-102 -16t-101.5 16t-83.5 48.5t-56.5 82t-20.5 117.5
v440z" />
    <glyph glyph-name="uni1EEB" unicode="&#x1eeb;" 
d="M236 788l163 -102l-45 -63l-163 99zM684 630q0 -67 -33.5 -103.5t-87.5 -44.5v-482h-91v81q-26 -43 -73 -66t-102 -23q-47 0 -88 14.5t-71.5 44t-48 73.5t-17.5 103v321h90v-309q0 -85 42 -126.5t111 -41.5q72 0 114.5 43t42.5 133v301h73q30 5 43.5 27t13.5 55h82z" />
    <glyph glyph-name="uni1EEC" unicode="&#x1eec;" horiz-adv-x="675" 
d="M239 856q1 22 10.5 38t24 26t33 14.5t37.5 4.5q40 0 67.5 -22.5t27.5 -60.5q0 -21 -6.5 -36t-17 -25t-22.5 -15t-24 -6l-2 -22h-52l-2 64q39 0 52 10.5t13 30.5q0 14 -10.5 22t-24.5 8q-16 0 -28.5 -6t-15.5 -25h-60zM75 697h91v-441q0 -96 47.5 -139.5t124.5 -43.5
t124 43.5t47 139.5v441h51q38 0 54.5 23.5t16.5 59.5h82q0 -64 -31 -101t-82 -46v-376q0 -68 -21 -117.5t-56.5 -82t-83.5 -48.5t-102 -16t-101.5 16t-83.5 48.5t-56.5 82t-20.5 117.5v440z" />
    <glyph glyph-name="uni1EED" unicode="&#x1eed;" 
d="M222 728q1 22 10.5 38t24 26t33 14.5t37.5 4.5q40 0 67.5 -22.5t27.5 -60.5q0 -21 -6.5 -36t-17 -25t-22.5 -15t-24 -6l-2 -22h-52l-2 64q39 0 52 10.5t13 30.5q0 14 -10.5 22t-24.5 8q-16 0 -28.5 -6t-15.5 -25h-60zM684 630q0 -67 -33.5 -103.5t-87.5 -44.5v-482h-91
v81q-26 -43 -73 -66t-102 -23q-47 0 -88 14.5t-71.5 44t-48 73.5t-17.5 103v321h90v-309q0 -85 42 -126.5t111 -41.5q72 0 114.5 43t42.5 133v301h73q30 5 43.5 27t13.5 55h82z" />
    <glyph glyph-name="uni1EEE" unicode="&#x1eee;" horiz-adv-x="675" 
d="M196 763q2 51 24 80t64 29q20 0 35 -5.5t29 -13.5q11 -8 19.5 -14.5t19.5 -6.5t20.5 9.5t9.5 29.5h69q0 -52 -23.5 -80.5t-65.5 -28.5q-21 0 -36.5 6.5t-28.5 15.5q-11 8 -19.5 13.5t-18.5 5.5q-11 0 -20 -9.5t-9 -30.5h-69zM75 697h91v-441q0 -96 47.5 -139.5
t124.5 -43.5t124 43.5t47 139.5v441h51q38 0 54.5 23.5t16.5 59.5h82q0 -64 -31 -101t-82 -46v-376q0 -68 -21 -117.5t-56.5 -82t-83.5 -48.5t-102 -16t-101.5 16t-83.5 48.5t-56.5 82t-20.5 117.5v440z" />
    <glyph glyph-name="uni1EEF" unicode="&#x1eef;" 
d="M173 634q2 51 24 80t64 29q20 0 35 -5.5t29 -13.5q11 -8 19.5 -14.5t19.5 -6.5t20.5 9.5t9.5 29.5h69q0 -52 -23.5 -80.5t-65.5 -28.5q-21 0 -36.5 6.5t-28.5 15.5q-11 8 -19.5 13.5t-18.5 5.5q-11 0 -20 -9.5t-9 -30.5h-69zM684 630q0 -67 -33.5 -103.5t-87.5 -44.5
v-482h-91v81q-26 -43 -73 -66t-102 -23q-47 0 -88 14.5t-71.5 44t-48 73.5t-17.5 103v321h90v-309q0 -85 42 -126.5t111 -41.5q72 0 114.5 43t42.5 133v301h73q30 5 43.5 27t13.5 55h82z" />
    <glyph glyph-name="uni1EF0" unicode="&#x1ef0;" horiz-adv-x="675" 
d="M336 -224q-28 0 -46.5 18.5t-18.5 46.5t18.5 46.5t46.5 18.5q26 0 44.5 -18.5t18.5 -46.5t-18.5 -46.5t-44.5 -18.5zM75 697h91v-441q0 -96 47.5 -139.5t124.5 -43.5t124 43.5t47 139.5v441h51q38 0 54.5 23.5t16.5 59.5h82q0 -64 -31 -101t-82 -46v-376
q0 -68 -21 -117.5t-56.5 -82t-83.5 -48.5t-102 -16t-101.5 16t-83.5 48.5t-56.5 82t-20.5 117.5v440z" />
    <glyph glyph-name="uni1EF1" unicode="&#x1ef1;" 
d="M309 -224q-28 0 -46.5 18.5t-18.5 46.5t18.5 46.5t46.5 18.5q26 0 44.5 -18.5t18.5 -46.5t-18.5 -46.5t-44.5 -18.5zM684 630q0 -67 -33.5 -103.5t-87.5 -44.5v-482h-91v81q-26 -43 -73 -66t-102 -23q-47 0 -88 14.5t-71.5 44t-48 73.5t-17.5 103v321h90v-309
q0 -85 42 -126.5t111 -41.5q72 0 114.5 43t42.5 133v301h73q30 5 43.5 27t13.5 55h82z" />
    <glyph glyph-name="Ygrave" unicode="&#x1ef2;" horiz-adv-x="584" 
d="M19 697h101l172 -353l172 353h101l-227 -434v-263h-91v263zM200 917l163 -102l-45 -63l-163 99z" />
    <glyph glyph-name="ygrave" unicode="&#x1ef3;" horiz-adv-x="563" 
d="M455 548h94l-330 -806h-94l108 264l-221 542h101l172 -444zM203 788l163 -102l-45 -63l-163 99z" />
    <glyph glyph-name="uni1EF4" unicode="&#x1ef4;" horiz-adv-x="584" 
d="M19 697h101l172 -353l172 353h101l-227 -434v-263h-91v263zM293 -224q-28 0 -46.5 18.5t-18.5 46.5t18.5 46.5t46.5 18.5q26 0 44.5 -18.5t18.5 -46.5t-18.5 -46.5t-44.5 -18.5z" />
    <glyph glyph-name="uni1EF5" unicode="&#x1ef5;" horiz-adv-x="563" 
d="M435 -224q-28 0 -46.5 18.5t-18.5 46.5t18.5 46.5t46.5 18.5q26 0 44.5 -18.5t18.5 -46.5t-18.5 -46.5t-44.5 -18.5zM455 548h94l-330 -806h-94l108 264l-221 542h101l172 -444z" />
    <glyph glyph-name="uni1EF6" unicode="&#x1ef6;" horiz-adv-x="584" 
d="M194 856q1 22 10.5 38t24 26t33 14.5t37.5 4.5q40 0 67.5 -22.5t27.5 -60.5q0 -21 -6.5 -36t-17 -25t-22.5 -15t-24 -6l-2 -22h-52l-2 64q39 0 52 10.5t13 30.5q0 14 -10.5 22t-24.5 8q-16 0 -28.5 -6t-15.5 -25h-60zM19 697h101l172 -353l172 353h101l-227 -434v-263
h-91v263z" />
    <glyph glyph-name="uni1EF7" unicode="&#x1ef7;" horiz-adv-x="563" 
d="M183 728q1 22 10.5 38t24 26t33 14.5t37.5 4.5q40 0 67.5 -22.5t27.5 -60.5q0 -21 -6.5 -36t-17 -25t-22.5 -15t-24 -6l-2 -22h-52l-2 64q39 0 52 10.5t13 30.5q0 14 -10.5 22t-24.5 8q-16 0 -28.5 -6t-15.5 -25h-60zM455 548h94l-330 -806h-94l108 264l-221 542h101
l172 -444z" />
    <glyph glyph-name="uni1EF8" unicode="&#x1ef8;" horiz-adv-x="584" 
d="M19 697h101l172 -353l172 353h101l-227 -434v-263h-91v263zM146 763q2 51 24 80t64 29q20 0 35 -5.5t29 -13.5q11 -8 19.5 -14.5t19.5 -6.5t20.5 9.5t9.5 29.5h69q0 -52 -23.5 -80.5t-65.5 -28.5q-21 0 -36.5 6.5t-28.5 15.5q-11 8 -19.5 13.5t-18.5 5.5q-11 0 -20 -9.5
t-9 -30.5h-69z" />
    <glyph glyph-name="uni1EF9" unicode="&#x1ef9;" horiz-adv-x="563" 
d="M455 548h94l-330 -806h-94l108 264l-221 542h101l172 -444zM142 634q2 51 24 80t64 29q20 0 35 -5.5t29 -13.5q11 -8 19.5 -14.5t19.5 -6.5t20.5 9.5t9.5 29.5h69q0 -52 -23.5 -80.5t-65.5 -28.5q-21 0 -36.5 6.5t-28.5 15.5q-11 8 -19.5 13.5t-18.5 5.5q-11 0 -20 -9.5
t-9 -30.5h-69z" />
    <glyph glyph-name="uni1EFA" unicode="&#x1efa;" horiz-adv-x="0" 
d="M684 630q0 -75 -41 -112.5t-107 -37.5h-43v67h38q38 0 54.5 23.5t16.5 59.5h82z" />
    <glyph glyph-name="zerowidthnonjoiner" unicode="&#x200c;" horiz-adv-x="0" 
d="M-23 -230v1041h47v-1041h-47z" />
    <glyph glyph-name="zerowidthjoiner" unicode="&#x200d;" horiz-adv-x="0" 
d="M95 560l-72 75v-865h-47v865l-69 -73l-33 33l93 93l-95 95l33 33l95 -95l96 95l32 -32l-96 -96l96 -95z" />
    <glyph glyph-name="endash" unicode="&#x2013;" horiz-adv-x="677" 
d="M76 405h526v-77h-526v77z" />
    <glyph glyph-name="emdash" unicode="&#x2014;" horiz-adv-x="885" 
d="M76 405h733v-77h-733v77z" />
    <glyph glyph-name="quoteleft" unicode="&#x2018;" horiz-adv-x="219" 
d="M187 698l-59 -227h-101l96 227h64z" />
    <glyph glyph-name="quoteright" unicode="&#x2019;" horiz-adv-x="219" 
d="M32 470l59 227h101l-96 -227h-64z" />
    <glyph glyph-name="quotesinglbase" unicode="&#x201a;" horiz-adv-x="186" 
d="M71 126h100l-112 -269h-61z" />
    <glyph glyph-name="quotedblleft" unicode="&#x201c;" horiz-adv-x="386" 
d="M187 698l-59 -227h-101l96 227h64zM350 698l-59 -227h-101l96 227h64z" />
    <glyph glyph-name="quotedblright" unicode="&#x201d;" horiz-adv-x="391" 
d="M204 470l59 227h101l-96 -227h-64zM41 470l59 227h101l-96 -227h-64z" />
    <glyph glyph-name="quotedblbase" unicode="&#x201e;" horiz-adv-x="395" 
d="M71 126h100l-112 -269h-61zM269 126h100l-112 -269h-61z" />
    <glyph glyph-name="dagger" unicode="&#x2020;" horiz-adv-x="546" 
d="M502 548v-72l-193 8l9 -744h-90l9 744l-193 -8v72l193 -8l-9 241h90l-9 -241z" />
    <glyph glyph-name="daggerdbl" unicode="&#x2021;" horiz-adv-x="547" 
d="M502 476l-193 8v-447l193 9v-73l-193 8l9 -241h-90l9 241l-192 -8v73l192 -9v447l-192 -8v72l192 -8l-9 241h90l-9 -241l193 8v-72z" />
    <glyph glyph-name="bullet" unicode="&#x2022;" horiz-adv-x="412" 
d="M205 211q-26 0 -48 9.5t-38.5 26t-26 38.5t-9.5 48t9.5 48.5t26 39t38.5 26t48 9.5t48.5 -9.5t39.5 -26t26.5 -39t9.5 -48.5t-9.5 -48t-26.5 -38.5t-39.5 -26t-48.5 -9.5z" />
    <glyph glyph-name="ellipsis" unicode="&#x2026;" horiz-adv-x="581" 
d="M353 56q0 -26 -17.5 -44t-42.5 -18q-26 0 -44 18t-18 44t18 44t44 18q25 0 42.5 -18t17.5 -44zM541 56q0 -26 -17.5 -44t-42.5 -18q-26 0 -44 18t-18 44t18 44t44 18q25 0 42.5 -18t17.5 -44zM166 56q0 -26 -17.5 -44t-42.5 -18q-26 0 -44 18t-18 44t18 44t44 18
q25 0 42.5 -18t17.5 -44z" />
    <glyph glyph-name="perthousand" unicode="&#x2030;" horiz-adv-x="1005" 
d="M41 560q0 69 41.5 108t104.5 39t104.5 -39t41.5 -108q0 -34 -11 -61.5t-30.5 -46.5t-46.5 -29.5t-58 -10.5q-32 0 -58.5 10.5t-46 29.5t-30.5 46.5t-11 61.5zM187 651q-34 0 -54 -23t-20 -68t20 -68t54 -23q33 0 53 23t20 68t-20 68t-53 23zM494 698h90l-404 -698h-90z
M343 138q0 69 41.5 108.5t104.5 39.5q31 0 57.5 -10t46 -29.5t30.5 -47t11 -61.5t-11 -61.5t-30.5 -46.5t-46 -29.5t-57.5 -10.5q-32 0 -58.5 10.5t-46 29.5t-30.5 46.5t-11 61.5zM488 229q-33 0 -53.5 -22.5t-20.5 -68.5q0 -45 20.5 -67.5t53.5 -22.5t53.5 22.5t20.5 67.5
q0 46 -20.5 68.5t-53.5 22.5zM672 138q0 34 11.5 61.5t31 47t46 29.5t57.5 10q63 0 104.5 -39.5t41.5 -108.5q0 -34 -11 -61.5t-30.5 -46.5t-46.5 -29.5t-58 -10.5t-57.5 10.5t-46 29.5t-31 46.5t-11.5 61.5zM818 229q-34 0 -53.5 -22.5t-19.5 -68.5q0 -45 19.5 -67.5
t53.5 -22.5q33 0 53.5 22.5t20.5 67.5q0 46 -20.5 68.5t-53.5 22.5z" />
    <glyph glyph-name="guilsinglleft" unicode="&#x2039;" horiz-adv-x="280" 
d="M230 120h-89l-96 175l96 175h89l-99 -175z" />
    <glyph glyph-name="guilsinglright" unicode="&#x203a;" horiz-adv-x="280" 
d="M50 120l99 175l-99 175h89l96 -175l-96 -175h-89z" />
    <glyph glyph-name="fraction" unicode="&#x2044;" horiz-adv-x="494" 
d="M414 698h91l-405 -698h-91z" />
    <glyph glyph-name="rupee" unicode="&#x20a8;" horiz-adv-x="1109" 
d="M450 492q0 61 -35 97t-113 36h-134v-265h134q78 0 113 36t35 96zM302 697q61 0 106.5 -16t75.5 -44t44.5 -65t14.5 -80q0 -35 -10 -67.5t-32 -59.5t-56.5 -46t-82.5 -27l191 -292h-111l-184 288h-90v-288h-91v697h225zM612 396q0 33 14 62.5t40 51.5t64 34.5t86 12.5
q89 0 144 -46.5t60 -127.5h-93q-4 45 -32 73t-85 28q-54 0 -81.5 -24t-27.5 -61q0 -35 24 -53t60.5 -28.5t78.5 -19t78.5 -24.5t60.5 -45t24 -81q0 -35 -15 -63.5t-41.5 -49.5t-63.5 -32.5t-81 -11.5q-94 0 -152 45t-65 130h94q4 -45 35 -73.5t88 -28.5q54 0 82.5 24
t28.5 62q0 36 -24 54t-60 28.5t-78.5 19t-78.5 24t-60 43t-24 77.5z" />
    <glyph glyph-name="Euro" unicode="&#x20ac;" horiz-adv-x="811" 
d="M105 349q0 25 3 49h-83v63h96q16 55 48 100.5t75.5 77.5t97 49.5t112.5 17.5q56 0 106 -14t91.5 -41t73 -66t50.5 -90h-108q-29 61 -82 94.5t-131 33.5q-85 0 -147 -42t-89 -120h236v-63h-252q-3 -24 -3 -49q0 -14 1 -27.5t3 -24.5h251v-64h-235q29 -75 91.5 -116
t143.5 -41q78 0 131 33.5t82 93.5h108q-19 -50 -50.5 -89t-73 -65.5t-91.5 -40.5t-106 -14q-59 0 -112 17t-96 48t-75 75.5t-49 98.5h-97v64h83q-3 25 -3 52z" />
    <glyph glyph-name="indianrupee" unicode="&#x20b9;" horiz-adv-x="635" 
d="M51 698h544v-67h-129v-91v-17h129v-66h-134q-7 -51 -25.5 -85.5t-51.5 -56t-83 -30.5t-120 -9v-79q0 -30 6 -54.5t20 -42.5t36.5 -28t55.5 -10q63 0 89.5 35t26.5 95h84q-1 -103 -52.5 -152.5t-148.5 -49.5q-102 0 -152 55t-50 154v141q79 0 130.5 3.5t83 15.5t46.5 35.5
t20 62.5h-325v66h329v18v90h-329v67z" />
    <glyph glyph-name="uni20BA" unicode="&#x20ba;" horiz-adv-x="830" 
d="M281 498l177 44v-66l-177 -43v-100l173 42v-66l-173 -42v-192q20 -5 39 -6t38 -1q73 0 124.5 23t84 67.5t47.5 109.5t15 149h93q0 -108 -20.5 -189.5t-65 -136t-113.5 -82t-165 -27.5q-79 0 -171 22v240l-160 -39v66l160 39v100l-163 -39v63l163 41v227h94v-204z" />
    <glyph glyph-name="uni20BD" unicode="&#x20bd;" horiz-adv-x="624" 
d="M213 363h134q78 0 113 35t35 95q0 61 -35 96.5t-113 35.5h-134v-262zM36 363h86v334h225q61 0 106.5 -16t75.5 -43.5t44.5 -64.5t14.5 -80q0 -40 -13.5 -76.5t-42.5 -64.5t-75 -44.5t-110 -16.5h-134v-96h218v-73h-218v-122h-91v122h-86v73h86v96h-86v72z" />
    <glyph glyph-name="uni2113" unicode="&#x2113;" horiz-adv-x="246" 
d="M77 740h91v-740h-91v740z" />
    <glyph glyph-name="trademark" unicode="&#x2122;" horiz-adv-x="781" 
d="M25 704h242v-56h-85v-296h-72l1 296h-86v56zM323 704h93l109 -267l112 267h88v-352h-67l-1 255l-109 -255h-51l-108 259v-259h-66v352z" />
    <glyph glyph-name="uni2126" unicode="&#x2126;" horiz-adv-x="787" 
d="M41 350q0 78 27.5 143.5t75 113t111.5 73.5t138 26t138.5 -26t112 -73.5t75 -113t27.5 -143.5q0 -88 -37 -161.5t-109 -116.5h133v-72h-274v75q42 11 78 34.5t62 58t40.5 79t14.5 97.5q0 64 -20 115.5t-55 88t-83 56t-103 19.5q-56 0 -104 -20t-82.5 -56.5t-54 -88
t-19.5 -114.5q0 -53 14.5 -97.5t40.5 -79t62 -58t78 -34.5v-75h-275v72h133q-72 43 -108.5 116.5t-36.5 161.5z" />
    <glyph glyph-name="estimated" unicode="&#x212e;" horiz-adv-x="761" 
d="M685 137q-63 -67 -135.5 -105.5t-160.5 -38.5q-73 0 -135.5 22.5t-108.5 65.5t-72 106t-26 144q0 77 22 144.5t64.5 117.5t104.5 78.5t142 28.5q81 0 143 -27t104.5 -72t64.5 -103.5t22 -121.5v-61h-532v-168q38 -46 86.5 -69.5t120.5 -23.5q76 0 136 33.5t120 93.5z
M570 379v176q-32 42 -79.5 63.5t-110.5 21.5t-113 -22.5t-85 -73.5v-165h388z" />
    <glyph glyph-name="partialdiff" unicode="&#x2202;" horiz-adv-x="572" 
d="M429 324q0 79 -31.5 118t-85.5 39q-39 0 -72 -20t-57 -54.5t-37.5 -82t-13.5 -101.5q0 -81 32 -118t81 -37q40 0 74 21t58.5 56t38 81.5t13.5 97.5zM39 223q0 66 20 126.5t56 107t85.5 74t108.5 27.5q45 0 78 -19.5t51 -70.5q-2 46 -11 86t-27 69t-46.5 45.5t-68.5 16.5
q-37 0 -80 -12v53q25 8 47.5 11t45.5 3q112 0 173 -86t61 -242q0 -98 -23 -176t-63.5 -132.5t-94.5 -84t-116 -29.5q-41 0 -76.5 14t-62 43t-42 72.5t-15.5 103.5z" />
    <glyph glyph-name="uni2206" unicode="&#x2206;" horiz-adv-x="680" 
d="M302 693h76l282 -622v-71h-640v71zM340 589l-227 -518h454z" />
    <glyph glyph-name="product" unicode="&#x220f;" horiz-adv-x="739" 
d="M39 698h660v-72h-79v-626h-90v626h-321v-626h-91v626h-79v72z" />
    <glyph glyph-name="summation" unicode="&#x2211;" horiz-adv-x="457" 
d="M40 693h389v-71h-312l266 -269v-71l-267 -274h313v-71h-389v106l260 272l-260 273v105z" />
    <glyph glyph-name="minus" unicode="&#x2212;" horiz-adv-x="551" 
d="M76 405h399v-77h-399v77z" />
    <glyph glyph-name="uni2215" unicode="&#x2215;" horiz-adv-x="476" 
d="M326 942h91l-274 -1112h-90z" />
    <glyph glyph-name="uni2219" unicode="&#x2219;" horiz-adv-x="212" 
d="M169 341q0 -26 -17.5 -44t-42.5 -18q-26 0 -44 18t-18 44t18 44t44 18q25 0 42.5 -18t17.5 -44z" />
    <glyph glyph-name="radical" unicode="&#x221a;" horiz-adv-x="788" 
d="M237 -44l-125 220l-65 -38l-28 47l143 84l114 -202l431 802h67l-492 -913h-45z" />
    <glyph glyph-name="infinity" unicode="&#x221e;" horiz-adv-x="696" 
d="M505 265q37 0 59.5 22t22.5 61t-22 60t-59 21q-35 0 -67 -22.5t-52 -58.5q26 -34 53.5 -58.5t64.5 -24.5zM190 266q35 0 65.5 21.5t51.5 56.5q-28 34 -54.5 60t-61.5 26q-37 0 -59.5 -22t-22.5 -61t22 -60t59 -21zM33 347q0 35 12 63t33 47t49 29t60 10q28 0 51 -8.5
t43 -22t37 -32t32 -37.5q24 42 65 71.5t98 28.5q31 0 59 -10t48 -29t32 -46.5t12 -62.5t-12.5 -63t-33.5 -47t-49.5 -29t-59.5 -10q-28 0 -51 8t-43 21.5t-37 31t-33 36.5q-25 -42 -66 -70t-96 -27q-32 0 -59.5 10t-47.5 29t-31.5 46.5t-11.5 62.5z" />
    <glyph glyph-name="integral" unicode="&#x222b;" horiz-adv-x="261" 
d="M135 779q8 75 46 107t105 32h22l-8 -76h-17q-26 0 -39.5 -14t-17.5 -49l-92 -836q-8 -75 -44.5 -107.5t-105.5 -32.5h-23l7 75h20q26 0 38.5 14.5t16.5 50.5z" />
    <glyph glyph-name="approxequal" unicode="&#x2248;" horiz-adv-x="519" 
d="M37 201q14 75 50 110.5t91 35.5q28 0 50 -10.5t41.5 -22.5t38 -22.5t39.5 -10.5q26 0 44 17t23 48h68q-13 -76 -49 -111t-93 -35q-28 0 -49.5 10.5t-40.5 22.5t-37.5 22.5t-40.5 10.5q-26 0 -44.5 -17.5t-23.5 -47.5h-67zM37 412q14 75 50 110.5t91 35.5q28 0 50 -10.5
t41.5 -22.5t38 -22.5t39.5 -10.5q26 0 44 17t23 48h68q-13 -76 -49 -111t-93 -35q-28 0 -49.5 10.5t-40.5 22.5t-37.5 22.5t-40.5 10.5q-26 0 -44.5 -17.5t-23.5 -47.5h-67z" />
    <glyph glyph-name="notequal" unicode="&#x2260;" horiz-adv-x="706" 
d="M202 220h-101v77h167l117 138h-284v77h350l84 98h70l-84 -98h100v-77h-166l-118 -138h284v-77h-350l-84 -98h-69z" />
    <glyph glyph-name="lessequal" unicode="&#x2264;" horiz-adv-x="511" 
d="M79 155h355v-69h-355v69zM316 212l-242 191l242 192h120l-240 -191l240 -192h-120z" />
    <glyph glyph-name="greaterequal" unicode="&#x2265;" horiz-adv-x="511" 
d="M75 212l239 192l-239 191h120l242 -192l-242 -191h-120zM432 155v-69h-355v69h355z" />
    <glyph glyph-name="lozenge" unicode="&#x25ca;" horiz-adv-x="554" 
d="M278 591l240 -241l-241 -242l-241 242zM278 493l-143 -143l142 -144l143 144z" />
    <glyph glyph-name="dottedcircle" unicode="&#x25cc;" horiz-adv-x="651" 
d="M557 409q0 -19 -12 -30.5t-31 -11.5t-31 11.5t-12 30.5t12 30.5t31 11.5t31 -11.5t12 -30.5zM181 123q0 -19 -12 -30.5t-31 -11.5t-31 11.5t-12 30.5t12 30.5t31 11.5t31 -11.5t12 -30.5zM279 47q0 -19 -12 -30.5t-31 -11.5t-31 11.5t-12 30.5t12 30.5t31 11.5t31 -11.5
t12 -30.5zM136 236q0 -19 -12 -30.5t-31 -11.5t-31 11.5t-12 30.5t12 30.5t31 11.5t31 -11.5t12 -30.5zM403 33q0 -19 -12 -30.5t-31 -11.5t-31 11.5t-12 30.5t12 30.5t31 11.5t31 -11.5t12 -30.5zM151 357q0 -19 -12 -30.5t-31 -11.5t-31 11.5t-12 30.5t12 30.5t31 11.5
t31 -11.5t12 -30.5zM518 79q0 -19 -12 -30.5t-31 -11.5t-31 11.5t-12 30.5t12 30.5t31 11.5t31 -11.5t12 -30.5zM227 456q0 -19 -12 -30.5t-31 -11.5t-31 11.5t-12 30.5t12 30.5t31 11.5t31 -11.5t12 -30.5zM591 175q0 -19 -12 -30.5t-31 -11.5t-31 11.5t-12 30.5t12 30.5
t31 11.5t31 -11.5t12 -30.5zM344 498q0 -19 -12 -30.5t-31 -11.5t-31 11.5t-12 30.5t12 30.5t31 11.5t31 -11.5t12 -30.5zM601 295q0 -19 -12 -30.5t-31 -11.5t-31 11.5t-12 30.5t12 30.5t31 11.5t31 -11.5t12 -30.5zM465 483q0 -19 -12 -30.5t-31 -11.5t-31 11.5t-12 30.5
t12 30.5t31 11.5t31 -11.5t12 -30.5z" />
    <glyph glyph-name="fi" unicode="&#xfb01;" horiz-adv-x="571" 
d="M94 473h-70v75h70v39q0 93 47 135t153 42v-76q-62 0 -85.5 -23.5t-23.5 -77.5v-39h311v-548h-91v473h-220v-473h-91v473zM451 637q-28 0 -46.5 18.5t-18.5 46.5t18.5 46.5t46.5 18.5q26 0 44.5 -18.5t18.5 -46.5t-18.5 -46.5t-44.5 -18.5z" />
    <glyph glyph-name="fl" unicode="&#xfb02;" horiz-adv-x="574" 
d="M94 473h-71v75h71v39q0 93 47 135t153 42v-76q-62 0 -85.5 -23.5t-23.5 -77.5v-39h115v-75h-115v-473h-91v473zM406 740h91v-740h-91v740z" />
    <glyph glyph-name="NULL" horiz-adv-x="0" 
 />
    <glyph glyph-name="exclam.ss01" horiz-adv-x="273" 
d="M88 699h97l-11 -502h-75zM82 112h109v-112h-109v112z" />
    <glyph glyph-name="comma.ss01" horiz-adv-x="187" 
d="M134 94q6 -26 9.5 -49.5t3.5 -43.5q0 -66 -28.5 -96t-82.5 -30v46q51 0 51 62v19h-54v92h101z" />
    <glyph glyph-name="period.ss01" horiz-adv-x="205" 
d="M48 112h109v-112h-109v112z" />
    <glyph glyph-name="colon.ss01" horiz-adv-x="238" 
d="M60 112h110v-112h-110v112zM60 539h110v-111h-110v111z" />
    </font>
</defs>
</svg>
