<svg width="20" height="20" viewBox="0 0 20 20" fill="none" xmlns="http://www.w3.org/2000/svg">
<g clip-path="url(#clip0_265_17696)">
<path d="M14.0617 6.92821C13.9749 6.70347 13.8421 6.49939 13.6716 6.32913C13.5012 6.15887 13.297 6.0262 13.0721 5.93966C12.7626 5.825 12.4356 5.7644 12.1055 5.7605C11.5565 5.7355 11.3919 5.72925 10.0013 5.72925C8.61068 5.72925 8.44609 5.7355 7.89714 5.7605C7.56668 5.76428 7.23933 5.82489 6.92943 5.93966C6.70469 6.02644 6.50061 6.15932 6.33035 6.32976C6.16009 6.5002 6.02742 6.70442 5.94089 6.92925C5.82622 7.23883 5.76562 7.56581 5.76172 7.89591C5.73672 8.44487 5.73047 8.60946 5.73047 10.0001C5.73047 11.3907 5.73672 11.5553 5.76172 12.1042C5.7655 12.4347 5.82611 12.7621 5.94089 13.072C6.02766 13.2967 6.16055 13.5008 6.33098 13.671C6.50142 13.8413 6.70564 13.974 6.93047 14.0605C7.24005 14.1752 7.56703 14.2358 7.89714 14.2397C8.44609 14.2647 8.61068 14.2709 10.0013 14.2709C11.3919 14.2709 11.5565 14.2647 12.1055 14.2397C12.4359 14.2359 12.7633 14.1753 13.0732 14.0605C13.2979 13.9737 13.502 13.8408 13.6723 13.6704C13.8425 13.5 13.9752 13.2957 14.0617 13.0709C14.1764 12.7613 14.237 12.4344 14.2409 12.1042C14.2659 11.5553 14.2721 11.3907 14.2721 10.0001C14.2721 8.60946 14.2659 8.44487 14.2409 7.89591C14.2371 7.56546 14.1765 7.23811 14.0617 6.92821ZM10.0013 12.6751C9.47224 12.6751 8.95505 12.5182 8.51515 12.2243C8.07525 11.9303 7.73239 11.5126 7.52992 11.0238C7.32746 10.535 7.27449 9.99711 7.3777 9.47821C7.48092 8.95932 7.73569 8.48268 8.10979 8.10857C8.4839 7.73447 8.96054 7.4797 9.47944 7.37648C9.99833 7.27327 10.5362 7.32624 11.025 7.5287C11.5138 7.73117 11.9316 8.07403 12.2255 8.51393C12.5194 8.95383 12.6763 9.47102 12.6763 10.0001C12.6763 10.7095 12.3945 11.3899 11.8928 11.8916C11.3912 12.3933 10.7108 12.6751 10.0013 12.6751ZM12.7815 7.84487C12.6579 7.84487 12.5371 7.80822 12.4343 7.73954C12.3315 7.67087 12.2514 7.57325 12.2041 7.45905C12.1568 7.34485 12.1444 7.21918 12.1685 7.09794C12.1926 6.9767 12.2522 6.86534 12.3396 6.77793C12.427 6.69052 12.5383 6.631 12.6596 6.60688C12.7808 6.58277 12.9065 6.59514 13.0207 6.64245C13.1349 6.68975 13.2325 6.76986 13.3012 6.87264C13.3699 6.97542 13.4065 7.09626 13.4065 7.21987C13.4065 7.38563 13.3407 7.5446 13.2235 7.66182C13.1062 7.77903 12.9473 7.84487 12.7815 7.84487Z" fill="#BABABA"/>
<path d="M9.99818 11.7363C10.9572 11.7363 11.7346 10.9589 11.7346 9.99989C11.7346 9.04087 10.9572 8.26343 9.99818 8.26343C9.03916 8.26343 8.26172 9.04087 8.26172 9.99989C8.26172 10.9589 9.03916 11.7363 9.99818 11.7363Z" fill="#BABABA"/>
<path d="M10 0C8.02219 0 6.08879 0.58649 4.4443 1.6853C2.79981 2.78412 1.51809 4.3459 0.761209 6.17317C0.00433282 8.00043 -0.1937 10.0111 0.192152 11.9509C0.578004 13.8907 1.53041 15.6725 2.92894 17.0711C4.32746 18.4696 6.10929 19.422 8.0491 19.8079C9.98891 20.1937 11.9996 19.9957 13.8268 19.2388C15.6541 18.4819 17.2159 17.2002 18.3147 15.5557C19.4135 13.9112 20 11.9778 20 10C20 8.68678 19.7413 7.38642 19.2388 6.17317C18.7363 4.95991 17.9997 3.85752 17.0711 2.92893C16.1425 2.00035 15.0401 1.26375 13.8268 0.761205C12.6136 0.258658 11.3132 0 10 0ZM15.1771 12.1479C15.1682 12.5798 15.0861 13.007 14.9344 13.4115C14.8006 13.7574 14.596 14.0715 14.3338 14.3338C14.0715 14.596 13.7574 14.8006 13.4115 14.9344C13.007 15.0861 12.5798 15.1681 12.1479 15.1771C11.5917 15.2021 11.4146 15.2083 10 15.2083C8.58542 15.2083 8.40834 15.2021 7.85209 15.1771C7.42022 15.1681 6.99299 15.0861 6.58855 14.9344C6.24263 14.8006 5.92848 14.596 5.66623 14.3338C5.40397 14.0715 5.1994 13.7574 5.06563 13.4115C4.91392 13.007 4.83186 12.5798 4.82292 12.1479C4.79792 11.5917 4.79167 11.4146 4.79167 10C4.79167 8.58542 4.79792 8.40833 4.82292 7.85208C4.83186 7.42022 4.91392 6.99298 5.06563 6.58854C5.1994 6.24263 5.40397 5.92848 5.66623 5.66622C5.92848 5.40397 6.24263 5.1994 6.58855 5.06562C6.99299 4.91392 7.42022 4.83185 7.85209 4.82292C8.40834 4.79792 8.58542 4.79167 10 4.79167C11.4146 4.79167 11.5917 4.79792 12.1479 4.82292C12.5798 4.83185 13.007 4.91392 13.4115 5.06562C13.7574 5.1994 14.0715 5.40397 14.3338 5.66622C14.596 5.92848 14.8006 6.24263 14.9344 6.58854C15.0861 6.99298 15.1682 7.42022 15.1771 7.85208C15.2021 8.40833 15.2083 8.58542 15.2083 10C15.2083 11.4146 15.2021 11.5917 15.1771 12.1479Z" fill="#BABABA"/>
</g>
<defs>
<clipPath id="clip0_265_17696">
<rect width="20" height="20" fill="white"/>
</clipPath>
</defs>
</svg>
