<svg width="20" height="20" viewBox="0 0 20 20" fill="none" xmlns="http://www.w3.org/2000/svg">
<path d="M10 0C4.4775 0 0 4.47688 0 10C0 15.5225 4.4775 20 10 20C15.5225 20 20 15.5225 20 10C20 4.47688 15.5225 0 10 0ZM7.4025 13.9231H5.3625V7.78562H7.4025V13.9231ZM6.3825 6.9475H6.36938C5.68437 6.9475 5.24188 6.47562 5.24188 5.88687C5.24188 5.285 5.69812 4.82688 6.39563 4.82688C7.09312 4.82688 7.52312 5.285 7.53625 5.88687C7.53625 6.47625 7.09312 6.9475 6.3825 6.9475ZM14.7581 13.9231H12.7181V10.6394C12.7181 9.81438 12.4231 9.25187 11.6844 9.25187C11.1213 9.25187 10.7856 9.63125 10.6381 9.99813C10.5844 10.1294 10.5706 10.3125 10.5706 10.4956V13.9231H8.53125C8.53125 13.9231 8.55812 8.36187 8.53125 7.78562H10.5712V8.655C10.8419 8.23687 11.3269 7.64125 12.41 7.64125C13.7519 7.64125 14.7581 8.51875 14.7581 10.4037V13.9231Z" fill="#BABABA"/>
</svg>
