<svg width="20" height="20" viewBox="0 0 20 20" fill="none" xmlns="http://www.w3.org/2000/svg">
<path fill-rule="evenodd" clip-rule="evenodd" d="M0 10C0 4.47688 4.47688 0 10 0C15.5231 0 20 4.47688 20 10C20 15.5225 15.5231 20 10 20C4.47688 20 0 15.5225 0 10ZM9.84061 7.86872C9.76936 6.84809 10.3975 5.91559 11.3912 5.55372C11.7575 5.42497 12.3775 5.40872 12.7837 5.52122C12.9431 5.56934 13.2444 5.73059 13.4594 5.87497L13.8487 6.14122L14.2781 6.00434C14.5169 5.93247 14.835 5.81184 14.9781 5.73122C15.1131 5.65934 15.2325 5.61934 15.2325 5.64309C15.2325 5.77934 14.9381 6.24559 14.6919 6.50309C14.3575 6.86497 14.4531 6.89684 15.1287 6.65559C15.5337 6.51872 15.5425 6.51872 15.4625 6.67184C15.4144 6.75184 15.1681 7.03309 14.9056 7.29059C14.4606 7.73247 14.4369 7.78059 14.4369 8.15059C14.4369 8.72122 14.1669 9.91122 13.8962 10.5618C13.395 11.7843 12.3219 13.0468 11.2481 13.6818C9.73748 14.5737 7.72561 14.7993 6.03186 14.2768C5.46811 14.0993 4.49748 13.6493 4.49748 13.5693C4.49748 13.545 4.79186 13.5131 5.14998 13.505C5.8991 13.4894 6.63216 13.2849 7.28123 12.9106L7.71061 12.6531L7.21748 12.4843C6.51748 12.2431 5.88936 11.6881 5.73061 11.1656C5.68248 10.9962 5.69873 10.9881 6.14373 10.9881L6.60561 10.9812L6.21561 10.7962C5.75436 10.5625 5.33311 10.1693 5.12623 9.76684C4.97498 9.47684 4.78436 8.74559 4.83998 8.68934C4.85561 8.66497 5.02311 8.71309 5.21373 8.77747C5.76186 8.97809 5.83373 8.92997 5.51561 8.59247C4.91936 7.98122 4.73623 7.07247 5.02248 6.21247L5.15686 5.82684L5.68186 6.34934C6.75561 7.40247 8.01998 8.02934 9.46686 8.21434L9.86436 8.26247L9.84061 7.86872Z" fill="#BABABA"/>
</svg>
