<svg width="24" height="24" viewBox="0 0 24 24" fill="none" xmlns="http://www.w3.org/2000/svg">
<path d="M17.4 0.923096C15.3 0.923096 13.3201 1.88898 12 3.4585C10.6798 1.88898 8.7 0.923096 6.6 0.923096C2.87988 0.923096 0 3.82046 0 7.56319C0 12.1507 4.07989 15.8333 10.2598 21.5071L12 23.0769L13.7402 21.5071C19.9201 15.8332 24 12.1506 24 7.56319C24 3.82046 21.1201 0.923096 17.4 0.923096ZM12.7405 19.9187L12.4971 20.1421L12 20.5906L11.5029 20.1422L11.2598 19.919C8.35108 17.2489 5.83898 14.9428 4.17831 12.8809C2.5654 10.8782 1.84615 9.23817 1.84615 7.56319C1.84615 6.24406 2.33204 5.02871 3.21433 4.14111C4.09367 3.25646 5.29604 2.76925 6.6 2.76925C8.10773 2.76925 9.59827 3.47119 10.5871 4.64685L12 6.32661L13.4128 4.64685C14.4017 3.47119 15.8922 2.76925 17.4 2.76925C18.704 2.76925 19.9063 3.25646 20.7857 4.14106C21.668 5.02871 22.1538 6.244 22.1538 7.56319C22.1538 9.23817 21.4346 10.8781 19.8218 12.8807C18.1612 14.9427 15.6492 17.2486 12.7405 19.9187Z" fill="#F89A43"/>
</svg>
