<svg width="16" height="16" viewBox="0 0 16 16" fill="none" xmlns="http://www.w3.org/2000/svg">
<path d="M4 1.33331L2 3.99998V13.3333C2 13.6869 2.14048 14.0261 2.39052 14.2761C2.64057 14.5262 2.97971 14.6666 3.33333 14.6666H12.6667C13.0203 14.6666 13.3594 14.5262 13.6095 14.2761C13.8595 14.0261 14 13.6869 14 13.3333V3.99998L12 1.33331H4Z" stroke="black" stroke-opacity="0.87" stroke-linecap="round" stroke-linejoin="round"/>
<path d="M2 4H14" stroke="black" stroke-opacity="0.87" stroke-linecap="round" stroke-linejoin="round"/>
<path d="M10.6673 6.66669C10.6673 7.37393 10.3864 8.05221 9.88627 8.55231C9.38617 9.0524 8.7079 9.33335 8.00065 9.33335C7.29341 9.33335 6.61513 9.0524 6.11503 8.55231C5.61494 8.05221 5.33398 7.37393 5.33398 6.66669" stroke="black" stroke-opacity="0.87" stroke-linecap="round" stroke-linejoin="round"/>
</svg>
