<svg width="5" height="9" viewBox="0 0 5 9" fill="none" xmlns="http://www.w3.org/2000/svg">
<path d="M4.74464 4.74011L0.589672 8.89507C0.558586 8.9282 0.52104 8.9546 0.479354 8.97264C0.437667 8.99069 0.392724 9 0.347299 9C0.301873 9 0.25693 8.99069 0.215244 8.97264C0.173557 8.9546 0.136011 8.9282 0.104925 8.89507C0.0718027 8.86399 0.0454036 8.82644 0.027357 8.78476C0.00931043 8.74307 0 8.69813 0 8.6527C0 8.60728 0.00931043 8.56233 0.027357 8.52065C0.0454036 8.47896 0.0718027 8.44141 0.104925 8.41033L4.01059 4.49773L0.104925 0.58514C0.040644 0.520859 0.0045311 0.433675 0.0045311 0.342767C0.0045311 0.25186 0.040644 0.164676 0.104925 0.100394C0.169207 0.0361129 0.256391 1.792e-09 0.347299 0C0.438206 -1.792e-09 0.525391 0.0361129 0.589672 0.100394L4.74464 4.25536C4.77776 4.28645 4.80416 4.32399 4.82221 4.36568C4.84025 4.40737 4.84956 4.45231 4.84956 4.49773C4.84956 4.54316 4.84025 4.5881 4.82221 4.62979C4.80416 4.67148 4.77776 4.70902 4.74464 4.74011Z" fill="#999999"/>
</svg>
