<svg width="120" height="120" viewBox="0 0 120 120" fill="none" xmlns="http://www.w3.org/2000/svg">
<path d="M105 50C105 85 60 115 60 115C60 115 15 85 15 50C15 38.0653 19.7411 26.6193 28.1802 18.1802C36.6193 9.74106 48.0653 5 60 5C71.9347 5 83.3807 9.74106 91.8198 18.1802C100.259 26.6193 105 38.0653 105 50Z" stroke="#F89A43" stroke-opacity="0.24" stroke-width="4" stroke-linecap="round" stroke-linejoin="round"/>
<path d="M60 65C68.2843 65 75 58.2843 75 50C75 41.7157 68.2843 35 60 35C51.7157 35 45 41.7157 45 50C45 58.2843 51.7157 65 60 65Z" stroke="#F89A43" stroke-opacity="0.24" stroke-width="4" stroke-linecap="round" stroke-linejoin="round"/>
</svg>
