<svg width="77" height="50" viewBox="0 0 77 50" fill="none" xmlns="http://www.w3.org/2000/svg">
<g clip-path="url(#clip0_304_13579)">
<path fill-rule="evenodd" clip-rule="evenodd" d="M59.4 0H6.6C2.96 0 0 2.983 0 6.667V43.334C0 47.017 2.953 50 6.6 50H49.426C50.126 49.992 51.079 49.646 51.079 48.503C51.079 47.347 50.265 47.021 49.575 47.021H49.425V46.998H6.6C4.777 46.998 3.032 45.176 3.032 43.334V6.667C3.032 4.825 4.777 3.044 6.6 3.044H59.4C61.224 3.044 63 4.824 63 6.667V18C63 18.828 63.538 19.468 64.505 19.468C65.472 19.468 66 18.828 66 18V17.396V6.666C66 2.983 63.047 0 59.4 0ZM58.76 5.76C59.134 6.473 59.11 7.097 58.436 7.493L33.84 21.53C33.417 21.778 32.265 22.453 30.716 21.526L7.465 7.493C6.793 7.097 6.945 6.597 7.319 5.893C7.693 5.189 8.072 4.799 8.745 5.195L32.065 19.4L57.202 5.186C57.874 4.79 58.385 5.046 58.758 5.76H58.76ZM73.095 31.916L73.372 31.994C73.712 32.086 73.872 32.142 73.822 32.162C75.684 32.962 77 34.897 77 37.162V44.632C77 47.599 74.72 50.012 71.92 50.012H57.08C54.28 50.012 52 47.599 52 44.632V37.15C52 34.612 53.67 32.485 55.905 31.92V30.113C55.905 25.087 59.76 21 64.5 21C68.02 21 71.13 23.234 72.444 26.635L72.464 26.685L72.47 26.701C72.8852 27.7916 73.0971 28.949 73.095 30.116V31.916ZM70.48 28.17C70.4698 28.1433 70.4604 28.1163 70.452 28.089C69.622 25.335 67.229 23.485 64.498 23.485C61.051 23.485 58.248 26.459 58.248 30.115V31.77H70.753V30.115C70.753 29.438 70.657 28.785 70.478 28.169H70.479L70.48 28.17ZM74.66 44.62H74.658C74.658 46.216 73.431 47.512 71.921 47.512H57.08C55.573 47.512 54.343 46.212 54.343 44.619V37.149C54.343 35.552 55.57 34.256 57.081 34.256H71.921C73.429 34.256 74.658 35.556 74.658 37.149V44.619L74.66 44.62Z" fill="black" fill-opacity="0.87"/>
<path d="M66 39.5C66 38.6716 65.3284 38 64.5 38C63.6716 38 63 38.6716 63 39.5V42.5C63 43.3284 63.6716 44 64.5 44C65.3284 44 66 43.3284 66 42.5V39.5Z" fill="black" fill-opacity="0.87"/>
</g>
<defs>
<clipPath id="clip0_304_13579">
<rect width="77" height="50" fill="white"/>
</clipPath>
</defs>
</svg>
