<svg width="24" height="24" viewBox="0 0 24 24" fill="none" xmlns="http://www.w3.org/2000/svg">
<path fill-rule="evenodd" clip-rule="evenodd" d="M12 24C18.6274 24 24 18.6274 24 12C24 5.37258 18.6274 0 12 0C5.37258 0 0 5.37258 0 12C0 18.6274 5.37258 24 12 24ZM15.3333 7.54668H14.127C13.1774 7.54668 12.9978 8.00002 12.9978 8.70002V10.2133H15.2563L14.9612 12.5867H12.9978V18.6667H10.6365V12.5867H8.66667V10.2133H10.6365V8.46668C10.6365 6.44002 11.83 5.33335 13.5752 5.33335C14.1624 5.33243 14.7493 5.36358 15.3333 5.42669V7.54668Z" fill="#D1D8DB"/>
</svg>
