<svg width="18" height="18" viewBox="0 0 18 18" fill="none" xmlns="http://www.w3.org/2000/svg">
<path fill-rule="evenodd" clip-rule="evenodd" d="M9 18C13.9706 18 18 13.9706 18 9C18 4.02944 13.9706 0 9 0C4.02944 0 0 4.02944 0 9C0 13.9706 4.02944 18 9 18ZM11.5 5.66001H10.5953C9.88306 5.66001 9.74832 6.00001 9.74832 6.52501V7.66001H11.4423L11.2209 9.44001H9.74832V14H7.97738V9.44001H6.5V7.66001H7.97738V6.35001C7.97738 4.83001 8.87247 4.00001 10.1814 4.00001C10.6218 3.99932 11.062 4.02269 11.5 4.07001V5.66001Z" fill="#333333" fill-opacity="0.6"/>
</svg>
