<svg width="48" height="48" viewBox="0 0 48 48" fill="none" xmlns="http://www.w3.org/2000/svg">
<circle cx="24" cy="24" r="23.5" fill="#F3F7F9" stroke="#DDDDDD"/>
<path d="M34.6673 36V33.3333C34.6673 31.9188 34.1054 30.5623 33.1052 29.5621C32.105 28.5619 30.7485 28 29.334 28H18.6673C17.2528 28 15.8963 28.5619 14.8961 29.5621C13.8959 30.5623 13.334 31.9188 13.334 33.3333V36" stroke="black" stroke-opacity="0.24" stroke-width="2" stroke-linecap="round" stroke-linejoin="round"/>
<path d="M23.9993 22.6667C26.9449 22.6667 29.3327 20.2789 29.3327 17.3333C29.3327 14.3878 26.9449 12 23.9993 12C21.0538 12 18.666 14.3878 18.666 17.3333C18.666 20.2789 21.0538 22.6667 23.9993 22.6667Z" stroke="black" stroke-opacity="0.24" stroke-width="2" stroke-linecap="round" stroke-linejoin="round"/>
</svg>
