<svg width="24" height="24" viewBox="0 0 24 24" fill="none" xmlns="http://www.w3.org/2000/svg">
<path d="M11.9997 0C5.37271 0 0 5.37271 0 11.9997C0 18.6269 5.3725 23.9998 11.9997 23.9998C18.6271 23.9998 24 18.6269 24 11.9997C23.9998 5.37271 18.6271 0 11.9997 0ZM7.02038 5.41213C7.83664 5.41213 8.49873 6.01592 8.49873 6.76081C8.49873 7.50569 7.83664 8.10948 7.02038 8.10948C6.2037 8.10948 5.54202 7.50569 5.54202 6.76081C5.54202 6.01592 6.2037 5.41213 7.02038 5.41213ZM8.50994 16.9475H5.58891V9.32537H8.50994V16.9475ZM18.4358 16.9475H15.5006V12.7562C15.5006 12.2777 15.4118 11.9391 15.2349 11.7403C15.0577 11.542 14.8089 11.4424 14.4887 11.4424C14.1345 11.4424 13.8472 11.5764 13.6272 11.8445C13.4071 12.1126 13.2973 12.5933 13.2973 13.2872V16.9475H10.3761V9.32537H13.0961V10.5668C13.5025 10.0599 13.9142 9.6974 14.3304 9.47953C14.7466 9.26188 15.2535 9.15315 15.8517 9.15315C16.6605 9.15315 17.2931 9.39342 17.7502 9.87438C18.2069 10.3551 18.4356 11.0979 18.4356 12.1028V16.9475H18.4358Z" fill="#D1D8DB"/>
</svg>
