<svg width="57" height="54" viewBox="0 0 57 54" fill="none" xmlns="http://www.w3.org/2000/svg">
<path d="M55.6555 23.3085C56.0277 22.9431 56.2915 22.4802 56.4171 21.9719C56.5427 21.4637 56.5253 20.9301 56.3667 20.4313C56.2081 19.9325 55.9147 19.4881 55.5194 19.1482C55.1241 18.8083 54.6426 18.5862 54.129 18.507L39.6278 16.3678C39.1779 16.3067 38.75 16.1342 38.3824 15.8656C38.0149 15.5971 37.719 15.2409 37.5213 14.8289L31.0034 1.57849C30.7714 1.10468 30.4126 0.705736 29.9675 0.426785C29.5224 0.147834 29.0088 0 28.4847 0C27.9607 0 27.447 0.147834 27.0019 0.426785C26.5568 0.705736 26.198 1.10468 25.9661 1.57849L19.4787 14.8289C19.281 15.2409 18.9851 15.5971 18.6176 15.8656C18.25 16.1342 17.8221 16.3067 17.3722 16.3678L2.87097 18.507C2.35738 18.5862 1.87589 18.8083 1.48059 19.1482C1.0853 19.4881 0.791875 19.9325 0.633295 20.4313C0.474715 20.9301 0.457265 21.4637 0.582907 21.9719C0.708548 22.4802 0.972301 22.9431 1.34452 23.3085L11.8465 33.6349C12.1708 33.9539 12.4137 34.3472 12.5546 34.7813C12.6955 35.2155 12.7301 35.6775 12.6555 36.128L10.1674 50.7019C10.078 51.221 10.1348 51.7548 10.3313 52.243C10.5278 52.7311 10.8562 53.1538 11.2791 53.4632C11.702 53.7726 12.2026 53.9561 12.7238 53.9931C13.245 54.03 13.7661 53.9188 14.2277 53.6721L27.2178 46.793C27.6208 46.5812 28.0685 46.4707 28.5229 46.4707C28.9773 46.4707 29.425 46.5812 29.828 46.793L42.8028 53.6721C43.2625 53.902 43.7762 53.9998 44.2874 53.9548C44.7987 53.9097 45.2877 53.7235 45.7009 53.4167C46.1141 53.1098 46.4354 52.6941 46.6297 52.2152C46.8239 51.7363 46.8836 51.2128 46.8021 50.7019L44.314 36.128C44.2394 35.6775 44.274 35.2155 44.4149 34.7813C44.5558 34.3472 44.7987 33.9539 45.123 33.6349L55.6555 23.3085Z" fill="#F89A43"/>
</svg>
