<svg width="18" height="16" viewBox="0 0 18 16" fill="none" xmlns="http://www.w3.org/2000/svg">
<path d="M8.72161 0.693256C8.82238 0.442315 9.17762 0.442314 9.27839 0.693255L11.2574 5.62152C11.3004 5.72838 11.4006 5.80124 11.5155 5.80903L16.8142 6.16831C17.084 6.1866 17.1937 6.52446 16.9862 6.69784L12.9107 10.1029C12.8223 10.1768 12.784 10.2947 12.8121 10.4064L14.1078 15.5567C14.1738 15.8189 13.8864 16.0277 13.6574 15.8839L9.15951 13.0601C9.06198 12.9989 8.93802 12.9989 8.84049 13.0601L4.34264 15.8839C4.11362 16.0277 3.82622 15.8189 3.89219 15.5567L5.18787 10.4064C5.21596 10.2947 5.17765 10.1768 5.08928 10.1029L1.01379 6.69784C0.806269 6.52446 0.916045 6.1866 1.18584 6.16831L6.48446 5.80903C6.59935 5.80124 6.69964 5.72838 6.74256 5.62152L8.72161 0.693256Z" fill="#F89A43"/>
</svg>
