<svg width="24" height="24" viewBox="0 0 24 24" fill="none" xmlns="http://www.w3.org/2000/svg">
<g clip-path="url(#clip0_114_1865)">
<path fill-rule="evenodd" clip-rule="evenodd" d="M24.0008 11.9999C24.0008 18.6273 18.6282 23.9998 12.0009 23.9998C5.37351 23.9998 0.000976562 18.6273 0.000976562 11.9999C0.000976562 5.37254 5.37351 0 12.0009 0C18.6282 0 24.0008 5.37254 24.0008 11.9999ZM17.7029 9.07512C18.283 9.00625 18.8362 8.85202 19.3504 8.62399C18.966 9.19919 18.4798 9.70423 17.919 10.1085C17.9245 10.2313 17.9273 10.3552 17.9273 10.4794C17.9273 14.2701 15.0421 18.6407 9.76622 18.6407C8.1465 18.6407 6.63844 18.1661 5.36974 17.3519C5.59371 17.3787 5.82259 17.3921 6.05361 17.3921C7.39782 17.3921 8.63443 16.9337 9.61627 16.1643C8.36084 16.141 7.30177 15.3117 6.93685 14.1724C7.11182 14.2057 7.29129 14.2235 7.47654 14.2235C7.73772 14.2235 7.99163 14.1886 8.23207 14.1227C6.92016 13.8594 5.93104 12.7002 5.93104 11.3105C5.93104 11.2985 5.93104 11.2863 5.93126 11.2741C6.31779 11.4895 6.76037 11.6185 7.23033 11.6333C6.46111 11.119 5.95436 10.2407 5.95436 9.24582C5.95436 8.72025 6.09597 8.22719 6.34282 7.80365C7.75762 9.53952 9.87125 10.6814 12.2551 10.8009C12.2059 10.5909 12.1804 10.3721 12.1804 10.1472C12.1804 8.56345 13.4649 7.27893 15.0487 7.27893C15.8742 7.27893 16.6197 7.62717 17.1429 8.18441C17.796 8.05585 18.4101 7.81734 18.9643 7.48856C18.7498 8.15874 18.2952 8.72025 17.7029 9.07512Z" fill="#D1D8DB"/>
</g>
<defs>
<clipPath id="clip0_114_1865">
<rect width="24" height="24" fill="white"/>
</clipPath>
</defs>
</svg>
