<svg width="18" height="18" viewBox="0 0 18 18" fill="none" xmlns="http://www.w3.org/2000/svg">
<g clip-path="url(#clip0_401_8810)">
<path fill-rule="evenodd" clip-rule="evenodd" d="M18.0008 8.99992C18.0008 13.9704 13.9714 17.9998 9.00092 17.9998C4.03041 17.9998 0.00100708 13.9704 0.00100708 8.99992C0.00100708 4.0294 4.03041 0 9.00092 0C13.9714 0 18.0008 4.0294 18.0008 8.99992ZM13.2772 6.80633C13.7123 6.75467 14.1272 6.639 14.5128 6.46798C14.2246 6.89938 13.8599 7.27816 13.4392 7.58138C13.4434 7.67347 13.4455 7.76636 13.4455 7.85957C13.4455 10.7026 11.2816 13.9805 7.32469 13.9805C6.1099 13.9805 4.97885 13.6245 4.02733 13.0139C4.1953 13.034 4.36696 13.0441 4.54023 13.0441C5.54838 13.0441 6.47584 12.7003 7.21222 12.1232C6.27065 12.1057 5.47635 11.4837 5.20265 10.6293C5.33389 10.6543 5.46849 10.6676 5.60742 10.6676C5.80331 10.6676 5.99374 10.6415 6.17407 10.592C5.19014 10.3946 4.4483 9.52517 4.4483 8.48285C4.4483 8.47386 4.4483 8.46472 4.44846 8.45557C4.73836 8.61713 5.0703 8.71387 5.42276 8.72494C4.84585 8.33926 4.46579 7.68053 4.46579 6.93436C4.46579 6.54017 4.57199 6.17038 4.75713 5.85272C5.81823 7.15463 7.40346 8.01102 9.19131 8.1007C9.15442 7.94315 9.13532 7.77903 9.13532 7.61042C9.13532 6.42258 10.0987 5.45918 11.2866 5.45918C11.9057 5.45918 12.4648 5.72037 12.8572 6.13829C13.347 6.04187 13.8076 5.86299 14.2233 5.61641C14.0624 6.11904 13.7214 6.54017 13.2772 6.80633Z" fill="#333333" fill-opacity="0.6"/>
</g>
<defs>
<clipPath id="clip0_401_8810">
<rect width="18" height="18" fill="white"/>
</clipPath>
</defs>
</svg>
