<svg width="100" height="100" viewBox="0 0 100 100" fill="none" xmlns="http://www.w3.org/2000/svg">
<circle cx="50" cy="50" r="50" fill="#F3F7F9"/>
<path d="M71.3327 74V68.6667C71.3327 65.8377 70.2089 63.1246 68.2085 61.1242C66.2081 59.1238 63.495 58 60.666 58H39.3327C36.5037 58 33.7906 59.1238 31.7902 61.1242C29.7898 63.1246 28.666 65.8377 28.666 68.6667V74" stroke="black" stroke-opacity="0.24" stroke-width="3" stroke-linecap="round" stroke-linejoin="round"/>
<path d="M50.0007 47.3333C55.8917 47.3333 60.6673 42.5577 60.6673 36.6667C60.6673 30.7756 55.8917 26 50.0007 26C44.1096 26 39.334 30.7756 39.334 36.6667C39.334 42.5577 44.1096 47.3333 50.0007 47.3333Z" stroke="black" stroke-opacity="0.24" stroke-width="3" stroke-linecap="round" stroke-linejoin="round"/>
</svg>
