<svg width="24" height="24" viewBox="0 0 24 24" fill="none" xmlns="http://www.w3.org/2000/svg">
<path d="M12 0C5.373 0 0 5.373 0 12C0 18.627 5.373 24 12 24C18.627 24 24 18.627 24 12C24 5.3715 18.627 0 12 0ZM19.3725 14.6865C19.2915 15.6855 18.534 16.9605 17.472 17.145C14.0775 17.4075 10.0485 17.376 6.5295 17.145C5.4315 17.007 4.71 15.684 4.629 14.6865C4.458 12.5895 4.458 11.3955 4.629 9.2985C4.71 8.301 5.4495 6.9855 6.5295 6.8655C10.008 6.573 14.0565 6.636 17.472 6.8655C18.696 6.9105 19.2915 8.169 19.3725 9.168C19.542 11.265 19.542 12.5895 19.3725 14.6865ZM10.5 15L15 12L10.5 9V15Z" fill="#333333" fill-opacity="0.6"/>
</svg>
