<svg width="24" height="24" viewBox="0 0 24 24" fill="none" xmlns="http://www.w3.org/2000/svg">
<path fill-rule="evenodd" clip-rule="evenodd" d="M12 24C18.6274 24 24 18.6274 24 12C24 5.37256 18.6274 0 12 0C5.37256 0 0 5.37256 0 12C0 18.6274 5.37256 24 12 24ZM12.3282 10.3555V10.655C12.0013 10.416 11.6156 10.2727 11.2129 10.2402C10.8102 10.2078 10.4064 10.2874 10.0461 10.4705C9.68591 10.6533 9.38342 10.9326 9.17212 11.2769C8.96082 11.6211 8.84888 12.0173 8.84888 12.4214C8.84888 12.8252 8.96082 13.2214 9.17212 13.5657C9.38342 13.9102 9.68591 14.1892 10.0461 14.3721C10.4064 14.5552 10.8102 14.6348 11.2129 14.6023C11.6156 14.5698 12.0013 14.4265 12.3276 14.1882C12.3282 14.2898 12.369 14.3867 12.4409 14.4583C12.5128 14.5298 12.6102 14.5701 12.7117 14.5701H13.226V10.3555H12.3282ZM8.61438 9.13647V9H4.12952V9.95996H7.2406L4.16785 13.7637C4.04834 13.927 3.9895 14.1267 4.00159 14.3289V14.5728H8.22974C8.30481 14.5728 8.37769 14.5508 8.4397 14.5105C8.46179 14.4961 8.48254 14.4795 8.50146 14.4604C8.57361 14.3884 8.61414 14.2908 8.61438 14.1887V13.6746H5.35022L8.23315 10.0583C8.26978 10.011 8.3429 9.92773 8.3833 9.88184L8.3949 9.86865L8.41492 9.8457C8.55811 9.63794 8.6283 9.38843 8.61438 9.13647ZM14.089 14.4761C14.149 14.5361 14.2303 14.5698 14.3152 14.5701H14.9563V9H13.9951V14.25C13.9952 14.3347 14.0291 14.416 14.089 14.4761ZM19.0216 10.5789C18.6593 10.3367 18.2334 10.207 17.7976 10.207C17.2131 10.2068 16.6526 10.4387 16.2391 10.8518C15.8257 11.2649 15.5933 11.8254 15.5929 12.4099C15.5928 12.8457 15.7219 13.2717 15.964 13.634C16.2059 13.9966 16.5499 14.2791 16.9525 14.446C17.3551 14.6128 17.7981 14.6567 18.2256 14.5718C18.6531 14.4868 19.0458 14.2771 19.354 13.9692C19.6622 13.6611 19.8723 13.2686 19.9575 12.8413C20.0427 12.4138 19.9993 11.9707 19.8326 11.5681C19.666 11.1655 19.3838 10.821 19.0216 10.5789ZM11.521 13.6147C11.3679 13.6768 11.2035 13.709 11.0367 13.7087C10.6954 13.7085 10.3683 13.5728 10.1271 13.3313C9.88586 13.0898 9.75037 12.7625 9.75037 12.4214C9.75049 12.1667 9.82605 11.918 9.96753 11.7065C10.1091 11.4949 10.3102 11.3301 10.5453 11.2327C10.7805 11.1355 11.0393 11.1101 11.2889 11.1599C11.5386 11.2095 11.7678 11.3323 11.9476 11.5122C12.1276 11.6924 12.25 11.9216 12.2996 12.1714C12.3491 12.4211 12.3235 12.6797 12.2261 12.9148C12.1285 13.1499 11.9635 13.3508 11.7518 13.4922C11.6788 13.541 11.6014 13.582 11.521 13.6147ZM18.5179 13.4902C18.3047 13.6328 18.0541 13.7087 17.7976 13.7087C17.454 13.707 17.1244 13.5703 16.8813 13.3276C16.6382 13.0847 16.5015 12.7551 16.501 12.4116C16.5011 12.1553 16.5773 11.9045 16.7197 11.6914C16.8623 11.4783 17.0648 11.312 17.3018 11.2141C17.5387 11.116 17.7994 11.0903 18.0509 11.1406C18.3024 11.1907 18.5334 11.3142 18.7147 11.4956C18.896 11.6768 19.0194 11.908 19.0693 12.1594C19.1028 12.3274 19.1024 12.4998 19.0691 12.6663C19.0526 12.7488 19.0281 12.8298 18.9955 12.9084C18.8973 13.1453 18.7311 13.3479 18.5179 13.4902Z" fill="#333333" fill-opacity="0.6"/>
</svg>
