<svg width="24" height="24" viewBox="0 0 24 24" fill="none" xmlns="http://www.w3.org/2000/svg">
<path fill-rule="evenodd" clip-rule="evenodd" d="M12 24C18.6274 24 24 18.6274 24 12C24 5.37258 18.6274 0 12 0C5.37258 0 0 5.37258 0 12C0 18.6274 5.37258 24 12 24ZM12.3282 10.3555V10.6549L12.3276 10.6544C12.0014 10.4161 11.6156 10.2727 11.2128 10.2403C10.8101 10.2078 10.4063 10.2875 10.0461 10.4704C9.68591 10.6534 9.38339 10.9325 9.17208 11.2768C8.96077 11.6212 8.84892 12.0173 8.84892 12.4213C8.84892 12.8253 8.96077 13.2214 9.17208 13.5658C9.38339 13.9101 9.68591 14.1892 10.0461 14.3722C10.4063 14.5551 10.8101 14.6348 11.2128 14.6023C11.6156 14.5699 12.0014 14.4265 12.3276 14.1882C12.3282 14.2897 12.369 14.3868 12.4409 14.4583C12.5129 14.5298 12.6102 14.57 12.7117 14.57H13.226V10.3555H12.3282ZM8.61433 9.13658V9H4.12955V9.96004H7.24055L4.16784 13.7636C4.0483 13.9269 3.98949 14.1268 4.00154 14.3288V14.5728H8.22974C8.33164 14.5728 8.42938 14.5324 8.50148 14.4604C8.57359 14.3884 8.61418 14.2907 8.61433 14.1888V13.6745H5.35018L8.23317 10.0583C8.26842 10.0127 8.33731 9.93421 8.37839 9.88742C8.38459 9.88035 8.39017 9.87401 8.39489 9.86861L8.41489 9.84575C8.55814 9.638 8.62829 9.38854 8.61433 9.13658ZM14.089 14.4761C14.149 14.5361 14.2303 14.5698 14.3152 14.57H14.9563V9H13.9951V14.25C13.9953 14.3348 14.0291 14.4161 14.089 14.4761ZM19.0216 10.5789C18.6593 10.3366 18.2334 10.2071 17.7976 10.2069C17.2131 10.2068 16.6525 10.4388 16.2391 10.8519C15.8257 11.265 15.5932 11.8254 15.5929 12.4099C15.5928 12.8457 15.7219 13.2717 15.9639 13.6341C16.2059 13.9965 16.55 14.2791 16.9526 14.446C17.3551 14.6129 17.7981 14.6567 18.2256 14.5718C18.653 14.4869 19.0457 14.2772 19.354 13.9692C19.6623 13.6611 19.8723 13.2686 19.9575 12.8412C20.0427 12.4139 19.9992 11.9708 19.8326 11.5681C19.6661 11.1654 19.3838 10.8212 19.0216 10.5789ZM11.7518 13.4922C11.5401 13.6335 11.2913 13.7089 11.0367 13.7088C10.6955 13.7085 10.3683 13.5727 10.1271 13.3313C9.88587 13.0899 9.75038 12.7626 9.75038 12.4213C9.75049 12.1668 9.82608 11.918 9.96758 11.7064C10.1091 11.4949 10.3101 11.33 10.5453 11.2327C10.7805 11.1354 11.0393 11.11 11.2889 11.1598C11.5385 11.2096 11.7678 11.3322 11.9477 11.5123C12.1276 11.6923 12.2501 11.9217 12.2996 12.1714C12.3491 12.421 12.3235 12.6798 12.226 12.9149C12.1285 13.15 11.9635 13.3509 11.7518 13.4922ZM18.5179 13.4903C18.3047 13.6328 18.054 13.7088 17.7976 13.7088V13.7071C17.454 13.7069 17.1244 13.5704 16.8813 13.3275C16.6382 13.0847 16.5014 12.7552 16.501 12.4116C16.5011 12.1552 16.5772 11.9045 16.7198 11.6914C16.8623 11.4782 17.0649 11.3121 17.3018 11.2141C17.5387 11.116 17.7994 11.0904 18.0509 11.1405C18.3024 11.1906 18.5334 11.3141 18.7147 11.4955C18.896 11.6769 19.0194 11.9079 19.0694 12.1594C19.1194 12.4109 19.0936 12.6716 18.9955 12.9085C18.8973 13.1454 18.7311 13.3479 18.5179 13.4903Z" fill="#D1D8DB"/>
</svg>
