<svg width="17" height="16" viewBox="0 0 17 16" fill="none" xmlns="http://www.w3.org/2000/svg">
<path d="M16.5 8.04421C16.499 6.50625 16.0601 5.00078 15.2353 3.70596C14.4105 2.41113 13.2343 1.38115 11.846 0.7379C10.4576 0.0946502 8.9152 -0.134942 7.40122 0.0762919C5.88724 0.287526 4.46509 0.930745 3.30306 1.92983C2.14103 2.92892 1.28776 4.24205 0.844225 5.71384C0.400694 7.18562 0.385467 8.75445 0.800345 10.2347C1.21522 11.7149 2.04284 13.0445 3.18526 14.0663C4.32768 15.088 5.73707 15.7591 7.24667 16V10.3652H5.24667V8.04421H7.24667V6.26657C7.24667 4.25415 8.44666 3.1339 10.2733 3.1339C10.872 3.14264 11.4693 3.19645 12.06 3.29489V5.30732H11.0533C10.8813 5.28431 10.7062 5.30068 10.5413 5.35521C10.3764 5.40974 10.2259 5.50102 10.1009 5.62225C9.97595 5.74348 9.87979 5.89152 9.8196 6.05535C9.75942 6.21918 9.73677 6.39457 9.75333 6.56844V8.07776H11.9667L11.6133 10.3988H9.75333V16C11.6352 15.6996 13.3488 14.7332 14.5856 13.2748C15.8224 11.8163 16.5013 9.96149 16.5 8.04421Z" fill="white"/>
</svg>
