<svg width="16" height="16" viewBox="0 0 16 16" fill="none" xmlns="http://www.w3.org/2000/svg">
<g clip-path="url(#clip0_706_4143)">
<path d="M15.9988 8.17737C16.0085 7.6274 15.9506 7.07828 15.8263 6.54187H8.16211V9.51071H12.6609C12.5757 10.0313 12.3839 10.5295 12.0971 10.9756C11.8103 11.4216 11.4344 11.8062 10.992 12.1062L10.9764 12.2057L13.3998 14.0454L13.5676 14.0619C15.1094 12.6663 15.9985 10.6129 15.9985 8.17737" fill="white"/>
<path d="M8.16361 16C10.3676 16 12.218 15.2888 13.5696 14.0622L10.9935 12.1065C10.3043 12.5778 9.37908 12.9067 8.16361 12.9067C7.13132 12.9008 6.12714 12.5764 5.29355 11.9797C4.45995 11.3829 3.83927 10.5441 3.51957 9.58218L3.4239 9.59018L0.904029 11.5013L0.871094 11.591C1.54976 12.9165 2.59128 14.0309 3.8792 14.8095C5.16711 15.5882 6.65065 16.0003 8.16393 16" fill="white"/>
<path d="M3.51919 9.58215C3.34064 9.07292 3.2485 8.53844 3.24646 7.99998C3.24974 7.46241 3.33848 6.92861 3.50947 6.41781L3.50492 6.31176L0.954155 4.36993L0.870719 4.40882C0.29821 5.52275 0 6.75265 0 7.99991C0 9.24716 0.29821 10.4771 0.870719 11.591L3.51919 9.58215Z" fill="white"/>
<path d="M8.16197 3.09331C9.3317 3.07551 10.463 3.50243 11.3184 4.28447L13.6223 2.07998C12.1447 0.721484 10.1879 -0.0239023 8.16197 -2.33236e-05C6.64872 -0.000376164 5.16519 0.411792 3.87727 1.19039C2.58936 1.969 1.54782 3.08334 0.869141 4.40881L3.50883 6.41781C3.83169 5.45605 4.45442 4.61786 5.28925 4.0214C6.12407 3.42495 7.12887 3.10033 8.16197 3.09331Z" fill="white"/>
</g>
<defs>
<clipPath id="clip0_706_4143">
<rect width="16" height="16" fill="white"/>
</clipPath>
</defs>
</svg>
