<svg width="20" height="20" viewBox="0 0 20 20" fill="none" xmlns="http://www.w3.org/2000/svg">
<path d="M18.3312 14.1V16.6C18.3322 16.8321 18.2846 17.0618 18.1917 17.2745C18.0987 17.4871 17.9623 17.678 17.7913 17.8349C17.6203 17.9918 17.4184 18.1112 17.1985 18.1856C16.9787 18.2599 16.7457 18.2876 16.5146 18.2667C13.9503 17.988 11.4871 17.1118 9.32291 15.7083C7.30943 14.4289 5.60236 12.7218 4.32291 10.7083C2.91456 8.53435 2.03811 6.05917 1.76458 3.48334C1.74375 3.2529 1.77114 3.02064 1.84499 2.80136C1.91885 2.58208 2.03755 2.38058 2.19355 2.20969C2.34954 2.0388 2.53941 1.90227 2.75107 1.80878C2.96272 1.71529 3.19153 1.66689 3.42291 1.66668H5.92291C6.32733 1.6627 6.7194 1.80591 7.02604 2.06962C7.33269 2.33333 7.53297 2.69955 7.58958 3.10001C7.6951 3.90006 7.89078 4.68562 8.17291 5.44168C8.28503 5.73995 8.30929 6.0641 8.24283 6.37574C8.17637 6.68738 8.02196 6.97343 7.79791 7.20001L6.73958 8.25834C7.92587 10.3446 9.65329 12.072 11.7396 13.2583L12.7979 12.2C13.0245 11.976 13.3105 11.8215 13.6222 11.7551C13.9338 11.6886 14.258 11.7129 14.5562 11.825C15.3123 12.1071 16.0979 12.3028 16.8979 12.4083C17.3027 12.4655 17.6724 12.6693 17.9367 12.9813C18.201 13.2932 18.3414 13.6913 18.3312 14.1Z" stroke="#F89A43" stroke-linecap="round" stroke-linejoin="round"/>
</svg>
