<svg width="16" height="16" viewBox="0 0 16 16" fill="none" xmlns="http://www.w3.org/2000/svg">
<path d="M10.668 2H0.667969V10.6667H10.668V2Z" stroke="#3996D3" stroke-linecap="round" stroke-linejoin="round"/>
<path d="M10.668 5.33325H13.3346L15.3346 7.33325V10.6666H10.668V5.33325Z" stroke="#3996D3" stroke-linecap="round" stroke-linejoin="round"/>
<path d="M3.66667 14.0001C4.58714 14.0001 5.33333 13.2539 5.33333 12.3334C5.33333 11.4129 4.58714 10.6667 3.66667 10.6667C2.74619 10.6667 2 11.4129 2 12.3334C2 13.2539 2.74619 14.0001 3.66667 14.0001Z" stroke="#3996D3" stroke-linecap="round" stroke-linejoin="round"/>
<path d="M12.3346 14.0001C13.2551 14.0001 14.0013 13.2539 14.0013 12.3334C14.0013 11.4129 13.2551 10.6667 12.3346 10.6667C11.4142 10.6667 10.668 11.4129 10.668 12.3334C10.668 13.2539 11.4142 14.0001 12.3346 14.0001Z" stroke="#3996D3" stroke-linecap="round" stroke-linejoin="round"/>
</svg>
